<?xml version="1.0" encoding="UTF-8"?><svg version="1.1" xmlns="http://www.w3.org/2000/svg" xmlns:xlink="http://www.w3.org/1999/xlink" viewBox="0 0 1500 1500" width="1500" height="1500" x="0px" y="0px">
    
    
    <!-- ITEM 0 -->
    <g>
        <defs>
            <clipPath id="clip-path-id-viewbox-item-0">
                <rect x="0.0" y="0.0" width="311.354" height="443.781"/>
            </clipPath>
        </defs>
        <g transform="translate(207.0 320.0) rotate(0.0 335.0 476.0) scale(2.151891416201494 2.1452022506596724)">
            <g clip-path="url(#clip-path-id-viewbox-item-0)" transform="translate(-0.0 -0.0)">
                
<g>
	<path style="fill:#BDB89B;" d="M26.137,362.395c0.47-2.52,1.08-5.01,1.8-7.46l0.05-0.04c1.19,1.47,2.84,2.55,4.8,3.02   c4.94,1.18,9.95-2.09,11.19-7.3c1.24-5.2-1.76-10.38-6.71-11.55c-0.87-0.21-1.75-0.28-2.6-0.21c1.44-2.62,3.04-5.15,4.78-7.58   c1.03-1.45,2.11-2.85,3.24-4.22l0.22-0.2c19.41,21.49,44.45,37.88,71.99,46.18l-0.16,0.53c-23.76,8.62-49.7,10.64-73.79,3.41   c-5.5-1.65-10.9-3.79-15.91-6.59C25.257,367.705,25.627,365.035,26.137,362.395z"/>
	<path style="fill:#334A5A;" d="M39.097,331.015c-8.01-1.91-17.06,2.85-20.02,10.53c-2.88,7.43,0.31,16.67,7.06,20.85   c-0.51,2.64-0.88,5.31-1.1,7.99c-3.78-2.09-7.33-4.57-10.53-7.47c-7.45-6.76-12.87-16.09-13.64-26.12   c-1.15-14.94,6.24-30.63,19.08-42.43l0.09-0.05c6.24,11.73,13.96,22.68,22.87,32.54l-0.22,0.2c-1.13,1.37-2.21,2.77-3.24,4.22   L39.097,331.015z M23.637,326.195c0.02-1.29-1.16-2.36-2.43-2.58c-1.26-0.22-2.56,0.24-3.68,0.85c-2.76,1.5-4.88,3.93-6.71,6.48   c-1.85,2.59-1.2,6.83,2.54,4.12c2.67-1.94,5.34-3.87,8.01-5.81C22.427,328.485,23.607,327.515,23.637,326.195z"/>
	<path style="fill:#F6B855;" d="M39.447,331.275c-1.74,2.43-3.34,4.96-4.78,7.58c-4,0.24-7.58,3.21-8.6,7.5   c-0.75,3.15,0.06,6.29,1.92,8.54l-0.05,0.04c-0.72,2.45-1.33,4.94-1.8,7.46c-6.75-4.18-9.94-13.42-7.06-20.85   c2.96-7.68,12.01-12.44,20.02-10.53L39.447,331.275z"/>
	<path style="fill:#BDB89B;" d="M293.897,286.675c14.45,10.1,19.33,30.26,15.4,47.47c-3.96,17.35-15.26,32.12-27.67,44.87   c-23.87,24.51-53.24,43.9-85.72,54.64c-11.18,3.69-22.73,6.34-34.41,7.85l-0.01-0.05c-9.07-9.39-9.51-25.92-5.5-37.65   c3.98-11.62,14.76-22,26.23-26.44c38.75-6.31,74.16-28.74,97.17-72C284.867,299.665,289.747,293.385,293.897,286.675z"/>
	<path style="fill:#E64337;" d="M49.637,414.935c-12.92-10.96-23.38-23.62-24.62-44.37c0-0.06,0.01-0.12,0.02-0.18   c5.01,2.8,10.41,4.94,15.91,6.59c24.09,7.23,50.03,5.21,73.79-3.41l0.16-0.53c0.41,0.13,0.82,0.25,1.24,0.37   c2.68,0.79,5.38,1.49,8.1,2.12c-9,7.71-16.37,20.74-17.56,32.53c-1.19,11.8,2.79,25.18,11.14,33.69l-0.01,0.08   c-7.77-0.93-15.46-2.4-23.03-4.43C78.417,432.995,62.557,425.895,49.637,414.935z"/>
	<path style="fill:#E64337;" d="M182.557,377.235c-16.46-1.92-32.41-6.4-47.38-13.02c5.38-2.99,10.54-6.32,15.46-9.96   c7.41-5.49,14.31-11.53,20.71-18.05c23.24,5.72,48.3,4.13,70.42-5.02c14.16-5.85,27-14.77,37.62-25.82   c-23.01,43.26-58.42,65.69-97.17,72C182.327,377.325,182.447,377.275,182.557,377.235z"/>
	<path style="fill:#F46A3D;" d="M116.137,373.405c-0.42-0.12-0.83-0.24-1.24-0.37c-27.54-8.3-52.58-24.69-71.99-46.18   c-8.91-9.86-16.63-20.81-22.87-32.54c-2.07-3.88-3.97-7.85-5.7-11.9c-21.59-50.55-16.5-110.94,10.41-158.88   c19.41-34.57,49.03-62.51,81.54-85.22c15.18-10.61,31.07-20.19,47.53-28.67l0.01,0.02c4.85-2.48,13.2-4.06,17.52-1.7   c2.75,1.5,3.24,5.06,1.57,7.71c-1.05,1.66-3.17,3.15-5.2,4.32c-0.01,0.01-0.02,0.01-0.02,0.01c-7.66,3.88-15.59,8.12-24.28,13.52   c-33.31,22.05-45.05,37.27-63.98,59.72s-34.74,48.07-42.43,76.41c-2.15,7.94-3.62,16.04-4.43,24.19   c-2.33,23.47,0.77,47.47,8.62,69.81c5.23,14.93,12.59,29.13,21.85,41.94c18.35,25.41,43.46,45.94,72.13,58.62   c-6.08,3.39-12.41,6.34-18.92,8.79L116.137,373.405z"/>
	<path style="fill:#BDB89B;" d="M242.337,298.625c1.22-1.71,1.64-4.15,0.49-5.9c-1.47-2.24-4.65-2.45-7.31-2.11   c-5.9,0.75-14.29,3.18-17.74,8.49c-1.09,1.67-1.52,3.91-0.59,5.68c0.88,1.67,2.79,2.6,4.67,2.76c0.26,0.02,0.53,0.03,0.79,0.03   c1.6-0.02,3.21-0.46,4.74-0.96c3.45-1.11,6.8-2.52,10-4.2C239.247,301.445,241.117,300.325,242.337,298.625z M279.387,305.365   c-10.62,11.05-23.46,19.97-37.62,25.82c-22.12,9.15-47.18,10.74-70.42,5.02c20.5-20.84,35.92-46.47,46.72-73.93l0.04-0.35   c5.1,0.55,10.92-0.78,12.66-5.45c0.97-2.61,0.27-5.28-1.32-7.58c-0.51-0.73-1.1-1.42-1.76-2.06c-1.28-1.25-2.81-2.3-4.39-3.06   l0.13-0.27c6.93-19.02,3.94-42.55-9.4-58.23c-13.33-15.67-33.84-23.92-54.31-26.12c-20.46-2.2-42.46,1.25-62.64,5.33l-0.16-0.07   c9.1-20.95,22.69-39.82,38.92-56.06l0.13,0.13c29.84-1.28,60.21,0.95,88.4,10.83s54.16,27.93,69.82,53.37   c16.58,26.93,20.42,61.29,10.41,91.29c-2.65,7.96-6.26,15.58-10.7,22.7C289.747,293.385,284.867,299.665,279.387,305.365z    M274.557,244.465c9.47-18.58,6.54-41.08-5.38-60.66c-13.78-22.61-30.51-32.67-51.14-39.37c-34.43-11.19-54.81-11.96-85.13-7.24   c32.7,0.43,52.55,5.49,69.9,12.45c17.35,6.97,33.37,19.26,40.73,36.45c2.01,4.69,3.32,9.62,4.06,14.66   c1.14,7.8,0.92,15.85-0.22,23.67c-0.78,5.34-1.97,10.72-1.41,16.09c0.57,5.37,3.33,10.91,8.29,13.05   C261.647,256.765,270.897,251.635,274.557,244.465z"/>
	<path style="fill:#82CABE;" d="M269.177,183.805c11.92,19.58,14.85,42.08,5.38,60.66c1.91-4.46,0.88-8.31-1.12-10.32   c-2.01-2.01-4.97-2.85-7.8-2.76c-2.83,0.09-5.57,1.03-8.17,2.16c2.69-1.28,5.31-2.39,7.63-4.26c2.33-1.86,4.25-4.38,4.83-7.3   c0.57-2.93-0.43-6.25-2.89-7.93c-2.89-1.97-7.35-1.41-10.69-0.01c3.27-1.59,5.89-4.61,6.54-8.18c0.69-3.85-1.24-8.18-4.81-9.78   c-3.58-1.61-9.15,0.98-10.48,4.67c-0.74-5.04-2.05-9.97-4.06-14.66c-7.36-17.19-23.38-29.48-40.73-36.45   c-17.35-6.96-37.2-12.02-69.9-12.45c30.32-4.72,50.7-3.95,85.13,7.24C238.667,151.135,255.397,161.195,269.177,183.805z"/>
	<path style="fill:#F6B855;" d="M256.307,214.065c-0.26,0.11-0.51,0.23-0.76,0.35C255.807,214.305,256.057,214.195,256.307,214.065z    M256.347,214.045c3.34-1.4,7.8-1.96,10.69,0.01c2.46,1.68,3.46,5,2.89,7.93c-0.58,2.92-2.5,5.44-4.83,7.3   c-2.32,1.87-4.94,2.98-7.63,4.26c2.6-1.13,5.34-2.07,8.17-2.16c2.83-0.09,5.79,0.75,7.8,2.76c2,2.01,3.03,5.86,1.12,10.32   c-3.66,7.17-12.91,12.3-20.3,9.1c-4.96-2.14-7.72-7.68-8.29-13.05c-0.56-5.37,0.63-10.75,1.41-16.09   c1.14-7.82,1.36-15.87,0.22-23.67c1.33-3.69,6.9-6.28,10.48-4.67c3.57,1.6,5.5,5.93,4.81,9.78   C262.237,209.435,259.617,212.455,256.347,214.045z"/>
	<path style="fill:#334A5A;" d="M214.647,34.985c6.45-2.21,13.02-4.04,19.73-5.34c19.7-3.83,20.18,10.21,11.38,12.84   c-8.25,3.07-16.42,6.34-24.45,9.88l-0.02-0.06c6.02-3.75,6.33-8.54,4.65-11.52c-1.68-2.97-5.09-4.67-8.48-5.05   c-2.82-0.31-7.3,0.91-10.76,2.19C209.327,36.875,211.977,35.895,214.647,34.985z"/>
	<path style="fill:#FFE6E7;" d="M242.827,292.725c1.15,1.75,0.73,4.19-0.49,5.9c-1.22,1.7-3.09,2.82-4.95,3.79   c-3.2,1.68-6.55,3.09-10,4.2c-1.53,0.5-3.14,0.94-4.74,0.96c-0.26,0-0.53-0.01-0.79-0.03c-1.88-0.16-3.79-1.09-4.67-2.76   c-0.93-1.77-0.5-4.01,0.59-5.68c3.45-5.31,11.84-7.74,17.74-8.49C238.177,290.275,241.357,290.485,242.827,292.725z    M235.407,299.155c1.24-0.48,1.94-2.04,1.48-3.29c-0.1-0.11-0.2-0.22-0.29-0.33l0.23,0.19c-0.54-1.22-2.13-1.85-3.35-1.33   c-1.23,0.52-1.88,2.1-1.38,3.33C232.597,298.965,234.167,299.635,235.407,299.155z"/>
	<path d="M236.887,295.865c0.46,1.25-0.24,2.81-1.48,3.29c-1.24,0.48-2.81-0.19-3.31-1.43c-0.5-1.23,0.15-2.81,1.38-3.33   c1.22-0.52,2.81,0.11,3.35,1.33l-0.23-0.19C236.687,295.645,236.787,295.755,236.887,295.865z"/>
	<path style="fill:#FF9B19;" d="M229.447,248.895c1.59,2.3,2.29,4.97,1.32,7.58c-1.74,4.67-7.56,6-12.66,5.45   c-0.52-0.05-1.04-0.13-1.54-0.22c-5.4-1.01-10.94-3.25-16.19-1.66c-4.45,1.35-7.61,5.15-11.09,8.23   c-3.48,3.07-8.33,5.63-12.62,3.85c-5.3-2.21-6.79-9.82-12.19-11.78c-6.99-2.54-13.49,6.31-20.92,5.92   c-7.75-0.42-11.78-10.29-19.28-12.31c-3.16-0.85-6.52-0.17-9.79-0.42c-1.87-0.15-3.31-0.58-4.37-1.24l0.11-0.17   c0.63-6.5,5.86-9.26,10.18-8.23c4.31,1.03,7.71,4.23,11.01,7.19c3.31,2.97,7.03,5.94,11.45,6.3c5.13,0.43,9.78-2.73,14.14-5.47   c4.36-2.74,9.63-5.27,14.48-3.53c5.63,2.03,9.42,9.43,15.32,8.4c3.83-0.66,6.1-4.73,9.62-6.38c3.51-1.66,7.68-0.67,11.26,0.81   c3.59,1.49,7.08,3.46,10.95,3.78c3.86,0.32,9.95-2.26,10.72-6.06L229.447,248.895z"/>
	<path style="fill:#F46A3D;" d="M229.447,248.895l-0.09,0.04c-0.77,3.8-6.86,6.38-10.72,6.06c-3.87-0.32-7.36-2.29-10.95-3.78   c-3.58-1.48-7.75-2.47-11.26-0.81c-3.52,1.65-5.79,5.72-9.62,6.38c-5.9,1.03-9.69-6.37-15.32-8.4c-4.85-1.74-10.12,0.79-14.48,3.53   c-4.36,2.74-9.01,5.9-14.14,5.47c-4.42-0.36-8.14-3.33-11.45-6.3c-3.3-2.96-6.7-6.16-11.01-7.19c-4.32-1.03-9.55,1.73-10.18,8.23   l-0.11,0.17c-1.62-0.98-2.37-2.46-2.47-4.18c0.01,0,0.02,0,0.03,0c3.52-8.57,13.25-11.69,20.64-8.52   c5.24,2.25,9.15,7.36,14.75,8.45c9.95,1.94,19.21-9.67,28.92-6.81c4.68,1.37,8.07,5.89,12.87,6.71c6.07,1.04,11.63-4.2,17.8-4.15   c4.42,0.03,8.29,2.77,12.35,4.53s9.5,2.27,12.28-1.18l0.4-0.31C228.347,247.475,228.937,248.165,229.447,248.895z"/>
	<path style="fill:#F46A3D;" d="M227.687,246.835l-0.4,0.31c-2.78,3.45-8.22,2.94-12.28,1.18s-7.93-4.5-12.35-4.53   c-6.17-0.05-11.73,5.19-17.8,4.15c-4.8-0.82-8.19-5.34-12.87-6.71c-9.71-2.86-18.97,8.75-28.92,6.81c-5.6-1.09-9.51-6.2-14.75-8.45   c-7.39-3.17-17.12-0.05-20.64,8.52c-0.01,0-0.02,0-0.03,0c-0.13-2.32,0.95-5.08,2.73-7.62c3.58-5.11,9.7-8.57,15.99-8.49   c5.03,0.06,10.2,2.07,14.94,0.41c4.22-1.46,7.37-5.64,11.81-6.02c6.57-0.56,11.02,7.29,17.53,8.3c8.32,1.29,15.33-8.98,23.58-7.31   c5.45,1.1,8.47,6.85,12.98,10.09c4.55,3.26,10.45,3.84,15.58,6.07c0.17,0.07,0.34,0.15,0.51,0.23   C224.877,244.535,226.407,245.585,227.687,246.835z"/>
	<path style="fill:#FF564F;" d="M188.717,27.075c-0.02,0.02-0.03,0.05-0.05,0.07c8.86-2.74,15.04-1.1,16.68,2.88   c1.61,3.91,0.86,7.19-5.08,10.48l0.03,0.07c1.9-0.83,3.8-1.62,5.71-2.39c0.22-0.09,0.46-0.18,0.69-0.26   c3.46-1.28,7.94-2.5,10.76-2.19c3.39,0.38,6.8,2.08,8.48,5.05c1.68,2.98,1.37,7.77-4.65,11.52l0.02,0.06   c-16.02,7.03-31.53,15.1-46.24,24.62v0.01c7.7,2.3,15.08,5.67,21.85,10c2.86,1.82,5.93,4.5,5.53,7.87   c-0.33,2.77-3.3,5.44-10.63,5.61c-6.95,0.17-28.85-3.92-41.82-4.95l-0.15-0.02c-4.85,4.08-9.53,8.36-14.01,12.85   c-16.23,16.24-29.82,35.11-38.92,56.06c-1.37,3.17-2.65,6.38-3.81,9.64c-8.96,25.09-11.06,52.98-4.7,78.72   c1.92,7.77,4.61,15.35,8.11,22.59c11.12,22.98,30.19,42.01,53.18,53.08c6.92,3.33,14.19,5.92,21.65,7.76   c-6.4,6.52-13.3,12.56-20.71,18.05c-4.92,3.64-10.08,6.97-15.46,9.96c-28.67-12.68-53.78-33.21-72.13-58.62   c-9.26-12.81-16.62-27.01-21.85-41.94l0.02-0.01c0,0,31.14-10.71,27.94-18.55c-3.15-7.7-21.27-3.13-21.89-2.97   c0.7-0.51,19.62-14.12,17.55-24.21c-2.1-10.28-22.24,2.59-22.24,2.59s19.24-29.85,13.65-42.74s-23.59,16.09-23.59,16.09l-0.06-0.01   c0.81-8.15,2.28-16.25,4.43-24.19c7.69-28.34,23.5-53.96,42.43-76.41s30.67-37.67,63.98-59.72c8.69-5.4,16.62-9.64,24.28-13.52   c0,0,0.01,0,0.02-0.01c2.24-1.13,4.45-2.23,6.66-3.32l0.06,0.13c5.23-2.43,11.5-1.85,13.82,0.74   C190.547,20.105,190.757,24.305,188.717,27.075z"/>
	<path style="fill:#FF736B;" d="M206.007,38.185c-1.91,0.77-3.81,1.56-5.71,2.39l-0.03-0.07c5.94-3.29,6.69-6.57,5.08-10.48   c-1.64-3.98-7.82-5.62-16.68-2.88c0.02-0.02,0.03-0.05,0.05-0.07c3.96-1.7,7.95-3.31,11.98-4.84c1.86-0.7,3.73-1.39,5.6-2.06   c2.92-1.04,5.95-2.05,9.04-1.85c3.1,0.2,6.3,1.89,7.37,4.8c0.96,2.62-0.04,5.67-1.89,7.77c-1.43,1.63-3.92,3.04-6.17,4.09   c-2.67,0.91-5.32,1.89-7.95,2.94C206.467,38.005,206.227,38.095,206.007,38.185z"/>
	<path style="fill:#BDB89B;" d="M218.107,261.925l-0.04,0.35c-10.8,27.46-26.22,53.09-46.72,73.93c-7.46-1.84-14.73-4.43-21.65-7.76   c-22.99-11.07-42.06-30.1-53.18-53.08c-3.5-7.24-6.19-14.82-8.11-22.59l0.13-0.03c5.51-2.9,12.75-4.26,19.11-4.63   c0.1,1.72,0.85,3.2,2.47,4.18c1.06,0.66,2.5,1.09,4.37,1.24c3.27,0.25,6.63-0.43,9.79,0.42c7.5,2.02,11.53,11.89,19.28,12.31   c7.43,0.39,13.93-8.46,20.92-5.92c5.4,1.96,6.89,9.57,12.19,11.78c4.29,1.78,9.14-0.78,12.62-3.85c3.48-3.08,6.64-6.88,11.09-8.23   c5.25-1.59,10.79,0.65,16.19,1.66C217.067,261.795,217.587,261.875,218.107,261.925z"/>
	<path style="fill:#FF736B;" d="M180.817,13.505h0.01c1.17-0.58,2.34-1.16,3.52-1.75c3.55-1.77,7.13-3.76,11.08-4.09   c3.95-0.33,8.35,1.34,10.01,4.93c1.67,3.6-0.09,7.82-4.78,9.54l0.04,0.1c-4.03,1.53-8.02,3.14-11.98,4.84   c2.04-2.77,1.83-6.97-0.46-9.53c-2.32-2.59-8.59-3.17-13.82-0.74l-0.06-0.13C176.527,15.615,178.667,14.565,180.817,13.505z"/>
	<path style="fill:#FF564F;" d="M124.237,375.525c-2.72-0.63-5.42-1.33-8.1-2.12l0.12-0.4c6.51-2.45,12.84-5.4,18.92-8.79   c14.97,6.62,30.92,11.1,47.38,13.02c-0.11,0.04-0.23,0.09-0.34,0.13c-14,2.29-28.43,2.48-42.88,0.78   C134.247,377.545,129.207,376.665,124.237,375.525z"/>
	<path style="fill:#FF736B;" d="M179.697,1.485c5.22,2.44,5.62,9.26,1.13,12.02h-0.01c-2.15,1.06-4.29,2.11-6.44,3.17   c-2.21,1.09-4.42,2.19-6.66,3.32c2.03-1.17,4.15-2.66,5.2-4.32c1.67-2.65,1.18-6.21-1.57-7.71c-4.32-2.36-12.67-0.78-17.52,1.7   l-0.01-0.02c3.9-2,7.83-3.95,11.79-5.83C170.037,1.705,175.657-0.405,179.697,1.485z"/>
	<path style="fill:#F46A3D;" d="M182.217,377.365c-11.47,4.44-22.25,14.82-26.23,26.44c-4.01,11.73-3.57,28.26,5.5,37.65l0.01,0.05   c-9.42,1.24-18.94,1.73-28.42,1.45l0.01-0.31c-16.9-16.37-18.3-44.22,6.25-64.5C153.787,379.845,168.217,379.655,182.217,377.365z"/>
	<path style="fill:#FF9B19;" d="M133.087,442.645l-0.01,0.31c-5.11-0.15-10.2-0.52-15.27-1.13l0.01-0.08   c-8.35-8.51-12.33-21.89-11.14-33.69c1.19-11.79,8.56-24.82,17.56-32.53c4.97,1.14,10.01,2.02,15.1,2.62   C114.787,398.425,116.187,426.275,133.087,442.645z"/>
	<path style="fill:#E64337;" d="M47.267,242.125c0.62-0.16,18.74-4.73,21.89,2.97c3.2,7.84-27.94,18.55-27.94,18.55l-0.02,0.01   c-7.85-22.34-10.95-46.34-8.62-69.81l0.06,0.01c0,0,18-28.98,23.59-16.09s-13.65,42.74-13.65,42.74s20.14-12.87,22.24-2.59   C66.887,228.005,47.967,241.615,47.267,242.125z"/>
	<path style="fill:#CDE8E3;" d="M34.667,338.855c0.85-0.07,1.73,0,2.6,0.21c4.95,1.17,7.95,6.35,6.71,11.55   c-1.24,5.21-6.25,8.48-11.19,7.3c-1.96-0.47-3.61-1.55-4.8-3.02c-1.86-2.25-2.67-5.39-1.92-8.54   C27.087,342.065,30.667,339.095,34.667,338.855z M38.127,347.885c1.17-1.45,1.2-3.36,0.06-4.28c-1.13-0.92-3-0.49-4.18,0.95   c-1.17,1.45-1.2,3.37-0.06,4.29C35.087,349.765,36.957,349.335,38.127,347.885z"/>
	<path d="M38.187,343.605c1.14,0.92,1.11,2.83-0.06,4.28c-1.17,1.45-3.04,1.88-4.18,0.96c-1.14-0.92-1.11-2.84,0.06-4.29   C35.187,343.115,37.057,342.685,38.187,343.605z"/>
	<path style="fill:#2D9759;" d="M21.207,323.615c1.27,0.22,2.45,1.29,2.43,2.58c-0.03,1.32-1.21,2.29-2.27,3.06   c-2.67,1.94-5.34,3.87-8.01,5.81c-3.74,2.71-4.39-1.53-2.54-4.12c1.83-2.55,3.95-4.98,6.71-6.48   C18.647,323.855,19.947,323.395,21.207,323.615z"/>
	<path d="M198.99,340.301c-9.314,0-18.675-1.116-27.823-3.367c-7.569-1.867-14.902-4.496-21.795-7.813   c-23.269-11.204-42.279-30.18-53.53-53.429c-3.454-7.145-6.2-14.794-8.163-22.737c-6.209-25.128-4.531-53.238,4.723-79.152   c1.12-3.149,2.372-6.318,3.827-9.686c8.764-20.176,21.911-39.114,39.078-56.292c4.403-4.413,9.133-8.751,14.058-12.895   c0.317-0.265,0.79-0.227,1.057,0.092c0.267,0.316,0.226,0.79-0.092,1.057c-4.438,3.733-8.716,7.626-12.737,11.59   c33.843-1.302,62.32,2.281,87.023,10.938c30.56,10.711,55.493,29.776,70.21,53.685c16.713,27.146,20.632,61.508,10.483,91.921   c-2.644,7.94-6.269,15.632-10.774,22.858c-4.167,6.737-9.082,13.067-14.606,18.813c-10.789,11.226-23.886,20.214-37.875,25.994   C228.543,337.467,213.827,340.3,198.99,340.301z M136.021,109.233c-16.863,16.952-29.788,35.616-38.416,55.48   c-1.441,3.335-2.682,6.474-3.79,9.592c-9.157,25.642-10.818,53.444-4.679,78.29c1.938,7.842,4.648,15.394,8.056,22.443   c11.104,22.945,29.866,41.673,52.831,52.73c6.8,3.272,14.034,5.865,21.504,7.707c23.413,5.764,48.255,3.992,69.953-4.984   c13.799-5.701,26.72-14.569,37.366-25.646c5.452-5.671,10.302-11.917,14.414-18.565c4.445-7.13,8.02-14.713,10.625-22.542   c10.01-29.997,6.146-63.888-10.337-90.659c-14.536-23.617-39.193-42.459-69.429-53.056   C199.202,111.29,170.385,107.764,136.021,109.233z"/>
	<path d="M175.068,77.735c-0.246,0-0.487-0.121-0.631-0.343c-0.225-0.348-0.125-0.812,0.223-1.037   c14.011-9.067,29.17-17.14,46.345-24.677c7.676-3.384,15.687-6.621,24.49-9.896c0.388-0.144,0.82,0.054,0.965,0.441   c0.145,0.389-0.054,0.82-0.441,0.965c-8.776,3.265-16.761,6.491-24.409,9.863c-17.102,7.505-32.192,15.54-46.135,24.563   C175.349,77.696,175.208,77.735,175.068,77.735z"/>
	<path d="M223.427,244.255c-0.085,0-0.172-0.015-0.257-0.045c-0.389-0.143-0.59-0.572-0.448-0.962   c7.11-19.513,3.387-42.614-9.266-57.486c-12.121-14.249-31.234-23.434-53.819-25.86c-20.77-2.237-43.203,1.436-62.411,5.319   c-0.403,0.078-0.802-0.18-0.884-0.587c-0.082-0.406,0.181-0.802,0.587-0.884c19.32-3.906,41.896-7.592,62.868-5.341   c22.969,2.469,42.431,11.838,54.802,26.38c12.991,15.271,16.822,38.969,9.533,58.973   C224.021,244.066,223.734,244.255,223.427,244.255z"/>
	<path d="M245.757,43.235c-0.323,0-0.621-0.21-0.719-0.535c-0.118-0.396,0.107-0.814,0.504-0.934   c3.409-1.019,5.516-4.104,4.797-7.026c-0.805-3.272-5.431-6.378-15.818-4.358c-6.385,1.236-12.806,2.975-19.63,5.313   c-2.648,0.902-5.312,1.887-7.915,2.926c-0.386,0.157-0.821-0.034-0.975-0.418c-0.154-0.385,0.033-0.821,0.418-0.975   c2.628-1.049,5.315-2.043,7.986-2.953c6.89-2.36,13.376-4.116,19.829-5.366c11.411-2.217,16.553,1.373,17.562,5.474   c0.91,3.698-1.648,7.573-5.824,8.821C245.901,43.225,245.827,43.235,245.757,43.235z"/>
	<path d="M172.078,55.235c-0.268,0-0.526-0.144-0.662-0.396c-0.195-0.365-0.059-0.819,0.307-1.016   c8.23-4.414,18.026-9.522,28.277-13.938c1.774-0.775,3.648-1.56,5.727-2.396c0.384-0.153,0.821,0.031,0.976,0.415   c0.155,0.384-0.031,0.821-0.415,0.976c-2.064,0.832-3.926,1.611-5.69,2.382c-10.203,4.395-19.963,9.484-28.165,13.884   C172.318,55.207,172.197,55.235,172.078,55.235z"/>
	<path d="M156.508,43.905c-0.26,0-0.512-0.135-0.651-0.376c-0.206-0.358-0.083-0.817,0.276-1.024   c10.351-5.961,21.214-11.385,32.289-16.119c3.916-1.682,7.957-3.314,12.01-4.852c1.864-0.702,3.738-1.395,5.612-2.065   c3.127-1.113,6.2-2.097,9.342-1.892c3.1,0.2,6.783,1.913,8.025,5.289c0.978,2.668,0.18,6.014-2.031,8.525   c-1.263,1.438-3.421,2.876-6.415,4.273c-0.67,0.314-1.321,0.599-1.911,0.844c-0.382,0.155-0.821-0.023-0.98-0.406   c-0.158-0.383,0.023-0.821,0.406-0.98c0.57-0.235,1.2-0.512,1.85-0.815c2.806-1.31,4.799-2.623,5.925-3.906   c1.854-2.104,2.54-4.859,1.749-7.018c-1.009-2.742-4.099-4.141-6.715-4.31c-2.854-0.188-5.654,0.71-8.739,1.808   c-1.865,0.669-3.731,1.357-5.587,2.057c-4.03,1.529-8.052,3.153-11.949,4.827c-11.021,4.712-21.832,10.108-32.132,16.041   C156.764,43.873,156.635,43.905,156.508,43.905z"/>
	<path d="M200.657,22.885c-0.306,0-0.593-0.188-0.704-0.492c-0.143-0.389,0.057-0.819,0.446-0.962   c2.158-0.792,3.749-2.197,4.477-3.956c0.607-1.468,0.565-3.089-0.12-4.564c-1.611-3.488-5.938-4.779-9.267-4.498   c-3.408,0.285-6.623,1.906-9.733,3.474l-1.074,0.54c-1.18,0.59-2.351,1.171-3.521,1.751c-0.371,0.184-0.821,0.032-1.005-0.339   s-0.032-0.821,0.339-1.005c1.169-0.58,2.338-1.159,3.518-1.749l1.069-0.537c3.237-1.633,6.585-3.32,10.283-3.629   c3.84-0.323,8.839,1.221,10.753,5.362c0.863,1.859,0.915,3.908,0.146,5.768c-0.891,2.151-2.79,3.854-5.348,4.791   C200.83,22.87,200.743,22.885,200.657,22.885z"/>
	<path d="M167.718,20.745c-0.274,0-0.539-0.15-0.671-0.412c-0.187-0.37-0.038-0.821,0.332-1.008   c2.242-1.131,4.454-2.232,6.666-3.323l6.44-3.17c0.375-0.185,0.821-0.03,1.005,0.341c0.183,0.372,0.03,0.821-0.341,1.005   l-6.441,3.17c-2.207,1.089-4.415,2.188-6.653,3.317C167.946,20.72,167.831,20.745,167.718,20.745z"/>
	<path d="M143.418,34.275c-0.251,0-0.496-0.126-0.638-0.354c-0.219-0.352-0.111-0.813,0.241-1.032   c9.453-5.875,17.972-10.329,24.337-13.553c0.371-0.188,0.821-0.039,1.008,0.33c0.188,0.369,0.039,0.82-0.33,1.008   c-6.338,3.21-14.819,7.645-24.224,13.488C143.69,34.239,143.553,34.275,143.418,34.275z"/>
	<path d="M158.318,380.022c-6.281,0-12.647-0.377-19.069-1.132c-5.049-0.596-10.155-1.482-15.18-2.634   c-2.821-0.653-5.562-1.371-8.145-2.132c-0.421-0.121-0.838-0.243-1.254-0.375c-27.338-8.238-52.35-24.282-72.32-46.392   c-9.01-9.971-16.739-20.97-22.976-32.69c-2.059-3.858-3.986-7.882-5.728-11.958C-7.437,233.342-3.434,172.209,24.093,123.168   C41.472,92.217,68.982,63.461,105.858,37.7c15.132-10.576,31.152-20.239,47.616-28.722c4.06-2.082,8.033-4.047,11.813-5.841   c4.191-1.997,10.28-4.412,14.729-2.332c2.744,1.283,4.482,3.785,4.648,6.692c0.156,2.74-1.132,5.225-3.444,6.646   c-0.031,0.02-0.063,0.036-0.098,0.051c-0.14,0.08-0.258,0.146-0.383,0.213c-0.367,0.194-0.821,0.055-1.015-0.31   c-0.194-0.365-0.056-0.82,0.31-1.015c0.132-0.07,0.254-0.14,0.377-0.21c0.021-0.012,0.043-0.023,0.066-0.034   c1.808-1.132,2.812-3.093,2.688-5.256c-0.134-2.347-1.549-4.373-3.786-5.418c-3.872-1.812-9.53,0.462-13.45,2.327   c-3.766,1.788-7.726,3.746-11.771,5.82c-16.403,8.451-32.366,18.079-47.442,28.617c-36.69,25.631-64.049,54.22-81.315,84.973   c-27.306,48.644-31.28,109.27-10.375,158.218c1.725,4.037,3.634,8.021,5.673,11.842c6.178,11.614,13.837,22.512,22.765,32.391   c19.787,21.907,44.563,37.802,71.65,45.965c0.412,0.131,0.815,0.249,1.229,0.367c2.561,0.754,5.272,1.464,8.063,2.11   c4.97,1.14,10.023,2.017,15.019,2.605c14.641,1.722,28.998,1.461,42.671-0.775c41.929-6.828,75.342-31.591,96.629-71.612   l0.27-0.508c0.194-0.365,0.648-0.504,1.014-0.313c0.366,0.193,0.506,0.647,0.313,1.014l-0.271,0.51   c-21.517,40.452-55.305,65.483-97.713,72.39C174.527,379.383,166.495,380.022,158.318,380.022z"/>
	<path d="M164.398,21.86c-0.047,0-0.091-0.026-0.112-0.071c-0.03-0.062-0.004-0.137,0.059-0.166   c1.232-0.591,2.309-1.155,3.291-1.727c0.058-0.032,0.135-0.015,0.171,0.046c0.034,0.06,0.014,0.136-0.046,0.171   c-0.987,0.574-2.069,1.142-3.309,1.734C164.434,21.856,164.416,21.86,164.398,21.86z"/>
	<path d="M167.697,20.755c-0.414,0-0.75-0.336-0.75-0.75c0-0.297,0.173-0.554,0.424-0.676c0.281-0.145,0.64-0.101,0.876,0.136   c0.293,0.293,0.293,0.768,0,1.061C168.107,20.666,167.897,20.755,167.697,20.755z"/>
	<path d="M167.717,20.12c-0.043,0-0.085-0.022-0.108-0.063c-0.034-0.06-0.014-0.137,0.046-0.171   c2.559-1.475,4.294-2.914,5.157-4.278c0.882-1.4,1.164-3.066,0.772-4.571c-0.335-1.285-1.15-2.337-2.297-2.963   c-4.073-2.223-12.285-0.914-17.403,1.702c-0.058,0.031-0.136,0.008-0.168-0.055c-0.031-0.062-0.007-0.137,0.055-0.168   c5.175-2.646,13.498-3.962,17.636-1.698c1.208,0.658,2.067,1.767,2.419,3.119c0.409,1.571,0.116,3.309-0.803,4.767   c-0.885,1.399-2.648,2.867-5.243,4.362C167.76,20.115,167.738,20.12,167.717,20.12z"/>
	<path d="M188.667,27.27c-0.031,0-0.062-0.012-0.086-0.034c-0.05-0.048-0.052-0.127-0.005-0.177   c0.018-0.029,0.031-0.052,0.052-0.073c1.996-2.712,1.798-6.829-0.464-9.358c-2.381-2.656-8.771-2.989-13.675-0.71   c-0.065,0.028-0.137,0.002-0.166-0.061s-0.002-0.137,0.061-0.166c5.08-2.36,11.477-2.009,13.966,0.771   c2.338,2.613,2.543,6.869,0.468,9.688l-0.126-0.039l0.107,0.064c-0.01,0.016-0.022,0.037-0.041,0.057   C188.734,27.258,188.7,27.27,188.667,27.27z"/>
	<path d="M200.267,40.63c-0.044,0-0.087-0.023-0.109-0.064c-0.033-0.061-0.012-0.137,0.049-0.17   c5.294-2.933,6.797-6.02,5.025-10.322c-1.732-4.201-8.373-5.332-16.527-2.809c-0.068,0.023-0.136-0.017-0.156-0.082   c-0.021-0.066,0.017-0.136,0.082-0.156c8.282-2.563,15.05-1.378,16.832,2.951c1.832,4.448,0.296,7.629-5.135,10.637   C200.308,40.625,200.287,40.63,200.267,40.63z"/>
	<path d="M221.287,52.43c-0.042,0-0.082-0.021-0.106-0.059c-0.036-0.059-0.019-0.136,0.04-0.173   c6.014-3.746,6.24-8.456,4.607-11.352c-1.531-2.706-4.665-4.57-8.385-4.987c-2.323-0.253-6.318,0.562-10.703,2.183   c-0.244,0.085-0.48,0.175-0.686,0.259c-0.461,0.181-0.89,0.35-1.289,0.52c-0.061,0.027-0.137-0.002-0.164-0.066   c-0.026-0.063,0.003-0.137,0.066-0.164c0.401-0.17,0.832-0.341,1.293-0.521c0.207-0.086,0.448-0.177,0.695-0.263   c2.121-0.783,7.431-2.572,10.814-2.195c3.8,0.426,7.005,2.337,8.574,5.112c1.688,2.992,1.472,7.848-4.691,11.688   C221.333,52.424,221.31,52.43,221.287,52.43z"/>
	<path d="M191.384,101.23c-4.011,0-11.993-1.136-20.426-2.337c-7.436-1.058-15.125-2.152-21.021-2.62   c-0.413-0.033-0.721-0.395-0.688-0.808c0.033-0.413,0.397-0.709,0.808-0.688c5.942,0.472,13.654,1.57,21.113,2.632   c8.699,1.238,16.95,2.425,20.629,2.316c5.849-0.136,9.551-1.986,9.903-4.949c0.281-2.373-1.464-4.778-5.188-7.148   c-6.703-4.287-13.99-7.623-21.662-9.914c-0.012-0.004-0.115-0.038-0.127-0.042c-0.391-0.139-0.595-0.567-0.456-0.958   c0.139-0.39,0.567-0.594,0.958-0.456c7.859,2.351,15.274,5.744,22.094,10.105c4.25,2.705,6.226,5.596,5.871,8.59   c-0.169,1.414-1.485,6.042-11.357,6.272C191.691,101.228,191.54,101.23,191.384,101.23z"/>
	<path d="M182.557,377.36c-0.005,0-0.01,0-0.015-0.001c-16.177-1.887-32.13-6.271-47.416-13.03   c-28.66-12.676-53.62-32.96-72.181-58.661c-9.224-12.76-16.58-26.881-21.866-41.972c-7.938-22.589-10.921-46.748-8.626-69.864   c0.815-8.211,2.307-16.356,4.433-24.209c6.933-25.546,21.216-51.27,42.455-76.459c1.248-1.479,2.465-2.928,3.658-4.349   c16.963-20.196,29.22-34.788,60.349-55.395c0.058-0.037,0.135-0.021,0.174,0.035c0.038,0.058,0.022,0.136-0.035,0.174   c-31.1,20.586-43.346,35.167-60.296,55.347c-1.194,1.421-2.41,2.869-3.658,4.349c-21.216,25.161-35.482,50.854-42.404,76.363   c-2.123,7.84-3.612,15.972-4.427,24.169c-2.291,23.079,0.688,47.201,8.614,69.757c5.277,15.067,12.623,29.167,21.833,41.907   c18.534,25.665,43.459,45.922,72.079,58.579c15.263,6.749,31.191,11.127,47.344,13.011c0.068,0.008,0.117,0.07,0.109,0.139   C182.674,377.313,182.619,377.36,182.557,377.36z"/>
	<path d="M116.257,373.13c-0.051,0-0.098-0.031-0.117-0.081c-0.024-0.064,0.009-0.137,0.073-0.161   c6.439-2.424,12.8-5.379,18.903-8.782c5.322-2.957,10.52-6.306,15.446-9.951c7.279-5.393,14.242-11.462,20.695-18.037   c19.494-19.816,35.204-44.677,46.693-73.888c0.026-0.063,0.098-0.093,0.162-0.07c0.064,0.025,0.096,0.098,0.07,0.162   c-11.502,29.242-27.23,54.13-46.748,73.972c-6.462,6.584-13.435,12.661-20.725,18.063c-4.936,3.652-10.142,7.006-15.474,9.969   c-6.113,3.409-12.485,6.369-18.937,8.798C116.286,373.127,116.272,373.13,116.257,373.13z"/>
	<path d="M71.733,382.169c-10.643,0-21.048-1.488-31.001-4.475c-5.955-1.787-11.358-4.026-16.061-6.655   c-3.94-2.178-7.531-4.726-10.668-7.568c-8.089-7.339-13.148-17.041-13.884-26.618c-1.139-14.786,6.084-30.875,19.32-43.039   c0.307-0.28,0.78-0.26,1.06,0.044c0.28,0.306,0.261,0.779-0.044,1.06c-12.9,11.855-19.943,27.489-18.84,41.82   c0.705,9.199,5.588,18.538,13.396,25.622c3.051,2.766,6.547,5.245,10.39,7.369c4.609,2.577,9.912,4.773,15.763,6.528   c22.897,6.873,48.252,5.698,73.318-3.396c0.392-0.14,0.82,0.061,0.961,0.449c0.142,0.39-0.06,0.819-0.449,0.961   C100.501,379.528,85.907,382.169,71.733,382.169z"/>
	<path d="M88.538,253.495c-0.27,0-0.53-0.146-0.665-0.4c-0.192-0.367-0.052-0.82,0.314-1.014c6.662-3.507,15.024-4.459,19.416-4.715   l0.073,0.749v0.75c-4.257,0.247-12.378,1.168-18.79,4.544C88.776,253.468,88.655,253.495,88.538,253.495z"/>
	<path d="M179.644,273.7c-1.179,0-2.307-0.215-3.359-0.651c-2.871-1.197-4.665-3.741-6.4-6.201   c-1.694-2.403-3.295-4.673-5.748-5.563c-3.388-1.229-6.789,0.627-10.394,2.59c-3.231,1.761-6.565,3.564-10.238,3.389   c-4.541-0.246-7.844-3.408-11.037-6.467c-2.572-2.463-5.231-5.01-8.449-5.876c-1.821-0.489-3.737-0.432-5.766-0.368   c-1.254,0.039-2.549,0.079-3.841-0.021c-1.975-0.159-3.595-0.625-4.817-1.386c-1.801-1.091-2.819-2.811-2.944-4.974   c-0.139-2.448,0.895-5.378,2.908-8.252c3.91-5.582,10.382-9.02,16.822-8.916c1.818,0.022,3.647,0.288,5.416,0.546   c3.252,0.474,6.326,0.919,9.18-0.079c1.665-0.576,3.157-1.612,4.737-2.709c2.211-1.535,4.498-3.122,7.319-3.363   c3.946-0.34,7.123,2.015,10.192,4.29c2.495,1.849,4.851,3.595,7.576,4.018c3.756,0.586,7.278-1.442,11.008-3.587   c3.964-2.279,8.064-4.633,12.616-3.716c3.788,0.766,6.445,3.54,9.015,6.223c1.375,1.436,2.797,2.92,4.352,4.036   c2.688,1.927,5.868,2.868,9.234,3.864c2.046,0.605,4.161,1.231,6.16,2.101c0.168,0.069,0.354,0.156,0.538,0.243   c1.725,0.829,3.334,1.951,4.662,3.249c0.703,0.683,1.337,1.424,1.881,2.202c1.93,2.791,2.438,5.809,1.438,8.502   c-2.003,5.374-8.637,6.643-13.704,6.095c-0.472-0.045-1.003-0.12-1.609-0.229c-1.336-0.25-2.684-0.574-3.987-0.888   c-4.121-0.99-8.016-1.927-11.736-0.8c-3.254,0.987-5.776,3.382-8.447,5.917c-0.752,0.714-1.503,1.427-2.27,2.105   C186.471,272.093,182.868,273.7,179.644,273.7z M161.862,258.885c0.972,0,1.956,0.157,2.956,0.521   c3.043,1.104,4.902,3.74,6.7,6.289c1.644,2.331,3.197,4.533,5.533,5.508c4.551,1.89,9.608-1.943,11.574-3.677   c0.747-0.662,1.481-1.359,2.217-2.058c2.722-2.583,5.536-5.255,9.244-6.38c4.24-1.285,8.585-0.24,12.784,0.77   c1.279,0.308,2.602,0.626,3.88,0.864c0.467,0.084,0.959,0.16,1.452,0.208c4.372,0.468,10.026-0.505,11.626-4.803   c0.983-2.645-0.112-5.083-1.204-6.663c-0.469-0.67-1.02-1.314-1.635-1.911c-1.177-1.149-2.603-2.144-4.127-2.876   c-0.148-0.07-0.303-0.144-0.459-0.208c-1.902-0.827-3.958-1.436-5.946-2.023c-3.378-1-6.87-2.033-9.833-4.157   c-1.706-1.225-3.192-2.777-4.63-4.277c-2.465-2.574-4.793-5.005-7.967-5.646c-3.804-0.775-7.411,1.297-11.223,3.489   c-3.865,2.221-7.861,4.516-12.312,3.829c-3.213-0.498-5.881-2.476-8.46-4.388c-2.898-2.147-5.624-4.183-8.832-3.904   c-2.289,0.196-4.262,1.565-6.349,3.015c-1.622,1.125-3.298,2.289-5.22,2.954c-3.316,1.16-6.776,0.655-10.126,0.17   c-1.704-0.248-3.467-0.505-5.152-0.525c-0.064-0.001-0.13-0.001-0.194-0.001c-5.666,0-11.521,3.149-14.965,8.065   c-1.732,2.471-2.661,5.019-2.551,6.989c0.088,1.519,0.739,2.625,1.989,3.381c0.004,0.002,0.008,0.004,0.011,0.007   c0.95,0.592,2.27,0.959,3.922,1.092c1.18,0.09,2.422,0.052,3.623,0.016c2.084-0.067,4.238-0.132,6.347,0.436   c3.712,1,6.56,3.727,9.312,6.363c3.065,2.936,5.961,5.708,9.761,5.913c3.105,0.172,6.188-1.52,9.175-3.146   C155.715,260.522,158.721,258.885,161.862,258.885z"/>
	<path d="M143.83,257.55c-0.322,0-0.646-0.013-0.974-0.04c-4.532-0.369-8.324-3.462-11.522-6.332l-0.474-0.425   c-3.151-2.833-6.409-5.763-10.482-6.735c-2.188-0.522-4.513-0.058-6.375,1.272c-2.07,1.478-3.367,3.909-3.652,6.847   c-0.006,0.069-0.067,0.127-0.136,0.112c-0.069-0.006-0.119-0.067-0.112-0.136c0.292-3.011,1.625-5.506,3.755-7.026   c1.922-1.373,4.319-1.853,6.579-1.313c4.135,0.988,7.417,3.939,10.591,6.793l0.473,0.426c3.169,2.843,6.922,5.905,11.377,6.268   c4.791,0.41,9.125-2.332,13.313-4.978l0.751-0.473c4.139-2.602,9.541-5.354,14.589-3.542c2.298,0.828,4.295,2.545,6.227,4.206   c2.866,2.464,5.57,4.79,9.029,4.188c2.171-0.374,3.808-1.839,5.54-3.391c1.249-1.117,2.539-2.272,4.049-2.979   c2.95-1.396,6.67-1.133,11.36,0.808c0.806,0.334,1.619,0.698,2.405,1.05c2.716,1.217,5.525,2.475,8.508,2.721   c0.203,0.018,0.414,0.025,0.632,0.025c3.672,0,9.221-2.362,9.956-5.984c0.013-0.068,0.079-0.114,0.146-0.098   c0.068,0.014,0.112,0.079,0.098,0.146c-0.758,3.742-6.451,6.186-10.212,6.186c-0.221,0-0.435-0.009-0.642-0.025   c-3.024-0.251-5.854-1.518-8.589-2.742c-0.784-0.352-1.597-0.715-2.398-1.048c-4.623-1.911-8.274-2.175-11.158-0.812   c-1.477,0.691-2.754,1.834-3.988,2.939c-1.683,1.507-3.423,3.064-5.664,3.45c-3.569,0.621-6.322-1.74-9.235-4.245   c-1.914-1.646-3.894-3.348-6.147-4.161c-4.951-1.773-10.28,0.948-14.372,3.519l-0.75,0.474   C152.384,254.982,148.318,257.55,143.83,257.55z"/>
	<path d="M11.281,336.311c-0.582,0-0.965-0.247-1.191-0.473c-1.007-1-0.809-3.389,0.423-5.111v-0.001   c1.576-2.196,3.777-4.93,6.836-6.591c1.475-0.803,2.757-1.095,3.923-0.89c1.366,0.236,2.765,1.406,2.74,2.955   c-0.031,1.427-1.184,2.456-2.424,3.357l-8.01,5.811C12.598,336.079,11.845,336.311,11.281,336.311z M11.122,331.163   c-1.093,1.53-1.168,3.483-0.504,4.144c0.481,0.476,1.374,0.286,2.52-0.545l8.009-5.811c1.084-0.787,2.091-1.667,2.115-2.765   c0.018-1.129-1.086-2.023-2.118-2.202c-0.98-0.167-2.136,0.102-3.437,0.81C14.782,326.383,12.652,329.032,11.122,331.163   L11.122,331.163z"/>
	<path d="M34.648,339.01c-0.032,0-0.064-0.012-0.089-0.036c-0.045-0.046-0.048-0.118-0.009-0.167   c0.003-0.004,0.006-0.009,0.009-0.014c1.424-2.59,3.034-5.144,4.787-7.591c1.005-1.415,2.066-2.798,3.244-4.227   c0.045-0.055,0.125-0.06,0.176-0.018c0.054,0.044,0.062,0.123,0.018,0.176c-1.175,1.425-2.232,2.803-3.234,4.214   c-1.747,2.44-3.353,4.986-4.772,7.568c-0.006,0.01-0.013,0.02-0.021,0.028c0.002-0.007,0.003,0.004-0.02,0.029   C34.712,338.998,34.68,339.01,34.648,339.01z"/>
	<path d="M25.017,370.69c-0.069,0-0.125-0.056-0.125-0.125c0-0.062,0.01-0.122,0.02-0.184c0.219-2.659,0.59-5.352,1.103-8.01   c0.455-2.435,1.062-4.948,1.803-7.472c0.021-0.066,0.091-0.102,0.155-0.085c0.066,0.02,0.104,0.089,0.085,0.155   c-0.739,2.516-1.344,5.021-1.797,7.447c-0.512,2.651-0.882,5.335-1.098,7.977c-0.013,0.075-0.021,0.123-0.021,0.171   C25.142,370.635,25.086,370.69,25.017,370.69z"/>
	<path d="M221.212,249.827c-2.153,0-4.395-0.581-6.255-1.388c-1.078-0.467-2.159-1.012-3.205-1.538   c-2.889-1.455-5.875-2.959-9.096-2.981c-0.028,0-0.057,0-0.085,0c-2.787,0-5.494,1.097-8.112,2.157   c-3.104,1.259-6.312,2.561-9.623,1.991c-2.602-0.444-4.824-1.985-6.974-3.476c-1.849-1.282-3.76-2.607-5.91-3.237   c-4.944-1.457-9.896,0.934-14.684,3.247c-4.597,2.221-9.351,4.517-14.225,3.565c-3.267-0.636-6.006-2.659-8.655-4.616   c-1.93-1.426-3.925-2.899-6.121-3.842c-3.729-1.601-8.104-1.605-12.001-0.013c-3.872,1.582-6.882,4.589-8.475,8.466   c-0.025,0.063-0.099,0.096-0.163,0.067c-0.063-0.025-0.094-0.099-0.067-0.163c1.618-3.938,4.676-6.993,8.61-8.602   c3.959-1.618,8.402-1.612,12.194,0.014c2.223,0.955,4.23,2.438,6.171,3.871c2.627,1.94,5.343,3.946,8.554,4.571   c4.798,0.937,9.51-1.342,14.068-3.545c4.83-2.332,9.823-4.746,14.863-3.262c2.189,0.642,4.118,1.979,5.982,3.271   c2.127,1.475,4.326,3,6.874,3.436c3.234,0.554,6.273-0.674,9.486-1.977c2.641-1.07,5.37-2.176,8.205-2.176c0.029,0,0.059,0,0.088,0   c3.278,0.022,6.292,1.54,9.206,3.008c1.042,0.525,2.12,1.068,3.192,1.533c3.833,1.661,9.313,2.357,12.133-1.144   c0.044-0.055,0.123-0.063,0.176-0.02c0.054,0.044,0.063,0.122,0.02,0.176C225.858,249.119,223.589,249.827,221.212,249.827z"/>
	<path d="M222.657,308.575c-0.299,0-0.594-0.011-0.879-0.033c-2.418-0.206-4.515-1.467-5.477-3.29   c-1.026-1.955-0.781-4.52,0.639-6.693c4.328-6.665,15.216-8.524,18.45-8.936c3.984-0.51,6.843,0.375,8.272,2.554   c1.491,2.27,0.817,5.166-0.512,7.029c-0.001,0-0.001,0.001-0.002,0.002c-1.341,1.868-3.34,3.071-5.301,4.094   c-3.257,1.71-6.675,3.146-10.155,4.266c-1.483,0.484-3.245,0.984-5.033,1.008C222.659,308.575,222.658,308.575,222.657,308.575z    M237.428,291.488c-0.657,0-1.276,0.054-1.784,0.119c-6.221,0.79-13.959,3.318-17.027,8.043c-1.01,1.545-1.223,3.378-0.544,4.67   c0.772,1.465,2.506,2.112,3.87,2.229c0.228,0.018,0.471,0.026,0.705,0.026c1.506-0.02,3.085-0.471,4.429-0.91   c3.376-1.087,6.688-2.478,9.846-4.136c1.743-0.908,3.506-1.959,4.602-3.486c0.902-1.266,1.434-3.298,0.468-4.769   C241.052,291.843,239.115,291.488,237.428,291.488z M242.337,298.625h0.01H242.337z"/>
	<path d="M223.336,312.775c-0.455,0-0.867-0.313-0.974-0.776c-0.14-0.606-0.252-1.409-0.36-2.186   c-0.103-0.733-0.209-1.491-0.329-2.015c-0.124-0.538,0.212-1.074,0.751-1.198c0.537-0.126,1.074,0.213,1.198,0.751   c0.14,0.606,0.252,1.409,0.36,2.186c0.103,0.733,0.209,1.491,0.329,2.015c0.124,0.538-0.212,1.074-0.751,1.198   C223.485,312.767,223.41,312.775,223.336,312.775z"/>
	<path d="M231.398,311.115c-0.391,0-0.763-0.231-0.923-0.615c-0.27-0.646-0.558-1.393-0.846-2.139   c-0.277-0.719-0.555-1.438-0.814-2.062c-0.213-0.51,0.028-1.096,0.538-1.308c0.509-0.213,1.095,0.028,1.308,0.538   c0.267,0.639,0.551,1.375,0.835,2.111c0.28,0.729,0.562,1.457,0.825,2.089c0.213,0.509-0.028,1.095-0.538,1.308   C231.657,311.091,231.526,311.115,231.398,311.115z"/>
	<path d="M238.978,308.315c-0.354,0-0.696-0.188-0.878-0.52l-2.399-4.391c-0.266-0.484-0.088-1.092,0.396-1.357   c0.483-0.267,1.092-0.088,1.357,0.396l2.399,4.391c0.266,0.484,0.088,1.092-0.396,1.357   C239.305,308.276,239.14,308.315,238.978,308.315z"/>
	<path d="M245.987,303.514c-0.27,0-0.539-0.108-0.736-0.323c-0.556-0.605-1.106-1.184-1.655-1.759   c-0.67-0.702-1.335-1.4-2.001-2.138c-0.37-0.409-0.338-1.042,0.072-1.412c0.409-0.37,1.042-0.339,1.412,0.072   c0.653,0.724,1.307,1.408,1.964,2.098c0.558,0.584,1.117,1.172,1.681,1.785c0.374,0.407,0.347,1.04-0.06,1.413   C246.472,303.428,246.23,303.514,245.987,303.514z"/>
	<path d="M161.487,441.705c-0.065,0-0.131-0.025-0.18-0.076c-9.396-9.728-9.468-26.468-5.557-37.905   c3.869-11.297,14.469-21.982,26.376-26.592l0.344-0.131c0.13-0.049,0.272,0.019,0.32,0.148s-0.019,0.273-0.148,0.32l-0.341,0.131   c-11.772,4.557-22.254,15.12-26.078,26.285c-3.862,11.298-3.807,27.819,5.443,37.396c0.096,0.1,0.094,0.258-0.006,0.354   C161.612,441.681,161.55,441.705,161.487,441.705z"/>
	<path d="M138.242,443.781c-1.733,0-3.462-0.025-5.188-0.076c-5.19-0.153-10.351-0.535-15.338-1.136   c-7.832-0.937-15.616-2.434-23.134-4.449c-18.242-4.907-33.527-12.515-45.432-22.612c-11.563-9.811-23.563-22.815-24.884-44.897   c-0.024-0.414,0.291-0.769,0.704-0.794c0.401-0.037,0.769,0.29,0.794,0.704c1.282,21.461,12.464,33.755,24.356,43.843   c11.733,9.954,26.823,17.459,44.85,22.308c7.449,1.997,15.162,3.48,22.924,4.409c4.943,0.596,10.059,0.974,15.204,1.125   c9.388,0.279,18.912-0.207,28.3-1.443c11.542-1.492,23.072-4.123,34.272-7.818c31.254-10.335,60.791-29.164,85.418-54.452   c15.433-15.855,24.163-29.999,27.476-44.513c4.189-18.347-2.019-37.546-15.098-46.689c-0.112-0.081-0.213-0.154-0.323-0.228   c-0.347-0.228-0.442-0.692-0.214-1.038c0.227-0.346,0.691-0.442,1.038-0.214c0.13,0.085,0.25,0.172,0.369,0.258   c13.556,9.476,20.012,29.318,15.69,48.245c-3.377,14.793-12.23,29.164-27.864,45.226c-24.794,25.459-54.54,44.419-86.021,54.829   c-11.291,3.726-22.914,6.378-34.55,7.882C153.853,443.267,146.02,443.781,138.242,443.781z"/>
	<path d="M133.087,442.77c-0.031,0-0.063-0.012-0.087-0.035c-8.497-8.23-12.929-19.018-12.48-30.375   c0.497-12.555,7.151-24.74,18.737-34.312c0.053-0.043,0.131-0.035,0.177,0.017c0.044,0.054,0.036,0.133-0.017,0.177   c-11.531,9.524-18.153,21.645-18.647,34.128c-0.446,11.285,3.959,22.006,12.404,30.186c0.05,0.048,0.051,0.127,0.003,0.177   C133.152,442.758,133.119,442.77,133.087,442.77z"/>
	<path d="M117.818,441.87c-0.032,0-0.064-0.013-0.089-0.037c-8.033-8.187-12.42-21.45-11.176-33.791   c1.158-11.479,8.233-24.584,17.604-32.611l0.021-0.024c0.049-0.049,0.129-0.049,0.178,0c0.048,0.049,0.048,0.129,0,0.178   l-0.025,0.025c-9.336,7.999-16.376,21.038-17.529,32.458c-1.236,12.27,3.123,25.455,11.105,33.59   c0.049,0.05,0.048,0.129-0.001,0.177C117.881,441.858,117.849,441.87,117.818,441.87z"/>
	<path d="M259.041,254.913c-1.673,0-3.338-0.313-4.934-1.004c-5.482-2.366-7.992-8.45-8.514-13.354   c-0.46-4.414,0.255-8.873,0.945-13.186c0.161-1,0.321-2,0.467-2.999c1.214-8.329,1.288-16.256,0.22-23.561   c-0.763-5.2-2.12-10.102-4.033-14.567c-6.659-15.553-21.052-28.426-40.525-36.249c-14.664-5.882-34.42-11.958-69.765-12.423   c-0.195-0.003-0.355-0.154-0.369-0.349s0.124-0.367,0.316-0.396c28.244-4.397,49.191-4.483,85.304,7.254   c24.132,7.837,39.008,19.289,51.344,39.53c12.625,20.739,14.591,42.981,5.394,61.025   C272.023,250.256,265.488,254.913,259.041,254.913z M137.358,136.91c32.704,0.896,51.487,6.73,65.589,12.388   c19.659,7.896,34.197,20.912,40.936,36.649c1.939,4.525,3.313,9.489,4.086,14.753c1.079,7.377,1.005,15.377-0.22,23.778   c-0.146,1.002-0.308,2.006-0.468,3.01c-0.684,4.264-1.391,8.673-0.94,12.987c0.498,4.693,2.879,10.507,8.065,12.745   c7.368,3.19,16.355-2.146,19.817-8.927c9.076-17.807,7.121-39.783-5.366-60.294c-12.233-20.073-26.99-31.432-50.936-39.208   C183.855,133.72,163.338,133.208,137.358,136.91z"/>
	<path d="M34.836,358.532c-0.713,0-1.428-0.083-2.136-0.253c-1.994-0.478-3.725-1.566-5.004-3.147   c-1.994-2.412-2.74-5.727-1.994-8.863c1.029-4.33,4.704-7.532,8.938-7.787c0.89-0.073,1.807,0,2.714,0.22   c2.4,0.567,4.453,2.064,5.779,4.216c1.425,2.313,1.854,5.077,1.208,7.785c-0.622,2.613-2.173,4.842-4.367,6.273   C38.4,358.003,36.628,358.532,34.836,358.532z M35.314,339.204c-0.206,0-0.411,0.008-0.615,0.025c-0.003,0-0.006,0-0.009,0   c-3.908,0.234-7.304,3.2-8.257,7.213c-0.693,2.909-0.004,5.979,1.844,8.214c1.178,1.456,2.767,2.455,4.598,2.895   c2.285,0.543,4.663,0.119,6.69-1.203c2.033-1.327,3.471-3.394,4.047-5.819c0.6-2.514,0.203-5.076-1.116-7.218   c-1.221-1.98-3.108-3.358-5.314-3.88C36.556,339.279,35.931,339.204,35.314,339.204z M34.667,338.855h0.01H34.667z"/>
</g>

            </g>
        </g>
    </g>
    
    <!-- ITEM 1 -->
    <g>
        <defs>
            <clipPath id="clip-path-id-viewbox-item-1">
                <rect x="0.0" y="0.0" width="114.055" height="113.362"/>
            </clipPath>
        </defs>
        <g transform="translate(1050.0 994.0) rotate(0.0 125.5 124.5) scale(2.200692648283723 2.1965032374164184)">
            <g clip-path="url(#clip-path-id-viewbox-item-1)" transform="translate(-0.0 -0.0)">
                
<path d="M103.91,9.282c-6.532-6.259-16.172-9.62-26.422-9.255C66.933,0.414,57.109,4.163,49.021,9.41  c-2.496,1.619-13.232,6.237-23.741,18.459C17.326,37.118,7.996,51.258,3.504,64c-3.402,9.622-4.297,17.267-2.814,24.059  c1.359,6.247,4.527,12.468,10.291,16.529c2.657,1.872,11.584,6.065,11.64,6.089c5.227,2.206,9.701,2.686,13.087,2.686  c8.35,0,17.181-2.312,25.655-6.8c11.673-6.188,21.252-15.625,28.292-23.155c8.806-9.404,18.364-20.916,22.499-34.99  C116.495,33.603,113.26,18.242,103.91,9.282z"/>

            </g>
        </g>
    </g>
    
    <!-- ITEM 2 -->
    <g>
        <defs>
            <clipPath id="clip-path-id-viewbox-item-2">
                <rect x="0.0" y="0.0" width="12.11" height="10.39"/>
            </clipPath>
        </defs>
        <g transform="translate(1153.0 1085.0) rotate(0.0 12.5 10.5) scale(2.064409578860446 2.021174205967276)">
            <g clip-path="url(#clip-path-id-viewbox-item-2)" transform="translate(-0.0 -0.0)">
                
<g>
	<path style="fill:#F9BABA;" d="M11.86,10.14C7.48,10.4,4.13,10.26,0.25,9.81c0.27-3.37,1.34-6.68,3.11-9.56   C6.25,3.63,8.97,6.75,11.86,10.14z"/>
	<path d="M0.25,10.06c-0.007,0-0.013,0-0.02-0.001C0.093,10.048-0.01,9.928,0.001,9.79c0.273-3.424,1.361-6.768,3.146-9.671   C3.218,0.001,3.372-0.037,3.49,0.037c0.117,0.072,0.154,0.227,0.082,0.344C1.829,3.218,0.767,6.484,0.499,9.829   C0.488,9.96,0.379,10.06,0.25,10.06z"/>
	<path d="M11.86,10.39c-0.07,0-0.141-0.03-0.19-0.088C10.108,8.47,8.595,6.716,7.078,4.958C5.789,3.464,4.497,1.966,3.169,0.412   C3.08,0.308,3.092,0.149,3.197,0.06C3.302-0.029,3.46-0.019,3.55,0.088c1.327,1.552,2.619,3.05,3.907,4.544   c1.518,1.759,3.03,3.513,4.593,5.346c0.09,0.105,0.077,0.263-0.028,0.353C11.975,10.37,11.917,10.39,11.86,10.39z"/>
	<path d="M7.73,10.519c-2.456,0-4.82-0.149-7.509-0.462c-0.137-0.016-0.235-0.14-0.219-0.277c0.016-0.137,0.132-0.234,0.277-0.219   c4.116,0.478,7.465,0.573,11.565,0.328c0.138-0.003,0.255,0.098,0.265,0.235c0.008,0.138-0.098,0.256-0.235,0.265   C10.422,10.476,9.062,10.519,7.73,10.519z"/>
</g>

            </g>
        </g>
    </g>
    
    <!-- ITEM 3 -->
    <g>
        <defs>
            <clipPath id="clip-path-id-viewbox-item-3">
                <rect x="0.0" y="0.0" width="40.865" height="40.005"/>
            </clipPath>
        </defs>
        <g transform="translate(866.0 1134.0) rotate(0.0 44.0 44.0) scale(2.15343203230148 2.1997250343707035)">
            <g clip-path="url(#clip-path-id-viewbox-item-3)" transform="translate(-0.0 -0.0)">
                
<g>
	<path style="fill:#CDE8E3;" d="M40.56,20.212c-10.85,0.04-24.69-0.47-35.55-0.43l-0.04-0.04c5.64-6.5,11.27-12.98,16.91-19.48   C28.66,7.192,35.29,12.842,40.56,20.212z"/>
	<path style="fill:#82CABE;" d="M5.01,19.782c10.86-0.04,24.7,0.47,35.55,0.43c-13.49,6.86-26.33,13.34-40.19,19.45   C1.43,33.482,3.42,25.882,5.01,19.782z"/>
	<path d="M0.739,39.726L0,39.599c1.049-6.117,3.011-13.636,4.586-19.678l0.061-0.233l0.727,0.189l-0.062,0.233   C3.74,26.138,1.783,33.64,0.739,39.726z"/>
	<polygon points="5.253,19.989 4.707,19.475 4.718,19.465 21.596,0.016 22.162,0.508  "/>
	<path d="M40.255,20.43c-3.823-5.346-8.371-9.787-13.185-14.49c-1.779-1.737-3.619-3.535-5.459-5.415l0.535-0.525   c1.834,1.875,3.671,3.669,5.448,5.404c4.838,4.727,9.408,9.19,13.27,14.591L40.255,20.43z"/>
	<path d="M0.521,40.005L0.218,39.32c13.517-5.959,25.678-12.071,40.172-19.441l0.34,0.668C26.226,27.922,14.055,34.039,0.521,40.005   z"/>
	<path d="M39.331,20.339c-5.133,0-10.926-0.11-16.542-0.217c-6.071-0.114-12.343-0.236-17.779-0.215l0,0   c-0.068,0-0.125-0.056-0.125-0.125c0-0.068,0.056-0.125,0.125-0.125c5.429-0.022,11.71,0.1,17.784,0.215   c6.067,0.115,12.34,0.245,17.766,0.215l0,0c0.068,0,0.125,0.056,0.125,0.125c0,0.068-0.056,0.125-0.125,0.125   C40.156,20.339,39.745,20.339,39.331,20.339z"/>
</g>

            </g>
        </g>
    </g>
    
    <!-- ITEM 4 -->
    <g>
        <defs>
            <clipPath id="clip-path-id-viewbox-item-4">
                <rect x="0.0" y="0.0" width="17.18" height="16.711"/>
            </clipPath>
        </defs>
        <g transform="translate(1223.0 1089.0) rotate(0.0 17.0 16.0) scale(1.979045401629802 1.914906349111364)">
            <g clip-path="url(#clip-path-id-viewbox-item-4)" transform="translate(-0.0 -0.0)">
                
<g>
	<path style="fill:#FFD249;" d="M7.475,16.336c2.44-4.85,4.57-11.01,7.01-15.86c0.87,4.58,1.8,9.1,2.32,13.89   C14.625,14.686,10.305,15.936,7.475,16.336z"/>
	<path style="fill:#FF9B19;" d="M0.375,1.476c4.55-0.74,9.51-1.35,14.11-1c-2.44,4.85-4.57,11.01-7.01,15.86   C4.875,11.916,1.085,3.266,0.375,1.476z"/>
	<path d="M7.475,16.712c-0.128,0-0.253-0.066-0.323-0.185C4.593,12.179,0.82,3.616,0.026,1.615c-0.076-0.193,0.018-0.411,0.21-0.487   c0.196-0.074,0.411,0.019,0.487,0.21C1.512,3.327,5.26,11.833,7.798,16.146c0.105,0.179,0.046,0.408-0.133,0.514   C7.606,16.695,7.541,16.712,7.475,16.712z"/>
	<path d="M0.375,1.851c-0.181,0-0.34-0.131-0.37-0.314C-0.029,1.332,0.11,1.14,0.314,1.106c4.063-0.662,9.347-1.371,14.199-1.004   c0.207,0.016,0.361,0.196,0.346,0.402s-0.175,0.362-0.402,0.346c-4.773-0.36-10,0.342-14.021,0.996   C0.415,1.849,0.394,1.851,0.375,1.851z"/>
	<path d="M7.475,16.462c-0.019,0-0.038-0.004-0.057-0.014c-0.062-0.03-0.086-0.105-0.055-0.168c1.217-2.419,2.376-5.213,3.498-7.915   c1.125-2.711,2.288-5.514,3.512-7.945c0.03-0.06,0.104-0.087,0.168-0.055c0.062,0.03,0.086,0.105,0.055,0.168   c-1.219,2.422-2.381,5.221-3.504,7.928c-1.123,2.706-2.285,5.505-3.506,7.933C7.565,16.436,7.521,16.462,7.475,16.462z"/>
	<path d="M16.805,14.741c-0.189,0-0.352-0.143-0.373-0.335c-0.449-4.134-1.22-8.145-1.964-12.023l-0.352-1.836   c-0.039-0.204,0.095-0.4,0.298-0.438c0.22-0.041,0.4,0.096,0.438,0.298l0.352,1.835c0.748,3.894,1.521,7.92,1.974,12.085   c0.022,0.205-0.127,0.391-0.333,0.413C16.832,14.74,16.818,14.741,16.805,14.741z"/>
	<path d="M7.475,16.712c-0.185,0-0.345-0.135-0.371-0.322c-0.029-0.205,0.113-0.396,0.318-0.424   c1.511-0.214,3.428-0.667,5.281-1.105c1.557-0.368,3.027-0.716,4.047-0.865c0.208-0.036,0.396,0.112,0.426,0.316   c0.03,0.205-0.111,0.396-0.316,0.426c-0.987,0.145-2.443,0.489-3.983,0.854c-1.87,0.441-3.804,0.898-5.349,1.117   C7.51,16.711,7.492,16.712,7.475,16.712z"/>
</g>

            </g>
        </g>
    </g>
    
    <!-- ITEM 5 -->
    <g>
        <defs>
            <clipPath id="clip-path-id-viewbox-item-5">
                <rect x="0.0" y="0.0" width="30.6" height="31.399"/>
            </clipPath>
        </defs>
        <g transform="translate(1106.0 1130.0) rotate(0.0 34.5 35.5) scale(2.2549019607843137 2.2612185101436353)">
            <g clip-path="url(#clip-path-id-viewbox-item-5)" transform="translate(-0.0 -0.0)">
                
<g>
	<path style="fill:#82CABE;" d="M30.005,10.664c-0.59,4.45-1.17,8.88-1.76,13.32l-0.1-0.01c-5.94,2.62-12.51,5.14-17.26,7.05   c1.02-3.24,2.14-6.19,3.16-9.43C13.805,21.734,24.485,14.624,30.005,10.664z"/>
	<path style="fill:#CDE8E3;" d="M30.005,10.664c-5.52,3.96-16.2,11.07-15.96,10.93c-1.06-6.56-1.77-13.17-2.12-19.81l-0.01-0.04   c6.02-1.18,12.19-1.6,18.31-1.25C30.195,3.704,30.195,8.114,30.005,10.664z"/>
	<path style="fill:#82CABE;" d="M11.925,1.784c0.35,6.64,1.06,13.25,2.12,19.81c-1.02,3.24-2.14,6.19-3.16,9.43   c-3.98-3.4-7.16-7.99-10.51-12C4.515,12.994,7.725,8.264,11.925,1.784z"/>
	<path d="M0.375,19.399c-0.073,0-0.147-0.021-0.212-0.065c-0.171-0.117-0.215-0.351-0.098-0.521C4.428,12.458,7.56,7.83,11.611,1.58   c0.112-0.174,0.345-0.224,0.519-0.11c0.174,0.112,0.224,0.345,0.11,0.519C8.185,8.244,5.05,12.877,0.685,19.236   C0.612,19.343,0.494,19.399,0.375,19.399z"/>
	<path d="M14.045,21.72c-0.061,0-0.113-0.044-0.123-0.105c-1.061-6.561-1.774-13.23-2.122-19.823   c-0.004-0.069,0.05-0.128,0.118-0.132c0.003,0,0.005,0,0.007,0c0.066,0,0.121,0.052,0.125,0.118   c0.347,6.584,1.06,13.245,2.118,19.798c0.012,0.067-0.035,0.132-0.104,0.143C14.059,21.719,14.052,21.72,14.045,21.72z"/>
	<path d="M14.042,21.721c-0.042,0-0.084-0.021-0.107-0.058c-0.027-0.044-0.044-0.07,0.057-0.159l-0.009-0.018   c0.016-0.009,0.032-0.014,0.049-0.016c0.163-0.132,0.53-0.379,1.313-0.906c3.094-2.08,10.337-6.953,14.587-10.002   c0.057-0.041,0.135-0.027,0.175,0.028c0.04,0.057,0.027,0.135-0.028,0.175c-4.254,3.051-11.5,7.925-14.594,10.007   c-0.727,0.488-1.263,0.849-1.354,0.913c-0.007,0.007-0.015,0.013-0.023,0.018C14.088,21.715,14.065,21.721,14.042,21.721z"/>
	<path d="M11.855,2.13c-0.207,0-0.375-0.168-0.375-0.375c0-0.191,0.144-0.35,0.329-0.372c0.034-0.007,0.081-0.014,0.106-0.014   C17.894,0.19,24.084-0.231,30.246,0.12c0.207,0.012,0.364,0.188,0.353,0.396c-0.011,0.206-0.174,0.388-0.396,0.353   c-6.099-0.348-12.227,0.071-18.216,1.244C11.964,2.117,11.879,2.13,11.855,2.13z"/>
	<path d="M30.005,11.039c-0.009,0-0.019,0-0.027-0.001c-0.207-0.016-0.362-0.195-0.347-0.401c0.158-2.125,0.184-5.516,0.205-8.507   l0.014-1.64c0.002-0.205,0.17-0.371,0.375-0.371c0.001,0,0.002,0,0.004,0c0.207,0.002,0.373,0.172,0.371,0.379l-0.014,1.638   c-0.021,3.003-0.047,6.406-0.207,8.556C30.365,10.889,30.201,11.039,30.005,11.039z"/>
	<path d="M10.885,31.149c-0.013,0-0.025-0.002-0.037-0.006c-0.066-0.021-0.103-0.091-0.082-0.156   c0.512-1.628,1.058-3.207,1.586-4.734c0.524-1.516,1.066-3.083,1.574-4.695c0.021-0.066,0.097-0.101,0.156-0.082   c0.066,0.021,0.103,0.091,0.082,0.156c-0.509,1.616-1.052,3.186-1.576,4.703c-0.527,1.525-1.073,3.104-1.584,4.727   C10.988,31.115,10.938,31.149,10.885,31.149z"/>
	<path d="M10.885,31.399c-0.148,0-0.289-0.089-0.348-0.235c-0.077-0.191,0.016-0.41,0.208-0.487c1.151-0.464,2.411-0.963,3.742-1.49   c4.225-1.675,9.013-3.573,13.506-5.555c0.188-0.086,0.411,0.001,0.494,0.191c0.084,0.189-0.002,0.411-0.191,0.494   c-4.506,1.988-9.302,3.889-13.532,5.566c-1.33,0.527-2.588,1.025-3.739,1.488C10.979,31.391,10.932,31.399,10.885,31.399z"/>
	<path d="M28.243,24.389c-0.207,0-0.373-0.188-0.373-0.395v-0.01l1.763-13.369c0.028-0.205,0.208-0.344,0.421-0.323   c0.206,0.027,0.351,0.216,0.323,0.421l-1.76,13.321C28.618,24.241,28.451,24.389,28.243,24.389z"/>
	<path d="M10.885,31.399c-0.086,0-0.173-0.029-0.243-0.09c-2.952-2.521-5.474-5.698-7.911-8.771   c-0.882-1.11-1.756-2.213-2.644-3.274c-0.133-0.159-0.111-0.396,0.048-0.528c0.158-0.134,0.395-0.112,0.528,0.048   c0.891,1.066,1.77,2.174,2.654,3.289c2.416,3.044,4.914,6.191,7.811,8.666c0.158,0.135,0.177,0.371,0.042,0.528   C11.096,31.355,10.991,31.399,10.885,31.399z"/>
</g>

            </g>
        </g>
    </g>
    
    <!-- ITEM 6 -->
    <g>
        <defs>
            <clipPath id="clip-path-id-viewbox-item-6">
                <rect x="0.0" y="0.0" width="38.36" height="37.39"/>
            </clipPath>
        </defs>
        <g transform="translate(1095.0 619.0) rotate(0.0 42.5 41.5) scale(2.21584984358707 2.2198448783097082)">
            <g clip-path="url(#clip-path-id-viewbox-item-6)" transform="translate(-0.0 -0.0)">
                
<g>
	<path style="fill:#F9BABA;" d="M0.5,19.08C6.62,12.03,15.06,6,22.6,0.5c1.04,6.54,1.44,13.7,1.13,20.32   c-0.02,0.01-0.04,0.02-0.06,0.03C15.93,20,8.28,19.21,0.5,19.08z"/>
	<path style="fill:#FF564F;" d="M31.24,30.33c-10.09,2.41-18.54,4.15-28.62,6.56c6.92-5.11,14.13-10.93,21.05-16.04   c0.02-0.01,0.04-0.02,0.06-0.03c4.29-1.65,9.86-4.02,14.13-5.66C35.88,19.71,33.22,25.78,31.24,30.33z"/>
	<path style="fill:#E64337;" d="M37.86,15.16c-4.27,1.64-9.84,4.01-14.13,5.66C24.04,14.2,23.64,7.04,22.6,0.5   C28.15,4.88,33.26,9.79,37.86,15.16z"/>
	<path style="fill:#FF736B;" d="M2.62,36.89c-0.09-0.6-1.77-12.28-2.12-17.81c7.78,0.13,15.43,0.92,23.17,1.77   C16.75,25.96,9.54,31.78,2.62,36.89z"/>
	<path d="M2.619,37.39c-0.243,0-0.456-0.178-0.493-0.425C2.109,36.852,0.365,24.85,0.001,19.111   c-0.018-0.275,0.191-0.513,0.468-0.53c0.305-0.022,0.514,0.192,0.53,0.468c0.329,5.202,1.903,16.361,2.115,17.767   c0.042,0.273-0.146,0.528-0.419,0.569C2.67,37.388,2.645,37.39,2.619,37.39z"/>
	<path d="M0.5,19.58c-0.116,0-0.233-0.04-0.328-0.122c-0.208-0.182-0.23-0.497-0.05-0.706C6.01,11.97,14.134,6.05,21.302,0.827   l1.003-0.731c0.223-0.161,0.535-0.113,0.699,0.109c0.162,0.224,0.113,0.536-0.109,0.699l-1.004,0.731   c-7.125,5.191-15.2,11.076-21.013,17.772C0.779,19.521,0.64,19.58,0.5,19.58z"/>
	<path d="M37.86,15.66c-0.141,0-0.281-0.06-0.38-0.175C32.913,10.153,27.802,5.244,22.29,0.892   c-0.217-0.171-0.254-0.485-0.083-0.702c0.172-0.217,0.486-0.253,0.702-0.083c5.563,4.392,10.721,9.347,15.33,14.728   c0.18,0.21,0.155,0.525-0.055,0.705C38.091,15.621,37.975,15.66,37.86,15.66z"/>
	<path d="M31.24,30.83c-0.066,0-0.135-0.014-0.199-0.042c-0.254-0.109-0.369-0.404-0.259-0.657c0.959-2.205,2.079-4.768,3.203-7.34   c1.195-2.736,2.396-5.485,3.417-7.83c0.109-0.253,0.405-0.368,0.657-0.259c0.254,0.109,0.369,0.404,0.259,0.657   c-1.02,2.346-2.221,5.095-3.417,7.831c-1.124,2.573-2.243,5.135-3.203,7.339C31.617,30.717,31.432,30.83,31.24,30.83z"/>
	<path d="M2.62,37.39c-0.227,0-0.432-0.154-0.486-0.384c-0.064-0.269,0.102-0.538,0.37-0.603c5.063-1.211,9.793-2.27,14.367-3.294   c4.538-1.017,9.23-2.067,14.252-3.267c0.27-0.067,0.539,0.102,0.603,0.37c0.064,0.269-0.102,0.538-0.37,0.603   c-5.028,1.201-9.725,2.253-14.266,3.27c-4.571,1.023-9.298,2.082-14.354,3.291C2.698,37.386,2.659,37.39,2.62,37.39z"/>
	<path d="M2.62,37.015c-0.038,0-0.076-0.018-0.101-0.051c-0.041-0.056-0.029-0.134,0.026-0.175   c3.455-2.552,7.043-5.327,10.512-8.011c3.478-2.689,7.073-5.471,10.538-8.029c0.056-0.04,0.134-0.029,0.175,0.026   s0.029,0.134-0.026,0.175c-3.462,2.557-7.057,5.337-10.533,8.026c-3.471,2.685-7.059,5.46-10.517,8.014   C2.672,37.007,2.647,37.015,2.62,37.015z"/>
	<path d="M23.67,20.975c-0.005,0-0.009,0-0.014-0.001c-7.821-0.859-15.478-1.642-23.158-1.77c-0.069-0.001-0.124-0.058-0.123-0.127   c0.001-0.068,0.057-0.123,0.125-0.123c0.001,0,0.001,0,0.002,0c7.692,0.129,15.354,0.911,23.182,1.771   c0.068,0.007,0.118,0.069,0.11,0.138C23.787,20.927,23.734,20.975,23.67,20.975z"/>
	<path d="M23.73,21.085c-0.069,0-0.125-0.056-0.125-0.125v-0.14c0.309-6.578-0.093-13.786-1.128-20.301   c-0.012-0.068,0.035-0.132,0.104-0.143c0.066-0.012,0.132,0.035,0.143,0.104c1.039,6.531,1.44,13.757,1.132,20.346v0.134   C23.855,21.029,23.799,21.085,23.73,21.085z"/>
	<path d="M23.67,20.975c-0.046,0-0.09-0.025-0.111-0.069c-0.031-0.062-0.006-0.137,0.056-0.167l0.06-0.03   c2.147-0.827,4.642-1.844,7.055-2.827c2.43-0.99,4.942-2.015,7.086-2.838c0.065-0.025,0.138,0.007,0.161,0.071   c0.025,0.064-0.007,0.137-0.071,0.161c-2.142,0.823-4.652,1.847-7.081,2.837c-2.414,0.983-4.91,2.001-7.049,2.823l-0.049,0.025   C23.708,20.971,23.689,20.975,23.67,20.975z"/>
</g>

            </g>
        </g>
    </g>
    
    <!-- ITEM 7 -->
    <g>
        <defs>
            <clipPath id="clip-path-id-viewbox-item-7">
                <rect x="0.0" y="0.0" width="41.76" height="39.87"/>
            </clipPath>
        </defs>
        <g transform="translate(1081.0 1002.0) rotate(0.0 45.0 43.0) scale(2.1551724137931036 2.1570102834211187)">
            <g clip-path="url(#clip-path-id-viewbox-item-7)" transform="translate(-0.0 -0.0)">
                
<g>
	<path style="fill:#CDE8E3;" d="M9.485,27.675c-3.11-2.73-6.12-5.59-9.02-8.56c0.11-0.15,0.22-0.31,0.33-0.46   c7.06,0.82,14.12,1.65,21.19,2.48c2.37-6.85,4.7-13.91,7.07-20.76c1.41,2.99,2.79,5.95,4.17,8.89c2.71,5.79,5.4,11.52,8.16,17.41   c-5.17,4.9-10.89,9.08-16.95,12.82C19.245,35.835,14.245,31.895,9.485,27.675z"/>
	<path style="fill:#82CABE;" d="M29.055,0.375c-2.37,6.85-4.7,13.91-7.07,20.76c-7.07-0.83-14.13-1.66-21.19-2.48   c2.79-3.84,5.57-7.68,8.36-11.53C15.915,4.635,22.295,2.875,29.055,0.375z"/>
	<path d="M0.465,19.49c-0.077,0-0.154-0.023-0.222-0.072c-0.167-0.122-0.203-0.357-0.081-0.524l0.328-0.459   c2.188-3.011,4.369-6.021,6.555-9.036l1.806-2.492c0.122-0.168,0.356-0.204,0.523-0.084C9.543,6.944,9.58,7.178,9.459,7.345   L7.652,9.838c-2.185,3.015-4.366,6.026-6.554,9.037l-0.33,0.461C0.695,19.437,0.581,19.49,0.465,19.49z"/>
	<path d="M9.155,7.5c-0.152,0-0.296-0.094-0.352-0.245c-0.072-0.194,0.027-0.41,0.222-0.481c3.361-1.238,6.68-2.313,9.888-3.352   c3.252-1.053,6.613-2.142,10.013-3.398c0.197-0.068,0.41,0.028,0.481,0.222c0.072,0.194-0.027,0.41-0.222,0.481   c-3.413,1.263-6.782,2.354-10.041,3.408c-3.202,1.037-6.513,2.109-9.859,3.342C9.242,7.493,9.198,7.5,9.155,7.5z"/>
	<path d="M21.985,21.26c-0.014,0-0.027-0.002-0.041-0.007c-0.065-0.022-0.1-0.094-0.077-0.159c1.184-3.42,2.376-6.95,3.529-10.363   c1.157-3.425,2.354-6.966,3.541-10.396c0.022-0.065,0.094-0.099,0.159-0.077c0.065,0.022,0.1,0.094,0.077,0.159   c-1.187,3.43-2.383,6.97-3.54,10.395c-1.154,3.414-2.347,6.944-3.53,10.365C22.086,21.228,22.037,21.26,21.985,21.26z"/>
	<path d="M21.985,21.26c-0.005,0-0.01,0-0.015-0.001l-2.401-0.282c-6.268-0.735-12.527-1.471-18.789-2.198   c-0.03-0.006-0.052-0.008-0.072-0.01c-0.029-0.003-0.058-0.006-0.087-0.011c-0.067-0.014-0.111-0.079-0.099-0.147   c0.013-0.067,0.069-0.108,0.147-0.099c0.021,0.005,0.042,0.007,0.063,0.009c0.029,0.003,0.058,0.006,0.087,0.011   c6.251,0.727,12.512,1.462,18.779,2.197L22,21.011c0.068,0.008,0.117,0.07,0.109,0.139C22.101,21.213,22.048,21.26,21.985,21.26z"/>
	<path d="M24.435,39.87c-0.075,0-0.15-0.022-0.216-0.068c-5.255-3.704-10.296-7.689-14.983-11.846   c-3.084-2.707-6.126-5.595-9.039-8.579C0.2,19.383,0.149,19.339,0.109,19.3c-0.146-0.146-0.146-0.385,0-0.531   c0.146-0.146,0.385-0.146,0.531,0l-0.266,0.266l0.303-0.229c2.956,3.019,5.983,5.892,9.055,8.588   c4.668,4.139,9.688,8.106,14.919,11.795c0.17,0.119,0.21,0.354,0.091,0.522C24.669,39.814,24.552,39.87,24.435,39.87z"/>
	<path d="M41.385,27.05c-0.141,0-0.275-0.08-0.34-0.216L31.412,6.278c-0.892-1.903-1.787-3.817-2.695-5.742   c-0.089-0.188-0.009-0.411,0.179-0.499s0.411-0.009,0.499,0.179c0.909,1.926,1.805,3.84,2.696,5.744l9.635,20.557   c0.088,0.188,0.007,0.411-0.181,0.499C41.493,27.039,41.439,27.05,41.385,27.05z"/>
	<path d="M24.435,39.87c-0.125,0-0.248-0.063-0.319-0.178c-0.108-0.177-0.054-0.407,0.122-0.517   c6.581-4.061,12.105-8.238,16.89-12.772c0.15-0.141,0.388-0.136,0.53,0.015s0.136,0.388-0.015,0.53   c-4.821,4.569-10.386,8.777-17.011,12.866C24.571,39.852,24.503,39.87,24.435,39.87z"/>
</g>

            </g>
        </g>
    </g>
    
    <!-- ITEM 8 -->
    <g>
        <defs>
            <clipPath id="clip-path-id-viewbox-item-8">
                <rect x="0.0" y="0.0" width="123.23" height="127.16"/>
            </clipPath>
        </defs>
        <g transform="translate(849.0 213.0) rotate(0.0 133.0 137.0) scale(2.1585652844274934 2.1547656495753382)">
            <g clip-path="url(#clip-path-id-viewbox-item-8)" transform="translate(-0.0 -0.0)">
                
<g>
	<path style="fill:#CDE8E3;" d="M110.43,23.47c5.11,17.71,7.93,36.44,11.8,53.79c-9.45-5.13-18.92-10.47-28.48-15.91   c-9.71-5.52-19.54-11.14-29.56-16.73C79.99,38.73,95.47,31.25,110.43,23.47z"/>
	<path style="fill:#F9BABA;" d="M122.23,77.26c-18.11,3.3-34.71,8.63-52.82,11.93c8.73-7.85,16.17-19.29,24.3-27.76l0.04-0.08   C103.31,66.79,112.78,72.13,122.23,77.26z"/>
	<path style="fill:#82CABE;" d="M69.41,89.19c18.11-3.3,34.71-8.63,52.82-11.93c-30.91,20.18-62.91,38.1-98.43,48.9   C38.06,113.78,55.14,101.56,69.41,89.19z"/>
	<path style="fill:#CDE8E3;" d="M93.75,61.35l-0.04,0.08c-8.13,8.47-15.57,19.91-24.3,27.76C67.85,75,65.75,58.81,64.19,44.62   C74.21,50.21,84.04,55.83,93.75,61.35z"/>
	<path style="fill:#82CABE;" d="M110.43,23.47c-14.96,7.78-30.44,15.26-46.24,21.15C58.89,29.78,53.97,14.75,46.26,1   C68.72,5.03,90.25,12.79,110.43,23.47z"/>
	<path style="fill:#86AEBA;" d="M64.19,44.62c1.56,14.19,3.66,30.38,5.22,44.57c-14.27,12.37-31.35,24.59-45.61,36.97   c-0.43-16.93,0.24-36.04-0.18-52.96c0.01-0.04,0.02-0.09,0.04-0.13l0.27,0.08C38.01,65.31,51.78,54.9,64.19,44.62z"/>
	<path style="fill:#F9BABA;" d="M46.26,1c7.71,13.75,12.63,28.78,17.93,43.62c-10.06-2.52-20.44-4.79-30.86-6.83   c-10.82-2.12-21.7-4-32.33-5.64C15.01,20.32,30.2,9.86,46.26,1z"/>
	<path style="fill:#CDE8E3;" d="M64.19,44.62C51.78,54.9,38.01,65.31,23.93,73.15l-0.27-0.08c2.9-10.15,6.76-25.1,9.66-35.22   l0.01-0.06C43.75,39.83,54.13,42.1,64.19,44.62z"/>
	<path style="fill:#CDE8E3;" d="M33.33,37.79l-0.01,0.06c-2.9,10.12-6.76,25.07-9.66,35.22c-0.02,0.04-0.03,0.09-0.04,0.13   C15.39,59.96,8.83,45.64,1,32.15C11.63,33.79,22.51,35.67,33.33,37.79z"/>
	<path style="fill:#82CABE;" d="M23.62,73.2c0.42,16.92-0.25,36.03,0.18,52.96C11.99,96.03,4.33,64.34,1,32.15   C8.83,45.64,15.39,59.96,23.62,73.2z"/>
	<path d="M1.001,33.15c-0.285,0-0.567-0.12-0.765-0.354c-0.356-0.422-0.304-1.054,0.118-1.409   C14.418,19.511,29.7,8.994,45.777,0.124c0.484-0.265,1.092-0.09,1.359,0.393c0.267,0.484,0.091,1.092-0.393,1.359   C30.781,10.681,15.608,21.124,1.646,32.914C1.457,33.073,1.229,33.15,1.001,33.15z"/>
	<path d="M110.429,24.47c-0.157,0-0.317-0.037-0.467-0.116C89.272,13.403,67.781,5.877,46.083,1.985   c-0.543-0.098-0.905-0.617-0.808-1.161c0.098-0.543,0.615-0.907,1.161-0.808c21.9,3.929,43.588,11.522,64.461,22.57   c0.488,0.259,0.675,0.863,0.416,1.352C111.134,24.277,110.788,24.47,110.429,24.47z"/>
	<path d="M122.229,78.26c-0.458,0-0.871-0.316-0.975-0.782c-1.345-6.027-2.588-12.351-3.791-18.466   c-2.294-11.669-4.667-23.735-7.994-35.265c-0.153-0.53,0.153-1.085,0.684-1.238c0.537-0.151,1.085,0.154,1.238,0.684   c3.351,11.612,5.732,23.723,8.035,35.434c1.2,6.103,2.44,12.414,3.779,18.416c0.121,0.539-0.219,1.073-0.758,1.193   C122.374,78.252,122.301,78.26,122.229,78.26z"/>
	<path d="M23.8,127.16c-0.399,0-0.776-0.24-0.931-0.635C11.05,96.373,3.358,64.656,0.005,32.252   c-0.057-0.549,0.343-1.04,0.893-1.098c0.535-0.051,1.041,0.343,1.098,0.893c3.333,32.223,10.982,63.764,22.735,93.747   c0.202,0.515-0.052,1.095-0.565,1.296C24.045,127.137,23.922,127.16,23.8,127.16z"/>
	<path d="M23.8,127.16c-0.429,0-0.825-0.277-0.957-0.709c-0.16-0.528,0.138-1.087,0.666-1.248   c38.912-11.831,72.906-32.283,98.174-48.779c0.463-0.302,1.082-0.173,1.384,0.29c0.303,0.463,0.172,1.082-0.29,1.384   c-25.38,16.569-59.532,37.114-98.686,49.02C23.995,127.146,23.896,127.16,23.8,127.16z"/>
	<path d="M64.19,44.995c-0.03,0-0.061-0.004-0.091-0.012c-9.561-2.395-19.938-4.69-30.841-6.825   c-10.407-2.038-21.279-3.935-32.315-5.637c-0.204-0.032-0.345-0.224-0.313-0.429c0.032-0.203,0.22-0.347,0.429-0.313   c11.045,1.704,21.928,3.603,32.345,5.643c10.916,2.138,21.305,4.437,30.878,6.835c0.201,0.05,0.323,0.254,0.272,0.454   C64.511,44.881,64.358,44.995,64.19,44.995z"/>
	<path d="M122.23,77.635c-0.061,0-0.122-0.015-0.179-0.046c-9.93-5.39-19.973-11.069-28.486-15.913l-5.294-3.012   c-7.896-4.494-16.062-9.141-24.264-13.718c-0.181-0.101-0.246-0.329-0.145-0.51c0.102-0.182,0.332-0.243,0.51-0.145   c8.205,4.577,16.372,9.226,24.27,13.72l5.294,3.012c8.511,4.843,18.549,10.52,28.473,15.907c0.183,0.099,0.25,0.326,0.15,0.508   C122.492,77.564,122.363,77.635,122.23,77.635z"/>
	<path d="M64.19,44.745c-0.051,0-0.099-0.031-0.117-0.081c-0.024-0.065,0.009-0.137,0.073-0.161   c13.605-5.071,27.862-11.592,46.227-21.144c0.062-0.028,0.137-0.008,0.169,0.054c0.031,0.062,0.008,0.137-0.054,0.169   c-18.374,9.556-32.64,16.08-46.254,21.155C64.219,44.742,64.205,44.745,64.19,44.745z"/>
	<path d="M64.19,44.745c-0.052,0-0.1-0.032-0.118-0.083c-0.642-1.798-1.278-3.598-1.914-5.398   c-4.541-12.845-9.235-26.126-16.007-38.201c-0.033-0.061-0.012-0.137,0.048-0.171c0.061-0.034,0.137-0.011,0.171,0.048   c6.781,12.095,11.479,25.387,16.023,38.241c0.637,1.8,1.272,3.6,1.915,5.397c0.022,0.065-0.011,0.137-0.076,0.16   C64.218,44.743,64.204,44.745,64.19,44.745z"/>
	<path d="M23.62,73.325c-0.042,0-0.082-0.021-0.106-0.059c-4.671-7.516-8.872-15.508-12.936-23.236   c-3.097-5.892-6.299-11.982-9.686-17.817c-0.034-0.06-0.014-0.136,0.046-0.171c0.058-0.033,0.135-0.015,0.171,0.046   c3.389,5.839,6.592,11.933,9.69,17.825c4.061,7.726,8.26,15.714,12.927,23.221c0.036,0.059,0.019,0.136-0.04,0.173   C23.665,73.319,23.642,73.325,23.62,73.325z"/>
	<path d="M23.93,73.275c-0.044,0-0.086-0.023-0.109-0.064c-0.033-0.06-0.012-0.136,0.049-0.17   c12.102-6.738,24.889-15.8,40.24-28.518c0.054-0.042,0.132-0.035,0.177,0.017c0.044,0.054,0.036,0.132-0.017,0.177   C48.906,57.443,36.107,66.513,23.991,73.259C23.972,73.27,23.951,73.275,23.93,73.275z"/>
	<path d="M69.41,89.315c-0.063,0-0.117-0.047-0.124-0.111c-0.781-7.104-1.713-14.838-2.613-22.316   c-0.898-7.457-1.827-15.168-2.606-22.254c-0.008-0.068,0.042-0.131,0.11-0.138c0.074-0.01,0.13,0.041,0.138,0.11   c0.779,7.084,1.708,14.795,2.606,22.252c0.901,7.479,1.833,15.213,2.613,22.318c0.008,0.068-0.042,0.131-0.11,0.138   C69.418,89.315,69.414,89.315,69.41,89.315z"/>
	<path d="M69.41,89.315c-0.06,0-0.112-0.042-0.123-0.103c-0.013-0.068,0.033-0.133,0.101-0.146   c9.052-1.649,17.872-3.842,26.402-5.963c8.534-2.122,17.359-4.316,26.418-5.967c0.074-0.012,0.133,0.033,0.146,0.101   c0.013,0.068-0.033,0.133-0.101,0.146c-9.052,1.649-17.872,3.842-26.402,5.963c-8.534,2.122-17.359,4.316-26.418,5.967   C69.424,89.314,69.416,89.315,69.41,89.315z"/>
	<path d="M69.41,89.315c-0.034,0-0.068-0.014-0.093-0.041c-0.046-0.052-0.042-0.131,0.009-0.177   c5.02-4.513,9.666-10.282,14.16-15.861c3.285-4.078,6.682-8.295,10.135-11.893c0.048-0.049,0.127-0.051,0.177-0.003   s0.051,0.127,0.003,0.177c-3.445,3.589-6.838,7.802-10.119,11.875c-4.501,5.588-9.154,11.365-14.188,15.891   C69.469,89.304,69.44,89.315,69.41,89.315z"/>
	<path d="M23.8,126.285c-0.035,0-0.069-0.015-0.095-0.043c-0.045-0.052-0.039-0.131,0.013-0.177   c7.158-6.215,15.157-12.49,22.893-18.561c7.675-6.021,15.61-12.249,22.717-18.409c0.051-0.046,0.13-0.04,0.177,0.013   c0.045,0.053,0.039,0.131-0.013,0.177c-7.111,6.164-15.05,12.393-22.727,18.417c-7.732,6.067-15.729,12.342-22.883,18.553   C23.859,126.275,23.83,126.285,23.8,126.285z"/>
	<path d="M23.8,126.285c-0.067,0-0.123-0.054-0.125-0.122c-0.217-8.505-0.153-17.709-0.093-26.61   c0.06-8.814,0.122-17.93-0.088-26.35c-0.002-0.068,0.053-0.126,0.122-0.128c0.001,0,0.002,0,0.003,0   c0.067,0,0.123,0.054,0.125,0.122c0.21,8.423,0.147,17.54,0.088,26.357c-0.061,8.899-0.123,18.101,0.093,26.603   c0.002,0.068-0.053,0.126-0.122,0.128C23.802,126.285,23.801,126.285,23.8,126.285z"/>
	<path d="M23.747,73.203L23.62,73.2l-0.121-0.032c0.017-0.063,0.027-0.109,0.049-0.152c1.427-5.001,3.127-11.308,4.771-17.405   c1.68-6.234,3.417-12.682,4.882-17.794c0.02-0.066,0.09-0.101,0.154-0.086c0.066,0.019,0.105,0.088,0.086,0.154   c-1.464,5.111-3.201,11.557-4.881,17.79c-1.644,6.1-3.344,12.406-4.779,17.43C23.762,73.144,23.754,73.175,23.747,73.203z"/>
</g>

            </g>
        </g>
    </g>
    
    <!-- ITEM 9 -->
    <g>
        <defs>
            <clipPath id="clip-path-id-viewbox-item-9">
                <rect x="0.0" y="0.0" width="38.1" height="84.03"/>
            </clipPath>
        </defs>
        <g transform="translate(958.0 794.0) rotate(0.0 42.0 91.0) scale(2.204724409448819 2.165893133404736)">
            <g clip-path="url(#clip-path-id-viewbox-item-9)" transform="translate(-0.0 -0.0)">
                
<g>
	<path style="fill:#86AEBA;" d="M30.92,33.67c2.39,16.43,5.38,33.3,6.68,49.86c-3.36-0.05-6.29-0.05-9.16-0.1   c-1.7-8.8-3.97-18.02-5.66-26.82C24.67,48.79,27.57,40.99,30.92,33.67z"/>
	<path style="fill:#334A5A;" d="M28.44,83.43c-3.73-0.07-7.35-0.22-11.65-0.71C10.33,67.18,4.96,51.18,0.74,34.89   c0-0.25,0-0.49-0.01-0.74c7.91,6.92,15.29,14.43,22.05,22.46C24.47,65.41,26.74,74.63,28.44,83.43z"/>
	<path style="fill:#86AEBA;" d="M30.92,33.67c-3.35,7.32-6.25,15.12-8.14,22.94C16.02,48.58,8.64,41.07,0.73,34.15   C0.66,22.94,0.58,11.72,0.5,0.51L0.6,0.5C9.74,12.53,20.08,23.14,30.92,33.67z"/>
	<path d="M0.74,35.435c-0.276,0-0.5-0.179-0.5-0.455c0-0.333,0-0.567-0.01-0.811C0.16,22.943,0.08,11.723,0,0.513   C-0.002,0.237,0.221,0.012,0.496,0.01c0.002,0,0.003,0,0.004,0c0.274,0,0.498,0.222,0.5,0.496c0.08,11.21,0.16,22.432,0.23,33.642   c0.01,0.24,0.01,0.486,0.01,0.743C1.24,35.167,1.017,35.435,0.74,35.435z"/>
	<path d="M30.92,34.17c-0.126,0-0.251-0.047-0.349-0.142C20.411,24.159,9.699,13.303,0.201,0.803   c-0.167-0.22-0.124-0.534,0.096-0.701c0.22-0.166,0.533-0.124,0.701,0.096c9.458,12.448,20.138,23.271,30.271,33.114   c0.198,0.192,0.202,0.509,0.01,0.707C31.181,34.119,31.05,34.17,30.92,34.17z"/>
	<path d="M16.79,83.22c-0.195,0-0.382-0.116-0.462-0.308C9.875,67.389,4.468,51.274,0.256,35.015l-0.089-0.338   c-0.07-0.267,0.088-0.54,0.355-0.611c0.269-0.073,0.54,0.088,0.611,0.355l0.089,0.337c4.201,16.22,9.594,32.29,16.029,47.769   c0.105,0.256-0.015,0.548-0.27,0.654C16.919,83.207,16.854,83.22,16.79,83.22z"/>
	<path d="M22.78,56.86c-0.073,0-0.144-0.032-0.191-0.089C15.878,48.8,8.468,41.253,0.565,34.339   c-0.061-0.053-0.081-0.07-0.103-0.092c-0.098-0.098-0.098-0.256,0-0.354s0.256-0.098,0.354,0L0.64,34.07l0.204-0.153   c0.007,0.006,0.058,0.051,0.063,0.057c7.785,6.811,15.104,14.247,21.747,22.1c1.758-7.12,4.461-14.689,8.038-22.508   c0.058-0.126,0.205-0.182,0.332-0.123c0.125,0.058,0.181,0.206,0.123,0.332c-3.645,7.964-6.378,15.666-8.124,22.895   c-0.022,0.092-0.094,0.163-0.186,0.185C22.818,56.858,22.8,56.86,22.78,56.86z"/>
	<path d="M28.447,83.642c-0.048,0-0.09-0.024-0.106-0.074c-0.007-0.021-0.011-0.046-0.015-0.07   c-0.001-0.006-0.008-0.038-0.009-0.044c-0.84-4.351-1.837-8.88-2.801-13.26c-0.985-4.479-2.005-9.111-2.859-13.561   c-0.013-0.067,0.031-0.133,0.1-0.146c0.068-0.01,0.134,0.032,0.146,0.1c0.854,4.446,1.872,9.076,2.857,13.554   c0.964,4.382,1.961,8.912,2.803,13.267c0.003,0.005,0.007,0.03,0.011,0.056c0.021,0.065-0.013,0.15-0.078,0.172   C28.479,83.639,28.463,83.642,28.447,83.642z"/>
	<path d="M37.599,84.03c-0.258,0-0.477-0.199-0.497-0.461c-0.98-12.484-2.944-25.291-4.845-37.677   c-0.624-4.069-1.246-8.123-1.832-12.15c-0.039-0.273,0.149-0.527,0.423-0.567c0.265-0.035,0.527,0.148,0.567,0.423   c0.585,4.025,1.206,8.077,1.83,12.144c1.903,12.403,3.87,25.229,4.853,37.75c0.022,0.275-0.184,0.516-0.459,0.537   C37.625,84.029,37.612,84.03,37.599,84.03z"/>
	<path d="M37.6,84.03c-0.002,0-0.005,0-0.008,0c-1.608-0.023-3.118-0.036-4.57-0.048c-1.581-0.014-3.094-0.025-4.59-0.052   c-3.382-0.063-7.14-0.194-11.698-0.714c-0.274-0.031-0.472-0.279-0.44-0.554c0.031-0.275,0.284-0.47,0.554-0.44   c4.517,0.516,8.246,0.645,11.604,0.708c1.492,0.026,3.002,0.038,4.58,0.052c1.454,0.012,2.966,0.024,4.577,0.048   c0.275,0.004,0.496,0.231,0.492,0.508C38.096,83.811,37.872,84.03,37.6,84.03z"/>
</g>

            </g>
        </g>
    </g>
    
    <!-- ITEM 10 -->
    <g>
        <defs>
            <clipPath id="clip-path-id-viewbox-item-10">
                <rect x="0.0" y="0.0" width="16.48" height="27.449"/>
            </clipPath>
        </defs>
        <g transform="translate(1069.0 1205.0) rotate(0.0 18.0 29.5) scale(2.1844660194174756 2.149440781084921)">
            <g clip-path="url(#clip-path-id-viewbox-item-10)" transform="translate(-0.0 -0.0)">
                
<g>
	<path style="fill:#FF564F;" d="M15.855,17.784c0.08,1.61,0.17,3.23,0.25,4.84c-3.65-6.53-11.77-17.1-14.5-21.08   c3.86-1.09,9.35-1.23,13.35-1.15C15.265,6.194,15.555,11.984,15.855,17.784z"/>
	<path style="fill:#E64337;" d="M16.105,22.624c-4.98,1.66-10.87,3.43-15.73,4.45c0.27-5.39,0.54-11.22,0.81-16.9   c0.14-2.94,0.28-5.84,0.42-8.63C4.335,5.524,12.455,16.094,16.105,22.624z"/>
	<path d="M0.375,27.449c-0.006,0-0.013,0-0.019,0C0.15,27.438-0.01,27.262,0,27.055c0.207-4.125,0.413-8.507,0.62-12.883   l0.189-4.017c0.141-2.94,0.28-5.841,0.42-8.631C1.241,1.319,1.431,1.17,1.623,1.168C1.83,1.179,1.99,1.355,1.98,1.562   c-0.14,2.79-0.279,5.69-0.42,8.629l-0.19,4.017c-0.206,4.377-0.413,8.76-0.619,12.885C0.74,27.293,0.574,27.449,0.375,27.449z"/>
	<path d="M1.605,1.918c-0.164,0-0.314-0.107-0.361-0.273c-0.056-0.199,0.061-0.406,0.26-0.463c3.917-1.104,9.482-1.24,13.46-1.163   c0.207,0.004,0.371,0.176,0.367,0.383c-0.004,0.204-0.171,0.367-0.375,0.367c-0.002,0-0.005,0-0.008,0   C11.02,0.689,5.535,0.823,1.706,1.905C1.672,1.914,1.638,1.918,1.605,1.918z"/>
	<path d="M16.105,22.999c-0.199,0-0.364-0.156-0.375-0.356l-0.542-10.534c-0.199-3.897-0.398-7.794-0.606-11.694   c-0.012-0.206,0.147-0.383,0.354-0.394c0.202-0.034,0.383,0.147,0.394,0.354c0.209,3.9,0.408,7.797,0.607,11.695l0.543,10.535   c0.01,0.207-0.149,0.383-0.356,0.394C16.117,22.999,16.111,22.999,16.105,22.999z"/>
	<path d="M0.375,27.449c-0.174,0-0.33-0.121-0.367-0.298c-0.042-0.203,0.088-0.401,0.29-0.444   c5.301-1.113,11.457-3.028,15.688-4.438c0.195-0.07,0.408,0.041,0.474,0.237s-0.04,0.408-0.237,0.474   c-4.249,1.417-10.435,3.341-15.771,4.462C0.426,27.446,0.401,27.449,0.375,27.449z"/>
	<path d="M16.105,22.749c-0.044,0-0.086-0.023-0.109-0.064C13.37,17.987,8.443,11.215,4.844,6.271   c-1.383-1.9-2.578-3.542-3.343-4.657C1.462,1.557,1.477,1.479,1.534,1.44c0.057-0.039,0.135-0.025,0.174,0.033   c0.763,1.111,1.956,2.752,3.338,4.65c3.603,4.95,8.535,11.729,11.168,16.439c0.033,0.06,0.012,0.136-0.049,0.17   C16.147,22.744,16.125,22.749,16.105,22.749z"/>
</g>

            </g>
        </g>
    </g>
    
    <!-- ITEM 11 -->
    <g>
        <defs>
            <clipPath id="clip-path-id-viewbox-item-11">
                <rect x="0.0" y="0.0" width="77.51" height="76.09"/>
            </clipPath>
        </defs>
        <g transform="translate(854.0 1086.0) rotate(0.0 82.5 81.5) scale(2.1287575796671394 2.1422000262846628)">
            <g clip-path="url(#clip-path-id-viewbox-item-11)" transform="translate(-0.0 -0.0)">
                
<g>
	<path style="fill:#CDE8E3;" d="M9.67,25.42c-0.512,0-1.023-0.195-1.414-0.586l-0.333-0.333c-2.438-2.439-4.886-4.886-7.334-7.325   c-0.783-0.779-0.785-2.046-0.006-2.828c0.779-0.784,2.047-0.785,2.828-0.006c2.45,2.44,4.899,4.89,7.341,7.331l0.332,0.333   c0.781,0.781,0.781,2.047,0,2.828C10.693,25.225,10.181,25.42,9.67,25.42z"/>
	<path style="fill:#CDE8E3;" d="M49.172,12.25c-0.676,0-1.335-0.343-1.712-0.962l-5.02-8.25c-0.573-0.944-0.272-2.174,0.672-2.748   c0.944-0.572,2.174-0.271,2.748,0.671l5.02,8.25c0.573,0.944,0.272,2.174-0.672,2.748C49.884,12.156,49.525,12.25,49.172,12.25z"/>
	<path style="fill:#CDE8E3;" d="M65.522,52.26c-0.729,0-1.433-0.4-1.785-1.095c-0.5-0.984-0.107-2.188,0.877-2.689   c3.327-1.69,7.066-2.664,10.814-2.815c1.131-0.047,2.035,0.815,2.079,1.918c0.045,1.104-0.813,2.034-1.917,2.079   c-3.178,0.128-6.347,0.953-9.164,2.384C66.136,52.19,65.827,52.26,65.522,52.26z"/>
	<path style="fill:#CDE8E3;" d="M49.812,76.09c-0.652,0-1.291-0.318-1.675-0.904c-2.221-3.389-2.87-7.735-1.737-11.625   c0.309-1.061,1.417-1.667,2.479-1.361c1.061,0.309,1.67,1.419,1.36,2.479c-0.81,2.782-0.346,5.891,1.243,8.314   c0.605,0.924,0.348,2.164-0.576,2.769C50.568,75.984,50.188,76.09,49.812,76.09z"/>
</g>

            </g>
        </g>
    </g>
    
    <!-- ITEM 12 -->
    <g>
        <defs>
            <clipPath id="clip-path-id-viewbox-item-12">
                <rect x="0.0" y="0.0" width="220.14" height="198.0"/>
            </clipPath>
        </defs>
        <g transform="translate(742.0 124.0) rotate(0.0 235.5 211.5) scale(2.1395475606432273 2.1363636363636362)">
            <g clip-path="url(#clip-path-id-viewbox-item-12)" transform="translate(-0.0 -0.0)">
                
<g>
	<path style="fill:#CDE8E3;" d="M73.558,34.381c-1.311,0-2.515-0.866-2.887-2.19l-6.58-23.44c-0.447-1.595,0.482-3.251,2.078-3.699   c1.59-0.447,3.251,0.482,3.699,2.077l6.58,23.44c0.447,1.595-0.482,3.251-2.078,3.699C74.1,34.344,73.826,34.381,73.558,34.381z"/>
	<path style="fill:#CDE8E3;" d="M116.214,33.561c-0.133,0-0.268-0.009-0.403-0.027c-1.642-0.22-2.794-1.73-2.574-3.373l3.7-27.56   c0.221-1.641,1.729-2.794,3.373-2.574c1.642,0.22,2.794,1.73,2.574,3.373l-3.7,27.56C118.982,32.466,117.693,33.561,116.214,33.561   z"/>
	<path style="fill:#CDE8E3;" d="M154.577,44.481c-0.511,0-1.028-0.13-1.502-0.405c-1.434-0.831-1.922-2.667-1.091-4.1l16.45-28.37   c0.83-1.433,2.667-1.923,4.101-1.09c1.434,0.831,1.922,2.667,1.091,4.1l-16.45,28.37C156.619,43.944,155.612,44.481,154.577,44.481   z"/>
	<path style="fill:#CDE8E3;" d="M182.422,69.22c-0.915,0-1.819-0.417-2.408-1.208c-0.989-1.329-0.715-3.208,0.614-4.198l20.97-15.62   c1.328-0.99,3.208-0.715,4.198,0.614c0.989,1.329,0.715,3.208-0.614,4.198l-20.97,15.62   C183.674,69.026,183.045,69.22,182.422,69.22z"/>
	<path style="fill:#CDE8E3;" d="M187.939,101.83c-1.638,0-2.976-1.315-2.999-2.958c-0.023-1.657,1.301-3.019,2.958-3.042l29.2-0.41   c0.014,0,0.028,0,0.043,0c1.638,0,2.976,1.315,2.999,2.958c0.023,1.657-1.301,3.019-2.958,3.042l-29.2,0.41   C187.968,101.83,187.953,101.83,187.939,101.83z"/>
	<path style="fill:#CDE8E3;" d="M208.621,146.541c-0.282,0-0.569-0.041-0.854-0.125l-26.32-7.81   c-1.588-0.471-2.494-2.141-2.022-3.729c0.472-1.588,2.137-2.495,3.729-2.022l26.32,7.81c1.588,0.471,2.494,2.141,2.022,3.729   C211.109,145.697,209.915,146.541,208.621,146.541z"/>
	<path style="fill:#CDE8E3;" d="M155.572,177.381c-1.127,0-2.207-0.639-2.718-1.726l-9.46-20.15c-0.704-1.5-0.059-3.287,1.44-3.991   c1.5-0.704,3.287-0.059,3.991,1.441l9.46,20.149c0.704,1.5,0.059,3.287-1.44,3.991   C156.434,177.289,155.999,177.381,155.572,177.381z"/>
	<path style="fill:#CDE8E3;" d="M121.437,192.191c-1.381,0-2.623-0.959-2.929-2.363l-4.119-18.921   c-0.353-1.618,0.675-3.217,2.294-3.569c1.621-0.355,3.217,0.675,3.569,2.294l4.119,18.921c0.353,1.618-0.675,3.217-2.294,3.569   C121.862,192.169,121.648,192.191,121.437,192.191z"/>
	<path style="fill:#CDE8E3;" d="M84.724,198c-0.105,0-0.211-0.005-0.317-0.017c-1.647-0.173-2.843-1.649-2.67-3.297l1.641-15.62   c0.174-1.648,1.669-2.85,3.297-2.67c1.647,0.173,2.843,1.649,2.67,3.297l-1.641,15.62C87.541,196.855,86.239,198,84.724,198z"/>
	<path style="fill:#CDE8E3;" d="M41.772,175.91c-0.912,0-1.813-0.414-2.402-1.2c-0.994-1.325-0.725-3.206,0.601-4.2l14.801-11.101   c1.324-0.992,3.206-0.725,4.2,0.601s0.725,3.206-0.601,4.2l-14.801,11.101C43.03,175.715,42.399,175.91,41.772,175.91z"/>
	<path style="fill:#CDE8E3;" d="M19.041,143.241c-1.175,0-2.29-0.695-2.771-1.847c-0.637-1.529,0.086-3.286,1.615-3.923l24.67-10.28   c1.531-0.637,3.286,0.085,3.924,1.615c0.637,1.529-0.086,3.286-1.615,3.923l-24.67,10.28   C19.816,143.166,19.426,143.241,19.041,143.241z"/>
	<path style="fill:#CDE8E3;" d="M2.998,99.24c-1.619,0-2.953-1.291-2.997-2.919c-0.045-1.656,1.262-3.035,2.918-3.08l30.43-0.82   c1.652-0.025,3.035,1.262,3.08,2.918s-1.262,3.035-2.918,3.08l-30.43,0.82C3.054,99.239,3.025,99.24,2.998,99.24z"/>
</g>

            </g>
        </g>
    </g>
    
    <!-- ITEM 13 -->
    <g>
        <defs>
            <clipPath id="clip-path-id-viewbox-item-13">
                <rect x="0.0" y="0.0" width="87.1" height="131.06"/>
            </clipPath>
        </defs>
        <g transform="translate(900.0 760.0) rotate(0.0 93.5 140.0) scale(2.1469575200918487 2.1364260643979858)">
            <g clip-path="url(#clip-path-id-viewbox-item-13)" transform="translate(-0.0 -0.0)">
                
<g>
	<path style="fill:#86AEBA;" d="M13.222,91.59c-0.674,0-1.332-0.341-1.709-0.958c-0.575-0.943-0.278-2.174,0.665-2.75l7.47-4.56   c0.942-0.575,2.173-0.278,2.749,0.665c0.575,0.943,0.277,2.174-0.665,2.749l-7.47,4.56C13.937,91.496,13.578,91.59,13.222,91.59z"/>
	<path style="fill:#86AEBA;" d="M12.411,49.65c-0.173,0-0.349-0.022-0.523-0.07l-10.41-2.81c-1.066-0.289-1.696-1.387-1.408-2.454   c0.289-1.066,1.389-1.696,2.453-1.408l10.411,2.81c1.065,0.289,1.696,1.388,1.407,2.454C14.099,49.064,13.292,49.65,12.411,49.65z"/>
	<path style="fill:#86AEBA;" d="M13.651,14.38c-0.768,0-1.5-0.444-1.83-1.191c-1.403-3.173-2.798-6.346-4.192-9.52l-0.38-0.865   C6.804,1.793,7.264,0.613,8.275,0.169c1.013-0.442,2.192,0.015,2.636,1.026l0.38,0.865c1.394,3.17,2.786,6.34,4.188,9.51   c0.446,1.01-0.01,2.191-1.021,2.638C14.196,14.325,13.921,14.38,13.651,14.38z"/>
	<path style="fill:#86AEBA;" d="M55.528,28.47c-0.302,0-0.607-0.068-0.896-0.213c-0.987-0.496-1.386-1.697-0.89-2.685   c0.962-1.917,1.92-3.834,2.875-5.748l1.273-2.549c0.493-0.987,1.693-1.389,2.684-0.895c0.987,0.494,1.389,1.695,0.895,2.684   l-1.272,2.547c-0.957,1.917-1.916,3.836-2.88,5.755C56.966,28.066,56.26,28.47,55.528,28.47z"/>
	<path style="fill:#86AEBA;" d="M72.609,57.98c-1.066,0-1.952-0.841-1.997-1.916c-0.047-1.104,0.811-2.036,1.914-2.083l9.97-0.42   c1.115-0.039,2.036,0.811,2.082,1.914c0.047,1.104-0.811,2.036-1.914,2.082l-9.97,0.42C72.666,57.98,72.637,57.98,72.609,57.98z"/>
	<path style="fill:#86AEBA;" d="M85.099,97.351c-0.251,0-0.506-0.047-0.752-0.148c-2.313-0.94-4.62-1.886-6.93-2.833l-2.216-0.909   c-1.022-0.418-1.512-1.587-1.093-2.609c0.419-1.021,1.586-1.511,2.608-1.092l2.218,0.909c2.307,0.946,4.609,1.891,6.918,2.83   c1.023,0.416,1.516,1.583,1.1,2.606C86.637,96.88,85.889,97.351,85.099,97.351z"/>
	<path style="fill:#86AEBA;" d="M56.829,131.06c-1.069,0-1.956-0.845-1.997-1.922c-0.141-3.592-0.28-7.194-0.41-10.796   c-0.039-1.104,0.823-2.031,1.927-2.071c1.114-0.052,2.031,0.823,2.071,1.927c0.13,3.598,0.27,7.196,0.408,10.784   c0.043,1.104-0.816,2.033-1.92,2.076C56.88,131.06,56.854,131.06,56.829,131.06z"/>
</g>

            </g>
        </g>
    </g>
    
    <!-- ITEM 14 -->
    <g>
        <defs>
            <clipPath id="clip-path-id-viewbox-item-14">
                <rect x="0.0" y="0.0" width="85.99" height="82.48"/>
            </clipPath>
        </defs>
        <g transform="translate(1043.0 577.0) rotate(0.0 92.0 89.0) scale(2.139783695778579 2.1580989330746845)">
            <g clip-path="url(#clip-path-id-viewbox-item-14)" transform="translate(-0.0 -0.0)">
                
<g>
	<path style="fill:#FF564F;" d="M24.101,18.87c-0.565,0-1.128-0.239-1.523-0.703l-7.07-8.3c-0.716-0.841-0.615-2.103,0.226-2.819   c0.839-0.718,2.102-0.618,2.819,0.225l7.07,8.3c0.716,0.841,0.615,2.103-0.226,2.82C25.021,18.713,24.56,18.87,24.101,18.87z"/>
	<path style="fill:#FF564F;" d="M53.082,11.891c-0.136,0-0.273-0.014-0.411-0.043c-1.081-0.226-1.774-1.286-1.549-2.367l1.66-7.89   c0.227-1.082,1.289-1.775,2.367-1.548c1.081,0.226,1.774,1.286,1.549,2.367l-1.66,7.89C54.841,11.243,54.009,11.891,53.082,11.891z   "/>
	<path style="fill:#FF564F;" d="M75.689,32.431c-0.86,0-1.655-0.56-1.915-1.426c-0.317-1.058,0.284-2.173,1.342-2.49l8.298-2.489   c1.055-0.318,2.174,0.28,2.491,1.339c0.318,1.058-0.281,2.173-1.339,2.491l-8.302,2.491C76.073,32.403,75.88,32.431,75.689,32.431z   "/>
	<path style="fill:#FF564F;" d="M70.392,69.7c-0.629,0-1.248-0.296-1.638-0.85l-5.971-8.49c-0.636-0.903-0.418-2.151,0.485-2.786   c0.903-0.635,2.15-0.418,2.786,0.485l5.971,8.49c0.636,0.903,0.418,2.151-0.485,2.786C71.191,69.582,70.79,69.7,70.392,69.7z"/>
	<path style="fill:#FF564F;" d="M40.62,82.48c-1.104,0-2-0.896-2-2v-9.55c0-1.104,0.896-2,2-2s2,0.896,2,2v9.55   C42.62,81.584,41.724,82.48,40.62,82.48z"/>
	<path style="fill:#FF564F;" d="M1.998,60.471c-0.925,0-1.756-0.646-1.955-1.586c-0.229-1.081,0.463-2.142,1.543-2.371   c1.894-0.4,3.998-0.904,6.034-1.39c1.797-0.43,3.495-0.835,4.771-1.102c1.084-0.23,2.14,0.469,2.366,1.55   c0.226,1.082-0.469,2.141-1.55,2.366c-1.22,0.254-2.89,0.653-4.658,1.076c-2.061,0.493-4.191,1.002-6.136,1.413   C2.274,60.456,2.135,60.471,1.998,60.471z"/>
</g>

            </g>
        </g>
    </g>
    
    <!-- ITEM 15 -->
    <g>
        <defs>
            <clipPath id="clip-path-id-viewbox-item-15">
                <rect x="0.0" y="0.0" width="95.111" height="34.575"/>
            </clipPath>
        </defs>
        <g transform="translate(397.0 1296.0) rotate(0.0 104.0 38.0) scale(2.186918442661732 2.1981200289226317)">
            <g clip-path="url(#clip-path-id-viewbox-item-15)" transform="translate(-0.0 -0.0)">
                
<g>
	<path style="fill:#2D9759;" d="M93.743,15.59c1.72,3.37,0.87,8.14-2.44,10c-5.6,3.14-13.51-3.29-18.69,0.51   c-1.64,1.2-2.51,3.16-3.84,4.69c-3.02,3.47-8.63,4.33-12.54,1.91c-3.11-1.91-5.22-5.58-8.8-6.3c-3.72-0.75-7.19,2.05-10.94,2.61   c-3.49,0.52-7.21-1.09-9.2-4c-1.85-2.68-2.36-6.36-4.98-8.3c-3.3-2.44-7.95-0.78-12.04-1.27C3.653,14.65-5.167,0.62,5.413,0.5   c1.89-0.01,3.73,0.56,5.55,1.11c20.15,6.05,41.34,8.6,62.35,7.52c3.79-0.2,7.63-0.51,11.34,0.26   C88.363,10.16,92.013,12.21,93.743,15.59z"/>
	<path d="M61.234,34.566c-1.851,0-3.69-0.467-5.264-1.44c-1.237-0.76-2.316-1.784-3.36-2.774c-1.651-1.566-3.211-3.045-5.275-3.46   c-2.116-0.428-4.172,0.384-6.347,1.243c-1.423,0.562-2.895,1.143-4.42,1.371c-3.698,0.55-7.588-1.143-9.687-4.212   c-0.732-1.063-1.261-2.271-1.771-3.441c-0.813-1.862-1.582-3.621-3.094-4.74c-2.016-1.49-4.611-1.338-7.358-1.176   c-1.47,0.085-2.99,0.174-4.443,0.001C5.58,15.384-0.239,8.58,0.007,4.001C0.087,2.529,0.894,0.051,5.408,0   c1.954-0.005,3.782,0.552,5.578,1.095l0.122,0.037c20.182,6.06,41.106,8.583,62.18,7.499l1.03-0.056   C77.76,8.384,81.319,8.188,84.755,8.9c4.355,0.904,7.794,3.259,9.434,6.462c1.722,3.375,1.061,8.584-2.641,10.664   c-2.883,1.616-6.273,0.858-9.554,0.127c-3.396-0.759-6.603-1.473-9.085,0.35c-0.968,0.708-1.653,1.705-2.379,2.761   c-0.428,0.624-0.871,1.268-1.381,1.854C67.198,33.362,64.203,34.566,61.234,34.566z M46.145,25.774c0.458,0,0.92,0.042,1.387,0.136   c2.347,0.472,4.085,2.121,5.766,3.715c1.007,0.955,2.048,1.943,3.197,2.648c3.702,2.291,9.039,1.476,11.901-1.812   c0.472-0.543,0.898-1.164,1.311-1.764c0.741-1.078,1.508-2.193,2.612-3.001c2.851-2.092,6.433-1.292,9.894-0.52   c3.097,0.691,6.298,1.405,8.847-0.023c3.207-1.803,3.755-6.368,2.239-9.337c-1.501-2.931-4.688-5.096-8.746-5.938   c-3.31-0.688-6.803-0.494-10.179-0.307L73.339,9.63C52.15,10.717,31.111,8.182,10.82,2.089l-0.124-0.038   C8.986,1.535,7.218,1,5.461,1C5.446,1,5.431,1,5.417,1c-2.818,0.032-4.303,1.06-4.41,3.055c-0.22,4.085,5.185,10.394,9.326,10.888   l0,0c1.367,0.163,2.84,0.077,4.266-0.006c2.806-0.166,5.706-0.335,8.012,1.371c1.727,1.278,2.585,3.243,3.415,5.143   c0.492,1.126,1,2.29,1.68,3.275c1.89,2.763,5.386,4.286,8.716,3.79c1.412-0.211,2.829-0.771,4.2-1.312   C42.406,26.498,44.24,25.774,46.145,25.774z"/>
</g>

            </g>
        </g>
    </g>
    
    <!-- ITEM 16 -->
    <g>
        <defs>
            <clipPath id="clip-path-id-viewbox-item-16">
                <rect x="0.0" y="0.0" width="92.43" height="36.027"/>
            </clipPath>
        </defs>
        <g transform="translate(630.0 173.0) rotate(0.0 100.5 40.0) scale(2.1746186303148325 2.220556804618758)">
            <g clip-path="url(#clip-path-id-viewbox-item-16)" transform="translate(-0.0 -0.0)">
                
<g>
	<path d="M79.894,36.027c-0.266,0-0.533-0.076-0.77-0.236c-9.613-6.502-22.05-8.63-33.271-5.688   c-0.736,0.19-1.486-0.246-1.679-0.981c-0.192-0.734,0.247-1.486,0.981-1.679c11.974-3.139,25.249-0.869,35.509,6.071   c0.629,0.425,0.794,1.28,0.368,1.909C80.768,35.815,80.335,36.027,79.894,36.027z"/>
	<path d="M91.054,14.307c-0.214,0-0.432-0.05-0.635-0.155C63.557,0.158,29.649-0.951,1.929,11.261   c-0.698,0.307-1.507-0.01-1.813-0.704C-0.19,9.862,0.126,9.05,0.82,8.744C29.721-3.985,63.689-2.875,91.691,11.712   c0.673,0.352,0.935,1.182,0.584,1.855C92.03,14.038,91.55,14.307,91.054,14.307z"/>
</g>

            </g>
        </g>
    </g>
    
    <!-- ITEM 17 -->
    <g>
        <defs>
            <clipPath id="clip-path-id-viewbox-item-17">
                <rect x="0.0" y="0.0" width="10.221" height="73.82"/>
            </clipPath>
        </defs>
        <g transform="translate(1229.0 790.0) rotate(0.0 12.0 80.5) scale(2.348106838861168 2.1809807640205907)">
            <g clip-path="url(#clip-path-id-viewbox-item-17)" transform="translate(-0.0 -0.0)">
                
<path d="M5.926,73.82c-0.096,0-0.194-0.01-0.292-0.031c-0.742-0.161-1.214-0.893-1.053-1.635C9.583,49.061,7.984,24.087,0.079,1.835  c-0.254-0.715,0.12-1.501,0.836-1.756C1.63-0.174,2.417,0.2,2.671,0.915c8.19,23.057,9.78,47.893,4.598,71.821  C7.129,73.381,6.56,73.82,5.926,73.82z"/>

            </g>
        </g>
    </g>
    
    <!-- ITEM 18 -->
    <g>
        <defs>
            <clipPath id="clip-path-id-viewbox-item-18">
                <rect x="0.0" y="0.0" width="70.35" height="99.04"/>
            </clipPath>
        </defs>
        <g transform="translate(1130.0 484.0) rotate(0.0 75.5 106.5) scale(2.146410803127221 2.1506462035541194)">
            <g clip-path="url(#clip-path-id-viewbox-item-18)" transform="translate(-0.0 -0.0)">
                
<path d="M68.974,99.04c-0.638,0-1.209-0.445-1.345-1.093c-4.841-23.121-11.82-37.419-23.007-55.715  C36.478,28.924,22.274,11.254,0.862,2.65C0.157,2.368-0.184,1.567,0.1,0.862c0.282-0.704,1.084-1.05,1.788-0.763  c22.11,8.884,36.719,27.035,45.08,40.698c11.348,18.56,18.431,33.073,23.353,56.585c0.155,0.744-0.32,1.473-1.063,1.628  C69.161,99.03,69.066,99.04,68.974,99.04z"/>

            </g>
        </g>
    </g>
    
</svg>