<svg xmlns="http://www.w3.org/2000/svg" version="1.1" viewBox="0 0 950 1080" width="950" height="1080">
<!--ITEM 1--><g><defs><clipPath id="clip-path-id-viewbox-item-1"><rect x="0.0" y="0.0" width="864.422" height="600.017"/></clipPath></defs><g transform="translate(535.0 47.0) rotate(30.54952150694848 -136.0 95.0) scale(-0.3146611261629158 0.3166576946986502)"><g clip-path="url(#clip-path-id-viewbox-item-1)" transform="translate(-0.0 -0.0)"><g>
	<g>
		<g>
			<path d="M853.36,179.751c-6.83-43.6-25.08-88.91-62.92-111.62c-30.07-18.04-68.6-18.62-101.54-6.58     c-32.94,12.04-60.7,35.55-82.96,62.65c-22.04-17.63-20.93-53.09-40.9-73.04c-12.97-12.95-32.22-16.79-50.3-19.81     c-54.2-9.06-108.74-16.17-163.46-21.31c-5.01-0.47-10.4-0.85-14.76,1.67c-6.16,3.57-88.34,357.21-88.34,357.21     s-18.56-68.98-27.84-103.46c-19.53-72.62-45.84-153.76-113.56-186.44c-23.54-11.37-75.67-19.38-75.67-19.38l-27.34,30.2     c0,0,46.31,10.67,59.63,21.07c19.55,15.26,32.79,37.24,42.81,59.93c31.16,70.58,34.71,150.67,63.85,222.11     c27.68,67.87,78.82,126.09,143.02,161.46c26.68,14.69,55.54,25.37,85.32,31.75c41.9,9.01,85.6,9.52,127.56,0.81     c32.42-6.74,63.53-18.71,93.7-32.35c49.88-22.54,98.19-50.16,137.55-88.19c47.63-46.02,79.94-107.09,93.18-171.93     C858.08,256.791,859.32,217.801,853.36,179.751z M729.36,427.231c-21.4-61.31-41.88-122.95-61.45-184.88     c-2.87-9.07-9.02-22.91-14.93-37.57c-8.2-20.34-15.92-42.25-13.68-55.1c3.38-19.44,36.81-38.02,52.94-47.36     c16.46-9.55,35.5-17.16,54.19-13.55c32,6.17,48.99,41.43,55.74,73.31c1.63,7.7,2.94,15.46,3.91,23.26     C817,271.881,788.55,363.001,729.36,427.231z" style="fill:#5e95ce;stroke:#010101;stroke-width:3;stroke-miterlimit:10;"/>
		</g>
	</g>
	<g>
		<g>
			<path d="M851.05,294.501c-13.24,64.84-45.55,125.91-93.18,171.93c-39.36,38.03-87.67,65.65-137.55,88.19     c-30.17,13.64-61.28,25.61-93.7,32.35c-41.96,8.71-85.66,8.2-127.56-0.81c-4.61-12.85-79.453-6.369-100.117-78.654     c-10.222-35.76-1.002-89.704,74.237-172.606c79.284-87.359,163.29-73.63,208.19-69.4c21.64,2.04,31.07-26.83,72.27-60.72     c5.91,14.66,12.06,28.5,14.93,37.57c19.57,61.93,40.05,123.57,61.45,184.88c59.19-64.23,87.64-155.35,76.72-241.89     c29.79,38.9,42.64,100.74,44.3,109.13C851.04,294.481,851.04,294.491,851.05,294.501z" style="fill:#1F5D9B;"/>
		</g>
		<g>
			<path d="M465.218,593.686c-22.151,0-44.451-2.347-66.263-7.037l-0.272-0.059l-0.094-0.261     c-1.27-3.539-8.625-5.623-18.805-8.508c-24.932-7.065-66.661-18.892-81.322-70.178c-5.889-20.601-4.179-43.794,5.082-68.935     c11.448-31.078,34.752-66.117,69.265-104.145c75.3-82.97,154.136-75.03,201.239-70.289c2.559,0.258,5.017,0.505,7.368,0.727     c12.559,1.194,21.203-8.567,34.291-23.328c9.253-10.436,20.77-23.423,37.615-37.28l0.526-0.433l0.255,0.632     c1.824,4.525,3.662,8.949,5.438,13.227c4.032,9.707,7.514,18.09,9.504,24.379c19.467,61.603,40.046,123.532,61.17,184.078     c58.587-63.949,86.999-153.925,76.027-240.874l-0.231-1.835l1.125,1.468c29.105,38.005,42.009,97.329,44.367,109.206l0.091,0.086     l-0.056,0.271c-13.455,65.893-46.598,127.044-93.323,172.189c-34.575,33.407-78.328,61.46-137.691,88.286     c-35.988,16.271-65.795,26.561-93.805,32.384C506.724,591.611,486.037,593.686,465.218,593.686z M399.426,585.728     c42.096,9.013,86.038,9.275,127.092,0.753c27.936-5.808,57.676-16.077,93.596-32.316c59.256-26.777,102.918-54.77,137.408-88.094     c46.559-44.984,79.591-105.916,93.019-171.576l-0.001-0.024c-2.241-11.282-14.788-69.325-43.076-107.341     c5.032,42.096,0.782,86.2-12.315,127.673c-13.357,42.292-35.751,81.287-64.761,112.767l-0.565,0.613l-0.275-0.788     c-21.224-60.806-41.9-123.013-61.454-184.894c-1.977-6.248-5.452-14.612-9.475-24.297c-1.695-4.081-3.445-8.294-5.188-12.604     c-16.498,13.644-27.842,26.437-36.976,36.737c-13.291,14.989-22.072,24.886-35.133,23.661c-2.353-0.222-4.813-0.47-7.374-0.728     c-46.916-4.725-125.437-12.631-200.399,69.965c-34.426,37.933-57.664,72.862-69.067,103.818     c-9.187,24.937-10.889,47.921-5.059,68.314c14.507,50.751,55.901,62.481,80.633,69.491     C390.293,579.76,397.752,581.874,399.426,585.728z" style="fill:#010101;"/>
		</g>
	</g>
	<g>
		<g>
			<path d="M853.36,179.751c-6.83-43.6-25.08-88.91-62.92-111.62c-30.07-18.04-68.6-18.62-101.54-6.58     c-32.94,12.04-60.7,35.55-82.96,62.65c-22.04-17.63-20.93-53.09-40.9-73.04c-12.97-12.95-32.22-16.79-50.3-19.81     c-54.2-9.06-108.74-16.17-163.46-21.31c-5.01-0.47-10.4-0.85-14.76,1.67c-6.16,3.57-88.34,357.21-88.34,357.21     s-18.56-68.98-27.84-103.46c-19.53-72.62-45.84-153.76-113.56-186.44c-23.54-11.37-75.67-19.38-75.67-19.38l-27.34,30.2     c0,0,46.31,10.67,59.63,21.07c19.55,15.26,32.79,37.24,42.81,59.93c31.16,70.58,34.71,150.67,63.85,222.11     c27.68,67.87,78.82,126.09,143.02,161.46c26.68,14.69,55.54,25.37,85.32,31.75c41.9,9.01,85.6,9.52,127.56,0.81     c32.42-6.74,63.53-18.71,93.7-32.35c49.88-22.54,98.19-50.16,137.55-88.19c47.63-46.02,79.94-107.09,93.18-171.93     C858.08,256.791,859.32,217.801,853.36,179.751z M729.36,427.231c-21.4-61.31-41.88-122.95-61.45-184.88     c-2.87-9.07-9.02-22.91-14.93-37.57c-8.2-20.34-15.92-42.25-13.68-55.1c3.38-19.44,36.81-38.02,52.94-47.36     c16.46-9.55,35.5-17.16,54.19-13.55c32,6.17,48.99,41.43,55.74,73.31c1.63,7.7,2.94,15.46,3.91,23.26     C817,271.881,788.55,363.001,729.36,427.231z" style="fill:none;stroke:#010101;stroke-width:4;stroke-miterlimit:10;"/>
		</g>
	</g>
</g>
</g></g></g><!--ITEM 2--><g><defs><clipPath id="clip-path-id-viewbox-item-2"><rect x="0.0" y="0.0" width="215.07" height="187.288"/></clipPath></defs><g transform="translate(361.0 800.0) rotate(0.0 136.5 119.0) scale(1.269354163760636 1.2707701507838196)"><g clip-path="url(#clip-path-id-viewbox-item-2)" transform="translate(-0.0 -0.0)"><g>
	<g>
		<path d="M196.843,7.178v146.4c0,17.79-14.42,32.21-32.21,32.21H50.443c-4.69,0-9.14-1-13.16-2.81    c-4.06-1.81-7.67-4.44-10.63-7.67c-5.23-5.73-8.42-13.35-8.42-21.73V7.178H196.843z" style="fill:#ff9b19;"/>
	</g>
	<g>
		<path d="M86.303,68.618c-0.11,24.53-8.33,41.62-23.77,72.78c-10.62,21.43-17.45,34.99-25.25,41.58    c-4.06-1.81-7.67-4.44-10.63-7.67c-5.23-5.73-8.42-13.35-8.42-21.73V15.148c16.62-9.83,42.12-5.72,56.18,9.01    C86.443,36.758,86.373,53.218,86.303,68.618z" style="fill:#ffb533;"/>
		<path d="M37.366,183.563l-0.287-0.128c-4.103-1.829-7.735-4.449-10.795-7.789c-5.515-6.042-8.551-13.879-8.551-22.068    V14.863l0.245-0.145c16.67-9.86,42.68-5.694,56.796,9.095c12.174,12.751,12.1,29.047,12.028,44.808    c-0.113,25.151-9.037,43.162-23.822,73c-11.053,22.304-17.682,35.239-25.375,41.74L37.366,183.563z M18.733,15.435v138.143    c0,7.939,2.944,15.537,8.289,21.394c2.895,3.159,6.318,5.654,10.177,7.42c7.443-6.441,14.007-19.265,24.885-41.216    c14.721-29.708,23.606-47.641,23.718-72.561l0,0c0.071-15.562,0.144-31.653-11.751-44.112C60.3,10.097,35.041,5.979,18.733,15.435    z" style="fill:#010101;"/>
	</g>
	<g>
		<path d="M196.843,24.158v129.42c0,17.79-14.42,32.21-32.21,32.21H50.443c-9.42,0-17.89-4.04-23.79-10.479    c16.84-4.16,40.19-10.99,67.07-27.97c9.98-6.3,32.37-20.69,53.47-46.04C182.673,58.678,174.493,33.158,196.843,24.158z" style="fill:#f58500;"/>
		<path d="M164.633,186.288H50.443c-9.157,0-17.962-3.879-24.159-10.642l-0.569-0.621l0.818-0.202    c18.47-4.563,40.864-11.447,66.923-27.908c8.713-5.5,31.856-20.11,53.353-45.937c17.582-21.121,24.513-38.281,29.575-50.811    c5.319-13.167,8.833-21.867,20.273-26.474l0.687-0.276v130.16C197.343,171.614,182.669,186.288,164.633,186.288z M27.602,175.588    c5.97,6.175,14.245,9.7,22.84,9.7h114.19c17.485,0,31.71-14.225,31.71-31.71V24.908c-10.506,4.523-13.919,12.976-19.032,25.634    c-5.086,12.591-12.051,29.835-29.733,51.076c-21.598,25.948-44.838,40.62-53.587,46.143    C68.2,164.052,45.989,171.004,27.602,175.588z" style="fill:#010101;"/>
	</g>
	<g>
		<path d="M164.633,187.288H50.443c-4.805,0-9.439-0.99-13.776-2.942c-4.224-1.883-7.967-4.583-11.12-8.024    c-5.685-6.229-8.814-14.305-8.814-22.744V5.678h181.61v147.9C198.343,172.166,183.22,187.288,164.633,187.288z M19.733,8.678    v144.9c0,7.689,2.851,15.047,8.028,20.719c2.872,3.134,6.282,5.594,10.133,7.311c3.951,1.779,8.172,2.68,12.549,2.68h114.19    c16.934,0,30.71-13.776,30.71-30.71V8.678H19.733z" style="fill:#010101;"/>
	</g>
	<g>
		<rect x="1.5" y="1.5" width="212.07" height="22.662" style="fill:#ff9b19;"/>
		<path d="M215.07,25.662H0V0h215.07V25.662z M3,22.662h209.07V3H3V22.662z" style="fill:#010101;"/>
	</g>
</g>
</g></g></g><!--ITEM 3--><g><defs><clipPath id="clip-path-id-viewbox-item-3"><rect x="0.0" y="0.0" width="375.591" height="373.906"/></clipPath></defs><g transform="translate(87.0 462.0) rotate(82.80552071417961 177.0 -176.0) scale(0.9425145969951356 -0.941413082432483)"><g clip-path="url(#clip-path-id-viewbox-item-3)" transform="translate(-0.0 -0.0)"><g>
	<path style="fill:#008211;" d="M372.851,332.262c-9.56-27.43-21.24-54.23-34.81-80.04c-18-37.35-49.42-77.77-66.03-99.82   c-44.33-54.07-98.23-99.84-159.64-133.28c-14.31-7.79-29.27-15.01-45.37-17.51c-0.45-0.07-0.91-0.14-1.36-0.2l-0.07,0.6   c3.36,15.57-3.88,32.88-17.33,41.42c-13.41,8.51-32.06,7.74-44.72-1.84c-2.77,10.99-3.22,22.94-2.41,34.22   c4.41,60.85,36.02,115.74,67.96,167.96c-9.91-5.67-22.46-5.92-33.07-1.71c-1.7,0.68-3.35,1.46-4.94,2.34   c-10.8,8.09-18.3,23.83-17.67,38.18c0.19,4.32,1.1,8.86,4.03,12.03c2.93,3.17,8.38,4.29,11.6,1.4l0.06,0.02   c0.5-1.89,1.05-3.77,1.7-5.61c2.53-7.12,6.7-14.07,13.31-17.75c6.75-3.76,15.23-3.52,22.42-0.68c7.18,2.84,13.72,8.01,18.35,14.31   c-8.4,0.98-16.51,4.51-22.95,9.99v0.01c-4.81,6.31-6.97,13.43-6.45,20.37c0.19,2.47,0.68,4.95,1.91,7.1   c1.22,2.14,3.26,3.91,5.69,4.37c3.71,0.72,7.05-2.73,9.48-6.98c0.49-1.16,1.07-2.27,1.79-3.31c3.36-4.89,9.29-7.56,15.2-8.14   c5.9-0.58,11.83,0.71,17.52,2.38c5.45,1.61,10.94,3.66,15.17,7.45c4.23,3.79,7,9.65,5.75,15.19c-1.26,5.55-7.42,9.9-12.78,8.04   c-3.23-1.01-5.73-1.5-7.88-1.42c-5.85,2.13-7.31,8.69-5.09,13.39c2.22,4.69,7.28,7.62,12.44,8.22c13.61,1.6,27.3-1.85,40.26-17.62   h0.01c0.57-1.86,1.03-3.75,1.39-5.64c1.3-6.86,1.39-14.03-0.48-20.75c-2.01-7.23-6.16-13.64-10.25-19.92   c-6.55-10.04-12.7-17.71-19.25-27.75c-34.8-52.69-70.32-107.05-83.15-168.88c-1.86-8.98-3.23-18.23-1.95-27.31   c1.29-9.08,5.53-18.08,13.01-23.38c8.13-5.76,19.04-6.42,28.69-3.93c9.64,2.49,18.3,7.79,26.63,13.26   c53.52,35.18,100.3,80.58,137.07,133.01c27.55,35.97,54.02,98.19,67.61,144.01c31.53,0,60.59,0,60.59,0   C374.191,336.122,373.521,334.192,372.851,332.262z"/>
	<path style="fill:#62B57F;" d="M154.921,345.342h0.01c-2.67,8.7-7.64,16.76-15.12,21.84c-5.41,3.66-11.89,5.61-18.41,5.93   c-5.2,0.25-10.55-0.54-15.16-2.97s-8.41-6.61-9.75-11.65c-1.34-5.03,0.09-10.87,4.04-14.26c2.15-1.86,4.2-2.78,6.78-2.88   c-5.85,2.13-7.31,8.69-5.09,13.39c2.22,4.69,7.28,7.62,12.44,8.22C128.271,364.562,141.961,361.112,154.921,345.342z"/>
	<path style="fill:#FF564F;" d="M65.571,2.012c3.36,15.57-3.88,32.88-17.33,41.42c-13.41,8.51-32.06,7.74-44.72-1.84   c2.88-11.42,8.24-21.8,17.28-29.31c12.19-10.11,29.12-13.01,44.84-10.87L65.571,2.012z"/>
	<path style="fill:#62B57F;" d="M61.911,296.292v0.01c-4.81,6.31-6.97,13.43-6.45,20.37c0.19,2.47,0.68,4.95,1.91,7.1   c1.22,2.14,3.26,3.91,5.69,4.37c3.71,0.72,7.05-2.73,9.48-6.98c-1.09,2.54-1.73,5.3-2.36,8.01c-0.92,3.94-1.91,7.98-4.29,11.26   c-2.37,3.27-6.49,5.62-10.43,4.71c-5.42-1.25-7.85-7.63-8.29-13.17c-0.93-11.79,3.33-23.9,11.42-32.52   C59.641,298.342,60.751,297.282,61.911,296.292z"/>
	<path style="fill:#62B57F;" d="M24.711,312.252c-5.34,14.51-14.09,13.22-17.55,9.36c-5.93-6.23-6.57-15.75-5.83-24.32   c0.99-11.4,3.87-22.78,9.6-32.69c4.81-8.34,11.73-15.59,20.13-20.2c-10.8,8.09-18.3,23.83-17.67,38.18   c0.19,4.32,1.1,8.86,4.03,12.03s8.38,4.29,11.6,1.4l0.06,0.02C27.661,301.452,26.641,306.992,24.711,312.252z"/>
	<path d="M374.841,338.812h-60.59c-0.332,0-0.625-0.218-0.719-0.537c-13.409-45.21-39.477-107.198-67.486-143.767   c-36.49-52.03-83.818-97.956-136.886-132.839c-8.054-5.289-16.727-10.661-26.406-13.161c-10.567-2.726-20.798-1.335-28.069,3.816   c-6.679,4.732-11.308,13.069-12.701,22.874c-1.307,9.27,0.249,18.877,1.942,27.052c12.976,62.534,50.2,118.894,83.041,168.619   c0.228,0.346,0.133,0.811-0.212,1.04c-0.345,0.229-0.811,0.134-1.039-0.213C92.799,221.858,55.491,165.37,42.457,102.555   c-1.72-8.302-3.297-18.069-1.958-27.567C41.949,64.776,46.804,56.07,53.817,51.1c7.632-5.407,18.315-6.882,29.311-4.044   c9.901,2.557,18.695,8.001,26.854,13.359c53.225,34.987,100.693,81.049,137.272,133.207c27.996,36.55,54.06,98.396,67.555,143.69   h58.986c-0.526-1.554-1.063-3.102-1.601-4.65l-0.053-0.154c-9.477-27.191-21.174-54.086-34.766-79.937   c-16.609-34.464-44.978-71.966-61.927-94.373c-1.424-1.882-2.774-3.667-4.038-5.345c-45.471-55.461-99.108-100.242-159.4-133.073   C98.104,12.209,83.01,4.857,66.886,2.353c-0.445-0.07-0.9-0.139-1.344-0.198C48.422-0.172,32.292,3.726,21.28,12.859   C13.105,19.651,7.374,29.38,4.248,41.776C1.754,51.67,0.951,63.103,1.859,75.758C6.163,135.15,36.41,188.937,69.711,243.381   l1.931,3.147c0.756,1.233,1.51,2.463,2.267,3.691c0.217,0.353,0.108,0.814-0.245,1.032c-0.353,0.217-0.815,0.108-1.032-0.245   c-0.758-1.229-1.512-2.46-2.269-3.694l-1.931-3.146C35.031,189.556,4.692,135.594,0.363,75.866   c-0.92-12.815-0.102-24.408,2.431-34.457c3.205-12.711,9.103-22.705,17.528-29.704c11.335-9.4,27.892-13.421,45.42-11.037   c0.454,0.061,0.919,0.131,1.375,0.202c16.35,2.539,31.585,9.956,45.613,17.592c60.463,32.924,114.248,77.828,159.862,133.463   c1.283,1.702,2.632,3.486,4.055,5.367c16.983,22.452,45.408,60.028,62.07,94.603c13.614,25.893,25.341,52.857,34.842,80.119   l0.054,0.155c0.653,1.881,1.306,3.763,1.939,5.653c0.077,0.229,0.039,0.48-0.102,0.676   C375.309,338.696,375.082,338.812,374.841,338.812z" fill="#000000"/>
	<path d="M12.905,324.925c-2.754,0-5.005-1.364-6.303-2.812c-0.277-0.308-0.251-0.783,0.058-1.059   c0.308-0.277,0.782-0.251,1.059,0.058c1.27,1.416,3.648,2.737,6.514,2.186c3.894-0.745,7.365-4.76,9.774-11.304   c1.326-3.613,2.238-7.447,3.119-11.153c0.397-1.669,0.794-3.339,1.229-4.998c0.579-2.189,1.125-3.99,1.719-5.67   c3.059-8.608,7.78-14.886,13.652-18.155c6.466-3.602,15.087-3.872,23.061-0.723c7.251,2.868,13.884,8.04,18.678,14.563   c0.245,0.334,0.174,0.803-0.16,1.049c-0.334,0.245-0.803,0.173-1.048-0.16c-4.63-6.299-11.03-11.292-18.021-14.057   c-7.56-2.986-15.702-2.748-21.779,0.638c-5.549,3.089-10.033,9.087-12.968,17.346c-0.579,1.64-1.114,3.404-1.682,5.551   c-0.431,1.646-0.826,3.304-1.22,4.963c-0.892,3.749-1.814,7.626-3.171,11.324c-3.329,9.046-7.765,11.66-10.9,12.26   C13.963,324.876,13.425,324.925,12.905,324.925z" fill="#000000"/>
	<path d="M7.161,322.362c-0.198,0-0.396-0.078-0.543-0.233c-5.049-5.305-7.023-13.45-6.034-24.902   c1.101-12.672,4.364-23.775,9.698-33.001c5.121-8.879,12.182-15.961,20.418-20.482c1.596-0.884,3.287-1.685,5.022-2.379   c11.327-4.496,23.926-3.842,33.705,1.746c0.054,0.026,0.11,0.057,0.139,0.076c0.345,0.23,0.438,0.695,0.208,1.04   c-0.221,0.332-0.66,0.43-1,0.233c-0.026-0.011-0.052-0.024-0.077-0.038c-9.389-5.371-21.509-5.993-32.421-1.664   c-1.676,0.67-3.309,1.444-4.853,2.299c-7.999,4.39-14.86,11.276-19.844,19.918c-5.224,9.035-8.421,19.929-9.503,32.38   c-0.949,10.998,0.891,18.763,5.626,23.738c0.286,0.3,0.274,0.775-0.026,1.061C7.533,322.294,7.347,322.362,7.161,322.362z" fill="#000000"/>
	<path d="M24.421,297.81c-2.628,0-5.354-1.232-7.092-3.113c-2.494-2.699-3.823-6.66-4.063-12.11   c-0.626-14.258,6.661-30.001,17.72-38.285c0.055-0.041,0.133-0.031,0.175,0.025c0.041,0.055,0.03,0.133-0.025,0.175   c-10.997,8.237-18.243,23.894-17.62,38.074c0.237,5.388,1.544,9.297,3.997,11.951c2.783,3.01,8.159,4.323,11.425,1.392   c0.051-0.046,0.13-0.042,0.177,0.01c0.046,0.051,0.042,0.13-0.01,0.177C27.78,297.294,26.12,297.81,24.421,297.81z" fill="#000000"/>
	<path d="M57.221,346.092c-0.637,0-1.281-0.069-1.929-0.219c-5.835-1.346-8.408-8.033-8.869-13.841   c-0.944-11.963,3.401-24.334,11.621-33.093c1.084-1.146,2.22-2.228,3.38-3.217c6.535-5.561,14.827-9.17,23.35-10.165   c1.886-0.219,3.76-0.315,5.569-0.285c0.414,0.007,0.744,0.348,0.738,0.762c-0.007,0.414-0.333,0.739-0.762,0.738   c-1.742-0.031-3.551,0.063-5.371,0.275c-8.231,0.96-16.24,4.446-22.55,9.816c-1.118,0.955-2.216,2-3.261,3.104   c-7.934,8.454-12.128,20.397-11.217,31.945c0.419,5.279,2.665,11.334,7.711,12.498c3.816,0.882,7.6-1.584,9.654-4.419   c2.36-3.252,3.32-7.363,4.167-10.99c0.637-2.741,1.289-5.544,2.401-8.136c0.547-1.295,1.157-2.422,1.862-3.441   c3.238-4.711,8.977-7.796,15.744-8.459c6.34-0.625,12.558,0.868,17.804,2.407c5.138,1.518,10.992,3.609,15.459,7.611   c4.837,4.334,7.185,10.581,5.981,15.914c-0.72,3.171-2.931,6.053-5.915,7.709c-2.571,1.427-5.356,1.737-7.842,0.874   c-0.391-0.136-0.598-0.563-0.463-0.955c0.135-0.391,0.562-0.601,0.954-0.462c2.078,0.721,4.43,0.449,6.623-0.769   c2.617-1.453,4.553-3.968,5.18-6.729c1.085-4.811-1.081-10.489-5.519-14.466c-4.245-3.803-9.905-5.819-14.882-7.289   c-5.108-1.499-11.152-2.952-17.234-2.353c-6.233,0.611-11.711,3.534-14.656,7.818c-0.647,0.935-1.209,1.974-1.717,3.177   c-1.061,2.473-1.698,5.21-2.313,7.857c-0.886,3.797-1.883,8.064-4.421,11.562C64.492,343.641,60.998,346.092,57.221,346.092z" fill="#000000"/>
	<path d="M64.027,328.36c-0.331,0-0.662-0.032-0.99-0.096c-2.28-0.432-4.439-2.088-5.775-4.431   c-1.084-1.896-1.697-4.168-1.926-7.152c-0.534-7.125,1.705-14.198,6.475-20.456c0.042-0.055,0.121-0.065,0.175-0.024   c0.055,0.042,0.066,0.121,0.024,0.175c-4.732,6.208-6.954,13.223-6.425,20.285c0.226,2.945,0.828,5.185,1.894,7.047   c1.3,2.28,3.395,3.891,5.605,4.309c4.222,0.816,7.669-3.983,9.348-6.919c0.034-0.061,0.111-0.082,0.17-0.046   c0.06,0.034,0.081,0.11,0.046,0.17C69.993,325.87,66.967,328.36,64.027,328.36z" fill="#000000"/>
	<path d="M119.604,373.906c-5.135,0-9.843-1.061-13.712-3.1c-5.102-2.689-8.792-7.107-10.125-12.121   c-1.472-5.526,0.246-11.563,4.276-15.022c2.325-2.012,4.559-2.957,7.24-3.061c2.154-0.076,4.661,0.368,8.133,1.454   c0.395,0.124,0.615,0.544,0.492,0.939c-0.124,0.395-0.544,0.616-0.94,0.492c-3.302-1.032-5.655-1.462-7.628-1.386   c-2.347,0.091-4.237,0.898-6.317,2.698c-3.605,3.093-5.133,8.517-3.806,13.5c1.226,4.611,4.643,8.685,9.375,11.179   c4.088,2.155,9.197,3.149,14.774,2.885c6.666-0.328,12.899-2.334,18.026-5.802c8.607-5.846,12.812-14.885,14.823-21.439   c0.545-1.779,1.006-3.65,1.37-5.56c1.401-7.396,1.245-14.262-0.466-20.409c-1.998-7.186-6.145-13.554-10.156-19.712   c-3.266-5.006-6.49-9.501-9.607-13.848c-3.126-4.36-6.359-8.868-9.643-13.901c-0.226-0.347-0.128-0.812,0.218-1.038   c0.347-0.227,0.812-0.129,1.038,0.218c3.266,5.005,6.489,9.5,9.605,13.846c3.127,4.36,6.36,8.869,9.645,13.904   c4.073,6.254,8.285,12.72,10.344,20.129c1.773,6.37,1.939,13.466,0.494,21.09c-0.374,1.964-0.849,3.889-1.41,5.72   c-2.082,6.784-6.446,16.149-15.416,22.241c-5.355,3.623-11.854,5.718-18.795,6.059   C120.821,373.891,120.209,373.906,119.604,373.906z" fill="#000000"/>
	<path d="M120.534,363.442c-1.914,0-3.875-0.119-5.888-0.356c-5.623-0.654-10.427-3.831-12.538-8.291   c-1.239-2.625-1.329-5.771-0.241-8.419c0.701-1.704,2.207-3.979,5.401-5.143c0.065-0.022,0.136,0.01,0.16,0.075   s-0.01,0.137-0.075,0.161c-3.109,1.132-4.574,3.345-5.255,5.002c-1.062,2.583-0.974,5.655,0.236,8.217   c2.074,4.382,6.803,7.505,12.341,8.149c15.992,1.879,28.75-3.706,40.149-17.576c0.044-0.053,0.123-0.061,0.176-0.017   c0.053,0.044,0.061,0.123,0.017,0.176C144.993,357.619,133.92,363.442,120.534,363.442z" fill="#000000"/>
	<path d="M27.291,49.456c-0.565,0-1.13-0.012-1.696-0.035c-8.139-0.335-16.005-3.08-22.149-7.729c-0.018-0.01-0.044-0.03-0.071-0.05   c-0.019-0.015-0.037-0.03-0.058-0.042c-0.059-0.035-0.079-0.112-0.043-0.171s0.113-0.079,0.171-0.043   c0.03,0.018,0.057,0.039,0.084,0.06c0.018,0.014,0.037,0.029,0.057,0.041c12.556,9.5,31.303,10.271,44.588,1.841   C61.518,34.854,68.783,17.49,65.449,2.038c-0.015-0.067,0.028-0.134,0.096-0.148c0.067-0.017,0.134,0.028,0.148,0.096   c1.631,7.556,0.79,15.873-2.368,23.421c-3.158,7.548-8.491,13.987-15.017,18.131C42.254,47.379,34.848,49.456,27.291,49.456z" fill="#000000"/>
</g>
</g></g></g><!--ITEM 4--><g><defs><clipPath id="clip-path-id-crop-item-4"><rect transform="scale(0.2249297657657658 0.22468120954003407)" x="0.0" y="0.0" width="555.0" height="481.0"/></clipPath><clipPath id="clip-path-id-viewbox-item-4"><rect x="0.0" y="0.0" width="124.83602" height="131.88787"/></clipPath></defs><g clip-path="url(#clip-path-id-crop-item-4)" transform="translate(273.0 325.0) rotate(0.0 277.5 293.5) scale(4.4458322205401934 4.450750474626666)"><g clip-path="url(#clip-path-id-viewbox-item-4)" transform="translate(-0.0 -0.0)"><g>
    <g>
      <path d="M124.086,62.424a62.45938,62.45938,0,0,1-1.46023,13.427c-3.20538-12.97586-16.81045-29.09775-37.34865-35.71034a52.44074,52.44074,0,0,0-5.4254-11.99051,44.9722,44.9722,0,0,0-46.3-20.22953A61.672,61.672,0,0,1,124.086,62.424Z" style="         fill: #479354;       "/>
      <polygon points="104.593 107.406 110.493 131.138 14.343 131.138 20.243 107.406 20.279 107.252 27.224 107.252 73.132 107.252 88.055 107.252 104.557 107.252 104.593 107.406" style="         fill: #e64337;       "/>
      <path d="M122.62579,75.85094a61.53277,61.53277,0,0,1-18.03324,31.55522l-.03562-.15433-6.482-12.6672,7.503-.26118L92.63765,79.49558l6.89751-.43925L89.5866,66.98272q-.23149-3.57934-.58171-7.14682a96.9641,96.9641,0,0,0-3.72775-19.6953C105.81534,46.75319,119.42041,62.87508,122.62579,75.85094Z" style="         fill: #227849;       "/>
      <path d="M92.63765,79.49558,105.5779,94.32345l-7.503.26118,6.482,12.6672H88.05514A198.63983,198.63983,0,0,0,89.5866,66.98272l9.94856,12.07361Z" style="         fill: #5e95ce;       "/>
      <path d="M89.5866,66.98272a198.63983,198.63983,0,0,1-1.53146,40.26911H73.1323l-.11872-27.66127,12.06174-.64108L71.25656,69.03653l9.85359-12.33478Z" style="         fill: #5e95ce;       "/>
      <path d="M89.5866,66.98272l-8.47645-10.281L71.25656,69.03653,46.67008,51.38318,16.23081,82.62973l10.31659-.5461.67669,25.1682h-6.945l-.03561.15433A61.49826,61.49826,0,0,1,1.61664,72.76428c6.05461-15.647,29.169-34.93868,62.62369-35.651A63.826,63.826,0,0,1,85.27714,40.1406a96.9641,96.9641,0,0,1,3.72775,19.6953Q89.361,63.39744,89.5866,66.98272Z" style="         fill: #5e95ce;       "/>
      <path d="M85.07532,78.94948l-12.06174.64108.11872,27.66127H27.22409l-.67669-25.1682-10.31659.5461L46.67008,51.38318,71.25656,69.03653ZM56.22687,100.28309l-.72418-14.37674L42.84737,86.868l.80728,13.795Z" style="         fill: #ff736b;       "/>
      <path d="M79.85174,28.15009a52.44074,52.44074,0,0,1,5.4254,11.99051,63.826,63.826,0,0,0-21.03681-3.02731c-33.4547.71231-56.56908,20.004-62.62369,35.651A61.73595,61.73595,0,0,1,33.55176,7.92056a44.9722,44.9722,0,0,1,46.3,20.22953Z" style="         fill: #5e95ce;       "/>
      <polygon points="55.503 85.906 56.227 100.283 43.655 100.663 42.847 86.868 55.503 85.906" style="         fill: #ffd14a;       "/>
    </g>
    <g>
      <path d="M110.49285,131.88785H14.34319a.75.75,0,0,1-.72778-.93091l5.933-23.8739a.74991.74991,0,0,1,.73071-.58118h84.27784a.74991.74991,0,0,1,.73071.58118l.0343.14831,5.89868,23.72559a.75.75,0,0,1-.72778.93091Zm-95.19031-1.5h94.231l-5.56567-22.386H20.86809Z" fill="#000000"/>
      <path d="M104.5927,108.15616a.75.75,0,0,1-.51294-1.29724,60.54367,60.54367,0,0,0,17.81385-31.17029A61.90941,61.90941,0,0,0,123.336,62.424,60.92295,60.92295,0,1,0,20.75628,106.85892a.75.75,0,0,1-1.02564,1.09448A62.41692,62.41692,0,1,1,124.836,62.424a63.41956,63.41956,0,0,1-1.47766,13.588A62.039,62.039,0,0,1,105.1054,107.9534.74717.74717,0,0,1,104.5927,108.15616Z" fill="#000000"/>
      <path d="M27.22381,107.75186a.49991.49991,0,0,1-.49952-.48657L26.06133,82.61l-9.80408.519a.5.5,0,0,1-.38464-.84815L46.31194,51.03433a.49992.49992,0,0,1,.64978-.05725L85.36687,78.54324a.5.5,0,0,1-.265.90552l-11.58618.61584.11657,27.18506a.5.5,0,0,1-.4978.5022h-.0022a.5.5,0,0,1-.5-.4978L72.5136,79.5928a.5.5,0,0,1,.47351-.50146l10.63977-.56555L46.728,52.04031,17.481,82.0629l9.03992-.47852a.5.5,0,0,1,.52636.48584l.67652,25.16821a.50006.50006,0,0,1-.48633.51331Z" fill="#000000"/>
      <path d="M43.65447,100.913a.25014.25014,0,0,1-.24951-.23535l-.80713-13.795a.2499.2499,0,0,1,.23059-.26392l12.6554-.96155a.25342.25342,0,0,1,.1842.06165.24991.24991,0,0,1,.08435.175l.72412,14.37671a.2499.2499,0,0,1-.24206.26245l-12.57227.37988Zm-.54321-13.81433.77868,13.30713,12.07447-.36487-.69849-13.86584Z" fill="#000000"/>
      <path d="M104.5573,107.752a.5.5,0,0,1-.44543-.27234L97.62981,94.81241a.5.5,0,0,1,.42774-.72754l6.45263-.22461L92.26092,79.82437a.5.5,0,0,1,.345-.82776l5.92151-.37707L81.11626,57.49515,71.64715,69.34866a.5.5,0,0,1-.78125-.62427l9.85363-12.33483a.50008.50008,0,0,1,.38672-.18787.46057.46057,0,0,1,.38965.18188L99.92107,78.73831a.50005.50005,0,0,1-.35412.817l-5.88648.37487,12.27417,14.06446a.5.5,0,0,1-.35937.82849l-6.717.23376,6.12377,11.96717a.50023.50023,0,0,1-.4447.7279Z" fill="#000000"/>
      <path d="M122.62578,76.12466a.25.25,0,0,1-.25-.25c-3.038-12.29187-15.97253-28.66955-37.17529-35.49609a63.59263,63.59263,0,0,0-20.95471-3.01526c-31.87024.67847-55.93445,18.79236-62.396,35.49121a.25.25,0,1,1-.46631-.18042C7.90362,55.82376,32.14739,37.54654,64.23491,36.86331a64.13918,64.13918,0,0,1,21.1189,3.03943C106.7387,46.78787,119.791,63.33255,122.86846,75.791a.47889.47889,0,0,1,.00732.08362A.25.25,0,0,1,122.62578,76.12466Z" fill="#000000"/>
      <path d="M88.05547,107.50186a.244.244,0,0,1-.03515-.00244.25.25,0,0,1-.21277-.28235,198.67635,198.67635,0,0,0,1.52954-40.21851c-.16358-2.52929-.35352-4.86425-.58093-7.13781a95.5803,95.5803,0,0,0-3.71729-19.64429,51.74758,51.74758,0,0,0-5.39929-11.9342A44.72215,44.72215,0,0,0,33.597,8.16641a.25.25,0,0,1-.09034-.4917A45.22194,45.22194,0,0,1,80.06341,28.017a52.24306,52.24306,0,0,1,5.45214,12.04821,96.06,96.06,0,0,1,3.73816,19.74573c.22791,2.27954.41846,4.62012.5824,7.15564a199.17932,199.17932,0,0,1-1.53345,40.32007A.25.25,0,0,1,88.05547,107.50186Z" fill="#000000"/>
    </g>
  </g>
</g></g></g><!--ITEM 5--><g><defs><clipPath id="clip-path-id-viewbox-item-5"><rect x="0.0" y="0.0" width="258.05" height="205.812"/></clipPath></defs><g transform="translate(153.0 390.0) rotate(63.170555717802884 217.0 173.0) scale(1.6818446037589614 1.681145900141877)"><g clip-path="url(#clip-path-id-viewbox-item-5)" transform="translate(-0.0 -0.0)"><g>
	<path d="M141.381,195.56c-0.222,0-0.448-0.033-0.671-0.103c-39.357-12.295-74.435-39.412-96.239-74.397   C22.663,86.096,13.761,42.666,20.046,1.907c0.189-1.228,1.338-2.067,2.567-1.881c1.228,0.189,2.07,1.338,1.881,2.566   c-6.124,39.71,2.55,82.022,23.795,116.086c21.243,34.085,55.418,60.504,93.762,72.483c1.186,0.37,1.847,1.632,1.477,2.818   C143.227,194.944,142.339,195.56,141.381,195.56z" fill="#000000"/>
	<path d="M205.773,205.849c-8.1,0-16.729-0.942-26.164-2.781c-1.22-0.238-2.016-1.419-1.778-2.639s1.422-2.014,2.639-1.778   c30.034,5.852,51.503,2.276,74.108-12.341c1.042-0.675,2.436-0.376,3.111,0.667c0.675,1.043,0.376,2.437-0.667,3.111   C240.475,200.789,224.543,205.849,205.773,205.849z" fill="#000000"/>
	<path d="M5.849,85.601c-0.575,0-1.109-0.371-1.289-0.949C1.595,75.122,0.061,65.257,0,55.328c-0.005-0.746,0.596-1.354,1.342-1.358   c0.73-0.001,1.354,0.596,1.358,1.342c0.059,9.662,1.553,19.263,4.439,28.537c0.221,0.712-0.176,1.469-0.888,1.69   C6.117,85.581,5.982,85.601,5.849,85.601z" fill="#000000"/>
	<path d="M98.759,200.81c-0.22,0-0.442-0.054-0.648-0.167c-38.43-21.102-69.04-54.948-86.193-95.306   c-0.292-0.686,0.028-1.479,0.714-1.771c0.687-0.288,1.479,0.028,1.771,0.715c16.917,39.802,47.106,73.183,85.007,93.995   c0.654,0.358,0.893,1.179,0.534,1.833C99.698,200.557,99.236,200.81,98.759,200.81z" fill="#000000"/>
</g>
</g></g></g><!--ITEM 6--><g><defs><clipPath id="clip-path-id-crop-item-6"><rect transform="scale(0.39558758490566037 0.39627201117318434)" x="0.0" y="0.0" width="329.0" height="537.0"/></clipPath><clipPath id="clip-path-id-viewbox-item-6"><rect x="0.0" y="0.0" width="209.66142" height="212.79807"/></clipPath></defs><g clip-path="url(#clip-path-id-crop-item-6)" transform="translate(872.0 307.0) rotate(0.0 -265.0 268.5) scale(-2.527885197000001 2.523519127781563)"><g clip-path="url(#clip-path-id-viewbox-item-6)" transform="translate(-0.0 -0.0)"><g>
    <path d="M49.133,34.64752c-61.64467,93.4217.37031,157.71638,54.97913,177.40055C77.42684,208.47229.75,189.94533.75,121.04494.75,88.53887,18.81407,57.17843,49.133,34.64752Z" style="         fill: #2d9759;       "/>
    <path d="M104.11215,212.04807C49.50333,192.3639-12.51165,128.06922,49.133,34.64752,68.42374,20.2981,92.65575,9.52446,120.3594,4.29386,89.06839,11.295,50.90355,56.6114,50.90355,118.03619c-.081,1.2035-.11572,2.407-.11572,3.6105C50.78783,159.4528,69.81239,190.3735,104.11215,212.04807Z" style="         fill: #006a36;       "/>
    <path d="M120.3594,4.29386a214.05784,214.05784,0,0,1,68.61108-1.48123C128.05486,9.18887,54.20161,65.79966,50.90355,118.03619,50.90355,56.6114,89.06839,11.295,120.3594,4.29386Z" style="         fill: #6caca1;       "/>
    <path d="M171.63545,27.29923c34.70477,0,38.026,24.24358,38.026,24.24358-14.34942-11.25967-51.32234-28.236-109.28707,22.48462C110.33794,58.625,136.93067,27.29923,171.63545,27.29923Z" style="         fill: #3bae2c;       "/>
    <path d="M104.11175,212.79788a.693.693,0,0,1-.09961-.00683c-8.208-1.09961-36.93554-5.87256-61.97754-21.10694C14.143,174.71536.00042,150.94876.00042,121.045c0-32.29736,17.74512-64.00732,48.68555-86.99951C68.7016,19.15628,93.43792,8.6138,120.22113,3.55716a214.65463,214.65463,0,0,1,68.84961-1.48779.75005.75005,0,0,1-.02246,1.48926c-29.19434,3.05566-62.93067,18.103-90.24512,40.251-28.44141,23.061-45.627,50.13281-47.15137,74.27393-.07715,1.14746-.11426,2.31152-.11426,3.563,0,36.82666,18.31836,67.86767,52.97461,89.76757a.74975.74975,0,0,1-.40039,1.38379ZM158.68792,1.49759a204.54359,204.54359,0,0,0-38.18847,3.5332C93.93792,10.04544,69.41546,20.49466,49.5805,35.249,19.02484,57.9556,1.50042,89.22708,1.50042,121.045c0,68.83106,76.46875,86.13379,99.31446,89.76075-33.23926-22.07129-50.77735-52.832-50.77735-89.15918,0-1.28516.03809-2.48243.11817-3.66065C51.7055,93.4307,69.0932,65.96878,97.85785,42.64456c25.708-20.84521,57.08593-35.45263,85.124-39.80761A223.69889,223.69889,0,0,0,158.68792,1.49759Z" fill="#000000"/>
    <path d="M50.90374,118.78616a.75019.75019,0,0,1-.75-.75c0-28.06836,8.21192-55.66259,23.12305-77.70019C86.395,20.9473,103.935,7.20023,120.19574,3.562c1.06347-.23,2.06347-.41455,3.06054-.56543a.75015.75015,0,0,1,.22461,1.4834c-.96679.14551-1.93554.32471-2.96289.54688-28.86718,6.459-68.86426,49.32568-68.86426,113.00927A.75018.75018,0,0,1,50.90374,118.78616Z" fill="#000000"/>
    <path d="M104.11175,212.29788a.25909.25909,0,0,1-.085-.01465c-28.42969-10.248-63.31347-34.7583-75.959-72.81689A97.60359,97.60359,0,0,1,24.7973,91.65921c3.17676-18.47412,11.29492-37.70215,24.127-57.14941a.35008.35008,0,0,1,.04688-.06592.25022.25022,0,0,1,.36914.33789C24.83539,71.92435,17.83734,107.09085,28.54242,139.30863c12.58886,37.88867,47.335,62.29589,75.65429,72.5039a.25008.25008,0,0,1-.085.48535Z" fill="#000000"/>
    <path d="M17.42523,44.73636a.75053.75053,0,0,1-.56348-1.24561C32.48968,25.73343,57.42621,13.19632,73.98187,9.063a.74987.74987,0,1,1,.36328,1.45508C58.00824,14.5972,33.40374,26.96536,17.98871,44.482A.74875.74875,0,0,1,17.42523,44.73636Z" fill="#000000"/>
  </g>
</g></g></g><!--ITEM 7--><g><defs><clipPath id="clip-path-id-viewbox-item-7"><rect x="0.0" y="0.0" width="40.95" height="40.575"/></clipPath></defs><g transform="translate(595.0 216.0) rotate(90.0000000000002 50.0 50.0) scale(2.4420024420024418 2.4645717806531113)"><g clip-path="url(#clip-path-id-viewbox-item-7)" transform="translate(-0.0 -0.0)"><g>
	<path style="fill:#FFD249;" d="M38.77,17.76c1.19,2.94,1.5,6.24,0.84,9.34c-1.23,5.75-5.94,10.6-11.64,12   c-12.68,3.12-24.63-9.7-19.1-21.93c1.93-4.29,5.87-7.56,10.37-8.9c1.54-0.47,3.16-0.7,4.78-0.67C30.34,7.73,36.4,11.9,38.77,17.76z    M27.2,26.09c1.26-1.57,1.07-4.11-0.42-5.47c-1.49-1.36-4.03-1.32-5.48,0.08c-1.45,1.4-1.57,3.94-0.27,5.47   C22.72,28.44,25.94,27.66,27.2,26.09z"/>
	<path d="M26.78,20.62c1.49,1.36,1.68,3.9,0.42,5.47c-1.26,1.57-4.48,2.35-6.17,0.08c-1.3-1.53-1.18-4.07,0.27-5.47   C22.75,19.3,25.29,19.26,26.78,20.62z" fill="#000000"/>
	<path d="M24.048,40.578c-5.161,0-10.136-2.315-13.621-6.506c-4.177-5.022-5.1-11.495-2.468-17.314   c2.008-4.463,6.118-7.993,10.996-9.445c1.647-0.503,3.356-0.751,5.084-0.712c6.708,0.138,13.146,4.573,15.658,10.785   c1.27,3.137,1.586,6.66,0.892,9.923c-1.313,6.138-6.289,11.267-12.381,12.763C26.825,40.412,25.43,40.578,24.048,40.578z    M23.732,8.597c-1.422,0-2.833,0.212-4.2,0.629c-4.335,1.291-7.978,4.413-9.75,8.354c0,0.001-0.001,0.001-0.001,0.002   c-2.309,5.105-1.492,10.792,2.184,15.212c3.924,4.719,9.97,6.763,15.766,5.336c5.364-1.318,9.745-5.835,10.902-11.238   c0.612-2.876,0.332-5.985-0.789-8.756C35.622,12.643,29.93,8.722,24,8.6C23.911,8.598,23.821,8.597,23.732,8.597z M8.87,17.17h0.01   H8.87z" fill="#000000"/>
	<path d="M0.499,27.94c-0.252,0-0.469-0.189-0.496-0.446c-0.029-0.274,0.169-0.521,0.443-0.551c1.018-0.11,2.288-0.221,3.559-0.331   c1.265-0.109,2.528-0.22,3.541-0.329c0.27-0.029,0.521,0.168,0.551,0.443c0.029,0.274-0.169,0.521-0.443,0.551   c-1.018,0.11-2.29,0.221-3.562,0.331c-1.264,0.11-2.526,0.22-3.538,0.329C0.535,27.939,0.517,27.94,0.499,27.94z" fill="#000000"/>
	<path d="M9.6,15.8c-0.097,0-0.193-0.027-0.279-0.085c-0.83-0.559-2.188-1.385-3.5-2.183c-1.322-0.805-2.689-1.636-3.539-2.207   c-0.229-0.154-0.29-0.465-0.136-0.694c0.155-0.229,0.468-0.288,0.694-0.136c0.83,0.559,2.188,1.385,3.5,2.183   c1.322,0.805,2.689,1.636,3.539,2.207c0.229,0.154,0.29,0.465,0.136,0.694C9.918,15.722,9.76,15.8,9.6,15.8z" fill="#000000"/>
	<path d="M19.239,8.77c-0.232,0-0.44-0.163-0.489-0.4C18.507,7.175,18.215,5.8,17.924,4.43c-0.283-1.337-0.566-2.67-0.804-3.831   c-0.055-0.271,0.12-0.534,0.391-0.59c0.266-0.058,0.534,0.12,0.59,0.391c0.236,1.158,0.519,2.488,0.802,3.822   c0.292,1.373,0.584,2.751,0.828,3.948c0.055,0.271-0.12,0.534-0.391,0.59C19.307,8.767,19.272,8.77,19.239,8.77z" fill="#000000"/>
	<path d="M31.21,9.43c-0.075,0-0.15-0.017-0.222-0.052c-0.247-0.122-0.349-0.422-0.227-0.67l2.68-5.4   c0.123-0.248,0.425-0.346,0.67-0.227c0.247,0.122,0.349,0.422,0.227,0.67l-2.68,5.4C31.571,9.328,31.393,9.43,31.21,9.43z" fill="#000000"/>
</g>
</g></g></g><!--ITEM 8--><g><defs><clipPath id="clip-path-id-viewbox-item-8"><rect x="0.0" y="0.0" width="556.669" height="380.477"/></clipPath></defs><g transform="translate(473.0 401.0) rotate(0.0 79.0 53.5) scale(0.28383114561795253 0.2812259348134053)"><g clip-path="url(#clip-path-id-viewbox-item-8)" transform="translate(-0.0 -0.0)"><g>
	<path style="fill:#82CABE;" d="M533.425,250.699c-20.71-19.03-53.01-24.42-79.58-15.21c11.54-15.79,21.82-33.4,23.76-52.86   c1.93-19.4-6.37-40.9-23.84-49.51c-30.79-14.79-70.46-16.65-90.28-0.86c-2.1,1.66-3.97,3.53-5.59,5.6c0,0.02,0,0.03,0,0.05h-0.04   c-17.33,22.15-35.58,45.56-48.56,70.5c-10.13,19.46-17.47,40.8-19.23,62.56c-0.51,6.13-0.57,12.29-0.12,18.46   c0.21,2.96,0.56,5.91,1.04,8.85c1.09,6.92,2.89,13.76,5.38,20.31c0.63,1.68,1.31,3.34,2.04,4.97   c17.16,21.42,43.07,30.33,69.07,31.43c26.02,1.1,52.33-8,72.11-24.94c12.33,17.14,32.97,28.4,54.08,28.57   c21.1,0.17,47.19-12.34,57.09-30.78C562.065,302.079,554.135,269.729,533.425,250.699z"/>
	<path style="fill:#6CACA1;" d="M298.405,323.559c17.16,21.42,43.07,30.33,69.07,31.43c26.02,1.1,52.33-8,72.11-24.94   c12.33,17.14,32.97,28.4,54.08,28.57c21.1,0.17,47.19-12.34,57.09-30.78c-8.76,19.95-27.59,34.36-48.28,41.23   c-23.78,7.9-52.78,5.6-68.22-14.13c-19.48,13-43.77,20.01-66.87,18.34c-13.58-0.97-26.74-4.95-38.28-12.47   C315.365,351.859,305.025,338.609,298.405,323.559z"/>
	<path style="fill:#82CABE;" d="M359.885,111.129l0.16,0.19c-0.03,0.02-0.05,0.05-0.08,0.08   C359.935,111.309,359.915,111.219,359.885,111.129z"/>
	<path style="fill:#82CABE;" d="M357.895,137.859c0,0.02,0,0.03,0,0.05h-0.04C357.865,137.889,357.885,137.879,357.895,137.859z"/>
	<path style="fill:#82CABE;" d="M359.965,111.399c-0.03-0.09-0.05-0.18-0.08-0.27c-10.52-39.54-38.59-73.78-74.69-92.96l-0.64-0.34   c-0.14,0.09-0.28,0.19-0.42,0.29l-0.53-0.78c-4.01-2.07-8.13-3.95-12.32-5.64c-42.72-17.15-93.36-14.1-133.31,8.78   c-44.61,25.55-70.81,86.98-57.03,146.91c0.86,3.75,1.93,7.42,3.2,11.01l0.07,0.53c-0.45,0.06-0.9,0.12-1.35,0.18l1.77,0.64   c13.27,35.94,46.13,63.91,80.84,80.94c2.89,1.42,5.83,2.76,8.79,4.02l1.07,0.21c-0.01,0.07-0.03,0.14-0.04,0.21l1.23,0.51   c9.26,3.76,18.81,6.7,28.53,8.8c10.28,2.22,20.75,3.5,31.25,3.8c10.04,0.29,20.11-0.31,30.07-1.84c7.99-1.21,15.9-3.02,23.68-5.43   h0.01c1.76-21.76,9.1-43.1,19.23-62.56c12.98-24.94,31.23-48.35,48.56-70.5c0.01-0.02,0.03-0.03,0.04-0.05   c1.62-2.07,3.49-3.94,5.59-5.6C362.795,125.489,361.766,117.659,359.965,111.399z"/>
	<path style="fill:#82CABE;" d="M284.835,17.639l0.36,0.53l-0.64-0.34C284.645,17.759,284.735,17.699,284.835,17.639z"/>
	<path style="fill:#6CACA1;" d="M189.515,373.309c-0.61,0.16-2.58,0.58-3.53,0.8l3.78-0.96L189.515,373.309z"/>
	<path style="fill:#82CABE;" d="M176.525,265.639l-1.28-0.24c0.02-0.09,0.03-0.18,0.05-0.27L176.525,265.639z"/>
	<path style="fill:#82CABE;" d="M174.265,264.709l1.07,0.21c-0.01,0.07-0.03,0.14-0.04,0.21L174.265,264.709z"/>
	<path style="fill:#82CABE;" d="M290.985,298.279c-0.48-2.94-0.83-5.89-1.04-8.85c-0.45-6.17-0.39-12.33,0.12-18.46h-0.01   c-7.78,2.41-15.69,4.22-23.68,5.43c-9.96,1.53-20.03,2.13-30.07,1.84c-10.5-0.3-20.97-1.58-31.25-3.8   c-9.72-2.1-19.27-5.04-28.53-8.8l-1.28-0.24c0.02-0.09,0.03-0.18,0.05-0.27l-1.03-0.42c-2.96-1.26-5.9-2.6-8.79-4.02   c-34.71-17.03-67.57-45-80.84-80.94l-1.77-0.64c-30.7,4.52-57.46,23.61-72.29,49.76c-8.41,14.83-12.7,37.76-7.68,61.25h0.01   c18.82,55.4,111.83,89.61,175.5,58.74c2.97,8.45,6.92,16.56,11.85,23.97l-0.49,0.32l2.16-0.55c8.13-2.14,16.2-4.56,24.14-7.31   c9.77-3.38,19.36-7.26,28.62-11.71c10.09-4.84,19.8-10.36,28.98-16.69c7.93-5.45,15.46-11.5,22.48-18.21l0.22-0.09   C293.875,312.039,292.075,305.199,290.985,298.279z"/>
	<path style="fill:#6CACA1;" d="M189.765,373.149l-3.78,0.96c-0.13,0.03-0.24,0.06-0.33,0.08c-37.2,9.14-100.86,11.76-150.78-30.96   c-18.2-15.58-28.01-34.52-31.98-53.11h0.01c18.82,55.4,111.83,89.61,175.5,58.74c2.97,8.45,6.92,16.56,11.85,23.97L189.765,373.149   z"/>
	<path style="fill:#6CACA1;" d="M178.405,348.859c26.355-12.139,74.755-34.995,111.66-77.89c-2.493,19.15,2.472,38.668,6.3,47.62   c-11.441,11.947-41.088,37.274-106.6,54.56C181.285,361.678,178.405,348.859,178.405,348.859z"/>
	<path d="M84.145,179.149c-0.309,0-0.599-0.192-0.707-0.5c-1.283-3.629-2.368-7.36-3.225-11.092   c-6.6-28.707-4.237-59.531,6.654-86.794c10.648-26.655,28.666-48.296,50.734-60.935c39.642-22.703,90.973-26.082,133.962-8.826   c4.257,1.718,8.424,3.625,12.385,5.671l1.598,0.834c36.612,19.451,64.673,54.378,75.063,93.43l0.038,0.127   c0.004,0.011,0.035,0.117,0.038,0.128c1.953,6.793,2.959,15.233,3.545,20.991c0.042,0.412-0.258,0.78-0.67,0.822   c-0.422,0.043-0.78-0.258-0.822-0.67c-0.58-5.701-1.574-14.052-3.494-20.729l-0.042-0.142c-0.005-0.016-0.038-0.126-0.042-0.143   c-10.285-38.655-38.067-73.23-74.317-92.49l-1.582-0.825c-3.92-2.024-8.044-3.912-12.257-5.612   c-42.573-17.09-93.405-13.744-132.656,8.735c-46.216,26.47-70.05,87.91-56.673,146.092c0.844,3.677,1.912,7.353,3.177,10.928   c0.138,0.391-0.066,0.819-0.457,0.957C84.312,179.135,84.228,179.149,84.145,179.149z" fill="#000000"/>
	<path d="M241.172,278.434c-1.623,0-3.246-0.023-4.87-0.07c-10.446-0.299-20.968-1.578-31.272-3.803   c-9.73-2.102-19.336-5.064-28.551-8.806l-2.26-0.93c-3.033-1.292-5.992-2.646-8.798-4.024c-18.27-8.964-35.038-20.514-48.492-33.4   c-15.228-14.587-26.132-30.604-32.41-47.608c-0.024-0.064,0.009-0.137,0.074-0.16c0.062-0.024,0.137,0.01,0.16,0.074   c11.816,32.005,41.259,61.48,80.777,80.87c2.802,1.377,5.758,2.729,8.784,4.018l2.259,0.93c9.2,3.735,18.793,6.694,28.509,8.793   c10.289,2.222,20.796,3.499,31.228,3.797c10.094,0.288,20.208-0.327,30.048-1.839c7.98-1.208,15.941-3.033,23.661-5.425   c0.071-0.021,0.137,0.017,0.156,0.082c0.021,0.066-0.017,0.136-0.082,0.156c-7.731,2.396-15.705,4.224-23.698,5.435   C258.123,277.793,249.659,278.434,241.172,278.434z" fill="#000000"/>
	<path d="M374.148,374.271c-2.287,0-4.56-0.081-6.816-0.244c-14.396-1.028-27.395-5.264-38.636-12.59   c-13.248-8.629-23.96-21.623-30.978-37.576c-0.727-1.622-1.419-3.309-2.056-5.008c-2.488-6.549-4.313-13.433-5.419-20.458   c-0.486-2.985-0.839-5.985-1.047-8.913c-0.441-6.051-0.401-12.301,0.121-18.575c1.635-20.224,8.133-41.368,19.313-62.845   c13.142-25.251,31.998-49.352,48.634-70.615h0.001c0.01-0.014,0.021-0.027,0.032-0.041c0.002-0.003,0.005-0.006,0.007-0.009   c1.646-2.103,3.568-4.028,5.716-5.726c19.182-15.285,58.336-14.952,91.07,0.771c0.373,0.179,0.53,0.627,0.351,1.001   c-0.179,0.373-0.623,0.531-1.001,0.351c-32.25-15.49-70.723-15.9-89.487-0.948c-2.057,1.625-3.895,3.467-5.467,5.475h-0.001   c-0.012,0.016-0.023,0.031-0.036,0.046c-0.001,0.001-0.002,0.003-0.003,0.004c-16.597,21.213-35.407,45.256-48.485,70.385   c-11.086,21.297-17.528,42.249-19.148,62.274c-0.515,6.198-0.555,12.369-0.119,18.345c0.204,2.884,0.552,5.838,1.032,8.783   c1.091,6.928,2.888,13.711,5.341,20.165c0.628,1.674,1.308,3.331,2.023,4.93c6.901,15.69,17.422,28.458,30.425,36.928   c11.025,7.186,23.785,11.341,37.925,12.351c22.42,1.622,46.623-5.018,66.4-18.216c0.345-0.229,0.81-0.137,1.04,0.208   c0.229,0.345,0.137,0.81-0.208,1.04C416.614,367.613,394.904,374.271,374.148,374.271z" fill="#000000"/>
	<path d="M476.912,373.982c-16.465,0-32.849-5.292-43.247-18.581c-0.255-0.326-0.197-0.797,0.129-1.053   c0.326-0.258,0.797-0.197,1.053,0.129c15.56,19.886,45.058,21.302,67.393,13.88c22.249-7.388,39.683-22.266,47.83-40.819   c10.972-24.989,3.759-57.073-17.151-76.286c-20.03-18.404-51.711-24.454-78.826-15.054c-0.396,0.137-0.819-0.072-0.955-0.463   c-0.136-0.392,0.072-0.819,0.463-0.955c27.629-9.574,59.909-3.401,80.334,15.366c21.366,19.635,28.73,52.436,17.509,77.995   c-8.317,18.941-26.079,34.118-48.73,41.64C494.709,372.44,485.798,373.982,476.912,373.982z" fill="#000000"/>
	<path d="M453.845,236.239c-0.153,0-0.308-0.047-0.441-0.145c-0.335-0.244-0.407-0.714-0.163-1.048   c9.913-13.563,21.556-31.787,23.619-52.491c2.077-20.89-7.555-40.941-23.426-48.764c-0.016-0.008-0.053-0.03-0.077-0.045   c-0.026-0.012-0.054-0.025-0.077-0.038c-0.347-0.16-0.521-0.563-0.391-0.931c0.139-0.39,0.567-0.592,0.958-0.456   c0.038,0.014,0.103,0.044,0.147,0.069c0.085,0.037,0.141,0.073,0.178,0.098c16.345,8.05,26.318,28.717,24.18,50.215   c-2.1,21.064-13.875,39.511-23.9,53.228C454.305,236.132,454.076,236.239,453.845,236.239z" fill="#000000"/>
	<path d="M185.985,374.359c-0.112,0-0.214-0.075-0.242-0.188c-0.034-0.134,0.047-0.27,0.181-0.304l5.94-1.51   c8.381-2.206,16.496-4.663,24.119-7.304c10.066-3.483,19.688-7.419,28.594-11.699c10.402-4.99,20.142-10.6,28.947-16.671   c8.088-5.559,15.641-11.677,22.448-18.185c0.101-0.093,0.259-0.093,0.354,0.008c0.096,0.1,0.092,0.258-0.008,0.354   c-6.827,6.526-14.4,12.661-22.511,18.235c-8.826,6.086-18.588,11.708-29.014,16.71c-8.924,4.288-18.563,8.231-28.646,11.721   c-7.635,2.645-15.763,5.105-24.158,7.315l-5.942,1.51C186.026,374.356,186.006,374.359,185.985,374.359z" fill="#000000"/>
	<path d="M139.251,380.379c-30.939,0.001-70.615-7.272-104.862-36.58c-16.649-14.253-27.793-32.761-32.227-53.524   c-4.604-21.544-1.63-45.215,7.761-61.776c15.27-26.924,42.496-45.664,72.833-50.132l1.361-0.181c0.4-0.109,0.823,0.129,0.931,0.529   c0.107,0.399-0.117,0.811-0.518,0.918c-0.032,0.009-0.129,0.026-0.162,0.03l-1.404,0.188   c-29.872,4.399-56.693,22.861-71.736,49.387c-9.218,16.255-12.129,39.523-7.599,60.724c4.364,20.438,15.338,38.66,31.734,52.697   c57.021,48.794,129.313,35.914,150.113,30.801l0.339-0.082c0.366-0.085,0.88-0.198,1.411-0.315   c0.843-0.187,1.727-0.382,2.099-0.479c0.396-0.101,0.811,0.135,0.916,0.535s-0.135,0.811-0.535,0.916   c-0.382,0.101-1.29,0.302-2.156,0.492c-0.525,0.116-1.034,0.229-1.396,0.313l-0.34,0.082   C177.327,377.007,160.312,380.378,139.251,380.379z" fill="#000000"/>
	<path d="M359.245,166.264c-0.035,0-0.069-0.015-0.094-0.043c-0.046-0.052-0.041-0.131,0.012-0.176   c0.037-0.033,0.071-0.067,0.106-0.103c0.04-0.04,0.081-0.08,0.124-0.118c0.051-0.046,0.13-0.04,0.177,0.013   c0.045,0.053,0.039,0.131-0.013,0.177c-0.039,0.033-0.075,0.069-0.111,0.106c-0.039,0.038-0.078,0.076-0.119,0.112   C359.304,166.254,359.274,166.264,359.245,166.264z" fill="#000000"/>
</g>
</g></g></g><!--ITEM 9--><g><defs><clipPath id="clip-path-id-crop-item-9"><rect transform="scale(1.4946491463414635 1.5000693315508022)" x="0.0" y="0.0" width="245.0" height="356.0"/></clipPath><clipPath id="clip-path-id-viewbox-item-9"><rect x="0.0" y="0.0" width="367.68369" height="561.02593"/></clipPath></defs><g clip-path="url(#clip-path-id-crop-item-9)" transform="translate(528.0 457.0) rotate(0.0 123.0 187.0) scale(0.6690533376664056 0.6666358540682781)"><g clip-path="url(#clip-path-id-viewbox-item-9)" transform="translate(-0.0 -0.0)"><g>
    <g>
      <path d="M256.9561,147.52051c43.952,100.8848,95.81381,230.32345,109.97759,308.90826-58.702,21.31253-111.78793,31.21792-159.08282,33.27512-1.71775.08228-3.42522.144-5.12241.19543q-5.13784.16971-10.18311.20572-3.85724.04629-7.67333,0-3.16295-.03085-6.27445-.10286-4.19667-.108-8.32135-.288c-2.39663-.10286-4.77269-.23658-7.13846-.38058-67.404-4.1761-120.72643-24.388-159.31939-47.32575C49.50865,363.5876,118.87723,212.82614,160.79256,95.4735c3.85724,8.31106,10.11111,16.03583,22.5057,16.365,21.45654.56573,27.97784,8.35221,38.87068,24.532C230.61373,148.9194,244.69522,153.49666,256.9561,147.52051Z" style="         fill: #2d9759;       "/>
      <path d="M256.9561,147.52051c-12.26088,5.97615-26.34237,1.39889-34.78716-11.15-10.89284-16.17983-17.41414-23.96631-38.87068-24.532-12.39459-.32915-18.64846-8.05392-22.5057-16.365C173.5163,59.83261,183.7097,27.26723,189.943.75,189.943.75,220.77005,64.451,256.9561,147.52051Z" style="         fill: #cde8e3;       "/>
      <path d="M207.85087,489.70389l4.94755,70.572h-8.46535a7.43248,7.43248,0,0,1-.40115-3.847c.29829-1.82061,1.23431-3.55894,1.08-5.38984-.27773-3.25037-3.87782-5.935-3.02408-9.07223.34972-1.296,1.42975-2.29377,1.85147-3.56923,1.13146-3.3738-2.59206-6.727-2.10862-10.24483.288-2.10862,2.05719-3.87781,1.97491-6.007-.08229-2.32463-2.33492-4.07325-2.6435-6.37731-.40115-2.96236,2.50978-5.52356,2.39663-8.50649-.08228-2.24235-1.872-4.2584-1.56346-6.48016.16457-1.13146.85373-2.11891,1.13145-3.2298.60688-2.40692-.82287-4.94755-.36-7.39561.02058-.08229.04115-.17486.06172-.25715C204.42565,489.84789,206.13312,489.78617,207.85087,489.70389Z" style="         fill: #8e614b;       "/>
      <path d="M205.012,551.03913c.15428,1.8309-.78174,3.56923-1.08,5.38984a7.43248,7.43248,0,0,0,.40115,3.847H194.10882c0-.01029.01028-.02057.01028-.03086.4423-1.34746,1.49147-2.49949,1.6149-3.90867.19543-2.05719-1.57375-3.70295-2.53035-5.53385a7.67866,7.67866,0,0,1,.60687-7.87905c.52459-.70974,1.21375-1.53261.90517-2.36578-.19543-.54515-.75088-.84345-1.23432-1.16231a7.029,7.029,0,0,1-2.37606-8.61965c.72-1.50175,2.01605-2.80807,2.14977-4.47439.144-1.77948-1.1006-3.50752-.74059-5.25613.30858-1.46061,1.66633-2.49949,2.14977-3.919.84345-2.45834-1.13146-5.05041-.88459-7.63219.15429-1.512,1.04916-2.81835,1.66632-4.207.61716-1.37832.936-3.11665.03086-4.33039-1.12117-1.48118-3.90867-2.14977-3.46637-3.9601.22629-.90517,1.25489-1.38861,1.656-2.24234.68916-1.48118-.83316-3.06522-1.12117-4.64926q5.04527-.03085,10.18311-.20572c-.02057.08229-.04114.17486-.06172.25715-.46286,2.44806.96689,4.98869.36,7.39561-.27772,1.11089-.96688,2.09834-1.13145,3.2298-.30858,2.22176,1.48118,4.23781,1.56346,6.48016.11315,2.98293-2.79778,5.54413-2.39663,8.50649.30858,2.30406,2.56121,4.05268,2.6435,6.37731.08228,2.12919-1.6869,3.89838-1.97491,6.007-.48344,3.5178,3.24008,6.871,2.10862,10.24483-.42172,1.27546-1.50175,2.2732-1.85147,3.56923C201.13413,545.10412,204.73422,547.78876,205.012,551.03913Z" style="         fill: #8e614b;       "/>
      <path d="M193.20365,550.80255c.9566,1.8309,2.72578,3.47666,2.53035,5.53385-.12343,1.40918-1.1726,2.56121-1.6149,3.90867,0,.01029-.01028.02057-.01028.03086h-9.93625a2.16965,2.16965,0,0,1,.16458-.34973,14.27173,14.27173,0,0,0,1.56346-2.55092c.77145-2.53034-2.17034-4.58754-2.9315-7.11789-.98745-3.32237,1.95434-6.5933,1.93376-10.04939-.03085-3.5178-3.09607-6.8916-1.89262-10.1934.78174-2.13948,3.17837-3.46637,3.65152-5.68814.62745-2.9315-2.42748-5.72928-1.78975-8.67107.32915-1.53261,1.62518-2.70521,2.06748-4.21725,1.01831-3.42523-2.56121-6.8196-1.94405-10.3374.216-1.2446.95659-2.43777.75087-3.68238-.24686-1.3886-1.60461-2.36577-1.86176-3.75438-.216-1.23431.48344-2.37606.98746-3.55894q3.81095.04629,7.67333,0c.288,1.584,1.81033,3.16808,1.12117,4.64926-.40115.85373-1.42975,1.33717-1.656,2.24234-.4423,1.81033,2.3452,2.47892,3.46637,3.9601.90517,1.21374.5863,2.95207-.03086,4.33039-.61716,1.38861-1.512,2.69492-1.66632,4.207-.24687,2.58178,1.728,5.17385.88459,7.63219-.48344,1.41947-1.84119,2.45835-2.14977,3.919-.36,1.74861.88459,3.47665.74059,5.25613-.13372,1.66632-1.42975,2.97264-2.14977,4.47439a7.029,7.029,0,0,0,2.37606,8.61965c.48344.31886,1.03889.61716,1.23432,1.16231.30858.83317-.38058,1.656-.90517,2.36578A7.67866,7.67866,0,0,0,193.20365,550.80255Z" style="         fill: #8e614b;       "/>
      <path d="M184.99545,501.10074c-.61716,3.5178,2.96236,6.91217,1.94405,10.3374-.4423,1.512-1.73833,2.68464-2.06748,4.21725-.63773,2.94179,2.4172,5.73957,1.78975,8.67107-.47315,2.22177-2.86978,3.54866-3.65152,5.68814-1.20345,3.3018,1.86177,6.6756,1.89262,10.1934.02058,3.45609-2.92121,6.727-1.93376,10.04939.76116,2.53035,3.70295,4.58755,2.9315,7.11789a14.27173,14.27173,0,0,1-1.56346,2.55092,2.16965,2.16965,0,0,0-.16458.34973h-7.63219c.03086-.04115.06172-.09258.09257-.13372a5.85921,5.85921,0,0,0,1.3989-3.79552c-.27773-2.76693-3.991-4.34068-3.98068-7.12818.02058-2.95207,4.30983-5.287,3.00351-7.93048a14.42442,14.42442,0,0,0-1.656-1.91319c-1.35775-1.8-.54516-4.39211.53487-6.37731,1.08-1.99547,2.43777-4.11438,2.00576-6.33615-.41144-2.08806-2.37606-3.8881-1.98519-5.98644.30858-1.64575,2.01605-2.77721,2.31434-4.43325.38058-2.11891-1.69718-3.98067-1.73833-6.14073-.04114-2.6332,2.92122-4.72126,2.55092-7.33389-.27772-2.01605-2.50977-3.43552-2.53034-5.47214-.01029-1.85147,1.82061-3.22979,2.19091-5.05041a5.18487,5.18487,0,0,0-.144-2.24234q3.11666.07714,6.27445.10286c-.504,1.18288-1.20346,2.32463-.98746,3.55894.25715,1.38861,1.6149,2.36578,1.86176,3.75438C185.952,498.663,185.21145,499.85614,184.99545,501.10074Z" style="         fill: #8e614b;       "/>
      <path d="M179.081,502.76707c.3703,2.61263-2.59206,4.70069-2.55092,7.33389.04115,2.16006,2.11891,4.02182,1.73833,6.14073-.29829,1.656-2.00576,2.7875-2.31434,4.43325-.39087,2.09834,1.57375,3.89838,1.98519,5.98644.432,2.22177-.92574,4.34068-2.00576,6.33615-1.08,1.9852-1.89262,4.57726-.53487,6.37731a14.42442,14.42442,0,0,1,1.656,1.91319c1.30632,2.64349-2.98293,4.97841-3.00351,7.93048-.01028,2.7875,3.70295,4.36125,3.98068,7.12818a5.85921,5.85921,0,0,1-1.3989,3.79552c-.03085.04114-.06171.09257-.09257.13372H166.43956c.18514-2.39663,1.89262-4.855.7303-6.93275-.38058-.67887-1.05945-1.27546-1.0286-2.05719a2.86438,2.86438,0,0,1,.41144-1.11089,12.65077,12.65077,0,0,0,.94631-9.3808c-.62744-2.13948-1.81033-4.50526-.70973-6.4493.52458-.936,1.49147-1.55319,2.05719-2.46864,2.14977-3.45608-2.62292-7.68362-1.77947-11.654.63773-3.01379,4.4024-5.52357,3.11665-8.32135a13.56955,13.56955,0,0,0-1.6149-2.07777,4.70294,4.70294,0,0,1-.13372-5.2767c.84345-1.27546,2.32463-2.14977,2.72579-3.62066.936-3.3738-4.41268-6.70645-2.55092-9.6791a6.59451,6.59451,0,0,1,1.66632-1.53261q4.11954.18514,8.32135.288a5.18487,5.18487,0,0,1,.144,2.24234c-.3703,1.82062-2.2012,3.19894-2.19091,5.05041C176.57124,499.33155,178.80329,500.751,179.081,502.76707Z" style="         fill: #8e614b;       "/>
      <path d="M168.6099,491.24678c-1.86176,2.97265,3.48694,6.3053,2.55092,9.6791-.40116,1.47089-1.88234,2.3452-2.72579,3.62066a4.70294,4.70294,0,0,0,.13372,5.2767,13.56955,13.56955,0,0,1,1.6149,2.07777c1.28575,2.79778-2.47892,5.30756-3.11665,8.32135-.84345,3.97038,3.92924,8.19792,1.77947,11.654-.56572.91545-1.53261,1.53261-2.05719,2.46864-1.1006,1.944.08229,4.30982.70973,6.4493a12.65077,12.65077,0,0,1-.94631,9.3808,2.86438,2.86438,0,0,0-.41144,1.11089c-.03085.78173.648,1.37832,1.0286,2.05719,1.16232,2.07777-.54516,4.53612-.7303,6.93275h-8.18764l4.88584-70.94234c2.36577.144,4.74183.27772,7.13846.38058A6.59451,6.59451,0,0,0,168.6099,491.24678Z" style="         fill: #8e614b;       "/>
    </g>
    <g>
      <path d="M188.69854,490.87811c-1.28515,0-2.56659-.00769-3.83563-.02314q-3.16581-.03085-6.28388-.103c-3.01739-.0777-5.744-.17206-8.33642-.28858-2.39972-.1029-4.78021-.23694-7.15039-.38116C89.40936,485.51708,35.60046,461.77,3.43518,442.65258a.75.75,0,0,1-.26484-1.02228c48.09168-82.542,117.0174-234.703,156.9159-346.40908,13.365-37.43714,23.16467-69.27964,29.12664-94.64283A.75.75,0,0,1,190.6181.42327c.30829.63718,31.24749,64.66461,67.02563,146.7977,42.26752,97.01843,95.66675,229.3942,110.02814,309.07474a.75019.75019,0,0,1-.48224.83807c-54.79645,19.89453-108.39484,31.10486-159.30615,33.3194-1.71887.08234-3.43079.14423-5.13233.19586-3.54181.11694-6.97467.18622-10.20123.206C191.26934,490.87042,189.982,490.87811,188.69854,490.87811ZM4.84088,441.74206c32.09491,18.96619,85.44854,42.32666,158.34326,46.843,2.36053.14367,4.732.27716,7.12427.37982,2.58428.11609,5.30151.2102,8.30847.28759q3.10995.07691,6.26245.10267c2.52618.03064,5.10168.03064,7.657,0,3.21753-.01972,6.63684-.08875,10.16736-.20533,1.69488-.05139,3.39795-.11291,5.11133-.195,50.579-2.20014,103.82037-13.30652,158.26776-33.01532-14.502-79.60474-67.68952-211.42868-109.81427-308.11936V147.82C223.94329,73.61361,195.5711,14.19491,190.18426,2.98c-6.01483,25.07377-15.66022,56.26041-28.68543,92.74564C121.67651,207.21859,52.95465,358.98907,4.84088,441.74206Z" fill="#000000"/>
      <path d="M212.7984,561.02593H158.252a.75.75,0,0,1-.74823-.80151l4.8858-70.94232a.75.75,0,1,1,1.49646.103l-4.83063,70.1408H211.994l-4.89123-69.76959a.75.75,0,1,1,1.49633-.10486l4.94751,70.572a.74992.74992,0,0,1-.74816.80243Z" fill="#000000"/>
      <path d="M166.43981,560.52593l-.01947-.00073a.25.25,0,0,1-.23-.26849,12.6517,12.6517,0,0,1,.58173-2.59418c.45257-1.51471.88-2.94531.17962-4.19727a6.19028,6.19028,0,0,0-.37774-.56811,2.64124,2.64124,0,0,1-.68244-1.621,2.75283,2.75283,0,0,1,.38776-1.11652l.05121-.09888a12.37036,12.37036,0,0,0,.92865-9.19629c-.11389-.3883-.2464-.78436-.38-1.184-.62017-1.8551-1.26141-3.77337-.30731-5.45855a6.54628,6.54628,0,0,1,1.10028-1.343,6.70733,6.70733,0,0,0,.96179-1.134c1.10395-1.77478.25586-3.8-.642-5.94422-.77155-1.8424-1.56934-3.74756-1.16938-5.63031a10.56592,10.56592,0,0,1,1.76776-3.49469c1.07074-1.60077,2.0821-3.11273,1.36628-4.67035a5.14108,5.14108,0,0,0-.93116-1.25378,9.27284,9.27284,0,0,1-.659-.78168,4.96878,4.96878,0,0,1-.13947-5.5617,9.8341,9.8341,0,0,1,1.17987-1.37854,5.30252,5.30252,0,0,0,1.51288-2.16956c.41541-1.49713-.52911-3.046-1.44244-4.54382-1.05194-1.725-2.13971-3.50885-1.0791-5.20221a5.03732,5.03732,0,0,1,1.347-1.30805c.12634-.095.25269-.19006.37586-.28772a.25.25,0,0,1,.31066.39173c-.12646.10034-.25616.19793-.38586.29553a4.597,4.597,0,0,0-1.22321,1.17279c-.89727,1.43262.06391,3.00885,1.08155,4.67761.96887,1.58887,1.9707,3.23175,1.49768,4.93677a5.75118,5.75118,0,0,1-1.63593,2.38489,9.46959,9.46959,0,0,0-1.12219,1.30682,4.45581,4.45581,0,0,0,.12549,4.98926,8.7778,8.7778,0,0,0,.62628.7417,5.59183,5.59183,0,0,1,1.01526,1.38086c.83282,1.81213-.30475,3.51282-1.40485,5.15747a10.212,10.212,0,0,0-1.69421,3.32037c-.36749,1.7301.3996,3.562,1.14142,5.3335.90741,2.16687,1.8457,4.40747.60577,6.40076A7.18062,7.18062,0,0,1,168.029,533.229a6.08331,6.08331,0,0,0-1.02161,1.23822c-.845,1.49243-.23956,3.30334.34595,5.05468.13556.40564.27.80768.38556,1.202a12.87216,12.87216,0,0,1-.96534,9.56836l-.05066.0979a2.35526,2.35526,0,0,0-.332.90894,2.25076,2.25076,0,0,0,.5893,1.30658,6.72236,6.72236,0,0,1,.40771.61523c.80371,1.43677.32557,3.037-.13684,4.58472a12.287,12.287,0,0,0-.56225,2.4895A.25.25,0,0,1,166.43981,560.52593Z" fill="#000000"/>
      <path d="M176.54022,560.52593a.25.25,0,0,1-.19989-.3999l.09253-.13373a5.66674,5.66674,0,0,0,1.3504-3.61944,6.27493,6.27493,0,0,0-1.94171-3.30921c-1.00586-1.13623-2.046-2.311-2.04035-3.84607a7.01153,7.01153,0,0,1,1.75586-3.82135c.9917-1.37414,1.92841-2.67212,1.2735-3.99743a4.34122,4.34122,0,0,0-.90033-1.08417,7.19365,7.19365,0,0,1-.73089-.78882c-1.56806-2.079-.35065-5.05737.51458-6.6477l.33747-.61542c.98974-1.79315,2.01312-3.64734,1.64245-5.55359a9.04973,9.04973,0,0,0-.9779-2.361,5.793,5.793,0,0,1-1.00763-3.719,5.91558,5.91558,0,0,1,1.19665-2.303,5.4325,5.4325,0,0,0,1.11743-2.12872,5.287,5.287,0,0,0-.81182-3.15564,5.38485,5.38485,0,0,1,.40844-6.58105c.71784-1.22345,1.39582-2.37909,1.21442-3.65851a5.98146,5.98146,0,0,0-1.22247-2.481,4.21423,4.21423,0,0,1-.16236-5.94519,6.8448,6.8448,0,0,0,1.048-2.18133,4.88289,4.88289,0,0,0-.14154-2.1319.25.25,0,0,1,.4851-.12122,5.35606,5.35606,0,0,1,.14685,2.35065,7.21288,7.21288,0,0,1-1.11572,2.35095,3.75039,3.75039,0,0,0,.15057,5.39319,6.43732,6.43732,0,0,1,1.30683,2.69659c.20569,1.45118-.54877,2.73713-1.27838,3.98078a4.921,4.921,0,0,0-.38916,6.11127,5.72711,5.72711,0,0,1,.85333,3.46087,5.88191,5.88191,0,0,1-1.20422,2.33313,5.46489,5.46489,0,0,0-1.11042,2.102,5.35288,5.35288,0,0,0,.95844,3.394,9.41417,9.41417,0,0,1,1.0263,2.49805c.4054,2.085-.66259,4.02-1.69543,5.89124l-.33575.6123c-.808,1.48517-1.95417,4.25293-.55518,6.10767a6.71762,6.71762,0,0,0,.68121.73254,4.7776,4.7776,0,0,1,.99829,1.2182c.78943,1.5976-.28051,3.08014-1.31518,4.51386a6.66983,6.66983,0,0,0-1.66132,3.53143c-.005,1.34357.92749,2.39685,1.91474,3.5119a6.72669,6.72669,0,0,1,2.06469,3.58954,6.10008,6.10008,0,0,1-1.44287,3.96387l-.09729.14026A.24958.24958,0,0,1,176.54022,560.52593Z" fill="#000000"/>
      <path d="M184.1726,560.526a.25019.25019,0,0,1-.23718-.32922,2.42343,2.42343,0,0,1,.18225-.39026,9.12741,9.12741,0,0,1,.66522-.98913,5.13568,5.13568,0,0,0,.87836-1.51416c.44153-1.44819-.45154-2.76282-1.397-4.15467a10.766,10.766,0,0,1-1.53455-2.81915c-.5827-1.96057.14771-3.908.85407-5.79132a12.53151,12.53151,0,0,0,1.06909-4.32861,12.86886,12.86886,0,0,0-1.09278-4.2887c-.74377-1.96356-1.51287-3.994-.78473-5.99182a8.98683,8.98683,0,0,1,1.81525-2.6922,6.96031,6.96031,0,0,0,1.82666-2.96234c.29669-1.38611-.27539-2.7403-.881-4.17395a7.5677,7.5677,0,0,1-.90863-4.49805,7.37023,7.37023,0,0,1,1.09418-2.30872,7.89642,7.89642,0,0,0,.97772-1.92572c.50549-1.70031-.17664-3.39148-.8988-5.18188-.66852-1.65753-1.35987-3.37152-1.05158-5.12854a9.67557,9.67557,0,0,1,.37732-1.36365,3.44386,3.44386,0,0,0-.51837-4.01861,5.28466,5.28466,0,0,1-.96936-1.96576,5.22656,5.22656,0,0,1,.71686-3.06354c.09741-.21216.19513-.42487.28637-.639a.25.25,0,1,1,.46.19605c-.093.21832-.19262.43524-.29193.65161a4.79249,4.79249,0,0,0-.6792,2.76623,4.84354,4.84354,0,0,0,.89069,1.77308,3.90868,3.90868,0,0,1,.57977,4.45666,9.30675,9.30675,0,0,0-.35956,1.29291c-.28363,1.61664.3805,3.26318,1.02271,4.85547.72253,1.79132,1.46967,3.64367.91467,5.51037a8.38949,8.38949,0,0,1-1.03332,2.04944,6.89328,6.89328,0,0,0-1.02936,2.14905c-.3028,1.39685.27191,2.75751.88043,4.198a7.567,7.567,0,0,1,.90936,4.4729,7.43154,7.43154,0,0,1-1.93774,3.18536,8.61941,8.61941,0,0,0-1.72345,2.53626c-.66443,1.823.03845,3.67865.78265,5.64331a13.23276,13.23276,0,0,1,1.12519,4.46209,12.89609,12.89609,0,0,1-1.101,4.50788c-.70856,1.88922-1.37781,3.67358-.84321,5.47247a10.40889,10.40889,0,0,0,1.46918,2.68146c.96991,1.42785,1.9729,2.90436,1.46185,4.58056a5.5841,5.5841,0,0,1-.95465,1.66626,8.75182,8.75182,0,0,0-.62921.93274,1.925,1.925,0,0,0-.14624.30793A.25005.25005,0,0,1,184.1726,560.526Z" fill="#000000"/>
      <path d="M194.10882,560.52593a.25.25,0,0,1-.25-.25.31764.31764,0,0,1,.02026-.101l.00245-.00793a9.92917,9.92917,0,0,1,.7434-1.59626,5.95939,5.95939,0,0,0,.86005-2.25616c.12952-1.36346-.6629-2.54016-1.50183-3.78595a17.28588,17.28588,0,0,1-1.001-1.61035,7.917,7.917,0,0,1,.62647-8.14215l.11993-.16114c.48737-.652.99133-1.32629.75275-1.97045a2.10386,2.10386,0,0,0-.95465-.92194l-.18287-.11859a7.25154,7.25154,0,0,1-2.46374-8.93659,14.58846,14.58846,0,0,1,.866-1.48938,6.54272,6.54272,0,0,0,1.25982-2.89672,6.73578,6.73578,0,0,0-.391-2.37073,4.61586,4.61586,0,0,1,.81311-5.13721,6.93226,6.93226,0,0,0,.99964-1.72772,6.74485,6.74485,0,0,0-.34467-4.05164,9.64347,9.64347,0,0,1-.55212-3.5238,9.15787,9.15787,0,0,1,1.14251-3.16589c.18818-.37073.37659-.7417.54419-1.11878.35-.78168,1.05585-2.74261.059-4.07941a6.85835,6.85835,0,0,0-1.61218-1.34606c-1.09009-.74274-2.21722-1.51075-1.89667-2.82282a3.05166,3.05166,0,0,1,.931-1.36145,3.52885,3.52885,0,0,0,.74158-.92786c.38941-.83691-.035-1.74981-.48431-2.71637a7.6112,7.6112,0,0,1-.65656-1.78186.25.25,0,1,1,.492-.08947,7.2524,7.2524,0,0,0,.618,1.66058c.47772,1.02765.97174,2.09033.48382,3.13892a3.95274,3.95274,0,0,1-.83978,1.06848,2.64738,2.64738,0,0,0-.80035,1.129c-.238.97413.65673,1.58374,1.69281,2.28968a7.20417,7.20417,0,0,1,1.73034,1.45892c.81458,1.09222.81342,2.76233-.00207,4.58344-.17078.38427-.36286.763-.55493,1.14141a8.65576,8.65576,0,0,0-1.09082,2.98877,9.27858,9.27858,0,0,0,.53534,3.33722,7.20891,7.20891,0,0,1,.337,4.35071,7.40633,7.40633,0,0,1-1.06519,1.85571,4.15046,4.15046,0,0,0-.73992,4.7099,7.20844,7.20844,0,0,1,.40869,2.54853,7.01059,7.01059,0,0,1-1.33625,3.12475,14.21223,14.21223,0,0,0-.83728,1.43756,6.737,6.737,0,0,0,2.28821,8.3028l.178.11536a2.53047,2.53047,0,0,1,1.15411,1.17138c.33216.89679-.3078,1.75305-.822,2.441l-.11743.15772a7.40565,7.40565,0,0,0-.586,7.61529,16.918,16.918,0,0,0,.97229,1.562c.85114,1.264,1.73126,2.57093,1.585,4.11066a6.41843,6.41843,0,0,1-.91809,2.44842,9.5553,9.5553,0,0,0-.70819,1.51459l-.00024-.00012-.00726.02216A.25008.25008,0,0,1,194.10882,560.52593Zm.0058-.26678h0Z" fill="#000000"/>
      <path d="M204.33312,560.526a.25.25,0,0,1-.23388-.16162,7.69,7.69,0,0,1-.41388-3.9765,16.47419,16.47419,0,0,1,.51581-2.03741,8.925,8.925,0,0,0,.56164-3.29035,9.98259,9.98259,0,0,0-1.58221-3.91174c-.955-1.66083-1.94257-3.37824-1.434-5.24707a7.08754,7.08754,0,0,1,.983-1.94489,7.38679,7.38679,0,0,0,.87237-1.6372c.5719-1.70533-.16461-3.4115-.94433-5.218a9.57147,9.57147,0,0,1-1.17462-4.98248,9.34549,9.34549,0,0,1,1.00274-2.76911,6.83152,6.83152,0,0,0,.97-3.19421,6.90147,6.90147,0,0,0-1.29254-3.22839,8.354,8.354,0,0,1-1.34893-3.12531,8.15756,8.15756,0,0,1,1.19512-4.55853,6.414,6.414,0,0,0,.41071-6.82971,7.26769,7.26769,0,0,1-.77246-3.66608,7.40113,7.40113,0,0,1,.62122-1.87134,9.06078,9.06078,0,0,0,.51525-1.38464,8.75718,8.75718,0,0,0-.15307-3.70819,10.11633,10.11633,0,0,1-.21-3.67322l.06482-.2713a.25.25,0,1,1,.4851.12121l-.0617.25715a9.76164,9.76164,0,0,0,.2138,3.47729,9.259,9.259,0,0,1,.14606,3.91876,9.44475,9.44475,0,0,1-.54175,1.4624,6.92412,6.92412,0,0,0-.58472,1.74231,6.79967,6.79967,0,0,0,.74183,3.41034,6.87975,6.87975,0,0,1-.42438,7.23163,7.67811,7.67811,0,0,0-1.15027,4.27515,7.986,7.986,0,0,0,1.28137,2.93359,5.60711,5.60711,0,0,1,.34418,6.89984,8.97452,8.97452,0,0,0-.957,2.61823,9.21514,9.21514,0,0,0,1.1383,4.71649c.78272,1.81329,1.59211,3.68829.95966,5.574a7.87359,7.87359,0,0,1-.92615,1.74963,6.61454,6.61454,0,0,0-.921,1.80524c-.45416,1.66894.43909,3.22241,1.38477,4.86712a10.34108,10.34108,0,0,1,1.647,4.11866,9.4315,9.4315,0,0,1-.58087,3.476,16.1015,16.1015,0,0,0-.50153,1.97558,7.191,7.191,0,0,0,.38825,3.71814.25015.25015,0,0,1-.23377.3385Z" fill="#000000"/>
      <path d="M245.7962,150.39843c-9.00049.00067-17.78443-4.8977-23.83466-13.88834-10.53985-15.65554-17.04687-23.85159-38.66986-24.42169-10.40216-.27624-17.622-5.51867-22.721-16.49908a.25394.25394,0,0,1,.04023-.298.2439.2439,0,0,1,.34844-.0046l.01026.01028a.25031.25031,0,0,1,.04968.07126c5.01032,10.7955,12.09168,15.94961,22.28565,16.22034,21.86908.57656,28.43689,8.84625,39.07141,24.6423,8.4461,12.55093,22.29864,16.99747,34.47021,11.06488a.25.25,0,0,1,.21912.44946A25.62143,25.62143,0,0,1,245.7962,150.39843Z" fill="#000000"/>
    </g>
    <g>
      <path d="M164.60211,145.0917H130.20074a1,1,0,0,1,0-2h34.40137a1,1,0,0,1,0,2Z" fill="#000000"/>
      <path d="M138.367,279.12237H107.85046a1,1,0,0,1,0-2H138.367a1,1,0,1,1,0,2Z" fill="#000000"/>
      <path d="M149.18554,369.4464H118.669a1,1,0,1,1,0-2h30.51654a1,1,0,0,1,0,2Z" fill="#000000"/>
      <path d="M179.86035,387.15618H149.34381a1,1,0,0,1,0-2h30.51654a1,1,0,0,1,0,2Z" fill="#000000"/>
      <path d="M166.82775,315.74938H120.54089a1,1,0,1,1,0-2h46.28686a1,1,0,1,1,0,2Z" fill="#000000"/>
      <path d="M207.18408,225.99142H160.89721a1,1,0,0,1,0-2h46.28687a1,1,0,0,1,0,2Z" fill="#000000"/>
      <path d="M256.117,178.13384H209.83013a1,1,0,0,1,0-2H256.117a1,1,0,0,1,0,2Z" fill="#000000"/>
      <path d="M301.26092,232.03051H268.25634a1,1,0,0,1,0-2h33.00458a1,1,0,0,1,0,2Z" fill="#000000"/>
      <path d="M312.62353,266.24255H284.32726a1,1,0,0,1,0-2h28.29627a1,1,0,0,1,0,2Z" fill="#000000"/>
      <path d="M234.2713,254.97271H205.975a1,1,0,1,1,0-2H234.2713a1,1,0,0,1,0,2Z" fill="#000000"/>
      <path d="M221.96948,332.65411H183.62506a1,1,0,0,1,0-2h38.34442a1,1,0,1,1,0,2Z" fill="#000000"/>
      <path d="M94.37872,292.66436h-34.212a1,1,0,1,1,0-2h34.212a1,1,0,0,1,0,2Z" fill="#000000"/>
      <path d="M31.18707,425.2279H1a1,1,0,0,1,0-2H31.18707a1,1,0,1,1,0,2Z" fill="#000000"/>
      <path d="M133.9273,461.45239H94.78124a1,1,0,1,1,0-2H133.9273a1,1,0,0,1,0,2Z" fill="#000000"/>
      <path d="M257.389,418.38549H212.80468a1,1,0,1,1,0-2H257.389a1,1,0,0,1,0,2Z" fill="#000000"/>
      <path d="M112.491,407.38744H67.90667a1,1,0,0,1,0-2H112.491a1,1,0,1,1,0,2Z" fill="#000000"/>
      <path d="M297.63842,434.86755H267.04888a1,1,0,0,1,0-2h30.58954a1,1,0,0,1,0,2Z" fill="#000000"/>
      <path d="M365.2575,415.568H329.033a1,1,0,0,1,0-2H365.2575a1,1,0,0,1,0,2Z" fill="#000000"/>
      <path d="M347.14526,452.413H312.62353a1,1,0,1,1,0-2h34.52173a1,1,0,0,1,0,2Z" fill="#000000"/>
      <path d="M296.83343,380.75085h-20.1247a1,1,0,1,1,0-2h20.1247a1,1,0,0,1,0,2Z" fill="#000000"/>
      <path d="M211.25231,441.73016H182.57507a1,1,0,0,1,0-2h28.67724a1,1,0,1,1,0,2Z" fill="#000000"/>
    </g>
  </g>
</g></g></g><!--ITEM 10--><g><defs><clipPath id="clip-path-id-viewbox-item-10"><rect x="0.0" y="0.0" width="245.15" height="137.15"/></clipPath></defs><g transform="translate(403.0 232.0) rotate(0.0 134.0 75.0) scale(1.093208239853151 1.093693036820999)"><g clip-path="url(#clip-path-id-viewbox-item-10)" transform="translate(-0.0 -0.0)"><g>
    <g>
      <path d="M190.92,64.92c34.44-21.39,53.48-2.87,53.48,16.69,0,22.12-51.97,53.87-124.43,54.77-17.8-12.92-24.91-31.61-26.65-49.8-2.29-23.68,4.51-46.53,8.64-54.79C113.44,6.75,143.96.75,157.01.75,205.53.75,200.83,50.57,190.92,64.92Z" style="         fill: #38798f;       "/>
      <path d="M93.32,86.58h-.01C79.7,71.71,57.88,57.88,45.36,55.53c0-34.18,21.37-43.6,32.82-43.6,10.2,0,19.61,5.77,23.78,19.86C97.83,40.05,91.03,62.9,93.32,86.58Z" style="         fill: #38798f;       "/>
      <path d="M119.96993,136.38c-1.03979.01-2.08984.02-3.13989.02C42.75,136.4.75,101.7.75,76.4a22.4788,22.4788,0,0,1,2.2002-10.18v-.01C10.38009,51.34,34.60006,52.23,45.36007,55.53,57.88009,57.88,79.70016,71.71,93.31,86.58h.01c1.07983,11.28,4.23,22.75995,10.7,32.93A61.72444,61.72444,0,0,0,119.96993,136.38Z" style="         fill: #38798f;       "/>
      <path d="M119.96993,136.38c-1.03979.01-2.08984.02-3.13989.02C42.75,136.4.75,101.7.75,76.4a22.4788,22.4788,0,0,1,2.2002-10.18C4.51,92.2,53.51,122.58,104.02,119.51A61.72444,61.72444,0,0,0,119.96993,136.38Z" style="         fill: #334a5a;       "/>
    </g>
    <g>
      <path d="M116.83,137.15048c-42.802,0-70.50366-11.21289-86.20556-20.61914C11.44844,105.04306,0,90.04111,0,76.40048c0-7.61816,2.79712-13.54883,8.31348-17.62793,10.33276-7.64062,27.28565-6.71582,36.30249-4.23828.41138-34.2627,22.06348-43.35449,33.564-43.35449,6.65454,0,18.39062,2.46679,23.92334,18.59277C114.08052,6.27841,143.05708.00009,157.01.00009c21.92041,0,31.86866,10.19043,36.354,18.73926,7.70337,14.68164,4.90747,34.02636-.28,44.01172,15.17724-8.74024,28.94922-10.49219,39.00513-4.89942,8.05639,4.47949,13.061,13.584,13.061,23.75879,0,11.48633-13.58838,25.28613-35.4624,36.01563-24.80664,12.166-56.66553,19.09277-89.7085,19.5039h-.0022l-.2373.002C118.77486,137.14169,117.80269,137.15048,116.83,137.15048Zm3.13989-.77051h0Zm-89.3706-82.0957c-7.61133,0-15.75171,1.52246-21.394,5.69434-5.1128,3.78125-7.70533,9.30566-7.70533,16.42187,0,24.21582,41.06983,59.25,115.33008,59.25.96778,0,1.93555-.00879,2.89527-.01855l.23754-.002c32.82251-.4082,64.45362-7.28027,89.06446-19.35156,21.3562-10.47461,34.6228-23.75879,34.6228-34.668,0-9.63086-4.70923-18.23242-12.29-22.44824-10.12036-5.626-24.3418-3.35449-40.04419,6.39453a.74965.74965,0,0,1-1.01294-1.0625c5.89331-8.53418,9.90137-29.48926,1.73267-45.05762C185.87886,7.70224,173.76729,1.50009,157.01,1.50009c-13.95214,0-43.2705,6.39551-54.36816,30.60254a.75973.75973,0,0,1-.73511.43555.75057.75057,0,0,1-.666-.53516C97.55293,19.54208,89.36324,12.67978,78.17989,12.67978c-11.09229,0-32.06983,8.95605-32.06983,42.85058a.7492.7492,0,0,1-.96973.7168A51.83926,51.83926,0,0,0,30.59932,54.28427Z" fill="#000000"/>
      <path d="M119.96968,136.63a.24952.24952,0,0,1-.14673-.04785C104.15645,125.211,95.15572,108.3956,93.07124,86.60361c-2.21948-22.94922,4.137-45.86915,8.665-54.92481a.24981.24981,0,1,1,.44727.22266c-4.50318,9.00683-10.824,31.80859-8.61475,54.65429,2.07031,21.64356,11.00244,38.33789,26.5481,49.62207a.25.25,0,0,1-.14722.45215Z" fill="#000000"/>
      <path d="M93.31,86.83017a.24958.24958,0,0,1-.18432-.08106C79.94722,72.35068,58.0522,58.16708,45.31392,55.77646a.24986.24986,0,0,1-.19946-.292.2548.2548,0,0,1,.29174-.20019c12.82691,2.40723,34.84864,16.66211,48.08814,31.127a.25.25,0,0,1-.18433.41895Z" fill="#000000"/>
    </g>
  </g>
</g></g></g><!--ITEM 11--><g><defs><clipPath id="clip-path-id-viewbox-item-11"><rect x="0.0" y="0.0" width="24.858" height="19.812"/></clipPath></defs><g transform="translate(584.0 771.0) rotate(117.08351452020025 49.5 39.5) scale(3.9826212889210715 3.9874823339390266)"><g clip-path="url(#clip-path-id-viewbox-item-11)" transform="translate(-0.0 -0.0)"><g>
	<path style="fill:#2D9759;" d="M22.851,7.426c5.915,8.963-5.769,17.882-10.871,6.988c-0.96-2.066-2.009-4.109-3.274-6.017   C6.764,5.451,3.841,3.17,0.522,1.974L0.465,1.782c3.658-1.208,7.586-1.784,11.379-1.14C15.671,1.285,20.706,4.186,22.851,7.426z"/>
	<path d="M18.292,19.812c-0.07,0-0.14-0.001-0.21-0.004c-1.517-0.056-4.37-0.811-6.441-5.235c-1.132-2.438-2.164-4.334-3.247-5.969   c-1.892-2.871-4.733-5.1-7.999-6.278c-0.096-0.034-0.169-0.104-0.21-0.189C0.103,2.096,0.038,2.021,0.005,1.924   C-0.062,1.728,0.058,1.516,0.254,1.45l0.07,0.205c0.001-0.001,0.003-0.002,0.004-0.003L0.266,1.445   c0.02-0.007,0.058-0.017,0.096-0.024C4.491,0.06,8.377-0.327,11.907,0.272c4.131,0.695,9.181,3.811,11.257,6.947   c1.969,2.984,2.232,6.386,0.705,9.102C22.65,18.49,20.527,19.812,18.292,19.812z M1.355,1.894c3.12,1.287,5.822,3.501,7.664,6.297   c1.104,1.666,2.153,3.594,3.301,6.065c1.41,3.01,3.466,4.716,5.79,4.802c2.024,0.076,3.985-1.115,5.105-3.105   c1.407-2.503,1.161-5.535-0.677-8.32c-1.977-2.986-6.802-5.957-10.756-6.621C8.587,0.469,5.083,0.767,1.355,1.894z" fill="#000000"/>
</g>
</g></g></g><!--ITEM 12--><g><defs><clipPath id="clip-path-id-viewbox-item-12"><rect x="0.0" y="0.0" width="24.858" height="19.812"/></clipPath></defs><g transform="translate(514.0 811.0) rotate(170.35246608304323 41.0 33.0) scale(3.298736825166948 3.331314354936402)"><g clip-path="url(#clip-path-id-viewbox-item-12)" transform="translate(-0.0 -0.0)"><g>
	<path style="fill:#2D9759;" d="M22.851,7.426c5.915,8.963-5.769,17.882-10.871,6.988c-0.96-2.066-2.009-4.109-3.274-6.017   C6.764,5.451,3.841,3.17,0.522,1.974L0.465,1.782c3.658-1.208,7.586-1.784,11.379-1.14C15.671,1.285,20.706,4.186,22.851,7.426z"/>
	<path d="M18.292,19.812c-0.07,0-0.14-0.001-0.21-0.004c-1.517-0.056-4.37-0.811-6.441-5.235c-1.132-2.438-2.164-4.334-3.247-5.969   c-1.892-2.871-4.733-5.1-7.999-6.278c-0.096-0.034-0.169-0.104-0.21-0.189C0.103,2.096,0.038,2.021,0.005,1.924   C-0.062,1.728,0.058,1.516,0.254,1.45l0.07,0.205c0.001-0.001,0.003-0.002,0.004-0.003L0.266,1.445   c0.02-0.007,0.058-0.017,0.096-0.024C4.491,0.06,8.377-0.327,11.907,0.272c4.131,0.695,9.181,3.811,11.257,6.947   c1.969,2.984,2.232,6.386,0.705,9.102C22.65,18.49,20.527,19.812,18.292,19.812z M1.355,1.894c3.12,1.287,5.822,3.501,7.664,6.297   c1.104,1.666,2.153,3.594,3.301,6.065c1.41,3.01,3.466,4.716,5.79,4.802c2.024,0.076,3.985-1.115,5.105-3.105   c1.407-2.503,1.161-5.535-0.677-8.32c-1.977-2.986-6.802-5.957-10.756-6.621C8.587,0.469,5.083,0.767,1.355,1.894z" fill="#000000"/>
</g>
</g></g></g><!--ITEM 13--><g><defs><clipPath id="clip-path-id-viewbox-item-13"><rect x="0.0" y="0.0" width="19.885" height="39.01"/></clipPath></defs><g transform="translate(546.0 139.0) rotate(0.0 20.5 43.0) scale(2.0618556701030926 2.2045629325813896)"><g clip-path="url(#clip-path-id-viewbox-item-13)" transform="translate(-0.0 -0.0)"><g>
	<path style="fill:#82CABE;" d="M18.18,23.36c0.85,2.57,1.46,5.29,1.1,7.97c-0.35,2.68-1.83,5.32-4.26,6.52   c-2.95,1.45-6.71,0.38-9.04-1.94c-2.34-2.31-3.44-5.63-3.8-8.9s-0.06-6.58-0.02-9.87C2.22,12.13,2.34,6.56,0.5,0.5   C8.75,5.82,15.1,14.03,18.18,23.36z M13.48,23.08c1.11-0.8,1.01-2.47,0.63-3.79c-0.64-2.19-1.4-3.98-3.74-6.56   c-1.27-1.4-2.79-1.25-3.67-0.44c-1.01,0.93-0.8,2.55-0.45,3.88c0.71,2.66,1.84,5.5,4.26,6.81C11.43,23.48,12.63,23.69,13.48,23.08z   "/>
	<path style="fill:#CDE8E3;" d="M14.11,19.29c0.38,1.32,0.48,2.99-0.63,3.79c-0.85,0.61-2.05,0.4-2.97-0.1   c-2.42-1.31-3.55-4.15-4.26-6.81c-0.35-1.33-0.56-2.95,0.45-3.88c0.88-0.81,2.4-0.96,3.67,0.44C12.71,15.31,13.47,17.1,14.11,19.29   z"/>
	<path d="M12.1,38.996c-2.285,0-4.699-0.965-6.473-2.731c-2.718-2.683-3.645-6.484-3.944-9.199c-0.262-2.382-0.179-4.806-0.098-7.15   c0.032-0.927,0.064-1.855,0.075-2.781l0.005-0.394C1.724,11.928,1.791,6.473,0.021,0.645c-0.061-0.201,0.01-0.418,0.177-0.544   C0.366-0.025,0.595-0.034,0.771,0.08C9.169,5.495,15.52,13.707,18.655,23.203c1.093,3.304,1.438,5.832,1.121,8.193   c-0.401,3.073-2.138,5.719-4.534,6.902C14.283,38.769,13.207,38.996,12.1,38.996z M1.35,1.668   C2.783,7.143,2.72,12.227,2.665,16.753L2.66,17.146c-0.011,0.933-0.043,1.868-0.076,2.803c-0.08,2.309-0.162,4.696,0.093,7.007   c0.281,2.554,1.143,6.12,3.654,8.599c2.342,2.332,5.904,3.108,8.468,1.847c2.099-1.036,3.626-3.388,3.985-6.136   c0.296-2.206-0.036-4.595-1.079-7.748C14.783,14.664,9,6.953,1.35,1.668z" fill="#000000"/>
</g>
</g></g></g></svg>