<?xml version="1.0" encoding="UTF-8"?><svg version="1.1" xmlns="http://www.w3.org/2000/svg" xmlns:xlink="http://www.w3.org/1999/xlink" viewBox="0 0 1500 1500" width="1500" height="1500" x="0px" y="0px">
    
    
    <!-- ITEM 0 -->
    <g>
        <defs>
            <clipPath id="clip-path-id-viewbox-item-0">
                <rect x="0.0" y="0.0" width="467.71" height="507.123"/>
            </clipPath>
        </defs>
        <g transform="translate(249.0 206.0) rotate(0.0 501.5 543.5) scale(2.14449124457463 2.1434642088802915)">
            <g clip-path="url(#clip-path-id-viewbox-item-0)" transform="translate(-0.0 -0.0)">
                
<g>
	<path style="fill:#F6B855;" d="M439.686,370.79c33.56,24.87,27.8,62.14,25.18,82.68c-1.14,8.97-7.35,22.66-17.28,33.81   c-11.67-0.22-23.14-0.42-34.45-0.6c11.26-11.43,16.48-26.68,19.77-42.39c3.82-18.29,3.83-41.77-4.12-60.22   c-6.05-14.1-16.75-25.25-33.93-28.9C413.466,356.51,425.706,360.43,439.686,370.79z"/>
	<path style="fill:#BDB89B;" d="M422.576,66.54c0.38-0.32,0.76-0.64,1.13-0.97c5.45,2.33,9.66,6.21,12.55,11.73   c-2.41,0.69-4.77,1.65-7.06,2.85c-2.53,1.3-4.96,2.89-7.26,4.72c-2.46,1.93-4.76,4.13-6.87,6.53c-2.22,2.52-4.21,5.26-5.93,8.14   c-3.41,5.74-5.73,12.05-6.5,18.37c2.65-3.74,6.04-6.97,9.87-9.6c2.07-1.42,4.28-2.66,6.56-3.71c2.16-0.99,4.38-1.81,6.64-2.43   c2.54-0.71,5.11-1.19,7.67-1.41c2.6-0.23,5.18-0.2,7.69,0.11c2.72,40.09,0.11,72.13-2.87,106.06c-1.4,15.95-3.96,21.45-7.35,26.32   c-3.4,4.86-8.98,6.84-13.77,7.73h-0.08c-0.01-25.13-0.29-48.37-0.54-53.6c0.46-18.98-2.93-36.49-16.34-49.93   c-1.07-1.07-2.18-2.08-3.35-3.04c-4.68-3.84-10.09-6.75-15.82-8.88l0.06-0.17c4.75-12.77,5.37-26.88-5.43-35.18l-0.03-0.11v-0.01   c16.39-3.76,31.93-11.23,44.99-21.83C421.226,67.69,421.906,67.12,422.576,66.54z"/>
	<path style="fill:#FFE6E8;" d="M440.536,93.78c0.2,2.39,0.37,4.76,0.53,7.09c-2.51-0.31-5.09-0.34-7.69-0.11l-0.01-0.15   c-0.59-6.55-1.81-13.99-4.02-20.18l-0.15-0.28c2.29-1.2,4.65-2.16,7.06-2.85C438.556,81.72,439.996,87.2,440.536,93.78z"/>
	<path style="fill:#FFE6E8;" d="M433.366,100.61l0.01,0.15c-2.56,0.22-5.13,0.7-7.67,1.41l-0.03-0.11   c-0.5-6.13-1.89-11.54-3.6-17.01l-0.14-0.18c2.3-1.83,4.73-3.42,7.26-4.72l0.15,0.28C431.556,86.62,432.776,94.06,433.366,100.61z"/>
	<path style="fill:#BDB89B;" d="M264.406,255.36c-1.72,4.33-2.02,9.6-2.12,17.18c-0.02,1.75-0.03,3.61-0.05,5.62   c-0.05,21.3-1.41,29.29,0.52,41.63c1.93,12.34,6.15,22.59,17.07,28.65c8.4,4.67,18.4,5.17,28.01,5.55   c21.03,0.85,42.04,0.6,63.08,0.56c8.36-0.02,15.63,0.1,22.13,0.5l-0.01,0.12c8.59,1.87,5.18,11.08,2.28,14.03   c-2.89,2.95-6.94,4.41-10.33,6.78c-3.38,2.38-6.26,6.52-4.94,10.43c1.17,3.48,5.19,5.38,6.34,8.87c1.48,4.53-2.59,8.97-6.74,11.32   c-4.15,2.34-9.09,4.15-11.32,8.36c-2.52,4.77-0.52,10.52,0.52,15.82c1.03,5.29,0.08,12.21-5.06,13.85   c6.64,0.34,13.14-4.73,14.43-11.25c0.76-3.81-0.03-8.05,1.95-11.39c2.63-4.43,8.65-5.08,13.78-5.55   c5.13-0.48,11.24-2.11,12.69-7.06c1.01-3.47-0.82-7.13-0.73-10.74c0.12-4.92,3.86-9.17,8.29-11.35c4.42-2.17,9.44-2.66,14.35-3.12   l0.24-0.1c7.95,18.45,7.94,41.93,4.12,60.22c-3.29,15.71-8.51,30.96-19.77,42.39c-7.58-0.12-15.08-0.24-22.52-0.34v-0.02   c-2.52-3.16,0.64-7.73,4.04-9.91c3.39-2.18,7.68-4.32,8.16-8.33c0.55-4.7-4.77-9.17-2.93-13.53c1.91-4.53,8.88-3.33,12.85-6.23   c6.83-4.98,0.93-18.1,7.66-23.21c-2.82-1.89-6.75,0.3-8.58,3.16c-1.84,2.87-2.59,6.37-4.72,9.03c-2.95,3.7-7.89,5.01-12.34,6.64   c-4.45,1.63-9.2,4.39-10.17,9.03c-0.72,3.48,0.88,7.41-0.85,10.53c-1.29,2.33-4.12,3.41-6.78,3.59c-2.66,0.19-5.32-0.34-7.99-0.33   c-10.46,0.04-19.9,8.5-19.9,18.95v0.1c-105-1.19-199.65-0.91-311.03,0.52c-6.87-8.01-11.75-17.85-13.53-27.67   c-3.92-21.63,6.05-45.09,24.17-57.46c11.3,10.28,29.16,16.74,45.55,16.74c11.9,0,23.01-3.31,32.42-9.05l0.09-0.02   c1.34,6.3,8.34,8.32,14.9,7.97c6.7-0.37,12.84-3.63,19.1-6.05c26.69-10.33,56.92-5.38,83.95,4.03   c27.02,9.4,52.54,23.08,80.15,30.59c5.13,1.39,10.46,2.58,15.73,1.83c5.26-0.74,10.49-3.79,12.47-8.72   c2.49-6.23-0.76-13-5.21-18.29l0.05-0.04c1.56-1.69,2.54-4.23,2.89-6.57c0.59-3.97,0.5-8.43,3.24-11.37   c2.59-2.79,6.94-3.23,9.82-5.73c2.91-2.51,3.82-6.63,4.07-10.47s0.03-7.8,1.36-11.41c1.26-3.38,4.42-6.41,7.94-6.28   c0.24,0.01,0.47,0.03,0.71,0.06c-0.24-0.04-0.48-0.06-0.71-0.06c-7.18-0.56-14.55,3.21-18.26,9.4c-1.61,2.68-2.67,5.86-5.22,7.68   c-3.68,2.63-8.73,1.28-13.25,1.56c-8.41,0.52-15.84,7.89-16.45,16.28c-3.58-1.39-7.43-2.49-11.69-3.41   c-11.44-2.46-26.6-4.18-38.31-4.2c-11.71-0.01-23.63-0.4-34.71-4.15c-11.09-3.75-21.4-11.38-25.78-22.23   c-3.04-7.54-2.66-15.91-2.95-24.03c-0.47-13.32-0.68-26.87-0.57-41.12c0.07-10.49,0.14-20.97,0.21-31.46   c0.07-10.66,0.14-21.33,0.22-31.99c0.04-7.61,0.21-15.59,2.64-22.67c0.84-2.44,1.95-4.77,3.41-6.94   c6.46-9.57,18.41-13.78,29.8-15.66c15.52-2.55,31.35-1.88,47.08-2.14c1.71-0.02,3.42-0.04,5.1-0.06c0.18,0,0.37,0,0.55,0   c18.08-0.09,38.26,0.68,51.53,0.18c4.47-0.18,8.48-0.48,12.2-1.07c0.26,1.56,0.38,3.12,0.34,4.65   c-0.34,15.25-0.16,30.09-0.08,44.81h-0.26c-14.04-0.08-28.27-0.27-43.21-0.42c-6.93-0.06-14-0.12-21.28-0.16   c-7.56-0.04-20.28,0.1-26.28,4.75C268.096,248.96,265.786,251.86,264.406,255.36z"/>
	<path style="fill:#62B57F;" d="M428.786,384.07l-0.24,0.1c-4.91,0.46-9.93,0.95-14.35,3.12c-4.43,2.18-8.17,6.43-8.29,11.35   c-0.09,3.61,1.74,7.27,0.73,10.74c-1.45,4.95-7.56,6.58-12.69,7.06c-5.13,0.47-11.15,1.12-13.78,5.55   c-1.98,3.34-1.19,7.58-1.95,11.39c-1.29,6.52-7.79,11.59-14.43,11.25c5.14-1.64,6.09-8.56,5.06-13.85   c-1.04-5.3-3.04-11.05-0.52-15.82c2.23-4.21,7.17-6.02,11.32-8.36c4.15-2.35,8.22-6.79,6.74-11.32c-1.15-3.49-5.17-5.39-6.34-8.87   c-1.32-3.91,1.56-8.05,4.94-10.43c3.39-2.37,7.44-3.83,10.33-6.78c2.9-2.95,6.31-12.16-2.28-14.03l0.01-0.12   c0.61,0.04,1.21,0.08,1.81,0.12C412.036,358.82,422.736,369.97,428.786,384.07z"/>
	<path style="fill:#FFE6E8;" d="M425.676,102.06l0.03,0.11c-2.26,0.62-4.48,1.44-6.64,2.43l-0.06-0.14   c-0.86-4.08-2.38-8.99-3.77-12.91l-0.17-0.15c2.11-2.4,4.41-4.6,6.87-6.53l0.14,0.18C423.786,90.52,425.176,95.93,425.676,102.06z"/>
	<path style="fill:#D9978D;" d="M282.566,37.34c8.11-13.28,20.21-23.91,34.28-30.15c21.54-9.56,47.52-8.41,68.14,3.01   c20.61,11.41,35.39,32.04,38.72,55.37c-0.37,0.33-0.75,0.65-1.13,0.97c-10.12-30.05-39.2-51.09-70.82-53.49   c-31.58-2.38-57.34,13.14-76.12,39.05c1.75-5.18,4.08-10.1,6.89-14.71C282.536,37.37,282.546,37.36,282.566,37.34z"/>
	<path style="fill:#010101;" d="M395.226,37.98c-8.36-6.22-17.84-10.94-27.84-13.78c-5.81-1.65-11.81-2.67-17.86-2.97   c-7.01-0.35-14.03,0.27-20.86,1.74c-11.19,2.41-21.9,7.11-31.3,13.67c-9.31,6.49-17.33,14.79-23.25,24.49l-0.07,0.07   c-0.25-0.23-0.49-0.47-0.74-0.72c0.6-2.84,1.37-5.62,2.31-8.33c-0.01-0.02,0-0.04,0.02-0.05c18.78-25.91,44.54-41.43,76.12-39.05   c31.62,2.4,60.7,23.44,70.82,53.49c-0.67,0.58-1.35,1.15-2.04,1.69C414.746,56.26,405.896,45.91,395.226,37.98z"/>
	<path style="fill:#FFE6E8;" d="M419.006,104.46l0.06,0.14c-2.28,1.05-4.49,2.29-6.56,3.71c-0.6-2.82-1.8-6.25-3.12-8.62l-0.25-0.15   c1.72-2.88,3.71-5.62,5.93-8.14l0.17,0.15C416.626,95.47,418.146,100.38,419.006,104.46z"/>
	<path style="fill:#62B57F;" d="M411.816,428.27c1.83-2.86,5.76-5.05,8.58-3.16c-6.73,5.11-0.83,18.23-7.66,23.21   c-3.97,2.9-10.94,1.7-12.85,6.23c-1.84,4.36,3.48,8.83,2.93,13.53c-0.48,4.01-4.77,6.15-8.16,8.33c-3.4,2.18-6.56,6.75-4.04,9.91   v0.02c-14.07-0.21-27.9-0.39-41.55-0.53v-0.1c0-10.45,9.44-18.91,19.9-18.95c2.67-0.01,5.33,0.52,7.99,0.33   c2.66-0.18,5.49-1.26,6.78-3.59c1.73-3.12,0.13-7.05,0.85-10.53c0.97-4.64,5.72-7.4,10.17-9.03c4.45-1.63,9.39-2.94,12.34-6.64   C409.226,434.64,409.976,431.14,411.816,428.27z"/>
	<path style="fill:#BDB89B;" d="M413.136,486.68c11.31,0.18,22.78,0.38,34.45,0.6c-9.25,10.37-21.72,18.52-36.35,18.6   c-19.21,0.2-38.12,0.34-56.82,0.41v-0.04C383.446,506.25,401.516,498.5,413.136,486.68z"/>
	<path style="fill:#BDB89B;" d="M416.996,240.98c0.01,31.09-0.4,65.06-1.83,71.38c-2.58,11.43-9.12,21.58-19.64,26.74   c-8.46,4.14-22.31,4.96-31.73,4.69c-14.71-0.43-29.42,0.15-44.13-0.27c-5.15-0.15-10.49-0.34-15.13-2.61   c-6.73-3.3-10.8-10.48-12.6-17.76c-1.8-7.27-1.72-14.86-2.47-22.32c-0.76-7.46-0.18-15.92-4.95-21.7   c-4.77-5.78-13.46-6.87-22.05-6.59h-0.18c0.1-7.58,0.4-12.85,2.12-17.18c22.03,0,51.67,0.29,70.13,0.38   c3.35,8.09,4.2,20.06,4.81,28.79c0.28,4.11,0.52,8.37,2.45,12.01c1.93,3.64,6.05,6.34,10.07,5.45c8.84-1.95,10.07-8.69,10.38-14.51   c0.82-15.34,0.84-30.46,0.76-45.69c-0.08-14.72-0.26-29.56,0.08-44.81c0.04-1.53-0.08-3.09-0.34-4.65   c9.35-1.48,16.83-4.79,25.05-12.48c11.48-10.75,17.38-30.45,8.9-45.36l0.07-0.08c1.17,0.96,2.28,1.97,3.35,3.04   c13.41,13.44,16.8,30.95,16.34,49.93C416.706,192.61,416.986,215.85,416.996,240.98z"/>
	<path style="fill:#FFE6E8;" d="M409.386,99.69c1.32,2.37,2.52,5.8,3.12,8.62c-3.83,2.63-7.22,5.86-9.87,9.6   c0.77-6.32,3.09-12.63,6.5-18.37L409.386,99.69z"/>
	<path style="fill:#F6B855;" d="M396.696,134.49c8.48,14.91,2.58,34.61-8.9,45.36c-8.22,7.69-15.7,11-25.05,12.48   c-0.62-3.75-2.04-7.45-4.06-10.54c-3.21-4.91-9.06-7.22-15.11-8.18c-2.16-0.35-4.36-0.52-6.46-0.57c-2.66-0.07-5.31-0.13-7.95-0.19   v-0.18c0.54-3.47,3.26-6.46,6.23-8.64c4.01-2.94,8.82-5.04,11.71-9.09c2.32-3.25,3.07-7.33,3.58-11.29   c0.5-3.95,0.85-8.02,2.53-11.64c1.68-3.61,5.05-6.76,9.04-6.88c-8.38-0.61-14.62,5.2-19.52,10.77c-4.23,4.82-7.05,10.9-12,14.99   c-4.92,4.08-11.39,5.73-16.91,8.95c-4.62,2.7-8.81,7.44-9.04,12.52v0.05c-6.62-0.1-13.2-0.19-19.77-0.27v-0.2   c-0.81-6.6,6.88-9.42,11.63-12.7c5.42-3.75,11.6-6.51,16.32-11.12c5.49-5.35,8.49-12.67,11.98-19.5c1.39-2.75,2.96-5.5,4.79-8.02   c0.94-0.02,1.89-0.04,2.83-0.06c11.94-0.27,23.99-0.55,35.75,1.58c4.28,0.78,8.54,1.9,12.63,3.41c5.73,2.13,11.14,5.04,15.82,8.88   L396.696,134.49z"/>
	<path style="fill:#334A5A;" d="M395.226,37.98c0.64,4.05,0.9,8.18,0.72,12.27h-0.06c-3.38-2.98-7.07-5.57-11-7.77   c-1.71-0.96-3.47-1.85-5.27-2.66c-1.68-6.9-6.54-12.32-12.7-14.14l0.47-1.48C377.386,27.04,386.866,31.76,395.226,37.98z"/>
	<path style="fill:#CDE8E3;" d="M371.466,90.92c-3.12,0.6-6.27,1.06-9.43,1.38l-0.12-1.14c1.4-0.12,2.8-0.32,4.19-0.63   c11.19-2.49,20.53-11.01,25.39-21.39c2.76-5.91,4.17-12.36,4.45-18.89c0.18-4.09-0.08-8.22-0.72-12.27   c10.67,7.93,19.52,18.28,25.31,30.25c-13.06,10.6-28.6,18.07-44.99,21.83v0.01C374.196,90.38,372.836,90.67,371.466,90.92z"/>
	<path style="fill:#1E5C9A;" d="M395.886,50.25h0.06c-0.28,6.53-1.69,12.98-4.45,18.89c-4.86,10.38-14.2,18.9-25.39,21.39   c-1.39,0.31-2.79,0.51-4.19,0.63c-14.81,1.19-29.88-8.3-36.38-21.88c-4.5-9.38-5.24-20.14-3.03-30.34   c5.99-2.59,12.37-4.25,18.87-5.01c-1.61,3.54-2.51,7.55-2.51,11.8c0,14.35,10.34,25.99,23.1,25.99c12.75,0,23.1-11.64,23.1-25.99   c0-1.1-0.07-2.19-0.18-3.25C388.816,44.68,392.506,47.27,395.886,50.25z"/>
	<path style="fill:#8D634B;" d="M354.416,506.25v0.04c-95.27,0.4-185.2-0.7-282.71-2v-0.13c-12.94-0.43-24.92-7.65-33.67-17.83   c111.38-1.43,206.03-1.71,311.03-0.52c13.65,0.14,27.48,0.32,41.55,0.53c7.44,0.1,14.94,0.22,22.52,0.34   C401.516,498.5,383.446,506.25,354.416,506.25z"/>
	<path style="fill:#2A9859;" d="M384.886,42.48c0.11,1.06,0.18,2.15,0.18,3.25c0,14.35-10.35,25.99-23.1,25.99   c-12.76,0-23.1-11.64-23.1-25.99c0-4.25,0.9-8.26,2.51-11.8c2.13-0.25,4.28-0.41,6.43-0.46c-2.11,3.31-3.34,7.37-3.34,11.75   c0,11.15,8.02,20.2,17.9,20.2c9.89,0,17.91-9.05,17.91-20.2c0-1.87-0.23-3.68-0.66-5.4C381.416,40.63,383.176,41.52,384.886,42.48z   "/>
	<path style="fill:#F6B855;" d="M329.736,120.6c-10.32,0.22-20.64,0.3-30.96,0.3c-7.04,0-14.09-0.03-21.14-0.08   c-6.19-0.04-12.38-0.09-18.57-0.15c-8.56-0.07-17.11-0.14-25.66-0.16c1.21-2.47,2.43-4.91,3.66-7.32   c11.18-21.86,23.41-41.17,38.55-61.04c-0.94,2.71-1.71,5.49-2.31,8.33c0.25,0.25,0.49,0.49,0.74,0.72   c4.51,4.46,9.41,8.49,14.63,12.07l-0.05,0.07c-0.45,6.96-0.31,11.8-0.36,19.13c4.07-4.17,8.41-7.65,12.48-11.82l0.06-0.13   c5.68,2.93,11.61,5.37,17.71,7.28l-0.02,0.05c-0.33,6.97-0.02,14.79,0.36,17.97c2.34-2.97,8.52-8.88,12.59-14.62l0.03-0.16   c5.28,0.99,10.64,1.59,16.02,1.77c1.29,0.04,2.58,0.06,3.87,0.06v0.04c0.78,5.48,1.93,12.29,3.54,17.8   c6.07-7.05,11.77-13.86,16.56-19.79c1.37-0.25,2.73-0.54,4.08-0.85l0.03,0.11c10.8,8.3,10.18,22.41,5.43,35.18l-0.06,0.17   c-4.09-1.51-8.35-2.63-12.63-3.41c-11.76-2.13-23.81-1.85-35.75-1.58C331.626,120.56,330.676,120.58,329.736,120.6z"/>
	<path style="fill:#010101;" d="M379.616,39.82c0.43,1.72,0.66,3.53,0.66,5.4c0,11.15-8.02,20.2-17.91,20.2   c-9.88,0-17.9-9.05-17.9-20.2c0-4.38,1.23-8.44,3.34-11.75C358.706,33.18,369.716,35.35,379.616,39.82z"/>
	<path style="fill:#62B57F;" d="M377.196,368.36c-3.52-0.13-6.68,2.9-7.94,6.28c-1.33,3.61-1.11,7.57-1.36,11.41   s-1.16,7.96-4.07,10.47c-2.88,2.5-7.23,2.94-9.82,5.73c-2.74,2.94-2.65,7.4-3.24,11.37c-0.35,2.34-1.33,4.88-2.89,6.57l-0.05,0.04   c-0.74-0.87-1.5-1.7-2.28-2.48c-6.87-6.87-13.53-11.37-21.53-14.47c0.61-8.39,8.04-15.76,16.45-16.28   c4.52-0.28,9.57,1.07,13.25-1.56c2.55-1.82,3.61-5,5.22-7.68C362.646,371.57,370.016,367.8,377.196,368.36z"/>
	<path style="fill:#FF564F;" d="M366.916,25.68c6.16,1.82,11.02,7.24,12.7,14.14c-9.9-4.47-20.91-6.64-31.81-6.35   c3.25-5.12,8.56-8.45,14.56-8.45C363.936,25.02,365.466,25.25,366.916,25.68z"/>
	<path style="fill:#334A5A;" d="M341.376,33.93c-6.5,0.76-12.88,2.42-18.87,5.01c1.21-5.6,3.31-11.03,6.16-15.97   c6.83-1.47,13.85-2.09,20.86-1.74c6.05,0.3,12.05,1.32,17.86,2.97l-0.47,1.48c-1.45-0.43-2.98-0.66-4.55-0.66   c-6,0-11.31,3.33-14.56,8.45C345.656,33.52,343.506,33.68,341.376,33.93z"/>
	<path style="fill:#010101;" d="M371.466,90.92c-4.79,5.93-10.49,12.74-16.56,19.79c-1.61-5.51-2.76-12.32-3.54-17.8v-0.04   c3.56-0.01,7.13-0.2,10.67-0.57C365.196,91.98,368.346,91.52,371.466,90.92z"/>
	<path style="fill:#CDE8E3;" d="M322.506,38.94c-2.21,10.2-1.47,20.96,3.03,30.34c6.5,13.58,21.57,23.07,36.38,21.88l0.12,1.14   c-3.54,0.37-7.11,0.56-10.67,0.57c-1.29,0-2.58-0.02-3.87-0.06c-5.38-0.18-10.74-0.78-16.02-1.77c-4.38-0.81-8.71-1.89-12.96-3.24   c-6.1-1.91-12.03-4.35-17.71-7.28c-2.35-1.2-4.65-2.49-6.9-3.86l0.05-0.09c-6.37-5.53-8.79-12.85-8.2-20.29   c0.6-7.44,5.67-15.13,11.64-19.6l-0.03-0.04c9.4-6.56,20.11-11.26,31.3-13.67C325.816,27.91,323.716,33.34,322.506,38.94z"/>
	<path style="fill:#62B57F;" d="M342.736,135.9c4.9-5.57,11.14-11.38,19.52-10.77c-3.99,0.12-7.36,3.27-9.04,6.88   c-1.68,3.62-2.03,7.69-2.53,11.64c-0.51,3.96-1.26,8.04-3.58,11.29c-2.89,4.05-7.7,6.15-11.71,9.09c-2.97,2.18-5.69,5.17-6.23,8.64   v0.18c-8.23-0.18-16.34-0.32-24.38-0.44v-0.05c0.23-5.08,4.42-9.82,9.04-12.52c5.52-3.22,11.99-4.87,16.91-8.95   C335.686,146.8,338.506,140.72,342.736,135.9z"/>
	<path style="fill:#8D634B;" d="M358.686,181.79c2.02,3.09,3.44,6.79,4.06,10.54c-3.72,0.59-7.73,0.89-12.2,1.07   c-13.27,0.5-33.45-0.27-51.53-0.18c17.31-0.15,32.76-0.12,37.18-2.78c5.16-3.1,7.52-5.88,7.37-16.75l0.01-0.08   C349.626,174.57,355.476,176.88,358.686,181.79z"/>
	<path style="fill:#010101;" d="M331.476,91.04l-0.03,0.16c-4.07,5.74-10.25,11.65-12.59,14.62c-0.38-3.18-0.69-11-0.36-17.97   l0.02-0.05C322.766,89.15,327.096,90.23,331.476,91.04z"/>
	<path style="fill:#8D634B;" d="M319.536,241.47c8.14,3.22,11.65,6.18,15,14.27c-18.46-0.09-48.1-0.38-70.13-0.38   c1.38-3.5,3.69-6.4,7.57-9.4c6-4.65,18.72-4.79,26.28-4.75c7.28,0.04,14.35,0.1,21.28,0.16V241.47z"/>
	<path style="fill:#62B57F;" d="M329.736,120.6c-1.83,2.52-3.4,5.27-4.79,8.02c-3.49,6.83-6.49,14.15-11.98,19.5   c-4.72,4.61-10.9,7.37-16.32,11.12c-4.75,3.28-12.44,6.1-11.63,12.7v0.2c-5.82-0.07-11.63-0.14-17.47-0.23v-0.02   c-0.99-4.96,2.49-10.12,6.55-13.41c4.42-3.58,9.78-6.16,13.1-10.77c3.5-4.86,4.13-11.15,6.11-16.8c1.27-3.61,3.13-6.99,5.47-10.01   C309.096,120.9,319.416,120.82,329.736,120.6z"/>
	<path style="fill:#010101;" d="M300.806,80.52l-0.06,0.13c-4.07,4.17-8.41,7.65-12.48,11.82c0.05-7.33-0.09-12.17,0.36-19.13   l0.05-0.07c1.71,1.18,3.45,2.31,5.23,3.39C296.156,78.03,298.456,79.32,300.806,80.52z"/>
	<path style="fill:#F6B855;" d="M233.406,120.51c8.55,0.02,17.1,0.09,25.66,0.16c-5.37,5.51-3.04,10.95-5.45,16.33   c-2.17,4.86-6.67,7.91-9.6,12.35c-2.93,4.45-4.86,10.26-2.51,15.04c-0.55-5.12,3.77-9.48,8.26-11.99c4.5-2.52,9.65-4.18,13.13-7.97   c2.81-3.06,4.78-6.88,6.04-10.84c1.7-5.33,4.42-9.63,8.7-12.77c7.05,0.05,14.1,0.08,21.14,0.08c-2.34,3.02-4.2,6.4-5.47,10.01   c-1.98,5.65-2.61,11.94-6.11,16.8c-3.32,4.61-8.68,7.19-13.1,10.77c-4.06,3.29-7.54,8.45-6.55,13.41v0.02   c-12.8-0.17-25.7-0.38-38.99-0.72c-3.75-0.1-7.62-0.16-11.4,0.13l-0.01-0.06c-19.95,1.48-34.39,9.39-42.09,23.77   c-3.69,6.91-4.95,14.69-5.39,22.58c-7.59-0.05-15.29-0.12-23.01-0.25c-4.06-0.07-8.2-0.64-12.05-1.95   c0.76-13.1,0.14-30.22,0.33-44.93c0.18-14.53,3.21-29.51,15.42-39.2c0.99-0.81,2.04-1.56,3.15-2.27   c10.82-6.95,24.24-7.86,37.09-8.16C204.866,120.52,219.136,120.46,233.406,120.51z"/>
	<path style="fill:#FF564F;" d="M297.366,36.64l0.03,0.04c-5.97,4.47-11.04,12.16-11.64,19.6c-0.59,7.44,1.83,14.76,8.2,20.29   l-0.05,0.09c-1.78-1.08-3.52-2.21-5.23-3.39c-5.22-3.58-10.12-7.61-14.63-12.07l0.07-0.07   C280.036,51.43,288.056,43.13,297.366,36.64z"/>
	<path style="fill:#BDB89B;" d="M57.806,194.49c-0.31-27.49,5.47-59.46,14.59-76.27c22.31-41.15,51.37-31.39,65.74-31.78   c25.66-0.68,29.65-14.8,43.97-16.11c19.16-1.74,29.71-6.35,35.68-19.43v-0.43c15,0.05,29.27-0.07,41.87-0.78   c11.36-0.64,15.22-2.31,22.87-12.3c-2.81,4.61-5.14,9.53-6.89,14.71c-0.02,0.01-0.03,0.03-0.02,0.05   c-15.14,19.87-27.37,39.18-38.55,61.04l-0.24-0.12c-19.71-0.2-40.96-0.26-61.14-0.14c-12.59,0.08-25.63,0.24-37.07,5.5   c-10.79,4.95-17.62,11.88-20.75,29.34c-0.24,1.03-0.42,2.13-0.53,3.3c-1.09,11.45-0.39,26.41-0.56,34.17   c-0.24,11.71,2.5,20.6,10.45,26.41c2.24,1.64,4.74,2.87,7.38,3.76c3.85,1.31,7.99,1.88,12.05,1.95c7.72,0.13,15.42,0.2,23.01,0.25   c-0.21,3.67-0.24,7.37-0.26,11.02c-0.07,14.84-0.14,29.57-0.2,44.27c-12.15-0.18-24.29-0.7-36.35-1.86   c-8.11-0.78-16.19-1.85-24.22-3.3c-14.75-2.67-30.28-7.24-39.78-18.84c-9.47-11.57-10.41-25.75-11.07-40.69   c-0.05-4.86-0.09-9.43-0.12-13.72H57.806z"/>
	<path style="fill:#62B57F;" d="M277.636,120.82c-4.28,3.14-7,7.44-8.7,12.77c-1.26,3.96-3.23,7.78-6.04,10.84   c-3.48,3.79-8.63,5.45-13.13,7.97c-4.49,2.51-8.81,6.87-8.26,11.99c-2.35-4.78-0.42-10.59,2.51-15.04   c2.93-4.44,7.43-7.49,9.6-12.35c2.41-5.38,0.08-10.82,5.45-16.33C265.256,120.73,271.446,120.78,277.636,120.82z"/>
	<path style="fill:#8E614B;" d="M236.826,113.07l0.24,0.12c-1.23,2.41-2.45,4.85-3.66,7.32c-14.27-0.05-28.54,0.01-42.81,0.34   c-12.85,0.3-26.27,1.21-37.09,8.16c-1.11,0.71-2.16,1.46-3.15,2.27l-0.04-0.05c-7.55,0.09-28.47-1.08-32.45,16.54   c3.13-17.46,9.96-24.39,20.75-29.34c11.44-5.26,24.48-5.42,37.07-5.5C195.866,112.81,217.116,112.87,236.826,113.07z"/>
	<path style="fill:#F6B855;" d="M217.786,50.47v0.43c-5.97,13.08-16.52,17.69-35.68,19.43c-14.32,1.31-18.31,15.43-43.97,16.11   c-14.37,0.39-43.43-9.37-65.74,31.78c-9.12,16.81-14.9,48.78-14.59,76.27h-0.14c-0.52-56.21-0.31-66,1.8-91.6   c1.14-13.86,5.38-28.39,15.68-37.74c9-8.17,21.66-10.73,33.72-12.15C140.826,49.23,181.476,50.35,217.786,50.47z"/>
	<path style="fill:#8E614B;" d="M217.146,171.26l0.01,0.06c-6.23,0.49-12.24,1.93-17.1,5.69c-5.9,4.57-9.09,11.95-10.12,19.35   c-1.03,7.39-1.16,13.85-1.16,21.36c-6.24-0.04-12.63-0.07-19.11-0.11c0.44-7.89,1.7-15.67,5.39-22.58   C182.756,180.65,197.196,172.74,217.146,171.26z"/>
	<path style="fill:#F6B855;" d="M188.776,217.72c8.44,0.06,16.59,0.14,24.3,0.3c-2.43,7.08-2.6,15.06-2.64,22.67   c-0.08,10.66-0.15,21.33-0.22,31.99h-0.42c-6.88,0.11-13.77,0.22-20.66,0.27c-6.64,0.06-13.29,0.06-19.93-0.05   c0.06-14.7,0.13-29.43,0.2-44.27c0.02-3.65,0.05-7.35,0.26-11.02C176.146,217.65,182.536,217.68,188.776,217.72z"/>
	<path style="fill:#8E614B;" d="M189.136,272.95v0.21c-0.61,24.18-0.88,38.48-0.88,61.47c-0.2,16.51-7.35,24.41-16.42,30.66   c-1,0.69-2.02,1.35-3.06,1.99l-0.01-0.02c0.15-31.71,0.29-62.95,0.44-94.36C175.846,273.01,182.496,273.01,189.136,272.95z"/>
	<path style="fill:#F6B855;" d="M169.206,272.9c-0.15,31.41-0.29,62.65-0.44,94.36l0.01,0.02c-5.08,3.12-10.5,5.67-15.8,8.43   l-0.05-0.09c1.81-5.67,3.07-14.76,3.31-21.01c0.47-11.89,0.05-20.73-5.84-34.19c0.06,0.95,0.7,8.79,1.14,14.49l-0.15,0.01   c-1.48-17.79-10.01-33.62-22.84-44.78l0.1-0.11c3.45-1.8,3.94-4.34,3.98-7.42c0.05-4.66,0.35-7.55,0.22-11.42l0.01-0.15   C144.916,272.2,157.056,272.72,169.206,272.9z"/>
	<path style="fill:#010101;" d="M150.396,320.42c5.89,13.46,6.31,22.3,5.84,34.19c-0.24,6.25-1.5,15.34-3.31,21.01l0.05,0.09   c-3.4,1.77-6.76,3.63-9.93,5.78c-2.46,1.67-4.84,3.61-6.99,5.76l-1.96-1.21c11.08-11.95,17.84-27.83,17.84-45.25   c0-0.5-0.17-2.89-0.4-5.88C151.096,329.21,150.456,321.37,150.396,320.42z"/>
	<path style="fill:#F6B855;" d="M49.296,400.78c-0.77-0.36-1.52-0.73-2.24-1.12c0.52,0.52,1.06,1.04,1.62,1.54   c-18.12,12.37-28.09,35.83-24.17,57.46c1.78,9.82,6.66,19.66,13.53,27.67c-7.36,0.09-14.79,0.19-22.3,0.3   c-6.03-6.5-10.59-14.39-12.95-22.93c-6-21.72,1.66-46.19,17.76-61.96c2.86-2.8,5.99-5.39,8.3-8.66c1.6-2.26,2.78-4.95,3-7.67   l0.02-0.02c12.56,13.74,30.81,22.39,51.11,22.39c37.91,0,68.64-30.14,68.64-67.31c0-1.87-0.08-3.72-0.23-5.55l0.15-0.01   c0.23,2.99,0.4,5.38,0.4,5.88c0,17.42-6.76,33.3-17.84,45.25c-12.55,13.55-30.67,22.06-50.81,22.06   C72.216,408.1,58.956,405.37,49.296,400.78z"/>
	<path style="fill:#FF564F;" d="M151.386,334.92c0.15,1.83,0.23,3.68,0.23,5.55c0,37.17-30.73,67.31-68.64,67.31   c-20.3,0-38.55-8.65-51.11-22.39c-10.91-11.91-17.54-27.66-17.54-44.92c0-31.61,22.21-58.13,52.17-65.36l0.17,0.69l-26.93,35.49   v36.33l41.22,21.93l43.23-21.93v-36.33l-23.94-35.27l0.18-0.67c10.59,2.72,20.18,7.86,28.12,14.79   C141.376,301.3,149.906,317.13,151.386,334.92z M90.656,385.74c0-4.87-3.94-8.81-8.8-8.81c-4.87,0-8.81,3.94-8.81,8.81   c0,4.86,3.94,8.81,8.81,8.81C86.716,394.55,90.656,390.6,90.656,385.74z"/>
	<path style="fill:#010101;" d="M134.096,386.04l1.96,1.21c-5.79,5.81-9.89,13.2-9.4,21.22c0.02,0.13,0.05,0.27,0.08,0.4l-0.09,0.02   c-9.41,5.74-20.52,9.05-32.42,9.05c-16.39,0-34.25-6.46-45.55-16.74c0.2-0.14,0.41-0.28,0.62-0.42c9.66,4.59,22.92,7.32,33.99,7.32   C103.426,408.1,121.546,399.59,134.096,386.04z"/>
	<path style="fill:#82CABE;" d="M124.186,311.29v36.33l-43.23,21.93l-41.22-21.93v-36.33l26.93-35.49l3.61,2.11l-26.73,34.97v32.36   l18.97,10.1l18.09,9.62l39.06-19.72v-32.36l-25.91-38.9c2.26,0.35,4.49,0.81,6.67,1.37l-0.18,0.67L124.186,311.29z"/>
	<path style="fill:#010101;" d="M119.666,312.88v32.36l-39.06,19.72l-18.09-9.62l0.29-0.54v-31.03l25.67-35.19l-18.2-10.67l2.75-3.6   l-0.06-0.44c3.27-0.48,6.61-0.72,10.01-0.72c3.67,0,7.27,0.28,10.78,0.83L119.666,312.88z"/>
	<polygon style="fill:#82CABE;" points="88.476,288.58 62.806,323.77 43.546,312.88 70.276,277.91  "/>
	<path style="fill:#82CABE;" d="M81.856,376.93c4.86,0,8.8,3.94,8.8,8.81c0,4.86-3.94,8.81-8.8,8.81c-4.87,0-8.81-3.95-8.81-8.81   C73.046,380.87,76.986,376.93,81.856,376.93z M85.976,385.74c0-2.28-1.85-4.12-4.12-4.12c-2.28,0-4.13,1.84-4.13,4.12   s1.85,4.12,4.13,4.12C84.126,389.86,85.976,388.02,85.976,385.74z"/>
	<path style="fill:#CDE8E3;" d="M81.856,381.62c2.27,0,4.12,1.84,4.12,4.12s-1.85,4.12-4.12,4.12c-2.28,0-4.13-1.84-4.13-4.12   S79.576,381.62,81.856,381.62z"/>
	<path style="fill:#FF564F;" d="M72.966,273.87l0.06,0.44l-2.75,3.6l-3.61-2.11l-0.17-0.69   C68.616,274.59,70.766,274.18,72.966,273.87z"/>
	<path style="fill:#8D634B;" d="M71.706,504.16v0.13c-6.69-0.09-13.41-0.18-20.17-0.27c-13.66-0.66-26.48-7.37-35.8-17.39   c7.51-0.11,14.94-0.21,22.3-0.3C46.786,496.51,58.766,503.73,71.706,504.16z"/>
	<polygon style="fill:#CDE8E3;" points="62.806,323.77 62.806,354.8 62.516,355.34 43.546,345.24 43.546,312.88  "/>
	<path d="M282.565,38.09c-0.152,0-0.307-0.046-0.439-0.143c-0.335-0.243-0.41-0.712-0.167-1.048   c0.243-0.335,0.497-0.671,0.763-1.016c0.252-0.33,0.724-0.392,1.051-0.139c0.329,0.252,0.392,0.723,0.139,1.051   c-0.256,0.335-0.502,0.659-0.737,0.984C283.027,37.982,282.797,38.09,282.565,38.09z"/>
	<path d="M57.786,208.96c-0.411,0-0.746-0.331-0.75-0.742c-0.05-4.861-0.09-9.432-0.12-13.723   c-0.515-55.716-0.313-65.996,1.803-91.667c0.965-11.724,4.511-27.874,15.924-38.233c9.281-8.425,22.464-10.966,34.136-12.34   c26.675-3.146,59.14-2.895,90.539-2.651c6.237,0.049,12.415,0.096,18.472,0.116c13.079,0.045,28.282-0.015,41.825-0.778   c10.956-0.618,14.727-2.096,22.316-12.008c0.251-0.327,0.723-0.391,1.052-0.14c0.329,0.252,0.392,0.723,0.14,1.052   c-7.899,10.314-12.091,11.954-23.424,12.594c-13.583,0.765-28.812,0.828-41.915,0.78c-6.059-0.021-12.237-0.068-18.478-0.116   c-31.354-0.244-63.77-0.494-90.352,2.642c-11.437,1.346-24.336,3.82-33.304,11.961c-11.051,10.03-14.494,25.79-15.437,37.245   c-2.109,25.61-2.312,35.875-1.797,91.532c0.03,4.291,0.07,8.859,0.12,13.719c0.004,0.414-0.328,0.754-0.742,0.758   C57.791,208.96,57.789,208.96,57.786,208.96z"/>
	<path d="M423.705,66.32c-0.367,0-0.688-0.27-0.741-0.644c-3.261-22.841-17.594-43.334-38.341-54.82   C364.265-0.417,338.41-1.56,317.15,7.876c-13.896,6.162-25.951,16.765-33.944,29.854c-0.021,0.036-0.047,0.07-0.074,0.103   c-2.83,4.664-5.103,9.526-6.785,14.507c-0.007,0.019-0.014,0.036-0.021,0.054c0,0.001,0,0.002,0,0.003   c-0.923,2.658-1.692,5.431-2.286,8.239c-0.085,0.405-0.482,0.667-0.889,0.578c-0.405-0.085-0.664-0.483-0.578-0.889   c0.606-2.869,1.393-5.702,2.335-8.421l0.002,0.001c0.006-0.021,0.013-0.04,0.021-0.06c1.73-5.119,4.071-10.113,6.956-14.847   c0.015-0.023,0.039-0.057,0.065-0.091c8.15-13.328,20.434-24.125,34.591-30.403c21.681-9.624,48.048-8.457,68.808,3.039   c21.156,11.713,35.772,32.618,39.099,55.92c0.059,0.41-0.227,0.79-0.636,0.849C423.776,66.318,423.74,66.32,423.705,66.32z"/>
	<path d="M351.37,94.37c-1.31,0-2.615-0.021-3.921-0.062c-5.396-0.18-10.861-0.783-16.249-1.794   c-4.441-0.821-8.863-1.927-13.139-3.285c-6.152-1.927-12.191-4.409-17.943-7.377c-2.33-1.189-4.685-2.506-6.992-3.911   c-1.772-1.075-3.557-2.232-5.303-3.438c-5.318-3.646-10.31-7.765-14.832-12.237c-0.227-0.208-0.481-0.461-0.746-0.726   c-0.586-0.586-0.586-1.535,0-2.121s1.535-0.586,2.121,0c0.235,0.235,0.461,0.461,0.696,0.678   c4.434,4.383,9.286,8.386,14.462,11.935c1.701,1.175,3.436,2.3,5.16,3.346c2.245,1.367,4.534,2.647,6.803,3.806   c5.605,2.892,11.483,5.308,17.477,7.185c4.163,1.323,8.463,2.398,12.785,3.197c5.243,0.983,10.557,1.57,15.797,1.745   c1.271,0.039,2.546,0.06,3.82,0.06c3.499-0.01,7.038-0.199,10.514-0.563c3.109-0.313,6.237-0.771,9.303-1.36   c1.183-0.216,2.442-0.478,3.859-0.801c0.055-0.02,0.111-0.036,0.169-0.049c16.279-3.734,31.626-11.18,44.38-21.532   c0.692-0.541,1.353-1.096,2.004-1.659c0.421-0.355,0.771-0.65,1.113-0.955c0.616-0.555,1.566-0.498,2.117,0.121   c0.552,0.618,0.497,1.566-0.121,2.117c-0.362,0.323-0.733,0.637-1.105,0.95c-0.832,0.72-1.499,1.272-2.139,1.772   c-13.042,10.586-28.749,18.222-45.408,22.07c-0.056,0.02-0.112,0.036-0.171,0.05c-1.529,0.352-2.886,0.634-4.146,0.863   c-3.14,0.604-6.356,1.074-9.549,1.396C358.615,94.166,354.974,94.36,351.37,94.37z"/>
	<path d="M420.616,68.514c-0.042,0-0.083-0.021-0.106-0.061c-0.018-0.028-0.033-0.061-0.047-0.092   c-0.011-0.023-0.021-0.046-0.033-0.067c-5.649-11.677-14.388-22.121-25.277-30.214c-8.46-6.295-17.813-10.924-27.801-13.761   c-5.889-1.673-11.889-2.671-17.831-2.965c-6.873-0.345-13.877,0.24-20.828,1.736c-11.066,2.384-21.874,7.104-31.255,13.65   c-9.44,6.581-17.468,15.036-23.215,24.453c-0.036,0.058-0.113,0.076-0.172,0.041c-0.059-0.036-0.077-0.112-0.041-0.172   c5.765-9.445,13.816-17.927,23.285-24.527c9.407-6.565,20.246-11.299,31.345-13.689c6.973-1.501,14.003-2.083,20.893-1.742   c5.962,0.296,11.98,1.296,17.888,2.975c10.017,2.845,19.397,7.487,27.881,13.8c10.923,8.117,19.688,18.594,25.348,30.296   c0.012,0.019,0.027,0.051,0.041,0.082c0.011,0.023,0.021,0.046,0.033,0.067c0.036,0.059,0.018,0.136-0.042,0.171   C420.661,68.509,420.638,68.514,420.616,68.514z"/>
	<path d="M422.626,66.804c-0.05,0-0.097-0.03-0.116-0.079c-0.011-0.027-0.019-0.052-0.027-0.076   c-0.007-0.021-0.014-0.041-0.022-0.063c-9.933-29.492-38.35-50.955-70.714-53.411c-29.616-2.231-55.898,11.254-76.009,38.998   c-0.055,0.063-0.098,0.124-0.14,0.182l-0.051,0.069c-0.041,0.057-0.119,0.067-0.175,0.026s-0.067-0.12-0.026-0.175l0.049-0.067   c0.046-0.063,0.094-0.13,0.146-0.19c18.721-25.827,42.794-39.331,69.926-39.331c2.082,0,4.181,0.079,6.299,0.238   c15.698,1.192,30.753,6.863,43.538,16.401c12.994,9.694,22.466,22.549,27.391,37.174c0.009,0.021,0.017,0.046,0.025,0.07   c0.007,0.021,0.014,0.041,0.022,0.063c0.025,0.064-0.006,0.137-0.07,0.162C422.656,66.802,422.641,66.804,422.626,66.804z"/>
	<path d="M359.447,91.759c-13.884,0-28.034-9.042-34.362-22.263c-4.313-8.992-5.403-19.882-3.067-30.661   c1.224-5.664,3.314-11.086,6.215-16.115c0.136-0.232,0.444-0.339,0.682-0.218c0.237,0.125,0.349,0.391,0.233,0.633   c-0.011,0.024-0.04,0.073-0.056,0.095c-2.842,4.93-4.896,10.254-6.098,15.816c-2.288,10.564-1.226,21.225,2.993,30.019   c6.538,13.659,21.635,22.727,35.889,21.598c1.465-0.126,2.813-0.329,4.122-0.62c10.596-2.358,19.959-10.251,25.045-21.114   c2.632-5.634,4.113-11.925,4.403-18.699c0.175-3.971-0.065-8.065-0.714-12.17c-0.004-0.026-0.006-0.082-0.006-0.108   c0-0.276,0.224-0.5,0.5-0.5s0.5,0.224,0.5,0.5c0.652,4.123,0.896,8.284,0.72,12.321c-0.297,6.906-1.81,13.325-4.497,19.08   c-5.218,11.142-14.838,19.242-25.734,21.667c-1.352,0.301-2.744,0.51-4.256,0.64C361.124,91.725,360.286,91.759,359.447,91.759z"/>
	<path d="M395.885,50.5c-0.059,0-0.118-0.021-0.165-0.063c-3.312-2.92-6.998-5.523-10.957-7.739c-1.709-0.96-3.476-1.852-5.25-2.65   c-9.813-4.431-20.787-6.63-31.701-6.328c-2.069,0.048-4.225,0.202-6.407,0.458c-6.604,0.773-12.929,2.452-18.8,4.992   c-0.123,0.051-0.295,0.009-0.353-0.116c-0.056-0.124-0.027-0.261,0.096-0.319c0.01-0.005,0.044-0.019,0.055-0.021   c5.92-2.561,12.292-4.253,18.943-5.031c2.198-0.258,4.369-0.413,6.453-0.462c10.999-0.312,22.038,1.91,31.919,6.373   c1.788,0.804,3.568,1.702,5.289,2.67c3.99,2.231,7.705,4.856,11.043,7.8c0.104,0.092,0.114,0.249,0.022,0.353   C396.023,50.471,395.955,50.5,395.885,50.5z"/>
	<path d="M293.956,76.695c-0.029,0-0.059-0.01-0.082-0.03c-6.035-5.239-8.885-12.292-8.243-20.395   c0.563-6.963,5.261-14.876,11.69-19.69c0.055-0.042,0.134-0.03,0.175,0.024c0.042,0.056,0.03,0.134-0.024,0.175   c-6.377,4.774-11.034,12.615-11.591,19.511c-0.443,5.593,0.611,13.635,8.157,20.186c0.052,0.046,0.058,0.125,0.013,0.177   C294.025,76.68,293.991,76.695,293.956,76.695z"/>
	<path d="M288.265,92.594c-0.016,0-0.032-0.003-0.048-0.01c-0.047-0.019-0.077-0.065-0.077-0.116   c0.013-1.785,0.014-3.423,0.015-4.979c0.003-4.77,0.005-8.889,0.346-14.157c0.005-0.069,0.07-0.119,0.133-0.117   c0.069,0.005,0.121,0.064,0.117,0.133c-0.341,5.261-0.343,9.376-0.346,14.142c-0.001,1.467-0.002,3.006-0.013,4.672   c1.973-2.004,4.033-3.879,6.029-5.693c2.065-1.879,4.202-3.822,6.234-5.904c0.048-0.05,0.129-0.05,0.177-0.003   c0.05,0.049,0.051,0.128,0.003,0.177c-2.038,2.088-4.178,4.033-6.246,5.915c-2.065,1.879-4.202,3.822-6.234,5.904   C288.331,92.582,288.298,92.594,288.265,92.594z"/>
	<path d="M318.856,105.945c-0.012,0-0.022-0.002-0.034-0.005c-0.048-0.014-0.084-0.055-0.09-0.105   c-0.351-2.933-0.707-10.68-0.361-17.991c0.003-0.069,0.077-0.122,0.131-0.119c0.069,0.003,0.122,0.062,0.119,0.131   c-0.335,7.063-0.012,14.526,0.325,17.652c0.862-1.062,2.148-2.452,3.622-4.044c2.76-2.983,6.194-6.695,8.776-10.336   c0.04-0.058,0.118-0.07,0.174-0.029c0.057,0.039,0.069,0.117,0.029,0.174c-2.59,3.653-6.031,7.373-8.797,10.361   c-1.581,1.709-2.946,3.185-3.796,4.264C318.93,105.928,318.894,105.945,318.856,105.945z"/>
	<path d="M354.906,110.835c-0.009,0-0.018-0.001-0.026-0.003c-0.045-0.01-0.081-0.043-0.094-0.087   c-1.303-4.457-2.495-10.451-3.544-17.817c-0.01-0.068,0.038-0.132,0.106-0.142c0.064-0.015,0.132,0.037,0.142,0.106   c1.029,7.232,2.197,13.139,3.472,17.561c6.005-6.977,11.675-13.755,16.406-19.611c0.003-0.004,0.026-0.026,0.029-0.03   c0.049-0.049,0.129-0.049,0.178,0c0.048,0.049,0.048,0.129,0,0.178c-0.002,0.001-0.023,0.021-0.025,0.023   c-4.76,5.894-10.486,12.738-16.549,19.779C354.976,110.819,354.942,110.835,354.906,110.835z"/>
	<path d="M417.075,241.73c-0.354,0-0.669-0.252-0.736-0.613c-0.076-0.407,0.193-0.799,0.601-0.874   c6.178-1.148,10.65-3.646,13.292-7.423c3.092-4.441,5.77-9.461,7.218-25.956c2.789-31.763,5.673-64.606,2.869-105.943   c-0.16-2.326-0.33-4.692-0.529-7.078c-0.526-6.404-1.938-11.854-4.198-16.197c-2.766-5.281-6.863-9.113-12.18-11.386   c-0.381-0.163-0.558-0.604-0.395-0.984c0.162-0.381,0.602-0.558,0.984-0.395c5.642,2.412,9.988,6.474,12.919,12.071   c2.354,4.523,3.822,10.164,4.363,16.767c0.201,2.393,0.371,4.767,0.531,7.1c2.813,41.454-0.077,74.357-2.871,106.177   c-1.346,15.33-3.668,21.205-7.482,26.684c-2.876,4.111-7.669,6.815-14.248,8.039C417.167,241.726,417.121,241.73,417.075,241.73z"/>
	<path d="M402.635,118.285c-0.075,0-0.151-0.022-0.217-0.069c-0.169-0.119-0.209-0.354-0.089-0.522   c2.609-3.683,5.962-6.944,9.964-9.693c2.042-1.4,4.269-2.659,6.615-3.741c2.216-1.015,4.47-1.839,6.697-2.45   c2.592-0.725,5.195-1.203,7.737-1.423c2.66-0.233,5.274-0.197,7.769,0.112c0.206,0.025,0.352,0.213,0.326,0.418   s-0.204,0.349-0.418,0.326c-2.445-0.303-5.005-0.34-7.611-0.108c-2.496,0.215-5.054,0.685-7.603,1.397   c-2.19,0.602-4.405,1.412-6.584,2.409c-2.309,1.063-4.497,2.302-6.505,3.679c-3.928,2.698-7.218,5.897-9.776,9.508   C402.868,118.23,402.753,118.285,402.635,118.285z"/>
	<path d="M402.635,118.285c-0.015,0-0.03-0.001-0.045-0.003c-0.206-0.024-0.353-0.212-0.327-0.417   c0.751-6.164,3.017-12.567,6.55-18.517c1.749-2.927,3.758-5.685,5.972-8.196c2.156-2.454,4.485-4.667,6.92-6.577   c2.348-1.868,4.811-3.47,7.32-4.759c2.332-1.222,4.731-2.19,7.127-2.877c0.189-0.089,0.418-0.007,0.506,0.179   c0.09,0.187,0.017,0.412-0.171,0.501c-0.028,0.014-0.094,0.033-0.124,0.039c-2.352,0.675-4.702,1.624-6.993,2.824   c-2.468,1.268-4.89,2.843-7.2,4.681c-2.4,1.884-4.695,4.064-6.822,6.484c-2.184,2.479-4.165,5.198-5.89,8.085   c-3.48,5.86-5.711,12.162-6.45,18.223C402.984,118.145,402.823,118.285,402.635,118.285z"/>
	<path d="M134.596,216.312c-0.415,0-0.751-0.339-0.751-0.753c0-0.027,0.007-0.128,0.01-0.155c0.479-8.268,0.409-18.263,0.342-27.93   c-0.04-5.681-0.081-11.555-0.011-17.004c0.232-18.82,5.223-31.461,15.704-39.778c0.97-0.795,2.023-1.555,3.211-2.314   c11.034-7.088,24.564-7.976,37.477-8.278c12.546-0.29,26.159-0.394,42.831-0.34c8.703,0.021,17.325,0.092,25.663,0.16   c6.19,0.061,12.38,0.11,18.568,0.15c7.627,0.054,14.54,0.08,21.136,0.08c11.363,0,21.485-0.099,30.944-0.301l2.83-0.06   c11.893-0.271,24.093-0.546,35.899,1.592c4.496,0.82,8.787,1.979,12.756,3.445c6.143,2.283,11.536,5.312,16.035,9.003   c1.179,0.967,2.293,1.978,3.405,3.09c11.845,11.87,17.106,27.91,16.56,50.479c-0.01,0.413-0.308,0.746-0.769,0.731   c-0.414-0.011-0.741-0.354-0.731-0.769c0.536-22.13-4.586-37.821-16.121-49.382c-1.076-1.076-2.154-2.054-3.295-2.989   c-4.37-3.586-9.62-6.532-15.605-8.757c-3.886-1.436-8.093-2.571-12.503-3.375c-11.654-2.111-23.78-1.837-35.505-1.57l-2.925,0.062   c-9.469,0.202-19.602,0.301-30.976,0.301c-6.599,0-13.516-0.026-21.146-0.08c-6.19-0.04-12.382-0.09-18.572-0.15   c-8.334-0.068-16.954-0.14-25.654-0.16c-16.658-0.055-30.259,0.05-42.791,0.34c-12.699,0.297-25.993,1.163-36.702,8.041   c-1.139,0.729-2.146,1.455-3.079,2.22c-10.109,8.022-14.919,20.295-15.146,38.629c-0.07,5.436-0.029,11.302,0.011,16.975   c0.067,9.69,0.138,19.711-0.342,27.989c-0.001,0.013-0.008,0.1-0.009,0.112C135.346,215.979,135.01,216.312,134.596,216.312z"/>
	<path d="M233.428,120.745l-0.225-0.109l0.091-0.182c1.219-2.489,2.451-4.953,3.66-7.32c11.089-21.684,23.343-41.086,38.562-61.06   l0.188-0.248l0.201,0.148l-0.189,0.25c-15.211,19.963-27.457,39.353-38.539,61.022c-1.209,2.367-2.439,4.829-3.659,7.317   L233.428,120.745z"/>
	<path d="M339.507,193.695c-5.437,0-11.403-0.084-17.567-0.171c-7.586-0.105-15.437-0.213-22.924-0.18c-0.001,0-0.001,0-0.001,0   c-0.068,0-0.125-0.056-0.125-0.124c0-0.069,0.056-0.126,0.124-0.126c7.502-0.036,15.342,0.073,22.93,0.18   c10.714,0.151,20.833,0.293,28.597,0.001c5.054-0.204,8.812-0.534,12.186-1.068c9.985-1.581,17.224-5.188,24.984-12.448   c11.093-10.388,17.446-30.138,8.877-45.207c-0.034-0.06-0.014-0.136,0.047-0.17c0.058-0.035,0.136-0.015,0.17,0.047   c3.953,6.951,5.036,15.591,3.048,24.329c-1.832,8.054-6.195,15.774-11.972,21.183c-7.8,7.298-15.076,10.924-25.115,12.513   c-3.384,0.537-7.15,0.867-12.215,1.072C347.249,193.649,343.522,193.695,339.507,193.695z"/>
	<path d="M296.166,193.365c-0.068,0-0.124-0.055-0.125-0.123c-0.001-0.069,0.055-0.126,0.123-0.127   c0.363-0.005,0.729-0.007,1.097-0.01c0.4-0.003,0.802-0.005,1.203-0.011c0.001,0,0.001,0,0.002,0c0.068,0,0.124,0.055,0.125,0.123   c0.001,0.069-0.055,0.126-0.123,0.127c-0.402,0.006-0.805,0.008-1.206,0.011c-0.366,0.003-0.731,0.005-1.094,0.01   C296.167,193.365,296.167,193.365,296.166,193.365z"/>
	<path d="M210.005,304.889c-0.002,0-0.003,0-0.005,0c-0.414-0.003-0.748-0.341-0.745-0.755l0.211-31.668   c0.07-10.591,0.141-21.192,0.22-31.782c0.043-8.079,0.279-15.913,2.681-22.908c0.896-2.605,2.073-4.999,3.497-7.115   c5.535-8.199,15.729-13.576,30.3-15.981c12.102-1.988,24.563-2.028,36.615-2.068c3.469-0.011,7.055-0.022,10.574-0.081   c0.005,0,0.009,0,0.013,0c0.409,0,0.743,0.328,0.75,0.737c0.007,0.414-0.323,0.756-0.737,0.763   c-3.53,0.059-7.121,0.07-10.595,0.081c-11.992,0.039-24.394,0.08-36.376,2.049c-14.147,2.335-24.006,7.496-29.3,15.34   c-1.351,2.007-2.469,4.283-3.323,6.764c-2.326,6.78-2.557,14.479-2.599,22.431c-0.079,10.592-0.149,21.191-0.22,31.782   l-0.001,0.208l-0.21,31.46C210.753,304.557,210.418,304.889,210.005,304.889z"/>
	<path d="M213.116,218.769h-0.04c-8.218-0.17-16.897-0.247-24.306-0.3l-19.109-0.109c-6.302-0.042-14.613-0.108-23.018-0.25   c-4.495-0.078-8.626-0.747-12.278-1.99c-2.833-0.955-5.385-2.256-7.582-3.864c-7.603-5.558-11.021-14.146-10.757-27.031   c0.053-2.412,0.021-5.479-0.015-9.029c-0.078-7.7-0.176-17.284,0.577-25.196c0.111-1.177,0.295-2.32,0.547-3.399   c3.857-17.08,23.289-17.103,31.587-17.112c0.577-0.001,1.107-0.001,1.585-0.007c0.431-0.036,0.754,0.326,0.759,0.741   c0.005,0.414-0.327,0.754-0.741,0.759c-0.481,0.006-1.018,0.006-1.601,0.007c-8.611,0.011-26.532,0.031-30.127,15.947   c-0.237,1.019-0.41,2.096-0.515,3.206c-0.746,7.835-0.649,17.374-0.571,25.04c0.036,3.563,0.067,6.641,0.015,9.076   c-0.254,12.351,2.97,20.545,10.143,25.788c2.073,1.519,4.488,2.748,7.177,3.654c3.508,1.193,7.485,1.836,11.823,1.911   c8.397,0.142,16.703,0.208,23.002,0.25l19.11,0.109c7.413,0.053,16.099,0.131,24.311,0.3c0.411,0.009,0.759,0.347,0.754,0.758   C213.841,218.438,213.527,218.769,213.116,218.769z"/>
	<path d="M180.675,273.74c-4.051,0-7.852-0.03-11.482-0.09c-13.559-0.202-25.469-0.812-36.409-1.864   c-8.587-0.825-16.529-1.908-24.281-3.308c-13.438-2.433-30.152-6.802-40.227-19.103c-9.96-12.168-10.64-27.556-11.239-41.133   c-0.019-0.414,0.302-0.765,0.716-0.782c0.414-0.046,0.764,0.302,0.782,0.716c0.59,13.344,1.258,28.467,10.901,40.249   c9.765,11.922,26.149,16.19,39.333,18.576c7.711,1.393,15.613,2.47,24.159,3.292c10.899,1.048,22.77,1.655,36.288,1.856   c6.042,0.1,12.556,0.117,19.912,0.05c6.906-0.05,13.896-0.162,20.655-0.271c0.438,0.031,0.755,0.324,0.762,0.738   s-0.324,0.755-0.738,0.762c-6.762,0.108-13.755,0.221-20.666,0.271C186.192,273.726,183.378,273.74,180.675,273.74z"/>
	<path d="M262.236,278.91c-0.002,0-0.005,0-0.007,0c-0.415-0.004-0.747-0.343-0.743-0.757l0.021-2.483   c0.009-1.088,0.017-2.132,0.028-3.139c0.108-8.215,0.474-13.169,2.173-17.447c1.443-3.661,3.852-6.658,7.809-9.718   c5.701-4.418,16.724-4.959,26.742-4.906c7.281,0.04,14.353,0.1,21.283,0.16c4.646,0.047,9.223,0.097,13.746,0.146   c10.177,0.112,19.788,0.219,29.461,0.273c0.415,0.002,0.748,0.34,0.746,0.754c-0.002,0.413-0.338,0.746-0.75,0.746   c-0.001,0-0.003,0-0.004,0c-9.677-0.056-19.291-0.161-29.47-0.273c-4.522-0.05-9.099-0.1-13.744-0.146   c-6.928-0.061-13.997-0.12-21.276-0.16c-5.915-0.032-19.756-0.104-25.816,4.593c-3.731,2.885-5.992,5.686-7.332,9.083   c-1.613,4.063-1.962,8.884-2.067,16.914c-0.012,1.004-0.021,2.046-0.028,3.132l-0.021,2.485   C262.982,278.579,262.647,278.91,262.236,278.91z"/>
	<path d="M350.28,302.914c-3.916,0-7.452-2.827-9.146-6.022c-1.95-3.679-2.236-7.89-2.513-11.962l-0.023-0.349   c-0.605-8.664-1.434-20.533-4.755-28.554c-3.145-7.596-6.279-10.574-14.583-13.86c-0.385-0.152-0.573-0.588-0.421-0.974   c0.151-0.385,0.586-0.575,0.974-0.421c8.663,3.428,12.121,6.721,15.417,14.681c3.414,8.247,4.252,20.256,4.864,29.025l0.023,0.35   c0.267,3.916,0.541,7.965,2.342,11.36c1.678,3.164,5.396,5.923,9.245,5.069c8.056-1.777,9.467-7.691,9.793-13.817   c0.839-15.692,0.835-31.154,0.759-45.646l-0.043-7.036c-0.08-12.271-0.163-24.96,0.123-37.794c0.038-1.452-0.073-2.969-0.33-4.511   c-0.602-3.638-2.003-7.278-3.947-10.253c-2.678-4.096-7.59-6.736-14.6-7.849c-1.967-0.319-4.105-0.508-6.36-0.562   c-2.385-0.063-4.759-0.117-7.125-0.172l-0.825-0.019c-7.44-0.163-15.186-0.303-24.373-0.439c-6.62-0.101-13.199-0.19-19.769-0.271   c-5.82-0.069-11.632-0.14-17.473-0.229c-10.5-0.14-24.424-0.348-38.998-0.72c-3.462-0.093-7.478-0.168-11.322,0.128   c-7.247,0.568-12.554,2.327-16.699,5.534c-5.212,4.038-8.705,10.736-9.835,18.861c-1.065,7.638-1.153,14.412-1.153,21.256   c0,0.414-0.336,0.756-0.75,0.756s-0.75-0.331-0.75-0.745v-0.011c0-6.898,0.089-13.73,1.167-21.463   c1.185-8.515,4.879-15.561,10.403-19.84c4.388-3.395,9.948-5.251,17.501-5.845c3.92-0.3,7.979-0.226,11.479-0.132   c14.563,0.373,28.481,0.58,38.979,0.72c5.841,0.09,11.65,0.16,17.469,0.229c6.571,0.08,13.152,0.17,19.773,0.271   c9.191,0.138,16.939,0.277,24.385,0.439l0.825,0.02c2.368,0.054,4.744,0.108,7.128,0.171c2.322,0.056,4.529,0.25,6.561,0.58   c7.443,1.181,12.699,4.044,15.618,8.51c2.056,3.145,3.537,6.99,4.172,10.828c0.272,1.635,0.39,3.248,0.35,4.792   c-0.286,12.81-0.203,25.487-0.123,37.748l0.043,7.038c0.076,14.515,0.08,30.002-0.761,45.734   c-0.34,6.396-1.909,13.204-10.968,15.202C351.44,302.852,350.856,302.914,350.28,302.914z"/>
	<path d="M293.366,194.03c-0.41,0-0.745-0.33-0.75-0.741c-0.005-0.414,0.327-0.754,0.741-0.759l8.522-0.084   c15.393-0.125,29.932-0.243,33.93-2.648c4.873-2.929,7.153-5.471,7.007-16.097c-0.006-0.415,0.325-0.755,0.739-0.761   c0.004,0,0.008,0,0.011,0c0.409,0,0.744,0.329,0.75,0.739c0.149,10.895-2.157,14.053-7.733,17.403   c-4.35,2.617-18.41,2.731-34.691,2.863l-8.517,0.084C293.372,194.03,293.369,194.03,293.366,194.03z"/>
	<path d="M168.765,367.385C168.765,367.385,168.765,367.385,168.765,367.385c-0.069,0-0.125-0.057-0.125-0.126   c0.069-14.667,0.137-29.233,0.204-43.762c0.078-16.884,0.155-33.716,0.236-50.598c0.057-14.015,0.123-28.057,0.19-42.194   l0.01-2.076c0.021-3.912,0.055-7.442,0.26-11.025c0.539-9.662,2.206-16.643,5.404-22.632c7.661-14.308,21.857-22.327,42.192-23.837   c0.003,0,0.006,0,0.009,0c0.065,0,0.12,0.05,0.125,0.116c0.005,0.068-0.047,0.128-0.116,0.134   c-20.243,1.502-34.371,9.478-41.989,23.704c-3.181,5.957-4.838,12.904-5.375,22.528c-0.205,3.578-0.239,7.104-0.26,11.014   l-0.01,2.075c-0.067,14.138-0.134,28.18-0.19,42.195c-0.081,16.881-0.158,33.714-0.236,50.597   c-0.067,14.529-0.135,29.096-0.204,43.763C168.89,367.329,168.834,367.385,168.765,367.385z"/>
	<path d="M188.255,335.38c-0.414,0-0.75-0.336-0.75-0.75c0-22.874,0.26-36.861,0.88-61.488c0.011-0.413,0.342-0.721,0.769-0.731   c0.414,0.011,0.741,0.354,0.731,0.769c-0.62,24.614-0.88,38.593-0.88,61.451C189.005,335.044,188.67,335.38,188.255,335.38z"/>
	<path d="M126.655,409.219c-0.393,0-0.724-0.307-0.748-0.704c-0.578-9.459,4.911-17.073,9.617-21.795   c2.13-2.131,4.519-4.099,7.101-5.851c3.458-2.347,7.163-4.346,10.005-5.825c1.419-0.739,2.847-1.463,4.273-2.187   c3.827-1.94,7.784-3.947,11.48-6.217c1.092-0.673,2.082-1.317,3.026-1.969c8.239-5.678,15.892-13.248,16.096-30.052   c0.005-0.411,0.34-0.741,0.75-0.741c0.003,0,0.006,0,0.009,0c0.414,0.005,0.746,0.345,0.741,0.759   c-0.212,17.487-8.173,25.362-16.744,31.269c-0.965,0.667-1.977,1.324-3.092,2.012c-3.749,2.303-7.734,4.323-11.588,6.277   c-1.423,0.722-2.845,1.442-4.259,2.179c-2.98,1.552-6.481,3.446-9.856,5.736c-2.503,1.699-4.818,3.606-6.881,5.669   c-4.488,4.504-9.726,11.741-9.181,20.644c0.024,0.414-0.29,0.77-0.703,0.795C126.686,409.219,126.67,409.219,126.655,409.219z"/>
	<path d="M128.647,290.78c-0.271,0-0.532-0.146-0.666-0.403c-0.191-0.367-0.049-0.82,0.318-1.012   c2.952-1.541,3.534-3.566,3.576-6.765c0.021-1.895,0.081-3.468,0.139-4.989c0.085-2.21,0.158-4.119,0.081-6.396   c-0.014-0.414,0.311-0.761,0.725-0.775c0.441,0.006,0.762,0.312,0.775,0.725c0.078,2.331,0.004,4.265-0.082,6.504   c-0.058,1.512-0.118,3.074-0.138,4.949c-0.038,2.951-0.408,6.003-4.383,8.077C128.882,290.753,128.763,290.78,128.647,290.78z"/>
	<path d="M117.46,151.088l-0.248-0.035c0.151-1.074,0.325-2.155,0.531-3.306c3.233-18.037,10.364-24.634,20.821-29.431   c11.634-5.35,25.175-5.436,37.121-5.512c19.51-0.115,40.653-0.068,61.142,0.141l-0.002,0.25   c-20.49-0.208-41.631-0.257-61.138-0.141c-11.922,0.076-25.434,0.162-37.02,5.488c-10.384,4.764-17.465,11.318-20.679,29.249   C117.783,148.938,117.61,150.016,117.46,151.088z"/>
	<path d="M433.366,100.735c-0.064,0-0.118-0.049-0.124-0.114c-0.489-5.434-1.583-13.34-4.015-20.149   c-0.022-0.065,0.011-0.137,0.076-0.16s0.137,0.012,0.16,0.076c2.439,6.834,3.536,14.764,4.026,20.212   c0.007,0.068-0.044,0.129-0.113,0.135C433.374,100.735,433.37,100.735,433.366,100.735z"/>
	<path d="M425.675,102.184c-0.064,0-0.119-0.05-0.125-0.115c-0.533-6.54-2.116-12.255-3.594-16.982   c-0.021-0.065,0.016-0.136,0.082-0.156c0.065-0.021,0.136,0.016,0.156,0.082c1.482,4.741,3.069,10.473,3.605,17.037   c0.005,0.068-0.046,0.129-0.115,0.135C425.682,102.184,425.678,102.184,425.675,102.184z"/>
	<path d="M419.005,104.585c-0.058,0-0.11-0.04-0.122-0.1c-0.75-3.56-2.122-8.26-3.766-12.894c-0.022-0.065,0.012-0.137,0.076-0.16   c0.065-0.023,0.137,0.012,0.16,0.076c1.646,4.645,3.021,9.355,3.773,12.927c0.015,0.067-0.028,0.134-0.097,0.147   C419.022,104.584,419.014,104.585,419.005,104.585z"/>
	<path d="M412.505,108.434c-0.058,0-0.109-0.04-0.122-0.099c-0.629-2.956-1.849-6.326-3.107-8.585   c-0.033-0.06-0.012-0.136,0.049-0.17c0.059-0.034,0.135-0.012,0.17,0.049c1.27,2.278,2.5,5.675,3.133,8.653   c0.015,0.068-0.028,0.134-0.096,0.148C412.523,108.433,412.514,108.434,412.505,108.434z"/>
	<path d="M366.887,344.582c-1.281,0-2.342-0.021-3.113-0.042c-7.377-0.217-14.882-0.178-22.136-0.138   c-7.208,0.038-14.66,0.077-21.994-0.133c-4.957-0.145-10.575-0.307-15.438-2.686c-6.137-3.009-10.874-9.662-12.999-18.254   c-1.266-5.109-1.617-10.432-1.958-15.578c-0.148-2.25-0.302-4.577-0.53-6.847c-0.155-1.525-0.257-3.117-0.354-4.656   c-0.383-6.008-0.779-12.221-4.428-16.642c-3.848-4.663-10.67-6.675-21.447-6.317c-0.391-0.017-0.761-0.313-0.774-0.726   c-0.013-0.414,0.312-0.761,0.726-0.774c11.287-0.367,18.485,1.813,22.652,6.862c3.959,4.796,4.37,11.255,4.768,17.501   c0.098,1.525,0.198,3.103,0.351,4.601c0.23,2.297,0.386,4.637,0.535,6.898c0.336,5.082,0.684,10.337,1.917,15.317   c2.019,8.161,6.466,14.454,12.202,17.267c4.57,2.236,10.017,2.395,14.821,2.533c7.311,0.21,14.749,0.171,21.943,0.133   c7.269-0.04,14.787-0.078,22.187,0.138c4.867,0.141,21.506,0.219,31.379-4.614c9.656-4.735,16.489-14.051,19.238-26.23   c1.164-5.146,1.824-31.103,1.812-71.215c-0.01-25.123-0.292-48.394-0.539-53.564c-0.02-0.414,0.3-0.766,0.713-0.785   c0.399-0.026,0.766,0.299,0.785,0.713c0.248,5.188,0.531,28.492,0.541,53.637c0.008,23.635-0.223,64.358-1.849,71.545   c-2.852,12.631-9.969,22.308-20.041,27.248C387.259,343.98,373.838,344.582,366.887,344.582z"/>
	<path d="M337.187,448.22c-4.397,0-8.72-1.05-12.548-2.087c-16.321-4.439-32.155-11.13-47.469-17.602   c-10.648-4.499-21.658-9.151-32.73-13.004c-32.791-11.414-60.862-12.775-83.434-4.039c-1.382,0.534-2.757,1.109-4.134,1.686   c-4.844,2.024-9.853,4.119-15.196,4.414c-6.617,0.334-14.217-1.71-15.674-8.563c-0.031-0.135-0.066-0.296-0.088-0.445   c-0.063-0.409,0.22-0.791,0.63-0.853c0.413-0.063,0.791,0.221,0.853,0.63c0.018,0.11,0.044,0.23,0.069,0.342   c1.264,5.941,8.128,7.709,14.129,7.391c5.085-0.281,9.972-2.324,14.698-4.3c1.39-0.581,2.778-1.162,4.172-1.7   c22.911-8.87,51.331-7.516,84.468,4.021c11.118,3.867,22.151,8.53,32.821,13.039c15.268,6.451,31.055,13.122,47.278,17.535   c4.689,1.271,10.137,2.562,15.428,1.812c5.514-0.776,10.176-4.018,11.879-8.258c2.707-6.771-2.025-13.888-5.088-17.527   c-0.741-0.871-1.494-1.69-2.236-2.433c-6.841-6.841-13.401-11.252-21.271-14.301c-3.417-1.327-7.204-2.432-11.577-3.376   c-11.725-2.521-26.701-4.163-38.153-4.184c-11.448-0.01-23.577-0.341-34.949-4.19c-12.576-4.252-22.138-12.511-26.234-22.659   c-2.593-6.429-2.748-13.47-2.897-20.278c-0.03-1.339-0.06-2.676-0.107-4.006c-0.489-13.894-0.676-27.354-0.57-41.152   c0.003-0.412,0.338-0.744,0.75-0.744c0.002,0,0.004,0,0.006,0c0.414,0.003,0.747,0.342,0.744,0.756   c-0.105,13.776,0.081,27.216,0.57,41.088c0.047,1.336,0.077,2.68,0.106,4.025c0.147,6.674,0.3,13.576,2.789,19.751   c3.933,9.741,13.163,17.688,25.324,21.799c11.157,3.776,23.146,4.102,34.471,4.111c11.549,0.021,26.647,1.676,38.467,4.217   c4.452,0.962,8.313,2.088,11.804,3.444c8.073,3.128,14.793,7.643,21.789,14.639c0.771,0.771,1.551,1.619,2.321,2.524   c5.663,6.73,7.557,13.496,5.335,19.054c-2.306,5.741-8.259,8.509-13.062,9.186C339.509,448.148,338.345,448.22,337.187,448.22z"/>
	<path d="M313.552,507.125c-78.331,0-153.985-0.914-241.856-2.085l-20.17-0.271c-0.414-0.006-0.746-0.346-0.74-0.76   c0.006-0.411,0.34-0.74,0.75-0.74c0.003,0,0.007,0,0.01,0l20.17,0.271c103.025,1.373,189.257,2.395,282.697,2   c18.127-0.068,37.242-0.206,56.815-0.41c16.14-0.088,28.375-10.027,35.798-18.349c10.355-11.629,16.048-25.157,17.096-33.406   l0.206-1.602c2.717-21.097,7.264-56.405-25.088-80.381c-13.375-9.911-25.418-14.105-44.438-15.475l-1.806-0.12   c-5.962-0.366-12.766-0.511-22.079-0.498c-3.375,0.007-6.748,0.019-10.121,0.03c-17.364,0.06-35.318,0.124-52.991-0.591   c-9.18-0.362-19.585-0.773-28.344-5.644c-9.755-5.413-15.136-14.416-17.447-29.189c-1.301-8.32-1.118-14.692-0.842-24.337   c0.14-4.857,0.297-10.363,0.313-17.411c0.001-0.413,0.337-0.748,0.75-0.748c0.001,0,0.001,0,0.002,0   c0.414,0.001,0.749,0.338,0.748,0.752c-0.017,7.066-0.175,12.583-0.314,17.45c-0.273,9.562-0.455,15.879,0.825,24.062   c2.232,14.273,7.381,22.942,16.693,28.111c8.447,4.695,18.662,5.1,27.675,5.456c17.643,0.711,35.578,0.646,52.927,0.589   c3.373-0.012,6.748-0.023,10.123-0.03c9.319-0.012,16.178,0.133,22.177,0.501l1.814,0.121c19.341,1.393,31.597,5.665,45.227,15.766   c33.06,24.499,28.441,60.354,25.683,81.777l-0.205,1.6c-1.077,8.479-6.896,22.346-17.464,34.215   c-7.627,8.549-20.22,18.759-36.906,18.851c-19.572,0.204-38.691,0.342-56.821,0.41   C340.667,507.097,327.068,507.125,313.552,507.125z"/>
	<path d="M51.537,504.769c-0.013,0-0.024,0-0.037-0.001c-13.253-0.64-26.488-7.064-36.313-17.628   c-6.244-6.73-10.782-14.767-13.124-23.24c-5.958-21.566,1.091-46.176,17.958-62.696c0.695-0.681,1.406-1.349,2.117-2.018   c2.157-2.026,4.387-4.122,6.095-6.539c1.656-2.339,2.674-4.93,2.864-7.298c0.034-0.414,0.398-0.711,0.809-0.688   c0.413,0.034,0.721,0.396,0.688,0.809c-0.273,3.373-1.856,6.235-3.136,8.043c-1.795,2.54-4.081,4.688-6.292,6.767   c-0.704,0.661-1.407,1.322-2.096,1.996C4.587,418.421-2.306,442.453,3.508,463.501c2.278,8.243,6.697,16.064,12.777,22.619   c9.56,10.278,22.421,16.529,35.286,17.15c0.414,0.02,0.733,0.371,0.713,0.785C52.265,504.457,51.934,504.769,51.537,504.769z"/>
	<path d="M447.726,487.405h-0.141c-11.361-0.215-22.951-0.417-34.452-0.601l-0.372-0.006c-7.29-0.115-14.829-0.235-22.147-0.334   c-14.887-0.223-28.478-0.396-41.549-0.53c-100.709-1.141-193.727-0.985-311.027,0.521c-7.436,0.091-14.938,0.191-22.3,0.3h-0.092   c-0.069,0-0.125-0.056-0.125-0.125s0.056-0.125,0.125-0.125h0.09c7.36-0.108,14.863-0.209,22.298-0.3   c117.303-1.505,210.324-1.66,311.033-0.521c13.072,0.135,26.664,0.309,41.551,0.53c7.317,0.099,14.856,0.219,22.147,0.334   l0.372,0.006c11.501,0.184,23.092,0.386,34.45,0.601h0.139c0.069,0,0.125,0.056,0.125,0.125S447.795,487.405,447.726,487.405z"/>
	<path d="M71.706,504.285c-0.001,0-0.003,0-0.004,0c-12.035-0.399-24.341-6.914-33.761-17.874   c-6.977-8.133-11.791-17.98-13.559-27.729c-1.924-10.617-0.601-21.777,3.828-32.273c4.415-10.465,11.467-19.218,20.395-25.313   c0.199-0.14,0.41-0.28,0.621-0.421c0.372-0.241,0.742-0.481,1.123-0.722c0.058-0.037,0.136-0.02,0.172,0.039   c0.037,0.058,0.02,0.135-0.039,0.172c-0.379,0.24-0.749,0.48-1.118,0.72c-0.208,0.139-0.417,0.277-0.616,0.418   c-18.083,12.344-28,35.921-24.119,57.335c1.76,9.705,6.555,19.511,13.502,27.611c9.375,10.906,21.614,17.389,33.579,17.786   c0.069,0.002,0.123,0.061,0.121,0.129C71.829,504.231,71.773,504.285,71.706,504.285z"/>
	<path d="M354.416,506.375c-0.601,0-1.201,0-1.812-0.01c-0.069-0.001-0.124-0.058-0.123-0.127c0.001-0.068,0.057-0.123,0.125-0.123   c0.001,0,0.001,0,0.002,0c0.608,0.01,1.209,0.01,1.808,0.01c26.531,0,45.71-6.39,58.631-19.533   c12.238-12.422,16.977-29.146,19.737-42.327c4.457-21.341,2.92-43.825-4.113-60.145c-6.777-15.798-18.163-25.497-33.841-28.828   c-0.001,0-0.032-0.005-0.033-0.006c-0.069,0-0.126-0.057-0.126-0.125c0-0.069,0.056-0.126,0.125-0.126   c0.01,0,0.05,0.006,0.06,0.009c8.224,1.745,15.354,5.299,21.223,10.564c5.312,4.767,9.626,10.961,12.823,18.413   c7.052,16.365,8.595,38.905,4.127,60.294c-2.768,13.216-7.52,29.983-19.804,42.452   C400.254,499.961,381.017,506.375,354.416,506.375z"/>
	<path d="M81.856,395.05c-5.134,0-9.311-4.176-9.311-9.31s4.177-9.311,9.311-9.311c5.128,0,9.3,4.177,9.3,9.311   S86.984,395.05,81.856,395.05z M81.856,377.429c-4.582,0-8.311,3.729-8.311,8.311s3.729,8.31,8.311,8.31   c4.576,0,8.3-3.728,8.3-8.31S86.432,377.429,81.856,377.429z"/>
	<path d="M81.856,389.985c-2.346,0-4.255-1.904-4.255-4.245s1.909-4.245,4.255-4.245c2.341,0,4.245,1.904,4.245,4.245   S84.197,389.985,81.856,389.985z M81.856,381.745c-2.208,0-4.005,1.792-4.005,3.995s1.797,3.995,4.005,3.995   c2.203,0,3.995-1.792,3.995-3.995S84.059,381.745,81.856,381.745z"/>
	<path d="M82.976,409.78c-20.035,0-39.202-8.398-52.587-23.041c-11.647-12.715-18.063-29.147-18.063-46.27   c0-31.998,22.083-59.674,53.701-67.304c2.146-0.526,4.39-0.957,6.66-1.276c6.914-1.017,14.402-0.979,21.379,0.115   c2.292,0.354,4.601,0.828,6.856,1.407c10.662,2.739,20.668,8.003,28.938,15.221c13.681,11.9,22.034,28.281,23.518,46.121   c0,0.001,0,0.002,0,0.002c0.157,1.915,0.237,3.838,0.237,5.714C153.616,378.687,121.927,409.78,82.976,409.78z M82.976,275.15   c-3.295,0-6.565,0.235-9.72,0.698c-2.15,0.303-4.26,0.707-6.284,1.204c-29.823,7.196-50.646,33.273-50.646,63.417   c0,16.119,6.043,31.592,17.015,43.569c12.631,13.817,30.722,21.741,49.636,21.741c36.745,0,66.64-29.298,66.64-65.311   c0-1.767-0.075-3.578-0.224-5.384l0,0c-1.396-16.796-9.267-32.223-22.159-43.438c-7.805-6.812-17.246-11.777-27.306-14.361   c-2.13-0.547-4.31-0.995-6.478-1.33C90.038,275.422,86.515,275.15,82.976,275.15z"/>
	<path d="M94.226,418.065c-16.521,0-34.435-6.584-45.635-16.772c-0.497-0.444-1.028-0.949-1.624-1.544   c-0.044-0.044-0.05-0.113-0.013-0.163c0.037-0.052,0.106-0.064,0.16-0.036c0.658,0.356,1.39,0.722,2.233,1.117   c9.344,4.439,22.664,7.308,33.937,7.308c19.271,0,37.757-8.025,50.718-22.02c11.483-12.385,17.808-28.425,17.808-45.165   c0-0.437-0.135-2.412-0.4-5.87c-0.211-2.738-0.469-5.97-0.686-8.694c-0.236-2.963-0.423-5.303-0.454-5.798   c-0.004-0.061,0.037-0.115,0.096-0.129c0.061-0.014,0.12,0.015,0.144,0.071c6.133,14.015,6.293,23.034,5.851,34.245   c-0.231,6.021-1.445,15.183-3.316,21.043c-0.021,0.065-0.092,0.102-0.157,0.081c-0.065-0.021-0.102-0.092-0.081-0.157   c1.865-5.84,3.074-14.973,3.305-20.977c0.435-10.996,0.287-19.877-5.536-33.46c0.077,1.014,0.225,2.866,0.399,5.061   c0.217,2.725,0.475,5.956,0.687,8.694c0.27,3.514,0.4,5.44,0.4,5.89c0,16.803-6.348,32.903-17.874,45.335   c-13.008,14.045-31.561,22.1-50.901,22.1c-11.308,0-24.67-2.878-34.044-7.331c-0.541-0.254-1.036-0.495-1.495-0.729   c0.357,0.345,0.691,0.657,1.012,0.943c11.158,10.149,29.005,16.708,45.468,16.708c11.479,0,22.668-3.123,32.354-9.032   c0.06-0.036,0.136-0.017,0.172,0.041c0.036,0.06,0.018,0.136-0.041,0.172C116.985,414.929,105.752,418.065,94.226,418.065z"/>
	<path d="M80.956,370.05c-0.08,0-0.16-0.019-0.234-0.059l-41.22-21.93c-0.164-0.087-0.266-0.257-0.266-0.441v-36.33   c0-0.109,0.036-0.215,0.102-0.302l26.93-35.49c0.168-0.222,0.482-0.263,0.7-0.097c0.221,0.167,0.264,0.48,0.097,0.7l-26.828,35.356   v35.861l40.954,21.789c0.244,0.13,0.337,0.433,0.207,0.676C81.307,369.953,81.134,370.05,80.956,370.05z"/>
	<path d="M80.956,370.05c-0.182,0-0.357-0.1-0.446-0.273c-0.125-0.247-0.026-0.548,0.22-0.673l42.957-21.79v-35.87l-23.854-35.143   c-0.154-0.229-0.096-0.54,0.133-0.695c0.23-0.153,0.54-0.095,0.695,0.133l23.94,35.271c0.056,0.083,0.086,0.181,0.086,0.281v36.33   c0,0.188-0.105,0.36-0.273,0.446l-43.23,21.93C81.109,370.032,81.032,370.05,80.956,370.05z"/>
	<path d="M80.606,365.085c-0.02,0-0.04-0.005-0.059-0.015l-37.061-19.72c-0.041-0.021-0.066-0.064-0.066-0.11v-32.36   c0-0.027,0.009-0.054,0.025-0.076l29.48-38.57c0.042-0.056,0.119-0.064,0.176-0.023c0.055,0.042,0.065,0.121,0.023,0.176   l-2.75,3.601L43.67,312.922v32.243l36.994,19.685c0.062,0.032,0.084,0.108,0.052,0.169   C80.694,365.06,80.651,365.085,80.606,365.085z"/>
	<path d="M80.606,365.085c-0.046,0-0.09-0.025-0.111-0.068c-0.031-0.062-0.007-0.137,0.055-0.168l38.991-19.686v-32.245   l-26.38-39.608c-0.038-0.058-0.022-0.136,0.035-0.174s0.135-0.022,0.174,0.035l0.49,0.74l25.91,38.899   c0.014,0.021,0.021,0.045,0.021,0.069v32.36c0,0.047-0.026,0.09-0.068,0.111l-39.06,19.72   C80.644,365.081,80.625,365.085,80.606,365.085z"/>
	<path d="M62.805,354.925c-0.069,0-0.125-0.056-0.125-0.125v-30.957l-19.196-10.854c-0.061-0.033-0.081-0.109-0.047-0.17   c0.033-0.06,0.109-0.083,0.17-0.047l19.26,10.89c0.039,0.021,0.063,0.063,0.063,0.108v31.03   C62.93,354.869,62.875,354.925,62.805,354.925z"/>
	<path d="M62.805,323.894c-0.025,0-0.052-0.008-0.073-0.024c-0.057-0.04-0.068-0.118-0.027-0.174l25.589-35.078l-21.691-12.71   c-0.06-0.035-0.079-0.112-0.045-0.172c0.034-0.059,0.11-0.078,0.172-0.045l3.61,2.11l18.2,10.671   c0.03,0.018,0.052,0.048,0.059,0.082c0.008,0.034,0,0.07-0.021,0.099l-25.671,35.189C62.881,323.877,62.843,323.894,62.805,323.894   z"/>
	<path d="M362.366,65.545c-9.939,0-18.025-9.118-18.025-20.325c0-4.281,1.162-8.368,3.359-11.817   c3.382-5.327,8.864-8.508,14.666-8.508c1.553,0,3.096,0.224,4.585,0.665c6.196,1.831,11.096,7.284,12.786,14.231   c0.44,1.762,0.664,3.589,0.664,5.429C380.401,56.427,372.31,65.545,362.366,65.545z M362.366,25.144   c-5.716,0-11.119,3.138-14.455,8.393l0,0c-2.172,3.409-3.32,7.448-3.32,11.683c0,11.069,7.974,20.075,17.775,20.075   c9.807,0,17.785-9.006,17.785-20.075c0-1.819-0.221-3.626-0.656-5.369c-1.671-6.861-6.504-12.245-12.614-14.051   C365.414,25.365,363.894,25.144,362.366,25.144z M347.805,33.469h0.003H347.805z"/>
	<path d="M361.965,72.219c-13.013,0-23.6-11.883-23.6-26.489c0-4.234,0.856-8.269,2.546-11.989c0.074-0.185,0.254-0.316,0.464-0.316   c0.276,0,0.5,0.219,0.5,0.495v0.01c0,0.071-0.016,0.142-0.045,0.207c-1.636,3.596-2.465,7.496-2.465,11.594   c0,14.055,10.138,25.489,22.6,25.489s22.601-11.435,22.601-25.489c0-1.002-0.059-2.048-0.178-3.198   c-0.029-0.274,0.171-0.521,0.445-0.549c0.269-0.033,0.521,0.17,0.549,0.445c0.124,1.185,0.184,2.265,0.184,3.302   C385.566,60.337,374.979,72.219,361.965,72.219z"/>
</g>

            </g>
        </g>
    </g>
    
    <!-- ITEM 1 -->
    <g>
        <defs>
            <clipPath id="clip-path-id-viewbox-item-1">
                <rect x="0.0" y="0.0" width="92.645" height="30.097"/>
            </clipPath>
        </defs>
        <g transform="translate(339.0 1142.0) rotate(0.0 98.5 33.0) scale(2.1263964596038645 2.192909592318171)">
            <g clip-path="url(#clip-path-id-viewbox-item-1)" transform="translate(-0.0 -0.0)">
                
<g>
	<path style="fill:#FFE7E6;" d="M90.052,5.671c0.9,1.68,1.64,5.01,1.59,8.68h-0.28c-3.94,0.15-7.89,0.26-11.86,0.35   c0.05-4.37,0.11-9.06,0.16-13.67c0.57,0,1.13-0.01,1.69-0.01C81.352,1.021,87.232,0.421,90.052,5.671z"/>
	<path style="fill:#FFE7E6;" d="M91.362,14.351h0.28c-0.04,3.63-0.84,7.59-3,10.59c-1.7,2.38-4.04,2.93-8.1,3.43   c-0.36,0.01-0.72,0.02-1.08,0.03v-0.13c-0.05-3.62-0.02-8.37,0.04-13.57C83.472,14.611,87.422,14.501,91.362,14.351z"/>
	<path style="fill:#FFE7E6;" d="M79.662,1.031c-0.05,4.61-0.11,9.3-0.16,13.67c-4.71,0.12-9.44,0.2-14.18,0.27   c-0.04-5.15-0.09-10.27-0.19-13.84v-0.1C70.182,1.041,75.052,1.051,79.662,1.031z"/>
	<path style="fill:#FFE7E6;" d="M79.462,28.271v0.13c-4.79,0.15-9.44,0.27-14.02,0.37l-0.01-0.3c-0.05-3.69-0.08-8.61-0.11-13.5   c4.74-0.07,9.47-0.15,14.18-0.27C79.442,19.901,79.412,24.651,79.462,28.271z"/>
	<path style="fill:#FFE7E6;" d="M65.432,28.471l0.01,0.3c-5.38,0.12-10.67,0.2-15.95,0.26v-0.05c0.09-2.62,0.04-8.3-0.04-13.84   c5.3-0.05,10.59-0.1,15.87-0.17C65.352,19.861,65.382,24.781,65.432,28.471z"/>
	<path style="fill:#FFE7E6;" d="M65.132,1.131c0.1,3.57,0.15,8.69,0.19,13.84c-5.28,0.07-10.57,0.12-15.87,0.17   c-0.1-7.07-0.26-13.91-0.26-13.91v-0.22c5.47,0,10.8,0.01,15.94,0.02V1.131z"/>
	<path style="fill:#FFE7E6;" d="M49.452,15.141c0.08,5.54,0.13,11.22,0.04,13.84v0.05c-5.71,0.05-11.42,0.08-17.25,0.06v-0.01   c-0.05-4.26-0.07-9-0.1-13.77C37.902,15.241,43.672,15.191,49.452,15.141z"/>
	<path style="fill:#FFE7E6;" d="M49.452,15.141c-5.78,0.05-11.55,0.1-17.31,0.17c-0.02-4.89-0.05-9.8-0.1-14.18v-0.06   c5.81-0.05,11.55-0.06,17.15-0.06v0.22C49.192,1.231,49.352,8.071,49.452,15.141z"/>
	<path style="fill:#FFE7E6;" d="M32.242,29.081v0.01c-5.43-0.01-10.98-0.05-16.73-0.13v-0.29c-0.04-4.19-0.05-8.64-0.06-13.1   c5.54-0.12,11.11-0.2,16.69-0.26C32.172,20.081,32.192,24.821,32.242,29.081z"/>
	<path style="fill:#FFE7E6;" d="M32.042,1.131c0.05,4.38,0.08,9.29,0.1,14.18c-5.58,0.06-11.15,0.14-16.69,0.26   c-0.01-4.84-0.02-9.69-0.06-14.24c5.58-0.13,11.15-0.21,16.65-0.26V1.131z"/>
	<path style="fill:#FFE7E6;" d="M15.512,28.671v0.29c-0.14,0-0.28,0-0.42,0c-5.96,0.22-8.98-0.49-11-3.11   c-2.09-2.72-3.03-5.05-3.09-9.87c4.79-0.17,9.61-0.31,14.45-0.41C15.462,20.031,15.472,24.481,15.512,28.671z"/>
	<path style="fill:#FFE7E6;" d="M15.392,1.331c0.04,4.55,0.05,9.4,0.06,14.24c-4.84,0.1-9.66,0.24-14.45,0.41v-0.01   c-0.04-3.26,0.47-6.65,2.21-9.41C4.942,3.801,8.122,1.231,15.392,1.331z"/>
	<path d="M15.392,2.331c-0.542,0-0.987-0.433-1-0.977c-0.013-0.553,0.425-1.011,0.977-1.023c5.162-0.12,10.613-0.205,16.664-0.26   C38.298,0.017,44.494,0.01,49.192,0.01c5.181,0,10.236,0.01,15.124,0.019l0.999,0.002c4.982,0.01,9.79,0.019,14.343,0l1.694-0.01   c0.553,0,1,0.447,1,1s-0.447,1-1,1l-1.69,0.01c-4.554,0.018-9.363,0.01-14.351,0l-0.999-0.002c-4.887-0.009-9.94-0.019-15.12-0.019   c-4.694,0-10.885,0.007-17.142,0.061c-6.041,0.055-11.482,0.14-16.635,0.26C15.408,2.331,15.4,2.331,15.392,2.331z"/>
	<path d="M36.056,30.097c-1.296,0-2.563-0.002-3.818-0.007c-5.723-0.011-11.198-0.053-16.739-0.13h-0.406c-0.553,0-1-0.447-1-1   s0.447-1,1-1h0.42c5.547,0.077,11.015,0.119,16.731,0.13c5.13,0.02,10.449,0,17.239-0.06c5.883-0.067,11.097-0.152,15.937-0.26   c4.577-0.101,9.225-0.221,14.012-0.37l1.056-0.029c0.523-0.018,1.025,0.421,1.04,0.973c0.016,0.552-0.406,1.011-0.958,1.026   l-1.076,0.03c-4.792,0.149-9.445,0.27-14.029,0.37c-4.847,0.107-10.067,0.192-15.96,0.26   C44.364,30.076,40.067,30.097,36.056,30.097z"/>
	<path d="M80.541,29.371c-0.498,0-0.929-0.371-0.991-0.878c-0.067-0.548,0.322-1.047,0.87-1.114c4.062-0.5,5.988-1.03,7.409-3.019   c1.771-2.46,2.77-6.018,2.813-10.02c0.05-3.672-0.703-6.763-1.472-8.198c-2.456-4.573-7.504-4.148-7.72-4.126   c-0.547,0.047-1.038-0.348-1.092-0.896c-0.055-0.549,0.344-1.037,0.892-1.094c0.265-0.028,6.581-0.602,9.683,5.171   c1.087,2.03,1.757,5.628,1.709,9.168c-0.034,3.118-0.615,7.587-3.188,11.16c-2.004,2.805-4.907,3.36-8.79,3.838   C80.623,29.369,80.581,29.371,80.541,29.371z"/>
	<path d="M13.124,30.001c-4.525,0-7.662-0.736-9.823-3.539c-2.089-2.718-3.232-5.19-3.299-10.468   c-0.048-4.052,0.747-7.4,2.365-9.966c2.4-3.832,6.533-5.7,12.622-5.7c0.138,0,0.276,0.001,0.417,0.003   c0.553,0.008,0.994,0.462,0.986,1.014c-0.008,0.553-0.479,0.977-1.014,0.986C7.957,2.205,5.371,5,4.06,7.092   c-1.41,2.236-2.103,5.218-2.059,8.866c0.06,4.754,1.018,6.855,2.884,9.283c1.712,2.221,4.373,2.931,10.17,2.72   c0.546-0.059,1.016,0.41,1.036,0.962s-0.41,1.016-0.962,1.036C14.432,29.986,13.763,30.001,13.124,30.001z"/>
	<path d="M0.772,16.116c-0.069,0-0.125-0.056-0.125-0.125s0.056-0.125,0.125-0.125c0.037,0,0.072-0.002,0.107-0.005   c0.04-0.002,0.08-0.005,0.122-0.005c5.091-0.181,9.818-0.314,14.447-0.41c4.988-0.108,10.448-0.193,16.692-0.26   c5.519-0.067,11.144-0.117,16.584-0.164l0.726-0.007c5.194-0.049,10.566-0.1,15.869-0.17c4.187-0.062,9.146-0.142,14.179-0.27   c4.407-0.1,8.286-0.214,11.858-0.35c0.082-0.007,0.128,0.051,0.13,0.12c0.003,0.069-0.052,0.127-0.12,0.13   c-3.574,0.136-7.454,0.25-11.862,0.35c-5.034,0.128-9.993,0.208-14.181,0.27c-5.305,0.07-10.676,0.121-15.871,0.17l-0.725,0.007   c-5.44,0.047-11.065,0.097-16.584,0.164c-6.243,0.066-11.702,0.151-16.689,0.26c-4.629,0.096-9.354,0.229-14.448,0.41   c-0.041,0-0.076,0.002-0.11,0.005C0.855,16.113,0.815,16.116,0.772,16.116z"/>
	<path d="M15.512,28.796c-0.068,0-0.124-0.056-0.125-0.124c-0.039-4.064-0.05-8.454-0.06-12.7l-0.001-0.4   c-0.01-4.771-0.02-9.693-0.06-14.239c-0.001-0.069,0.055-0.125,0.124-0.126h0.001c0.068,0,0.124,0.056,0.125,0.124   c0.04,4.547,0.05,9.47,0.06,14.23l0.001,0.411c0.01,4.245,0.021,8.635,0.06,12.698C15.638,28.738,15.583,28.795,15.512,28.796   L15.512,28.796z"/>
	<path d="M32.242,29.206c-0.068,0-0.124-0.055-0.125-0.124c-0.038-3.228-0.058-6.67-0.079-10.314l-0.021-3.455   c-0.024-5.884-0.057-10.39-0.101-14.181c-0.001-0.068,0.055-0.125,0.124-0.126h0.001c0.068,0,0.124,0.055,0.125,0.124   c0.044,3.791,0.076,8.297,0.101,14.181l0.021,3.455c0.021,3.645,0.041,7.087,0.079,10.314   C32.368,29.148,32.312,29.205,32.242,29.206L32.242,29.206z"/>
	<path d="M49.492,29.106c-0.001,0-0.003,0-0.004,0c-0.069-0.002-0.123-0.061-0.121-0.129c0.076-2.207,0.063-6.732-0.04-13.835   c-0.099-6.988-0.258-13.84-0.26-13.908c-0.002-0.069,0.053-0.126,0.122-0.128c0.07-0.006,0.126,0.053,0.128,0.122   c0.002,0.068,0.161,6.921,0.26,13.91c0.103,7.106,0.116,11.636,0.04,13.847C49.615,29.053,49.559,29.106,49.492,29.106z"/>
	<path d="M65.432,28.595c-0.068,0-0.124-0.055-0.125-0.123c-0.05-3.666-0.08-8.616-0.109-13.404l-0.001-0.097   c-0.039-5.075-0.09-10.265-0.189-13.837c-0.002-0.069,0.053-0.127,0.121-0.129c0.002,0,0.003,0,0.004,0   c0.067,0,0.123,0.054,0.125,0.121c0.1,3.576,0.15,8.767,0.189,13.843l0.001,0.098c0.029,4.787,0.06,9.737,0.109,13.401   c0.001,0.069-0.055,0.126-0.123,0.127C65.433,28.595,65.433,28.595,65.432,28.595z"/>
	<path d="M79.463,28.396c-0.068,0-0.124-0.055-0.125-0.123c-0.044-3.16-0.032-7.347,0.039-13.573l0.058-4.821   c0.035-2.912,0.07-5.897,0.103-8.849c0.001-0.069,0.057-0.124,0.125-0.124h0.001c0.069,0.001,0.125,0.058,0.124,0.126   c-0.032,2.952-0.067,5.938-0.103,8.85l-0.058,4.82c-0.071,6.226-0.083,10.41-0.039,13.567c0.001,0.069-0.055,0.126-0.123,0.127   C79.464,28.396,79.464,28.396,79.463,28.396z"/>
</g>

            </g>
        </g>
    </g>
    
    <!-- ITEM 2 -->
    <g>
        <defs>
            <clipPath id="clip-path-id-viewbox-item-2">
                <rect x="0.0" y="0.0" width="112.372" height="36.856"/>
            </clipPath>
        </defs>
        <g transform="translate(649.0 1154.0) rotate(0.0 122.0 40.0) scale(2.171359413376998 2.1706099413935314)">
            <g clip-path="url(#clip-path-id-viewbox-item-2)" transform="translate(-0.0 -0.0)">
                
<g>
	<path style="fill:#2D9759;" d="M109.658,25.18c1.7,1.97,2.76,4.44,1.92,6.8c-0.69,1.93-2.55,3.26-4.52,3.85   c-1.97,0.59-4.06,0.55-6.12,0.5c-29.59-0.68-59.19-1.36-88.79-2.03c-3.1-0.08-6.39-0.21-8.96-1.94c-2.57-1.74-3.21-3.75-2.29-7.39   C4.388,15,12.058,6.56,21.658,2.15c0.94-0.43,1.94-0.82,2.96-1.1l0.01,0.02c-5.3,2.52-7.7,5.41-9.94,9.03   c-2.23,3.61-3.11,8.37-1.12,12.13c2.8,5.3,9.69,6.56,15.65,7.1c25.21,2.28,50.61,2.52,75.86,0.7c1.28-0.09,2.63-0.21,3.68-0.95   c1.05-0.74,1.93-2.33,0.81-3.82L109.658,25.18z"/>
	<path style="fill:#62B57F;" d="M109.568,25.26c1.12,1.49,0.24,3.08-0.81,3.82c-1.05,0.74-2.4,0.86-3.68,0.95   c-25.25,1.82-50.65,1.58-75.86-0.7c-5.96-0.54-12.85-1.8-15.65-7.1c-1.99-3.76-1.11-8.52,1.12-12.13c2.24-3.62,4.64-6.51,9.94-9.03   l-0.01-0.02c2.86-0.82,5.89-0.88,8.14,0.91c2.31,1.83,3,5.15,2.46,8.05c-0.54,2.89-2.15,5.41-3.68,7.93   c3.88-4.59,7.77-6.94,13.09-8.59c2.31-0.71,6.36-0.57,8.6,0.35c2.3,0.95,3.82,3.32,4.16,5.79c0.33,2.46-0.39,4.98-1.61,7.15   c3.37-4.54,7.14-6.85,11.63-8.29c2.3-0.74,4.77-1.16,7.14-0.72c2.38,0.44,4.67,1.84,5.73,4.02c1.06,2.17,0.54,4.64-0.84,6.74   c7.61-6.95,20.33-7.39,28.39-0.98c0.65,0.52,1.28,1.12,1.83,1.77L109.568,25.26z"/>
	<path d="M102.59,36.857c-0.568,0-1.126-0.014-1.664-0.026c-29.59-0.681-59.19-1.36-88.79-2.03   c-2.882-0.074-6.467-0.167-9.228-2.025c-2.765-1.871-3.465-4.094-2.495-7.927c0.066-0.268,0.336-0.435,0.606-0.362   c0.269,0.067,0.431,0.339,0.362,0.606c-0.867,3.432-0.321,5.225,2.086,6.854c2.518,1.695,5.941,1.783,8.692,1.854   c29.599,0.67,59.199,1.35,88.789,2.03c1.983,0.048,4.038,0.097,5.965-0.479c2.053-0.615,3.62-1.938,4.192-3.54   c0.919-2.579-0.751-5.058-1.828-6.305c-0.509-0.602-1.117-1.19-1.764-1.706c-7.865-6.256-20.31-5.826-27.74,0.958   c-0.203,0.188-0.52,0.173-0.706-0.032c-0.187-0.204-0.172-0.52,0.032-0.706c7.776-7.102,20.802-7.551,29.038-1.002   c0.706,0.564,1.346,1.183,1.9,1.838c2.102,2.436,2.816,5.025,2.009,7.291c-0.679,1.9-2.49,3.456-4.847,4.161   C105.692,36.761,104.101,36.857,102.59,36.857z"/>
	<path d="M79.438,24.89c-0.095,0-0.19-0.026-0.274-0.082c-0.231-0.151-0.295-0.462-0.144-0.692c1.407-2.142,1.702-4.418,0.809-6.246   c-0.921-1.896-2.929-3.296-5.371-3.748c-2.013-0.372-4.265-0.144-6.896,0.704c-4.866,1.562-8.376,4.063-11.382,8.112   c-0.164,0.224-0.477,0.269-0.699,0.104c-0.222-0.164-0.269-0.478-0.104-0.699c3.138-4.228,6.802-6.839,11.879-8.469   c2.795-0.898,5.21-1.142,7.385-0.734c2.753,0.509,5.028,2.114,6.087,4.292c1.053,2.153,0.734,4.79-0.871,7.233   C79.76,24.811,79.6,24.89,79.438,24.89z"/>
	<path d="M55.778,23.14c-0.083,0-0.168-0.021-0.245-0.064c-0.24-0.135-0.326-0.439-0.19-0.681c0.908-1.617,1.916-4.116,1.551-6.838   c-0.337-2.448-1.851-4.566-3.855-5.395c-2.095-0.859-6.033-1.021-8.263-0.335c-5.511,1.71-9.235,4.153-12.855,8.436   c-0.178,0.211-0.492,0.236-0.705,0.059c-0.211-0.179-0.237-0.494-0.059-0.705c3.754-4.439,7.614-6.973,13.324-8.744   c2.452-0.756,6.629-0.582,8.938,0.365c2.329,0.961,4.081,3.389,4.466,6.185c0.402,2.998-0.686,5.713-1.67,7.463   C56.121,23.048,55.953,23.14,55.778,23.14z"/>
	<path d="M0.898,25.47c-0.055,0-0.11-0.009-0.165-0.028c-0.261-0.091-0.398-0.376-0.307-0.637   C3.94,14.768,11.799,6.128,21.449,1.696c1.067-0.488,2.089-0.867,3.036-1.128c3.521-1.01,6.492-0.665,8.585,1.001   c2.238,1.774,3.274,5.123,2.64,8.533c-0.525,2.813-2.026,5.277-3.479,7.661L31.965,18.2c-0.145,0.235-0.453,0.309-0.688,0.168   c-0.235-0.144-0.311-0.451-0.168-0.688l0.267-0.438c1.405-2.307,2.858-4.691,3.351-7.324c0.567-3.049-0.327-6.02-2.279-7.566   c-2.312-1.839-5.46-1.46-7.692-0.821c-0.901,0.248-1.872,0.608-2.89,1.074C12.458,6.926,4.795,15.349,1.37,25.135   C1.297,25.341,1.104,25.47,0.898,25.47z"/>
	<path d="M71.509,31.359c-14.126,0-28.265-0.635-42.303-1.904c-6.213-0.563-12.943-1.854-15.749-7.166   c-2.192-4.143-0.857-9.046,1.124-12.254c2.342-3.784,4.83-6.623,9.993-9.077c0.063-0.027,0.138-0.003,0.167,0.06   s0.003,0.137-0.06,0.167c-5.107,2.427-7.57,5.236-9.888,8.981c-1.945,3.149-3.26,7.957-1.116,12.006   c2.75,5.206,9.404,6.478,15.552,7.035c25.176,2.275,50.693,2.513,75.839,0.699c1.141-0.081,2.56-0.182,3.617-0.928   c0.518-0.364,1.118-1.056,1.251-1.903c0.097-0.611-0.062-1.197-0.469-1.739c-0.042-0.056-0.03-0.134,0.024-0.175   c0.056-0.042,0.134-0.029,0.175,0.024c0.443,0.59,0.622,1.257,0.517,1.929c-0.123,0.785-0.63,1.559-1.354,2.069   c-1.115,0.786-2.573,0.89-3.744,0.973C93.947,30.958,82.732,31.359,71.509,31.359z"/>
</g>

            </g>
        </g>
    </g>
    
    <!-- ITEM 3 -->
    <g>
        <defs>
            <clipPath id="clip-path-id-viewbox-item-3">
                <rect x="0.0" y="0.0" width="25.291" height="106.764"/>
            </clipPath>
        </defs>
        <g transform="translate(1177.0 739.0) rotate(0.0 28.0 115.5) scale(2.2142264046498754 2.163650668764752)">
            <g clip-path="url(#clip-path-id-viewbox-item-3)" transform="translate(-0.0 -0.0)">
                
<g>
	<path style="fill:#63B57D;" d="M23.882,13.919c0.48,2.6,0.54,5.28,0.17,7.91l-0.34-0.04c-4.67-0.05-9.98,0.07-14.65,0.01   l-0.05,0.01c-0.17-1.49-0.53-2.97-0.92-4.46c3.65-0.68,11.14-2.24,15.6-3.4L23.882,13.919z"/>
	<path style="fill:#63B57D;" d="M23.712,21.789l0.34,0.04c-0.1,0.77-0.24,1.53-0.42,2.29c-0.43,1.81-1.06,3.59-1.66,5.37l-0.17-0.06   c0,0-9.8-2.54-12.86-3l-0.19-0.05c0.1-0.4,0.18-0.8,0.24-1.21c0.16-1.13,0.14-2.24,0.02-3.36l0.05-0.01   C13.732,21.859,19.042,21.739,23.712,21.789z"/>
	<path style="fill:#63B57D;" d="M23.882,13.919l-0.19,0.03c-4.46,1.16-11.95,2.72-15.6,3.4c-0.43-1.59-0.89-3.17-1.19-4.77   c-0.07-0.38-0.13-0.77-0.16-1.17l0.49-0.06c4.19-1.67,9.25-3.8,13.44-5.47l0.09-0.06c0.56,0.79,1.04,1.63,1.41,2.48   C22.962,10.099,23.542,11.989,23.882,13.919z"/>
	<path style="fill:#63B57D;" d="M23.512,51.909c0.07,0.54,0.09,1.08,0.08,1.63c-0.06,2.49-0.86,4.84-1.81,7.15l-0.2-0.08l-14.18-2.5   l-0.11-0.03c0.36-1.13,0.58-2.29,0.56-3.5c-0.01-0.5-0.05-0.99-0.14-1.48l0.1-0.02l15.66-1.17H23.512z"/>
	<path style="fill:#63B57D;" d="M23.512,51.909h-0.04l-15.66,1.17l-0.1,0.02c-0.24-1.57-0.83-3.08-1.48-4.59l0.03-0.01   c1.48-0.05,14.64-5.89,14.64-5.89l0.14-0.04C21.912,45.689,23.222,48.739,23.512,51.909z"/>
	<path style="fill:#63B57D;" d="M21.802,29.429l0.17,0.06c-0.54,1.59-1.06,3.19-1.38,4.8l-0.16-0.03l-14.19-1.66l-0.12-0.06   c1.02-2.01,2.1-4.02,2.63-6.16l0.19,0.05C12.002,26.889,21.802,29.429,21.802,29.429z"/>
	<path style="fill:#63B57D;" d="M21.782,60.689c-1.05,2.58-2.3,5.13-2.94,7.83c-4.35-1.77-9.3-3.93-13.66-5.7l-0.1-0.06   c0.88-1.53,1.69-3.07,2.21-4.68l0.11,0.03l14.18,2.5L21.782,60.689z"/>
	<path style="fill:#63B57D;" d="M21.042,42.569l-0.14,0.04c0,0-13.16,5.84-14.64,5.89l-0.03,0.01c-0.91-2.13-1.96-4.24-2.37-6.46   l0.18-0.03c0,0,14.6-3.37,16.24-3.51C20.372,39.879,20.662,41.229,21.042,42.569z"/>
	<path style="fill:#63B57D;" d="M20.762,5.819l-0.09,0.06c-4.19,1.67-9.25,3.8-13.44,5.47l-0.49,0.06h-0.01   c-0.43-3.96,0.64-8.47,4.23-9.96C14.592-0.061,18.412,2.449,20.762,5.819z"/>
	<path style="fill:#63B57D;" d="M20.432,34.259l0.16,0.03c-0.24,1.17-0.38,2.34-0.35,3.54c0.01,0.23,0.02,0.45,0.04,0.68   c-1.64,0.14-16.24,3.51-16.24,3.51l-0.18,0.03c-0.11-0.59-0.18-1.2-0.18-1.81c-0.01-2.74,1.17-5.22,2.44-7.7l0.12,0.06   L20.432,34.259z"/>
	<path style="fill:#63B57D;" d="M19.882,86.889c0.37,3.07,0.5,6.17-0.11,9.16l-0.15-0.03c-3.45-0.89-15.22-3.07-15.22-3.07   l-0.29-0.05c0.21-1.32,0.43-2.65,0.52-3.97l0.1,0.01c5.01-0.89,10.09-1.15,15.1-2.04L19.882,86.889z"/>
	<path style="fill:#63B57D;" d="M19.882,86.889l-0.05,0.01c-5.01,0.89-10.09,1.15-15.1,2.04l-0.1-0.01   c0.09-1.02,0.09-2.03-0.04-3.04c-0.07-0.58-0.19-1.16-0.35-1.73l0.12-0.03c4.2-0.47,10.46-1.24,14.66-1.71l0.2-0.03   c0.03,0.19,0.06,0.39,0.09,0.58C19.522,84.269,19.722,85.579,19.882,86.889z"/>
	<path style="fill:#63B57D;" d="M19.622,96.019l0.15,0.03c-0.09,0.45-0.19,0.9-0.32,1.34c-1.32,4.67-3.16,6.94-8.18,8.24   c-3.84,0.62-5.52-0.96-6.71-3.44c-1.18-2.48-1.03-5.38-0.63-8.1c0.06-0.4,0.12-0.79,0.18-1.19l0.29,0.05   C4.402,92.949,16.172,95.129,19.622,96.019z"/>
	<path style="fill:#63B57D;" d="M19.222,82.389l-0.2,0.03c-4.2,0.47-10.46,1.24-14.66,1.71l-0.12,0.03   c-0.86-3.34-2.78-6.47-3.17-9.85l0.14-0.02c5.96,1.73,11.66,3.75,17.62,5.48C18.942,80.649,19.082,81.519,19.222,82.389z"/>
	<path style="fill:#63B57D;" d="M18.842,68.519c-0.16,0.68-0.28,1.36-0.36,2.04l-0.19-0.02c-2.4-0.07-13.6-1.82-16.17-2.24   l-0.02-0.01c0.81-1.89,1.94-3.7,2.98-5.53l0.1,0.06C9.542,64.589,14.492,66.749,18.842,68.519z"/>
	<path style="fill:#63B57D;" d="M18.292,70.539l0.19,0.02c-0.38,3.03-0.1,6.14,0.35,9.21c-5.96-1.73-11.66-3.75-17.62-5.48   l-0.14,0.02c-0.05-0.44-0.08-0.88-0.07-1.33c0.02-1.64,0.46-3.19,1.1-4.69l0.02,0.01C4.692,68.719,15.892,70.469,18.292,70.539z"/>
	<path d="M9.733,106.761c-3.579,0-5.122-2.159-6.072-4.14c-1.35-2.836-1.093-6.127-0.718-8.678l0.22-1.437   c0.192-1.204,0.391-2.448,0.472-3.646c0.092-1.036,0.08-1.96-0.034-2.844c-0.063-0.519-0.17-1.051-0.32-1.588   c-0.345-1.336-0.876-2.668-1.389-3.957c-0.771-1.932-1.567-3.93-1.812-6.049c-0.062-0.531-0.087-1.011-0.077-1.466   c0.02-1.585,0.405-3.243,1.18-5.061C1.841,66.36,2.7,64.88,3.53,63.448c0.229-0.395,0.458-0.788,0.683-1.184   c0.764-1.328,1.611-2.897,2.128-4.493c0.36-1.134,0.528-2.174,0.511-3.176c-0.01-0.483-0.05-0.915-0.123-1.316   c-0.216-1.408-0.722-2.764-1.415-4.375c-0.163-0.381-0.329-0.758-0.494-1.135c-0.778-1.771-1.583-3.603-1.94-5.539   c-0.131-0.699-0.197-1.37-0.197-1.991c-0.011-2.915,1.2-5.521,2.551-8.156l0.275-0.542c0.936-1.835,1.818-3.567,2.273-5.402   c0.092-0.37,0.166-0.738,0.222-1.116c0.133-0.94,0.138-1.959,0.015-3.107c-0.168-1.469-0.533-2.937-0.894-4.313L6.91,16.818   c-0.36-1.317-0.733-2.681-0.991-4.054c-0.081-0.439-0.131-0.794-0.161-1.129c-0.01-0.038-0.017-0.078-0.021-0.118   C5.307,7.552,6.316,2.294,10.579,0.526c4.403-1.837,8.683,1.394,11.003,4.721c0.602,0.848,1.11,1.743,1.507,2.653   c0.829,1.889,1.428,3.856,1.777,5.846c0.502,2.714,0.562,5.483,0.176,8.224c-0.102,0.786-0.245,1.568-0.437,2.38   c-0.389,1.636-0.937,3.248-1.466,4.809l-0.221,0.651c-0.509,1.499-1.031,3.093-1.347,4.676c-0.248,1.211-0.356,2.295-0.33,3.319   c0.008,0.197,0.017,0.401,0.036,0.616c0.077,1.176,0.308,2.4,0.726,3.876c0.262,0.938,0.563,1.867,0.863,2.795   c0.702,2.168,1.429,4.409,1.641,6.728c0.066,0.507,0.096,1.088,0.084,1.738c-0.065,2.732-0.944,5.225-1.885,7.512   c-0.252,0.62-0.518,1.24-0.782,1.862c-0.808,1.892-1.643,3.848-2.11,5.818c-0.15,0.64-0.265,1.288-0.34,1.927   c-0.395,3.146-0.021,6.435,0.347,8.947c0.107,0.865,0.242,1.698,0.376,2.531l0.103,0.662c0.175,1.081,0.398,2.514,0.574,3.951   c0.466,3.86,0.428,6.784-0.123,9.481c-0.095,0.476-0.201,0.955-0.34,1.423c-1.278,4.522-3.145,7.438-8.889,8.925   c-0.03,0.008-0.061,0.015-0.092,0.02C10.818,106.715,10.254,106.761,9.733,106.761z M11.272,105.629h0.01H11.272z M7.711,11.164   c0.015,0.056,0.024,0.113,0.028,0.172c0.027,0.363,0.083,0.718,0.146,1.063c0.242,1.288,0.589,2.552,0.955,3.89l0.218,0.799   c0.363,1.391,0.765,3.001,0.947,4.607c0.142,1.32,0.135,2.5-0.022,3.613c-0.066,0.449-0.152,0.88-0.26,1.312   c-0.51,2.058-1.487,3.975-2.433,5.829l-0.276,0.542c-1.282,2.502-2.341,4.771-2.332,7.244c0,0.502,0.055,1.049,0.164,1.63   c0.315,1.711,1.038,3.356,1.805,5.1c0.168,0.384,0.337,0.768,0.501,1.151c0.753,1.749,1.306,3.242,1.549,4.831   c0.089,0.479,0.14,1.017,0.151,1.612c0.021,1.225-0.178,2.475-0.606,3.822c-0.575,1.777-1.483,3.462-2.296,4.875   c-0.226,0.396-0.457,0.796-0.689,1.195c-0.801,1.38-1.629,2.807-2.239,4.23c-0.679,1.592-1.003,2.962-1.019,4.308   c-0.008,0.373,0.013,0.763,0.063,1.203c0.214,1.854,0.928,3.644,1.683,5.538c0.537,1.347,1.092,2.739,1.463,4.179   c0.172,0.615,0.3,1.247,0.374,1.858c0.131,1.021,0.146,2.086,0.043,3.248c-0.086,1.268-0.292,2.558-0.491,3.806L4.92,94.239   c-0.354,2.407-0.565,5.188,0.545,7.521c1.037,2.163,2.343,3.396,5.602,2.891c4.379-1.144,6.116-2.91,7.424-7.533   c0.124-0.422,0.217-0.843,0.301-1.263c0.507-2.482,0.536-5.209,0.098-8.845c-0.171-1.402-0.392-2.811-0.564-3.881l-0.09-0.582   c-0.149-0.931-0.287-1.788-0.395-2.654c-0.384-2.616-0.774-6.079-0.351-9.457c0.083-0.706,0.211-1.431,0.379-2.146   c0.507-2.139,1.376-4.175,2.217-6.145c0.261-0.61,0.521-1.221,0.771-1.833c0.868-2.113,1.678-4.396,1.735-6.797   c0.01-0.545-0.014-1.029-0.071-1.477c-0.196-2.134-0.856-4.173-1.556-6.331c-0.309-0.954-0.618-1.909-0.886-2.87   c-0.457-1.61-0.71-2.966-0.795-4.263c-0.02-0.223-0.03-0.458-0.041-0.702c-0.03-1.196,0.091-2.428,0.369-3.784   c0.337-1.695,0.883-3.36,1.412-4.92l0.222-0.653c0.515-1.517,1.047-3.084,1.413-4.627c0.176-0.743,0.307-1.459,0.4-2.187   c0.357-2.538,0.303-5.092-0.161-7.601c-0.324-1.841-0.876-3.654-1.643-5.399c-0.343-0.787-0.783-1.562-1.31-2.304   c-1.898-2.722-5.28-5.401-8.601-4.025C8.15,3.698,7.391,7.904,7.711,11.164z"/>
	<path d="M7.232,11.474c-0.05,0-0.097-0.029-0.116-0.079c-0.025-0.063,0.006-0.137,0.07-0.162c2.094-0.835,4.445-1.801,6.719-2.734   c2.274-0.934,4.625-1.9,6.722-2.735c0.062-0.026,0.137,0.005,0.162,0.07c0.025,0.063-0.006,0.137-0.07,0.162   c-2.094,0.835-4.445,1.801-6.719,2.734c-2.274,0.934-4.625,1.9-6.722,2.735C7.263,11.471,7.247,11.474,7.232,11.474z"/>
	<path d="M8.042,17.484c-0.069,0-0.125-0.056-0.125-0.125c0-0.065,0.051-0.119,0.115-0.125c0.017-0.004,0.049-0.01,0.06-0.01   c3.701-0.691,11.19-2.258,15.568-3.396c0.065-0.021,0.135,0.022,0.152,0.09c0.018,0.066-0.022,0.135-0.09,0.152   c-4.383,1.139-11.881,2.707-15.608,3.401C8.094,17.477,8.071,17.484,8.042,17.484z"/>
	<path d="M12.066,21.941c-1.023,0-2.032-0.004-3.007-0.017c-0.068-0.001-0.124-0.058-0.123-0.127   c0.001-0.068,0.057-0.123,0.125-0.123c0.001,0,0.001,0,0.002,0c2.399,0.031,5.011,0.014,7.538-0.003   c2.383-0.015,4.847-0.029,7.111-0.007c0.069,0.001,0.125,0.058,0.124,0.126c-0.001,0.069-0.057,0.124-0.125,0.124h-0.001   c-2.268-0.024-4.727-0.009-7.108,0.007C15.101,21.931,13.567,21.941,12.066,21.941z"/>
	<path d="M21.802,29.554c-0.011,0-0.021-0.001-0.031-0.004c-0.098-0.025-9.828-2.544-12.848-2.997   c-0.068-0.011-0.115-0.074-0.105-0.143c0.011-0.067,0.082-0.114,0.143-0.105c3.032,0.456,12.775,2.978,12.873,3.003   c0.067,0.018,0.107,0.086,0.09,0.152C21.908,29.517,21.858,29.554,21.802,29.554z"/>
	<path d="M20.432,34.384c-0.005,0-0.01,0-0.015-0.001l-14.189-1.66c-0.068-0.008-0.117-0.07-0.109-0.139s0.076-0.122,0.139-0.109   l14.189,1.66c0.068,0.008,0.117,0.07,0.109,0.139C20.549,34.337,20.494,34.384,20.432,34.384z"/>
	<path d="M4.042,42.144c-0.057,0-0.108-0.039-0.122-0.097c-0.016-0.067,0.026-0.135,0.094-0.15   c0.597-0.138,14.627-3.373,16.258-3.513c0.004,0,0.036,0,0.04,0c0.069,0,0.125,0.056,0.125,0.125s-0.056,0.125-0.125,0.125   C18.68,38.771,4.216,42.107,4.07,42.141C4.061,42.143,4.051,42.144,4.042,42.144z"/>
	<path d="M6.262,48.624c-0.067,0-0.123-0.054-0.125-0.121c-0.002-0.068,0.052-0.127,0.121-0.129   c1.439-0.049,14.462-5.821,14.593-5.88c0.065-0.027,0.138,0,0.165,0.063c0.028,0.063,0,0.137-0.063,0.165   c-0.538,0.239-13.198,5.852-14.687,5.901C6.265,48.624,6.263,48.624,6.262,48.624z"/>
	<path d="M7.812,53.204c-0.065,0-0.12-0.05-0.125-0.115c-0.005-0.069,0.047-0.129,0.115-0.135l15.66-1.17c0.004,0,0.007,0,0.01,0   c0.065,0,0.12,0.05,0.125,0.115c0.005,0.069-0.047,0.129-0.115,0.135l-15.66,1.17C7.817,53.204,7.815,53.204,7.812,53.204z"/>
	<path d="M21.582,60.734c-0.007,0-0.015-0.001-0.021-0.002l-14.181-2.5c-0.068-0.012-0.113-0.077-0.102-0.145   s0.076-0.113,0.145-0.102l14.181,2.5c0.068,0.012,0.113,0.077,0.102,0.145C21.694,60.691,21.642,60.734,21.582,60.734z"/>
	<path d="M18.842,68.644c-0.016,0-0.031-0.003-0.047-0.009c-2.147-0.874-4.481-1.859-6.738-2.813   c-2.318-0.979-4.715-1.992-6.922-2.888c-0.064-0.026-0.095-0.1-0.069-0.163c0.027-0.063,0.099-0.094,0.163-0.069   c2.209,0.897,4.606,1.91,6.926,2.89c2.256,0.952,4.589,1.938,6.734,2.811c0.064,0.026,0.095,0.1,0.069,0.163   C18.938,68.615,18.891,68.644,18.842,68.644z"/>
	<path d="M18.292,70.664c-0.001,0-0.002,0-0.004,0c-2.485-0.073-14.019-1.888-16.187-2.242c-0.067-0.011-0.114-0.075-0.103-0.144   c0.011-0.067,0.077-0.114,0.144-0.103c3.373,0.551,13.897,2.172,16.153,2.238c0.068,0.002,0.123,0.06,0.121,0.129   C18.415,70.611,18.359,70.664,18.292,70.664z"/>
	<path d="M18.842,79.894c-0.012,0-0.033-0.002-0.045-0.005c-2.981-0.865-5.946-1.818-8.813-2.741   c-2.865-0.921-5.828-1.874-8.807-2.738c-0.066-0.02-0.104-0.089-0.085-0.155s0.091-0.099,0.155-0.085   c2.981,0.865,5.946,1.818,8.813,2.741c2.863,0.921,5.825,1.873,8.802,2.737c0.056,0.013,0.1,0.063,0.1,0.121   C18.962,79.838,18.911,79.894,18.842,79.894z"/>
	<path d="M4.362,84.254c-0.063,0-0.117-0.047-0.124-0.111c-0.008-0.068,0.042-0.13,0.11-0.138c2.099-0.235,4.758-0.55,7.328-0.855   c2.572-0.305,5.23-0.62,7.331-0.854c0.068-0.013,0.131,0.041,0.138,0.11c0.008,0.068-0.042,0.13-0.11,0.138   c-2.099,0.235-4.758,0.55-7.328,0.855c-2.572,0.305-5.23,0.62-7.331,0.854C4.371,84.254,4.367,84.254,4.362,84.254z"/>
	<path d="M4.732,89.064c-0.06,0-0.112-0.043-0.123-0.104c-0.012-0.067,0.033-0.133,0.102-0.145c2.507-0.445,5.071-0.737,7.552-1.021   c2.48-0.282,5.045-0.574,7.549-1.02c0.064-0.011,0.132,0.033,0.145,0.102c0.012,0.067-0.033,0.133-0.102,0.145   c-2.511,0.446-5.079,0.739-7.563,1.022c-2.477,0.282-5.037,0.574-7.537,1.018C4.746,89.063,4.738,89.064,4.732,89.064z"/>
	<path d="M19.622,96.144c-0.01,0-0.021-0.001-0.031-0.004c-3.406-0.879-15.095-3.046-15.212-3.067   c-0.068-0.013-0.113-0.078-0.101-0.146c0.013-0.068,0.076-0.108,0.146-0.101c0.118,0.021,11.814,2.19,15.229,3.071   c0.066,0.018,0.107,0.086,0.09,0.152C19.729,96.107,19.678,96.144,19.622,96.144z"/>
</g>

            </g>
        </g>
    </g>
    
</svg>