<svg xmlns="http://www.w3.org/2000/svg" xmlns:xlink="http://www.w3.org/1999/xlink" version="1.1" viewBox="0 0 1100 1000" width="1100" height="1000">
<!--ITEM 1--><g><defs><clipPath id="clip-path-id-viewbox-item-1"><rect x="0.0" y="0.0" width="586.631" height="545.481"/></clipPath></defs><g transform="translate(838.0 347.0) rotate(0.0 34.5 31.5) scale(0.11762078717285654 0.1154943985216717)"><g clip-path="url(#clip-path-id-viewbox-item-1)" transform="translate(-0.0 -0.0)"><g>
    <circle cx="322.463" cy="264.169" r="264.1" transform="translate(-92.348 305.389) rotate(-45)" style="         fill: #7d5252;       "/>
    <path d="M317.966,44.581l96-28c-5.8-2.2-11.8-4.1-17.8-5.9l-81.2,23.7Z" style="         fill: #ad8172;       "/>
    <path d="M471.366,46.281l-127.6,37.2,3,10.2,135.6-39.5C478.766,51.381,475.066,48.781,471.366,46.281Z" style="         fill: #ad8172;       "/>
    <path d="M520.366,89.381l-120.6,35.2,3,10.2,125.1-36.5C525.466,95.281,522.966,92.281,520.366,89.381Z" style="         fill: #ad8172;       "/>
    <path d="M553.866,137.081l-98.1,28.6,3,10.2,100.1-29.2C557.266,143.481,555.666,140.281,553.866,137.081Z" style="         fill: #ad8172;       "/>
    <path d="M488.566,224.681l89.6-26.1c-.7-2.7-1.4-5.4-2.2-8.2l-.6-2.1-89.8,26.2Z" style="         fill: #ad8172;       "/>
    <path d="M392.166,299.181l3,10.2,191.2-55.7c-.1-3.6-.4-7.2-.7-10.9Z" style="         fill: #ad8172;       "/>
    <path d="M407.666,352.181l3,10.2,171.5-50c.7-3.9,1.3-7.7,1.9-11.6Z" style="         fill: #ad8172;       "/>
    <path d="M423.066,405.081l3,10.2,135.8-39.6c1.9-4.2,3.8-8.4,5.5-12.7Z" style="         fill: #ad8172;       "/>
    <path d="M438.566,458.081l3,10.2,71.2-20.8c4.6-4.8,9.1-9.8,13.3-14.9Z" style="         fill: #ad8172;       "/>
    <circle cx="264.169" cy="281.184" r="264.1" style="         fill: #f9d039;       "/>
    <path d="M190.266,27.781a268.237,268.237,0,0,0-66.9,30l-98,336.5a263.4,263.4,0,0,0,123.5,124.6l145.5-500.1A265.483,265.483,0,0,0,190.266,27.781Z" style="         fill: #fff194;       "/>
    <path d="M292.166,543.981l136.6-469.3a262.906,262.906,0,0,0-73-41.1l-147.3,505.9A261.356,261.356,0,0,0,292.166,543.981Z" style="         fill: #fff194;       "/>
    <circle cx="264.169" cy="281.184" r="172.3" transform="translate(-121.454 269.152) rotate(-45)" style="         fill: #ff953f;       "/>
    <path d="M329.966,122.081l-95.7,328.9a172.424,172.424,0,0,0,78.2-4.3c3-.9,6-1.8,8.9-2.9l78.3-269A174.062,174.062,0,0,0,329.966,122.081Z" style="         fill: #ffb578;       "/>
    <path d="M215.966,115.981c-91.3,26.6-143.8,122.2-117.2,213.6a172.308,172.308,0,0,0,76.4,99.3l93.1-319.7A168.269,168.269,0,0,0,215.966,115.981Z" style="         fill: #ffb578;       "/>
  </g>
</g></g></g><!--ITEM 2--><g><defs><clipPath id="clip-path-id-viewbox-item-2"><rect x="0.0" y="0.0" width="186.011" height="105.906"/></clipPath></defs><g transform="translate(688.0 169.0) rotate(42.97079400716393 72.0 41.0) scale(0.7741477654547312 0.7742715238041281)"><g clip-path="url(#clip-path-id-viewbox-item-2)" transform="translate(-0.0 -0.0)"><g>
    <polygon points="179.211 46.106 144.311 52.606 142.511 75.806 186.011 53.006 179.211 46.106" style="         fill: #211c1b;       "/>
    <path d="M100.711,15.906c-27.5,0-51.9,22.3-54.7,49.7-1.6,16.6,5,31.3,16.6,40.3h58c13.4-9.1,23-23.7,24.7-40.3C148.111,38.106,128.111,15.906,100.711,15.906Z" style="         fill: #dcdde2;       "/>
    <path d="M52.311,45.306h90.7s-8.6-29.4-42.4-29.4C66.411,15.906,52.311,45.306,52.311,45.306Z" style="         fill: #c0c0d1;       "/>
    <path d="M13.711,71.606a23.839,23.839,0,0,0,11.3,8.5,15.617,15.617,0,0,0,7.1.8,13.086,13.086,0,0,0,6.7-2.7,13.531,13.531,0,0,0,4.4-5.9,17.8,17.8,0,0,0,1.1-7.6,23.636,23.636,0,0,0-6-14,25.349,25.349,0,0,0-6-4.8,21.718,21.718,0,0,0-7-2.5,16.034,16.034,0,0,0-6.9.3,13.662,13.662,0,0,0-5.6,3.2,14.316,14.316,0,0,0-3.8,11.8A25.91,25.91,0,0,0,13.711,71.606Zm-6.2,5.1a32.349,32.349,0,0,1-5.2-8,25.979,25.979,0,0,1-2.3-9.5,25.821,25.821,0,0,1,1.7-9.9,20.563,20.563,0,0,1,6.1-8.2,18.784,18.784,0,0,1,9.3-3.9,21.723,21.723,0,0,1,9.5.8,28.66,28.66,0,0,1,8.2,4.1,28.956,28.956,0,0,1,6.3,6.3,30.184,30.184,0,0,1,6.1,16.3,24.124,24.124,0,0,1-1.3,8.8,19.172,19.172,0,0,1-4.9,7.6,19.662,19.662,0,0,1-8.1,4.5,22.888,22.888,0,0,1-9.4.4,29.425,29.425,0,0,1-16-9.3Z" style="         fill: #211c1b;       "/>
    <path d="M100.31,17.45a4.18,4.18,0,0,1-.465-.031c-.046,0-.091-.012-.136-.013-.06,0-.15-.007-.21-.015a7.9,7.9,0,0,1-6.778-8.756l0-.015A9.525,9.525,0,0,1,101.8.212a3.065,3.065,0,0,1,.977-.019c.046.005.091.012.137.013a1.853,1.853,0,0,1,.21.015A7.9,7.9,0,0,1,109.9,8.976a9.477,9.477,0,0,1-9.079,8.423A2.533,2.533,0,0,1,100.31,17.45Zm-.172-2.968h0Zm-.294-.073c.111,0,.222.016.333.028l.084.01a1.5,1.5,0,0,1,.312-.041,6.481,6.481,0,0,0,6.345-5.75A4.861,4.861,0,0,0,102.777,3.2c-.11,0-.221-.016-.332-.028-.028,0-.057-.008-.085-.01a1.56,1.56,0,0,1-.312.041A6.543,6.543,0,0,0,95.7,8.984,4.856,4.856,0,0,0,99.844,14.409Zm2.642-11.28h0Z" style="         fill: #211c1b;       "/>
  </g>
</g></g></g><!--ITEM 3--><g><defs><clipPath id="clip-path-id-viewbox-item-3"><rect x="0.0" y="0.0" width="1738.5" height="231.5"/></clipPath></defs><g transform="translate(74.0 793.0) rotate(0.0 480.5 64.0) scale(0.55277538107564 0.5529157667386609)"><g clip-path="url(#clip-path-id-viewbox-item-3)" transform="translate(-0.0 -0.0)"><g>
    <rect width="1738.5" height="231.5" style="         fill: #dcdde2;       "/>
    <path d="M139.6,188.2,82.6,32.3A12.306,12.306,0,0,0,71,24.2H45.8V204.9H128a12.4,12.4,0,0,0,12.4-12.4A12.6,12.6,0,0,0,139.6,188.2Z" style="         fill: #eeeff5;       "/>
    <path d="M118.3,40.5l22.9,67a12.323,12.323,0,0,0,15.7,7.7,10.778,10.778,0,0,0,3.5-1.9l87.5-67c9.4-7.2,4.3-22.2-7.5-22.2H130.1a12.4,12.4,0,0,0-12.4,12.4A9.08,9.08,0,0,0,118.3,40.5Z" style="         fill: #eeeff5;       "/>
    <path d="M160,154.7l13,41a13,13,0,0,0,12.4,9.1H337.2a13.038,13.038,0,0,0,13-13,14.919,14.919,0,0,0-.2-2.1L334.1,99a13.083,13.083,0,0,0-10.6-10.6L257.2,76.8a12.851,12.851,0,0,0-10,2.4l-82.5,61.3A12.62,12.62,0,0,0,160,154.7Z" style="         fill: #eeeff5;       "/>
    <path d="M312.1,58.3,349,64.6a13.036,13.036,0,0,0,10.4-2.8l17.8-14.6c9.5-7.7,4-23.1-8.2-23.1H323.6a13.264,13.264,0,0,0-8.7,3.3l-9.3,8.4a13.05,13.05,0,0,0,6.5,22.5Z" style="         fill: #eeeff5;       "/>
    <path d="M361.9,112l19.8,82.9a12.961,12.961,0,0,0,12.7,10h42a12.974,12.974,0,0,0,13-13,14.44,14.44,0,0,0-1.3-5.8l-39.5-80a12.827,12.827,0,0,0-10-7.1l-22.3-2.9a12.953,12.953,0,0,0-14.5,11.2A9.335,9.335,0,0,0,361.9,112Z" style="         fill: #eeeff5;       "/>
    <path d="M409.2,74.9l9.6,1.8a13.208,13.208,0,0,1,8.8,6.1l22,37a13.036,13.036,0,0,0,17.8,4.6,12.6,12.6,0,0,0,3.3-2.8l64.6-76a13,13,0,0,0-9.9-21.4H440.5a12.845,12.845,0,0,0-8.5,3.2l-28.8,25a12.886,12.886,0,0,0-1.1,18.3A12.071,12.071,0,0,0,409.2,74.9Z" style="         fill: #eeeff5;       "/>
    <path d="M469.7,162.9l13.7,33.8a12.935,12.935,0,0,0,12,8.1H646.5a12.974,12.974,0,0,0,13-13,13.612,13.612,0,0,0-1.3-5.7L591.9,51a13.007,13.007,0,0,0-21-3.4L472.3,148.9A13.174,13.174,0,0,0,469.7,162.9Z" style="         fill: #eeeff5;       "/>
    <path d="M623.4,43l37.5,78.9a12.964,12.964,0,0,0,17.3,6.2,9.5,9.5,0,0,0,1.7-1L795.6,50c10.6-7.1,5.7-23.7-7.1-23.8L635.2,24.4A12.976,12.976,0,0,0,622,37.2,14.546,14.546,0,0,0,623.4,43Z" style="         fill: #eeeff5;       "/>
    <path d="M684.7,168.9,697.1,197a13.042,13.042,0,0,0,11.9,7.8H874.6a12.974,12.974,0,0,0,13-13,5.7,5.7,0,0,0-.1-1.3L873.7,55.6a13.026,13.026,0,0,0-20-9.6L689.6,152.8A12.9,12.9,0,0,0,684.7,168.9Z" style="         fill: #eeeff5;       "/>
    <path d="M905.2,38.6l9.7,83.1a13.022,13.022,0,0,0,14.4,11.4c.3,0,.5-.1.8-.1l171.3-30.6a12.983,12.983,0,0,0,10.7-12.8V37.1a12.974,12.974,0,0,0-13-13H918.2a12.974,12.974,0,0,0-13,13A3.788,3.788,0,0,0,905.2,38.6Z" style="         fill: #eeeff5;       "/>
    <path d="M923.1,173.1l2.7,20.5a12.961,12.961,0,0,0,12.9,11.3h119.1a12.974,12.974,0,0,0,13-13v-1.2l-3.6-41.1a12.944,12.944,0,0,0-14.1-11.8c-.4,0-.8.1-1.1.1L933.8,158.6A12.9,12.9,0,0,0,923.1,173.1Z" style="         fill: #eeeff5;       "/>
    <path d="M1099.1,129.1l38.8-7.9a12.825,12.825,0,0,1,12.7,4.6l46.7,57.9a13.1,13.1,0,0,1-1.9,18.3,12.834,12.834,0,0,1-8.2,2.9h-78.6a13.034,13.034,0,0,1-12.9-11.2l-7-50A13.093,13.093,0,0,1,1099.1,129.1Z" style="         fill: #eeeff5;       "/>
    <path d="M1143.2,79.7l2.1-43.2a13.058,13.058,0,0,1,13-12.4h146.2a12.983,12.983,0,0,1,12.8,10.7L1345,189.5a12.96,12.96,0,0,1-10.5,15.1,17.852,17.852,0,0,1-2.3.2h-79.6a12.643,12.643,0,0,1-9.8-4.5L1146.4,88.8A12.584,12.584,0,0,1,1143.2,79.7Z" style="         fill: #eeeff5;       "/>
    <path d="M1354.3,39.4l13.4,76.9a13,13,0,0,0,15,10.6,12.771,12.771,0,0,0,4.7-1.8l121.8-76.9c11-7,6.1-24-6.9-24H1367.1a12.974,12.974,0,0,0-13,13A17.96,17.96,0,0,0,1354.3,39.4Z" style="         fill: #eeeff5;       "/>
    <path d="M1378.2,165.3l3.7,28.2a13.035,13.035,0,0,0,12.9,11.3h207.5a12.974,12.974,0,0,0,13-13,13.389,13.389,0,0,0-1.9-6.8L1543.1,71.3a12.992,12.992,0,0,0-17.8-4.3l-140.9,85.5A12.849,12.849,0,0,0,1378.2,165.3Z" style="         fill: #eeeff5;       "/>
    <path d="M1685.8,24.1h-85.4a12.824,12.824,0,0,0-7.1,2.1l-22.4,14.7a13.045,13.045,0,0,0-3.8,18,.1.1,0,0,0,.1.1l38.8,58.1a12.943,12.943,0,0,0,18,3.6l1.2-.9,60.7-51.1Z" style="         fill: #eeeff5;       "/>
    <path d="M1685.8,99.2,1635,139.1a12.948,12.948,0,0,0-2.8,17.3l27.8,42.5a12.963,12.963,0,0,0,10.9,5.9h14.9Z" style="         fill: #eeeff5;       "/>
  </g>
</g></g></g><!--ITEM 4--><g><defs><clipPath id="clip-path-id-viewbox-item-4"><rect x="0.0" y="0.0" width="299.0" height="539.0"/></clipPath></defs><g transform="translate(331.0 121.0) rotate(0.0 197.5 356.5) scale(1.3210702341137124 1.3228200371057515)"><g clip-path="url(#clip-path-id-viewbox-item-4)" transform="translate(-0.0 -0.0)"><defs><linearGradient id="&#1041;&#1077;&#1079;&#1099;&#1084;&#1103;&#1085;&#1085;&#1099;&#1081;_&#1075;&#1088;&#1072;&#1076;&#1080;&#1077;&#1085;&#1090;_10-i4" x1="-5005.59" y1="19084.69" x2="-4957.74" y2="19084.69" gradientTransform="translate(-7347.04 18700.84) rotate(-171.95)" gradientUnits="userSpaceOnUse"><stop offset="0.5" stop-color="#ff953f" fill="#000000"/><stop offset="0.61" stop-color="#fcaf3c" fill="#000000"/><stop offset="0.74" stop-color="#fbc13b" fill="#000000"/><stop offset="0.86" stop-color="#f9cc39" fill="#000000"/><stop offset="1" stop-color="#f9d039" fill="#000000"/></linearGradient><linearGradient id="&#1041;&#1077;&#1079;&#1099;&#1084;&#1103;&#1085;&#1085;&#1099;&#1081;_&#1075;&#1088;&#1072;&#1076;&#1080;&#1077;&#1085;&#1090;_2-i4" x1="257.05" y1="11534.35" x2="270.28" y2="11534.35" gradientTransform="matrix(0.92, -0.38, -0.38, -0.92, 4433.99, 10790.49)" gradientUnits="userSpaceOnUse"><stop offset="0" stop-color="#ff953f" fill="#000000"/><stop offset="0.23" stop-color="#fcaf3c" fill="#000000"/><stop offset="0.48" stop-color="#fbc13b" fill="#000000"/><stop offset="0.73" stop-color="#f9cc39" fill="#000000"/><stop offset="1" stop-color="#f9d039" fill="#000000"/></linearGradient><linearGradient id="&#1041;&#1077;&#1079;&#1099;&#1084;&#1103;&#1085;&#1085;&#1099;&#1081;_&#1075;&#1088;&#1072;&#1076;&#1080;&#1077;&#1085;&#1090;_2-2-i4" x1="259.2" y1="11533.58" x2="275.61" y2="11533.58" xlink:href="#&#1041;&#1077;&#1079;&#1099;&#1084;&#1103;&#1085;&#1085;&#1099;&#1081;_&#1075;&#1088;&#1072;&#1076;&#1080;&#1077;&#1085;&#1090;_2-i4"/><linearGradient id="&#1041;&#1077;&#1079;&#1099;&#1084;&#1103;&#1085;&#1085;&#1099;&#1081;_&#1075;&#1088;&#1072;&#1076;&#1080;&#1077;&#1085;&#1090;_2-3-i4" x1="250.37" y1="12847.18" x2="299" y2="12847.18" gradientTransform="matrix(1, 0, 0, -1, 0, 12899.18)" xlink:href="#&#1041;&#1077;&#1079;&#1099;&#1084;&#1103;&#1085;&#1085;&#1099;&#1081;_&#1075;&#1088;&#1072;&#1076;&#1080;&#1077;&#1085;&#1090;_2-i4"/><linearGradient id="&#1041;&#1077;&#1079;&#1099;&#1084;&#1103;&#1085;&#1085;&#1099;&#1081;_&#1075;&#1088;&#1072;&#1076;&#1080;&#1077;&#1085;&#1090;_3-i4" x1="179.13" y1="12622.48" x2="149.27" y2="12791.83" gradientTransform="matrix(1, 0, 0, -1, 0, 12899.18)" gradientUnits="userSpaceOnUse"><stop offset="0" stop-color="#cce0f4" fill="#000000"/><stop offset="0.3" stop-color="#74bee5" fill="#000000"/><stop offset="0.58" stop-color="#1e9cd7" fill="#000000"/><stop offset="0.71" stop-color="#1a97d4" fill="#000000"/><stop offset="0.86" stop-color="#1089cb" fill="#000000"/><stop offset="1" stop-color="#0075be" fill="#000000"/></linearGradient><linearGradient id="&#1041;&#1077;&#1079;&#1099;&#1084;&#1103;&#1085;&#1085;&#1099;&#1081;_&#1075;&#1088;&#1072;&#1076;&#1080;&#1077;&#1085;&#1090;_6-i4" x1="9115.07" y1="-1949.66" x2="9138.22" y2="-1936.21" gradientTransform="matrix(-0.26, -0.97, -0.97, 0.26, 478.61, 9574.89)" gradientUnits="userSpaceOnUse"><stop offset="0" stop-color="#ff953f" fill="#000000"/><stop offset="0.18" stop-color="#fcaf3c" fill="#000000"/><stop offset="0.37" stop-color="#fbc13b" fill="#000000"/><stop offset="0.56" stop-color="#f9cc39" fill="#000000"/><stop offset="0.77" stop-color="#f9d039" fill="#000000"/></linearGradient><linearGradient id="&#1041;&#1077;&#1079;&#1099;&#1084;&#1103;&#1085;&#1085;&#1099;&#1081;_&#1075;&#1088;&#1072;&#1076;&#1080;&#1077;&#1085;&#1090;_6-2-i4" x1="-6716.47" y1="21451.54" x2="-6674.19" y2="21451.54" gradientTransform="translate(-6603.9 21936.86) rotate(180)" xlink:href="#&#1041;&#1077;&#1079;&#1099;&#1084;&#1103;&#1085;&#1085;&#1099;&#1081;_&#1075;&#1088;&#1072;&#1076;&#1080;&#1077;&#1085;&#1090;_6-i4"/><linearGradient id="&#1041;&#1077;&#1079;&#1099;&#1084;&#1103;&#1085;&#1085;&#1099;&#1081;_&#1075;&#1088;&#1072;&#1076;&#1080;&#1077;&#1085;&#1090;_2-4-i4" x1="-6741.04" y1="10774.18" x2="-6763.1" y2="10812.4" gradientTransform="translate(-6603.9 10884) rotate(180)" xlink:href="#&#1041;&#1077;&#1079;&#1099;&#1084;&#1103;&#1085;&#1085;&#1099;&#1081;_&#1075;&#1088;&#1072;&#1076;&#1080;&#1077;&#1085;&#1090;_2-i4"/></defs><g id="&#1076;&#1086;&#1073;&#1072;&#1074;&#1080;&#1090;&#1100;-i4"><path d="M123.39,174.61l53.18,29.09,71.29,261.8s-1.36,24.65-3.14,22.65c-10.55-11.72-50.5-51.47-53.81-64.19-4.33-16.67.63-37.13-13.53-56.32C151,339.32,121.06,290.86,100,258.45,79.14,236.84,89.24,185.17,123.39,174.61Z" style="fill:#7d5252;"/><path d="M176.42,203.25,247.86,465.5l-2.2.94c-13.74-35.76-21.43-61.52-26-79-3.39-13-5.24-22.18-11-36.37-6.89-16.93-12.14-25.68-15.25-39.84-2.36-10.74-.56-27.39-6.94-46.25a144.28,144.28,0,0,1-6.22-25.59C177.75,222,176.42,203.25,176.42,203.25Z" style="fill:#c9ad8f;"/><path d="M234.3,477.05c3.1-8.6,9.55-11,13.59-11.72,10.68,28.61,21.31,57.05,26.2,70.17a2.27,2.27,0,0,1-3.61,2.58c-9.11-7.17-24.9-20.36-26.64-26.87-2.48-9.2,3.81-9.34-3-22.41C239.24,485.68,234.26,477.18,234.3,477.05Z" style="fill:url(#&#1041;&#1077;&#1079;&#1099;&#1084;&#1103;&#1085;&#1085;&#1099;&#1081;_&#1075;&#1088;&#1072;&#1076;&#1080;&#1077;&#1085;&#1090;_10-i4);"/><path d="M245,466a10.16,10.16,0,0,1,2.86-.71c10.67,28.61,21.31,57.05,26.19,70.17.32.88-.71,1.72-.23,2.25C275.55,539.66,247,469.64,245,466Z" style="fill:#fff194;"/><path d="M243.79,496.33c5.08.32,9.35,7.73,10.49,14.12s5.59,12.5,9.91,13.11c2,.28,3.42-1.28,4.31-3l5.56,14.9a2.26,2.26,0,0,1-3.6,2.58c-9.13-7.17-24.91-20.36-26.65-26.87C242,504.23,245.09,502.47,243.79,496.33Z" style="fill:#211c1b;"/><path d="M250.61,56s25.72,16.4,32.81,40.25C283.42,96.25,257.42,82.25,250.61,56Z" style="fill:#211c1b;"/><path d="M168,65.15S164,75.56,170,77.64s13.73,4.85,11.11,14.84l-29.6,5.24-2.26-31.45Z" style="fill:#211c1b;"/><path d="M276.67,36.41s4-11.08,6-18.76a5.62,5.62,0,0,1,1.88,4.49c-.06,2.29-.46,8-.46,8Z" style="fill:url(#&#1041;&#1077;&#1079;&#1099;&#1084;&#1103;&#1085;&#1085;&#1099;&#1081;_&#1075;&#1088;&#1072;&#1076;&#1080;&#1077;&#1085;&#1090;_2-i4);"/><path d="M278.13,34.36s6.93-9.48,11-16.27a6.16,6.16,0,0,1,.47,5c-.74,2.17-2.77,7.57-2.77,7.57Z" style="fill:url(#&#1041;&#1077;&#1079;&#1099;&#1084;&#1103;&#1085;&#1085;&#1099;&#1081;_&#1075;&#1088;&#1072;&#1076;&#1080;&#1077;&#1085;&#1090;_2-2-i4);"/><path d="M250.37,57.23s6.52-11.07,12.94-16.48S284,28,290,27a61.73,61.73,0,0,1,9-1,5.5,5.5,0,0,1-3,3c-3,1-8,2-10,3-1.21.61-4.5,5-4,7s3.41,2.72,5,2,10.09-5.33,11.86-2.56c0,0-9.82,8.2-13.86,8.56s-12.35.82-13.87,3-7.68,18.57-8.36,28C262.81,78.06,252.78,66.74,250.37,57.23Z" style="fill:url(#&#1041;&#1077;&#1079;&#1099;&#1084;&#1103;&#1085;&#1085;&#1099;&#1081;_&#1075;&#1088;&#1072;&#1076;&#1080;&#1077;&#1085;&#1090;_2-3-i4);"/><path d="M194.22,155.06c2.42,20.61-1.52,30.86-17.88,48.48-26.24-2.52-43.83-13.64-69-21.53C109,220.25,92.8,269.1,48.9,264c-4.28-8.45-8.3-17-12.58-25.49,12.6-17.34,26-33.37,38.68-50.69,2.48-24.25,10.93-73.49,33.27-86.39C134,87,174.35,88.25,174.35,88.25l7,.06c17.13-.18,41,17,51,30.61,0,0-.36-30.14,18.26-62.94a95.18,95.18,0,0,0,32.73,40.09s.87,3.61-3.94,6.78-11.33,2.55-9.73,7.29,8.13,3.75,6.89,18.59S266,179.39,234.85,179.39c-27.52,0-39.43-22.3-39.43-22.3Z" style="fill:url(#&#1041;&#1077;&#1079;&#1099;&#1084;&#1103;&#1085;&#1085;&#1099;&#1081;_&#1075;&#1088;&#1072;&#1076;&#1080;&#1077;&#1085;&#1090;_3-i4);"/><path d="M209.65,98.83h0c16,16,22.4,39.43,22.4,39.43a149.21,149.21,0,0,1,.19-19C227.23,112.48,218.89,104.84,209.65,98.83Z" style="fill:#211c1b;"/><path d="M190.81,184.19c-2.83,6-12.27,17.31-14.47,19.51a63.7,63.7,0,0,1-10.7-1.57c30.84-18.56,28.58-46.91,28.58-46.91S197.08,171,190.81,184.19Z" style="fill:#0075be;"/><path d="M93.37,484.06c-7.87-12.27-13.85-113.9-23.92-181.87C56.87,217.15,110,191.43,110,191.43l42.53,52.86s.36,31-17.67,63.56c-27.37,49.41-10.42,46-8.49,92.2.62,15.1-15.74,66.08-20.46,82.75C104.8,486.87,101,495.92,93.37,484.06Z" style="fill:#7d5252;"/><path d="M38.25,253.14c3.8,7.39,10.75,11.61,10.75,11,0-1.61-.24-7.05-4-14.43s-6.83-10.12-8.72-11.06A5.77,5.77,0,0,0,35.8,240C35.26,242.36,35.34,247.49,38.25,253.14Z" fill="#000000"/><path d="M31.66,245.13l-22.8,3.19h0s-.53,2,2.11,2.3L.82,255.54s.12,2.52,4,1.89L.67,261s1.89,1.95,5.56.21,11.43-7.42,11.43-7.42l-2.51,4.32a4,4,0,0,0,5.49-1.36c2.31-3.29,4.85-4.63,7.05-3.68,1.32.56,4.29,2.91,8,2.46,2-.24,3.65-1.43,5.51-2.81a20.65,20.65,0,0,0,3.56-3.37A38.36,38.36,0,0,0,41,243a21.24,21.24,0,0,0-2.52-2.84,18.64,18.64,0,0,0-2.2-1.76A15.06,15.06,0,0,1,31.66,245.13Z" style="fill:url(#&#1041;&#1077;&#1079;&#1099;&#1084;&#1103;&#1085;&#1085;&#1099;&#1081;_&#1075;&#1088;&#1072;&#1076;&#1080;&#1077;&#1085;&#1090;_6-i4);"/><path d="M89.11,468.93l23.45-9.73c-4.09,14.79-6.49,28.61-4.51,34,3.46,9.44,4.72,14.16,2.2,18.25h-40s0-5.19,6.45-6.3,17.15-2.51,14.47-21.71C90.74,480.22,90,475.19,89.11,468.93Z" style="fill:url(#&#1041;&#1077;&#1079;&#1099;&#1084;&#1103;&#1085;&#1085;&#1099;&#1081;_&#1075;&#1088;&#1072;&#1076;&#1080;&#1077;&#1085;&#1090;_6-2-i4);"/><path d="M76.71,505.11c5.22-.88,13.21-2,14.66-12.52,5.41,1.7,3.43,11.07,3.43,11.07,6-5.34,10.89-6.51,14.54-6.7,2.39,7,3,11,.85,14.48H70.29S70.29,506.21,76.71,505.11Z" style="fill:#211c1b;"/><path d="M177.38,367.64c4.49,3.23,13.4,18.36,14.47,23.6,4.9,24-4,28.11,42.27,85.43h0c-16.71-17.55-42.36-44.1-43.21-52.71C186.5,411.06,187.87,380.3,177.38,367.64Z" style="fill:#211c1b;"/><path d="M134.41,90.43a107.73,107.73,0,0,1,4.85-27.25c-2.27-5.84,20,8.33,17,8.34-1.24,3.54.5,12,1.21,16.55,5.83.09,11.61,0,17.46.39-6.16,10.32-15,18.78-27.52,20.35S127,106.07,121.3,95.65C121.26,95.59,130.32,92,134.41,90.43Z" style="fill:url(#&#1041;&#1077;&#1079;&#1099;&#1084;&#1103;&#1085;&#1085;&#1099;&#1081;_&#1075;&#1088;&#1072;&#1076;&#1080;&#1077;&#1085;&#1090;_2-4-i4);"/><path d="M125.46,270.41c-1,.84,2.52,23.6,14.76,49.34-.91-1.2-6.71-10-6.58-9.63,0,0-9.44,16.61-12.46,28.44-2.78,10.93-1.71,14-.49,23.42,0,0,7.28,28.32,5.7,41.22a275.38,275.38,0,0,1-13.84,56c.19-.61.38-1.21.56-1.82a194.56,194.56,0,0,0,7.59-74.89c-1.07-11.58-3.3-21.87-3.75-30.26a77.57,77.57,0,0,1,1.26-19.51c1.26-6,2.2-9.75,6-21.39C128.29,298.73,122.94,277.65,125.46,270.41Z" style="fill:#211c1b;"/><path d="M69.77,252.79c-3.28-15.82-.43-26,3-32.41,8-15.26,22.36-15.92,25.17-29.89,1.94-9.65-2.54-12.94-1.89-25.8a52.24,52.24,0,0,1,6.28-21.92,1.42,1.42,0,0,1,2.65,1,57.47,57.47,0,0,0,5.23,38.88A80.42,80.42,0,0,1,107.35,193,109.76,109.76,0,0,0,89.1,211.88,111.55,111.55,0,0,0,69.77,252.79Z" style="fill:#0075be;"/><path d="M155.91,76.59,149.2,70a20.78,20.78,0,0,0,7.09,1.55c-.07.42-.12.85-.17,1.29A33.93,33.93,0,0,0,155.91,76.59Z" style="fill:#211c1b;"/><path d="M143.47,71.38s18.58,1.12,23.88-1.12,4-7.66,4-7.66l5.23-1.28s-.35-15.48-15.32-20.75S134.88,60.05,143.47,71.38Z" style="fill:#f9d039;"/><path d="M156.11,59.09a.49.49,0,0,1-.48-.48.51.51,0,0,1,.15-.35c.07-.06,6.43-5.89,13.31-1.16a.48.48,0,0,1-.54.79c-6.25-4.3-12.05,1-12.11,1.07A.51.51,0,0,1,156.11,59.09Z" style="fill:#211c1b;"/><path d="M168,48.36l.51,3a.54.54,0,0,1-.47.61h-.17c-2-.38-7.79-1.31-11.78-.13a.32.32,0,0,1-.41-.19.27.27,0,0,1,.13-.37h0A17.71,17.71,0,0,1,167.61,48,.48.48,0,0,1,168,48.36Z" style="fill:#211c1b;"/><path d="M159.88,63.78l6.38,1.76s-2.45,2.93-4.75,2S159.88,63.78,159.88,63.78Z" style="fill:#ff624d;"/><path d="M159.88,63.78l6.38,1.76s-2.45,2.93-4.75,2S159.88,63.78,159.88,63.78Z" style="fill:#eb4335;"/><path d="M149.63,71.44s7,2.41,7.37,12.56c0,0,1.44-12.37-1.62-12.37S149.63,71.44,149.63,71.44Z" style="fill:#211c1b;"/><path d="M88,129s-11-18.48-6.18-27.1,9.26-4.63,13.12-11.33,3.71-11.34,15-17.72,14.4-13.09,16.12-17.56,7.73-13.86,21.87-15.9C162.56,37.22,170,46,170,46s-8.21-3.8-15.2,1.95-4.12,17.65-9.35,22.25S136,74.31,136,82c0,6-1.59,8.43-1.59,8.43S116.73,97.33,111,100c-15,7-23,29.33-23,29.33" style="fill:#211c1b;"/></g></g></g></g><!--ITEM 5--><g><defs><clipPath id="clip-path-id-viewbox-item-5"><rect x="0.0" y="0.0" width="313.1" height="470.396"/></clipPath></defs><g transform="translate(739.0 404.0) rotate(0.0 131.0 197.5) scale(0.8367933567550303 0.8397180248131362)"><g clip-path="url(#clip-path-id-viewbox-item-5)" transform="translate(-0.0 -0.0)"><g>
    <rect x="149.9" y="40.796" width="13.3" height="313.5" style="         fill: #2b9962;       "/>
    <path d="M261.1,332.8c-43.5,31.7-105.6,20.7-105.6,20.7s8.5-62.4,52-94.2,105.6-20.7,105.6-20.7S304.6,301,261.1,332.8Z" style="         fill: #34ab53;       "/>
    <path d="M52,332.8c43.5,31.7,105.6,20.7,105.6,20.7s-8.5-62.4-52-94.2S0,238.6,0,238.6,8.5,301,52,332.8Z" style="         fill: #34ab53;       "/>
    <path d="M229.2,207.8c-30.2,22-73.3,14.4-73.3,14.4s5.9-43.4,36.1-65.4,73.3-14.4,73.3-14.4S259.4,185.8,229.2,207.8Z" style="         fill: #34ab53;       "/>
    <path d="M83.9,207.8c30.2,22,73.3,14.4,73.3,14.4s-5.9-43.4-36.1-65.4-73.3-14.4-73.3-14.4S53.7,185.8,83.9,207.8Z" style="         fill: #34ab53;       "/>
    <path d="M212.2,113.8c-23.2,16.9-56.2,11-56.2,11s4.5-33.2,27.7-50.1,56.2-11,56.2-11S235.4,96.9,212.2,113.8Z" style="         fill: #34ab53;       "/>
    <path d="M100.9,113.8c23.2,16.9,56.2,11,56.2,11s-4.5-33.2-27.7-50.1-56.2-11-56.2-11S77.7,96.9,100.9,113.8Z" style="         fill: #34ab53;       "/>
    <path d="M195.1,35.4c-16,11.7-38.9,7.6-38.9,7.6s3.1-23,19.2-34.7C191.4-3.4,214.3.7,214.3.7S211.1,23.8,195.1,35.4Z" style="         fill: #34ab53;       "/>
    <path d="M118,35.4c16,11.7,38.9,7.6,38.9,7.6s-3.1-23-19.2-34.7S98.8.7,98.8.7,101.9,23.8,118,35.4Z" style="         fill: #34ab53;       "/>
    <rect x="58.7" y="388.596" width="193.7" height="81.8" style="         fill: #dcdde2;       "/>
    <rect x="58.7" y="347.696" width="193.7" height="46.7" style="         fill: #c0c0d1;       "/>
  </g>
</g></g></g><!--ITEM 6--><g><defs><clipPath id="clip-path-id-viewbox-item-6"><rect x="0.0" y="0.0" width="620.368" height="331.506"/></clipPath></defs><g transform="translate(209.0 686.0) rotate(0.0 103.5 55.0) scale(0.33367291672039817 0.33181903193305706)"><g clip-path="url(#clip-path-id-viewbox-item-6)" transform="translate(-0.0 -0.0)"><g>
    <path d="M94.45,248.718l511.552-.4a14.4,14.4,0,0,1,14.356,14.38l.01,54.052A14.4,14.4,0,0,1,605.989,331.1l-511.552.4a14.4,14.4,0,0,1-14.356-14.379l-.011-54.052A14.4,14.4,0,0,1,94.45,248.718Z" style="         fill: #f9d039;       "/>
    <path d="M51.235,165.963l511.552-.4a14.4,14.4,0,0,1,14.356,14.38l.01,54.052a14.4,14.4,0,0,1-14.379,14.356l-511.552.4a14.4,14.4,0,0,1-14.357-14.38l-.01-54.052A14.4,14.4,0,0,1,51.235,165.963Z" style="         fill: #f9d039;       "/>
    <path d="M14.256,83.251l511.552-.4a14.4,14.4,0,0,1,14.356,14.38l.01,54.052a14.4,14.4,0,0,1-14.379,14.356l-511.428.335A14.4,14.4,0,0,1,.01,151.591L0,97.539A14.278,14.278,0,0,1,14.256,83.251Z" style="         fill: #f9d039;       "/>
    <path d="M60.629.4,572.18,0a14.4,14.4,0,0,1,14.357,14.38l.01,54.052a14.4,14.4,0,0,1-14.38,14.356l-511.551.4A14.4,14.4,0,0,1,46.259,68.812l-.01-54.052A14.4,14.4,0,0,1,60.629.4Z" style="         fill: #f9d039;       "/>
    <rect x="118.507" y="248.689" width="12.3" height="82.8" style="         fill: #fff194;       "/>
    <rect x="184.027" y="248.681" width="12.3" height="82.8" style="         fill: #fff194;       "/>
    <rect x="249.55" y="248.576" width="12.3" height="82.8" style="         fill: #fff194;       "/>
    <rect x="315.073" y="248.468" width="12.3" height="82.8" style="         fill: #fff194;       "/>
    <rect x="380.593" y="248.465" width="12.3" height="82.8" style="         fill: #fff194;       "/>
    <rect x="446.113" y="248.457" width="12.3" height="82.8" style="         fill: #fff194;       "/>
    <rect x="75.288" y="165.943" width="12.3" height="82.8" style="         fill: #fff194;       "/>
    <rect x="140.813" y="165.834" width="12.3" height="82.8" style="         fill: #fff194;       "/>
    <rect x="206.334" y="165.832" width="12.3" height="82.8" style="         fill: #fff194;       "/>
    <rect x="271.854" y="165.824" width="12.3" height="82.8" style="         fill: #fff194;       "/>
    <rect x="38.323" y="83.243" width="12.3" height="82.8" style="         fill: #fff194;       "/>
    <rect x="103.846" y="83.135" width="12.3" height="82.8" style="         fill: #fff194;       "/>
    <rect x="169.465" y="83.129" width="12.3" height="82.8" style="         fill: #fff194;       "/>
    <rect x="234.986" y="83.021" width="12.3" height="82.8" style="         fill: #fff194;       "/>
    <rect x="84.683" y="0.377" width="12.3" height="82.8" style="         fill: #fff194;       "/>
    <rect x="150.206" y="0.271" width="12.3" height="82.8" style="         fill: #fff194;       "/>
    <rect x="215.726" y="0.266" width="12.3" height="82.8" style="         fill: #fff194;       "/>
    <rect x="511.736" y="248.348" width="12.3" height="82.8" style="         fill: #fff194;       "/>
    <rect x="577.256" y="248.343" width="12.3" height="82.8" style="         fill: #fff194;       "/>
    <rect x="337.476" y="165.718" width="12.3" height="82.8" style="         fill: #fff194;       "/>
    <rect x="402.996" y="165.71" width="12.3" height="82.8" style="         fill: #fff194;       "/>
    <rect x="468.516" y="165.605" width="12.3" height="82.8" style="         fill: #fff194;       "/>
    <rect x="534.036" y="165.597" width="12.3" height="82.8" style="         fill: #fff194;       "/>
    <rect x="300.508" y="83.016" width="12.3" height="82.8" style="         fill: #fff194;       "/>
    <rect x="366.029" y="82.91" width="12.3" height="82.8" style="         fill: #fff194;       "/>
    <rect x="431.548" y="82.905" width="12.3" height="82.8" style="         fill: #fff194;       "/>
    <rect x="497.068" y="82.797" width="12.3" height="82.8" style="         fill: #fff194;       "/>
    <rect x="281.249" y="0.161" width="12.3" height="82.8" style="         fill: #fff194;       "/>
    <rect x="346.772" y="0.152" width="12.3" height="82.8" style="         fill: #fff194;       "/>
    <rect x="412.392" y="0.047" width="12.3" height="82.8" style="         fill: #fff194;       "/>
    <rect x="477.912" y="0.039" width="12.3" height="82.8" style="         fill: #fff194;       "/>
    <rect x="543.432" y="0.037" width="12.3" height="82.8" style="         fill: #fff194;       "/>
  </g>
</g></g></g><!--ITEM 7--><g><defs><clipPath id="clip-path-id-viewbox-item-7"><rect x="0.0" y="0.0" width="620.368" height="331.506"/></clipPath></defs><g transform="translate(407.0 598.0) rotate(0.0 -84.0 44.5) scale(-0.2708070048745261 0.26847176220038255)"><g clip-path="url(#clip-path-id-viewbox-item-7)" transform="translate(-0.0 -0.0)"><g>
    <path d="M94.45,248.718l511.552-.4a14.4,14.4,0,0,1,14.356,14.38l.01,54.052A14.4,14.4,0,0,1,605.989,331.1l-511.552.4a14.4,14.4,0,0,1-14.356-14.379l-.011-54.052A14.4,14.4,0,0,1,94.45,248.718Z" style="         fill: #f9d039;       "/>
    <path d="M51.235,165.963l511.552-.4a14.4,14.4,0,0,1,14.356,14.38l.01,54.052a14.4,14.4,0,0,1-14.379,14.356l-511.552.4a14.4,14.4,0,0,1-14.357-14.38l-.01-54.052A14.4,14.4,0,0,1,51.235,165.963Z" style="         fill: #f9d039;       "/>
    <path d="M14.256,83.251l511.552-.4a14.4,14.4,0,0,1,14.356,14.38l.01,54.052a14.4,14.4,0,0,1-14.379,14.356l-511.428.335A14.4,14.4,0,0,1,.01,151.591L0,97.539A14.278,14.278,0,0,1,14.256,83.251Z" style="         fill: #f9d039;       "/>
    <path d="M60.629.4,572.18,0a14.4,14.4,0,0,1,14.357,14.38l.01,54.052a14.4,14.4,0,0,1-14.38,14.356l-511.551.4A14.4,14.4,0,0,1,46.259,68.812l-.01-54.052A14.4,14.4,0,0,1,60.629.4Z" style="         fill: #f9d039;       "/>
    <rect x="118.507" y="248.689" width="12.3" height="82.8" style="         fill: #fff194;       "/>
    <rect x="184.027" y="248.681" width="12.3" height="82.8" style="         fill: #fff194;       "/>
    <rect x="249.55" y="248.576" width="12.3" height="82.8" style="         fill: #fff194;       "/>
    <rect x="315.073" y="248.468" width="12.3" height="82.8" style="         fill: #fff194;       "/>
    <rect x="380.593" y="248.465" width="12.3" height="82.8" style="         fill: #fff194;       "/>
    <rect x="446.113" y="248.457" width="12.3" height="82.8" style="         fill: #fff194;       "/>
    <rect x="75.288" y="165.943" width="12.3" height="82.8" style="         fill: #fff194;       "/>
    <rect x="140.813" y="165.834" width="12.3" height="82.8" style="         fill: #fff194;       "/>
    <rect x="206.334" y="165.832" width="12.3" height="82.8" style="         fill: #fff194;       "/>
    <rect x="271.854" y="165.824" width="12.3" height="82.8" style="         fill: #fff194;       "/>
    <rect x="38.323" y="83.243" width="12.3" height="82.8" style="         fill: #fff194;       "/>
    <rect x="103.846" y="83.135" width="12.3" height="82.8" style="         fill: #fff194;       "/>
    <rect x="169.465" y="83.129" width="12.3" height="82.8" style="         fill: #fff194;       "/>
    <rect x="234.986" y="83.021" width="12.3" height="82.8" style="         fill: #fff194;       "/>
    <rect x="84.683" y="0.377" width="12.3" height="82.8" style="         fill: #fff194;       "/>
    <rect x="150.206" y="0.271" width="12.3" height="82.8" style="         fill: #fff194;       "/>
    <rect x="215.726" y="0.266" width="12.3" height="82.8" style="         fill: #fff194;       "/>
    <rect x="511.736" y="248.348" width="12.3" height="82.8" style="         fill: #fff194;       "/>
    <rect x="577.256" y="248.343" width="12.3" height="82.8" style="         fill: #fff194;       "/>
    <rect x="337.476" y="165.718" width="12.3" height="82.8" style="         fill: #fff194;       "/>
    <rect x="402.996" y="165.71" width="12.3" height="82.8" style="         fill: #fff194;       "/>
    <rect x="468.516" y="165.605" width="12.3" height="82.8" style="         fill: #fff194;       "/>
    <rect x="534.036" y="165.597" width="12.3" height="82.8" style="         fill: #fff194;       "/>
    <rect x="300.508" y="83.016" width="12.3" height="82.8" style="         fill: #fff194;       "/>
    <rect x="366.029" y="82.91" width="12.3" height="82.8" style="         fill: #fff194;       "/>
    <rect x="431.548" y="82.905" width="12.3" height="82.8" style="         fill: #fff194;       "/>
    <rect x="497.068" y="82.797" width="12.3" height="82.8" style="         fill: #fff194;       "/>
    <rect x="281.249" y="0.161" width="12.3" height="82.8" style="         fill: #fff194;       "/>
    <rect x="346.772" y="0.152" width="12.3" height="82.8" style="         fill: #fff194;       "/>
    <rect x="412.392" y="0.047" width="12.3" height="82.8" style="         fill: #fff194;       "/>
    <rect x="477.912" y="0.039" width="12.3" height="82.8" style="         fill: #fff194;       "/>
    <rect x="543.432" y="0.037" width="12.3" height="82.8" style="         fill: #fff194;       "/>
  </g>
</g></g></g><!--ITEM 8--><g><defs><clipPath id="clip-path-id-viewbox-item-8"><rect x="0.0" y="0.0" width="620.368" height="331.506"/></clipPath></defs><g transform="translate(238.0 525.0) rotate(0.0 71.0 38.0) scale(0.22889639697727798 0.22925678569920305)"><g clip-path="url(#clip-path-id-viewbox-item-8)" transform="translate(-0.0 -0.0)"><g>
    <path d="M94.45,248.718l511.552-.4a14.4,14.4,0,0,1,14.356,14.38l.01,54.052A14.4,14.4,0,0,1,605.989,331.1l-511.552.4a14.4,14.4,0,0,1-14.356-14.379l-.011-54.052A14.4,14.4,0,0,1,94.45,248.718Z" style="         fill: #f9d039;       "/>
    <path d="M51.235,165.963l511.552-.4a14.4,14.4,0,0,1,14.356,14.38l.01,54.052a14.4,14.4,0,0,1-14.379,14.356l-511.552.4a14.4,14.4,0,0,1-14.357-14.38l-.01-54.052A14.4,14.4,0,0,1,51.235,165.963Z" style="         fill: #f9d039;       "/>
    <path d="M14.256,83.251l511.552-.4a14.4,14.4,0,0,1,14.356,14.38l.01,54.052a14.4,14.4,0,0,1-14.379,14.356l-511.428.335A14.4,14.4,0,0,1,.01,151.591L0,97.539A14.278,14.278,0,0,1,14.256,83.251Z" style="         fill: #f9d039;       "/>
    <path d="M60.629.4,572.18,0a14.4,14.4,0,0,1,14.357,14.38l.01,54.052a14.4,14.4,0,0,1-14.38,14.356l-511.551.4A14.4,14.4,0,0,1,46.259,68.812l-.01-54.052A14.4,14.4,0,0,1,60.629.4Z" style="         fill: #f9d039;       "/>
    <rect x="118.507" y="248.689" width="12.3" height="82.8" style="         fill: #fff194;       "/>
    <rect x="184.027" y="248.681" width="12.3" height="82.8" style="         fill: #fff194;       "/>
    <rect x="249.55" y="248.576" width="12.3" height="82.8" style="         fill: #fff194;       "/>
    <rect x="315.073" y="248.468" width="12.3" height="82.8" style="         fill: #fff194;       "/>
    <rect x="380.593" y="248.465" width="12.3" height="82.8" style="         fill: #fff194;       "/>
    <rect x="446.113" y="248.457" width="12.3" height="82.8" style="         fill: #fff194;       "/>
    <rect x="75.288" y="165.943" width="12.3" height="82.8" style="         fill: #fff194;       "/>
    <rect x="140.813" y="165.834" width="12.3" height="82.8" style="         fill: #fff194;       "/>
    <rect x="206.334" y="165.832" width="12.3" height="82.8" style="         fill: #fff194;       "/>
    <rect x="271.854" y="165.824" width="12.3" height="82.8" style="         fill: #fff194;       "/>
    <rect x="38.323" y="83.243" width="12.3" height="82.8" style="         fill: #fff194;       "/>
    <rect x="103.846" y="83.135" width="12.3" height="82.8" style="         fill: #fff194;       "/>
    <rect x="169.465" y="83.129" width="12.3" height="82.8" style="         fill: #fff194;       "/>
    <rect x="234.986" y="83.021" width="12.3" height="82.8" style="         fill: #fff194;       "/>
    <rect x="84.683" y="0.377" width="12.3" height="82.8" style="         fill: #fff194;       "/>
    <rect x="150.206" y="0.271" width="12.3" height="82.8" style="         fill: #fff194;       "/>
    <rect x="215.726" y="0.266" width="12.3" height="82.8" style="         fill: #fff194;       "/>
    <rect x="511.736" y="248.348" width="12.3" height="82.8" style="         fill: #fff194;       "/>
    <rect x="577.256" y="248.343" width="12.3" height="82.8" style="         fill: #fff194;       "/>
    <rect x="337.476" y="165.718" width="12.3" height="82.8" style="         fill: #fff194;       "/>
    <rect x="402.996" y="165.71" width="12.3" height="82.8" style="         fill: #fff194;       "/>
    <rect x="468.516" y="165.605" width="12.3" height="82.8" style="         fill: #fff194;       "/>
    <rect x="534.036" y="165.597" width="12.3" height="82.8" style="         fill: #fff194;       "/>
    <rect x="300.508" y="83.016" width="12.3" height="82.8" style="         fill: #fff194;       "/>
    <rect x="366.029" y="82.91" width="12.3" height="82.8" style="         fill: #fff194;       "/>
    <rect x="431.548" y="82.905" width="12.3" height="82.8" style="         fill: #fff194;       "/>
    <rect x="497.068" y="82.797" width="12.3" height="82.8" style="         fill: #fff194;       "/>
    <rect x="281.249" y="0.161" width="12.3" height="82.8" style="         fill: #fff194;       "/>
    <rect x="346.772" y="0.152" width="12.3" height="82.8" style="         fill: #fff194;       "/>
    <rect x="412.392" y="0.047" width="12.3" height="82.8" style="         fill: #fff194;       "/>
    <rect x="477.912" y="0.039" width="12.3" height="82.8" style="         fill: #fff194;       "/>
    <rect x="543.432" y="0.037" width="12.3" height="82.8" style="         fill: #fff194;       "/>
  </g>
</g></g></g><!--ITEM 9--><g><defs><clipPath id="clip-path-id-viewbox-item-9"><rect x="0.0" y="0.0" width="620.368" height="331.506"/></clipPath></defs><g transform="translate(371.0 470.0) rotate(0.0 -53.5 29.0) scale(-0.17247827096175172 0.17495912592833918)"><g clip-path="url(#clip-path-id-viewbox-item-9)" transform="translate(-0.0 -0.0)"><g>
    <path d="M94.45,248.718l511.552-.4a14.4,14.4,0,0,1,14.356,14.38l.01,54.052A14.4,14.4,0,0,1,605.989,331.1l-511.552.4a14.4,14.4,0,0,1-14.356-14.379l-.011-54.052A14.4,14.4,0,0,1,94.45,248.718Z" style="         fill: #f9d039;       "/>
    <path d="M51.235,165.963l511.552-.4a14.4,14.4,0,0,1,14.356,14.38l.01,54.052a14.4,14.4,0,0,1-14.379,14.356l-511.552.4a14.4,14.4,0,0,1-14.357-14.38l-.01-54.052A14.4,14.4,0,0,1,51.235,165.963Z" style="         fill: #f9d039;       "/>
    <path d="M14.256,83.251l511.552-.4a14.4,14.4,0,0,1,14.356,14.38l.01,54.052a14.4,14.4,0,0,1-14.379,14.356l-511.428.335A14.4,14.4,0,0,1,.01,151.591L0,97.539A14.278,14.278,0,0,1,14.256,83.251Z" style="         fill: #f9d039;       "/>
    <path d="M60.629.4,572.18,0a14.4,14.4,0,0,1,14.357,14.38l.01,54.052a14.4,14.4,0,0,1-14.38,14.356l-511.551.4A14.4,14.4,0,0,1,46.259,68.812l-.01-54.052A14.4,14.4,0,0,1,60.629.4Z" style="         fill: #f9d039;       "/>
    <rect x="118.507" y="248.689" width="12.3" height="82.8" style="         fill: #fff194;       "/>
    <rect x="184.027" y="248.681" width="12.3" height="82.8" style="         fill: #fff194;       "/>
    <rect x="249.55" y="248.576" width="12.3" height="82.8" style="         fill: #fff194;       "/>
    <rect x="315.073" y="248.468" width="12.3" height="82.8" style="         fill: #fff194;       "/>
    <rect x="380.593" y="248.465" width="12.3" height="82.8" style="         fill: #fff194;       "/>
    <rect x="446.113" y="248.457" width="12.3" height="82.8" style="         fill: #fff194;       "/>
    <rect x="75.288" y="165.943" width="12.3" height="82.8" style="         fill: #fff194;       "/>
    <rect x="140.813" y="165.834" width="12.3" height="82.8" style="         fill: #fff194;       "/>
    <rect x="206.334" y="165.832" width="12.3" height="82.8" style="         fill: #fff194;       "/>
    <rect x="271.854" y="165.824" width="12.3" height="82.8" style="         fill: #fff194;       "/>
    <rect x="38.323" y="83.243" width="12.3" height="82.8" style="         fill: #fff194;       "/>
    <rect x="103.846" y="83.135" width="12.3" height="82.8" style="         fill: #fff194;       "/>
    <rect x="169.465" y="83.129" width="12.3" height="82.8" style="         fill: #fff194;       "/>
    <rect x="234.986" y="83.021" width="12.3" height="82.8" style="         fill: #fff194;       "/>
    <rect x="84.683" y="0.377" width="12.3" height="82.8" style="         fill: #fff194;       "/>
    <rect x="150.206" y="0.271" width="12.3" height="82.8" style="         fill: #fff194;       "/>
    <rect x="215.726" y="0.266" width="12.3" height="82.8" style="         fill: #fff194;       "/>
    <rect x="511.736" y="248.348" width="12.3" height="82.8" style="         fill: #fff194;       "/>
    <rect x="577.256" y="248.343" width="12.3" height="82.8" style="         fill: #fff194;       "/>
    <rect x="337.476" y="165.718" width="12.3" height="82.8" style="         fill: #fff194;       "/>
    <rect x="402.996" y="165.71" width="12.3" height="82.8" style="         fill: #fff194;       "/>
    <rect x="468.516" y="165.605" width="12.3" height="82.8" style="         fill: #fff194;       "/>
    <rect x="534.036" y="165.597" width="12.3" height="82.8" style="         fill: #fff194;       "/>
    <rect x="300.508" y="83.016" width="12.3" height="82.8" style="         fill: #fff194;       "/>
    <rect x="366.029" y="82.91" width="12.3" height="82.8" style="         fill: #fff194;       "/>
    <rect x="431.548" y="82.905" width="12.3" height="82.8" style="         fill: #fff194;       "/>
    <rect x="497.068" y="82.797" width="12.3" height="82.8" style="         fill: #fff194;       "/>
    <rect x="281.249" y="0.161" width="12.3" height="82.8" style="         fill: #fff194;       "/>
    <rect x="346.772" y="0.152" width="12.3" height="82.8" style="         fill: #fff194;       "/>
    <rect x="412.392" y="0.047" width="12.3" height="82.8" style="         fill: #fff194;       "/>
    <rect x="477.912" y="0.039" width="12.3" height="82.8" style="         fill: #fff194;       "/>
    <rect x="543.432" y="0.037" width="12.3" height="82.8" style="         fill: #fff194;       "/>
  </g>
</g></g></g><!--ITEM 10--><g><defs><clipPath id="clip-path-id-viewbox-item-10"><rect x="0.0" y="0.0" width="586.631" height="545.481"/></clipPath></defs><g transform="translate(127.0 625.0) rotate(0.0 96.0 88.5) scale(0.32729262517664426 0.3244842625132681)"><g clip-path="url(#clip-path-id-viewbox-item-10)" transform="translate(-0.0 -0.0)"><g>
    <circle cx="322.463" cy="264.169" r="264.1" transform="translate(-92.348 305.389) rotate(-45)" style="         fill: #7d5252;       "/>
    <path d="M317.966,44.581l96-28c-5.8-2.2-11.8-4.1-17.8-5.9l-81.2,23.7Z" style="         fill: #ad8172;       "/>
    <path d="M471.366,46.281l-127.6,37.2,3,10.2,135.6-39.5C478.766,51.381,475.066,48.781,471.366,46.281Z" style="         fill: #ad8172;       "/>
    <path d="M520.366,89.381l-120.6,35.2,3,10.2,125.1-36.5C525.466,95.281,522.966,92.281,520.366,89.381Z" style="         fill: #ad8172;       "/>
    <path d="M553.866,137.081l-98.1,28.6,3,10.2,100.1-29.2C557.266,143.481,555.666,140.281,553.866,137.081Z" style="         fill: #ad8172;       "/>
    <path d="M488.566,224.681l89.6-26.1c-.7-2.7-1.4-5.4-2.2-8.2l-.6-2.1-89.8,26.2Z" style="         fill: #ad8172;       "/>
    <path d="M392.166,299.181l3,10.2,191.2-55.7c-.1-3.6-.4-7.2-.7-10.9Z" style="         fill: #ad8172;       "/>
    <path d="M407.666,352.181l3,10.2,171.5-50c.7-3.9,1.3-7.7,1.9-11.6Z" style="         fill: #ad8172;       "/>
    <path d="M423.066,405.081l3,10.2,135.8-39.6c1.9-4.2,3.8-8.4,5.5-12.7Z" style="         fill: #ad8172;       "/>
    <path d="M438.566,458.081l3,10.2,71.2-20.8c4.6-4.8,9.1-9.8,13.3-14.9Z" style="         fill: #ad8172;       "/>
    <circle cx="264.169" cy="281.184" r="264.1" style="         fill: #f9d039;       "/>
    <path d="M190.266,27.781a268.237,268.237,0,0,0-66.9,30l-98,336.5a263.4,263.4,0,0,0,123.5,124.6l145.5-500.1A265.483,265.483,0,0,0,190.266,27.781Z" style="         fill: #fff194;       "/>
    <path d="M292.166,543.981l136.6-469.3a262.906,262.906,0,0,0-73-41.1l-147.3,505.9A261.356,261.356,0,0,0,292.166,543.981Z" style="         fill: #fff194;       "/>
    <circle cx="264.169" cy="281.184" r="172.3" transform="translate(-121.454 269.152) rotate(-45)" style="         fill: #ff953f;       "/>
    <path d="M329.966,122.081l-95.7,328.9a172.424,172.424,0,0,0,78.2-4.3c3-.9,6-1.8,8.9-2.9l78.3-269A174.062,174.062,0,0,0,329.966,122.081Z" style="         fill: #ffb578;       "/>
    <path d="M215.966,115.981c-91.3,26.6-143.8,122.2-117.2,213.6a172.308,172.308,0,0,0,76.4,99.3l93.1-319.7A168.269,168.269,0,0,0,215.966,115.981Z" style="         fill: #ffb578;       "/>
  </g>
</g></g></g><!--ITEM 11--><g><defs><clipPath id="clip-path-id-viewbox-item-11"><rect x="0.0" y="0.0" width="586.631" height="545.481"/></clipPath></defs><g transform="translate(235.0 698.0) rotate(0.0 61.0 56.0) scale(0.20796718891432606 0.20532337514963858)"><g clip-path="url(#clip-path-id-viewbox-item-11)" transform="translate(-0.0 -0.0)"><g>
    <circle cx="322.463" cy="264.169" r="264.1" transform="translate(-92.348 305.389) rotate(-45)" style="         fill: #7d5252;       "/>
    <path d="M317.966,44.581l96-28c-5.8-2.2-11.8-4.1-17.8-5.9l-81.2,23.7Z" style="         fill: #ad8172;       "/>
    <path d="M471.366,46.281l-127.6,37.2,3,10.2,135.6-39.5C478.766,51.381,475.066,48.781,471.366,46.281Z" style="         fill: #ad8172;       "/>
    <path d="M520.366,89.381l-120.6,35.2,3,10.2,125.1-36.5C525.466,95.281,522.966,92.281,520.366,89.381Z" style="         fill: #ad8172;       "/>
    <path d="M553.866,137.081l-98.1,28.6,3,10.2,100.1-29.2C557.266,143.481,555.666,140.281,553.866,137.081Z" style="         fill: #ad8172;       "/>
    <path d="M488.566,224.681l89.6-26.1c-.7-2.7-1.4-5.4-2.2-8.2l-.6-2.1-89.8,26.2Z" style="         fill: #ad8172;       "/>
    <path d="M392.166,299.181l3,10.2,191.2-55.7c-.1-3.6-.4-7.2-.7-10.9Z" style="         fill: #ad8172;       "/>
    <path d="M407.666,352.181l3,10.2,171.5-50c.7-3.9,1.3-7.7,1.9-11.6Z" style="         fill: #ad8172;       "/>
    <path d="M423.066,405.081l3,10.2,135.8-39.6c1.9-4.2,3.8-8.4,5.5-12.7Z" style="         fill: #ad8172;       "/>
    <path d="M438.566,458.081l3,10.2,71.2-20.8c4.6-4.8,9.1-9.8,13.3-14.9Z" style="         fill: #ad8172;       "/>
    <circle cx="264.169" cy="281.184" r="264.1" style="         fill: #f9d039;       "/>
    <path d="M190.266,27.781a268.237,268.237,0,0,0-66.9,30l-98,336.5a263.4,263.4,0,0,0,123.5,124.6l145.5-500.1A265.483,265.483,0,0,0,190.266,27.781Z" style="         fill: #fff194;       "/>
    <path d="M292.166,543.981l136.6-469.3a262.906,262.906,0,0,0-73-41.1l-147.3,505.9A261.356,261.356,0,0,0,292.166,543.981Z" style="         fill: #fff194;       "/>
    <circle cx="264.169" cy="281.184" r="172.3" transform="translate(-121.454 269.152) rotate(-45)" style="         fill: #ff953f;       "/>
    <path d="M329.966,122.081l-95.7,328.9a172.424,172.424,0,0,0,78.2-4.3c3-.9,6-1.8,8.9-2.9l78.3-269A174.062,174.062,0,0,0,329.966,122.081Z" style="         fill: #ffb578;       "/>
    <path d="M215.966,115.981c-91.3,26.6-143.8,122.2-117.2,213.6a172.308,172.308,0,0,0,76.4,99.3l93.1-319.7A168.269,168.269,0,0,0,215.966,115.981Z" style="         fill: #ffb578;       "/>
  </g>
</g></g></g></svg>