<?xml version="1.0" encoding="iso-8859-1"?>
<!-- Generator: Adobe Illustrator 19.0.0, SVG Export Plug-In . SVG Version: 6.00 Build 0)  -->
<svg version="1.1" id="Layer_1" xmlns="http://www.w3.org/2000/svg" xmlns:xlink="http://www.w3.org/1999/xlink" x="0px" y="0px"
	 viewBox="0 0 512 512" style="enable-background:new 0 0 512 512;" xml:space="preserve">
<g>
	<g>
		<path d="M262.638,469.808l-6.608-5.671c-4.274-3.67-10.713-3.179-14.383,1.093c-3.67,4.273-3.18,10.713,1.093,14.383l6.622,5.682
			c1.924,1.648,4.284,2.455,6.633,2.455c2.874,0,5.731-1.209,7.748-3.562C267.41,479.913,266.914,473.475,262.638,469.808z"/>
	</g>
</g>
<g>
	<g>
		<path d="M364.572,24.249c-41.758,0-80.677,17.235-108.572,47.685c-27.895-30.45-66.813-47.685-108.572-47.685
			C66.137,24.249,0,90.386,0,171.679c0,73.278,76.407,159.304,140.504,218.569c10.698,9.891,31.734,28.434,62.522,55.111
			c1.93,1.673,4.307,2.491,6.674,2.491c2.856,0,5.695-1.192,7.713-3.52c3.689-4.257,3.228-10.699-1.029-14.387
			c-30.623-26.534-51.494-44.93-62.032-54.673C104.326,329.015,20.398,241.059,20.398,171.679
			c0-70.045,56.986-127.031,127.03-127.031c39.595,0,76.229,17.986,100.506,49.347c1.932,2.496,4.909,3.956,8.065,3.956
			c3.156,0,6.134-1.461,8.064-3.956c24.278-31.361,60.911-49.347,100.506-49.347c70.046,0,127.032,56.986,127.032,127.031
			c0,27.659-16.011,63.851-47.587,107.568c-30.171,41.773-67.469,80.036-87.016,99.125c-8.698,8.495-20.17,13.628-32.302,14.456
			l-2.868,0.195c-14.428,0.989-28.162-3.934-38.687-13.847c-8.131-7.658-13.363-17.414-15.235-28.104l19.137-19.137
			c18.088-18.089,26.821-38.474,26.694-62.319c-0.101-19.009-5.897-40.145-18.242-66.521c-9.179-19.61-5.919-45.811-5.886-46.057
			c0.575-4.332-1.672-8.548-5.588-10.485c-3.917-1.94-8.633-1.167-11.725,1.921l-45.424,45.306
			c-38.089,38.09-38.089,100.065,0,138.155l20.626,20.626c2.345,15.727,9.939,30.426,21.658,41.464
			c14.493,13.652,34.197,20.706,54.06,19.349l2.867-0.195c16.964-1.157,33.005-8.335,45.167-20.213
			c24.451-23.878,59.791-60.919,89.3-101.775C494.69,243.925,512,203.714,512,171.679C512,90.386,445.863,24.249,364.572,24.249z
			 M256.959,263.262c-5.633,0-10.199,4.567-10.199,10.199v49.511l-5.462-5.462c-30.138-30.135-30.138-79.17-0.01-109.298
			l27.861-27.789c0.887,9.801,3.067,21.053,7.873,31.319c22.955,49.043,21.679,79.686-4.402,105.768l-5.462,5.462v-49.511
			C267.158,267.83,262.592,263.262,256.959,263.262z"/>
	</g>
</g>
<g>
</g>
<g>
</g>
<g>
</g>
<g>
</g>
<g>
</g>
<g>
</g>
<g>
</g>
<g>
</g>
<g>
</g>
<g>
</g>
<g>
</g>
<g>
</g>
<g>
</g>
<g>
</g>
<g>
</g>
</svg>
