<svg width="762" height="991" viewBox="0 0 762 991" fill="none" xmlns="http://www.w3.org/2000/svg">
<g id="HQ">
<g id="Group">
<path id="Vector" d="M555.369 990.798C487.077 990.798 418.95 964.674 367.143 912.918L155.587 701.352L0 857.001V360.753H144.579V433.375H72.618V681.745L155.641 598.718L418.512 861.601C481.765 924.858 578.534 935.428 653.014 891.888L257.777 496.631L374.645 379.757C393.156 361.246 398.194 335.779 388.172 311.627C378.15 287.474 356.573 273.07 330.45 273.07H236.748C106.189 273.07 0 166.876 0 36.3108V0H360.187C495.511 0 611.777 77.6602 663.584 202.694C715.391 327.728 688.119 464.866 592.39 560.6L571.47 581.521L520.1 530.204L541.02 509.282C615.555 434.744 636.804 327.893 596.497 230.516C556.136 133.14 465.61 72.6216 360.187 72.6216H76.6706C93.2095 145.572 158.708 200.339 236.748 200.339H330.45C386.146 200.339 433.955 232.323 455.259 283.75C476.562 335.177 465.336 391.587 425.96 430.965L360.407 496.522L761.339 897.474L732.752 923.05C682.149 968.343 618.677 990.798 555.369 990.798Z" fill="white"/>
</g>
<path id="Vector_2" d="M520.155 530.094L457.011 593.186L508.381 644.503L571.469 581.411L520.155 530.094Z" fill="url(#paint0_linear_43:5)"/>
<path id="Vector_3" d="M321.14 433.156L374.645 379.648C380.34 373.952 384.612 367.49 387.734 360.698H144.578V433.32L321.14 433.156Z" fill="url(#paint1_linear_43:5)"/>
</g>
<defs>
<linearGradient id="paint0_linear_43:5" x1="484.679" y1="616.869" x2="540.225" y2="561.327" gradientUnits="userSpaceOnUse">
<stop offset="2.6e-07" stop-color="white" stop-opacity="0"/>
<stop offset="0.8005" stop-color="white"/>
</linearGradient>
<linearGradient id="paint1_linear_43:5" x1="326.49" y1="397.026" x2="152.877" y2="397.026" gradientUnits="userSpaceOnUse">
<stop offset="2.6e-07" stop-color="white" stop-opacity="0"/>
<stop offset="1" stop-color="white"/>
</linearGradient>
</defs>
</svg>
