<svg width="57" height="74" viewBox="0 0 57 74" fill="none" xmlns="http://www.w3.org/2000/svg">
<path d="M41.0177 73.1734C35.9739 73.1734 30.9423 71.2441 27.1159 67.4218L11.4911 51.797L0 63.2921V26.6427H10.6781V32.006H5.36333V50.3489L11.4952 44.2171L30.9099 63.6319C35.5816 68.3036 42.7286 69.0842 48.2295 65.8686L19.0386 36.6777L27.6701 28.0462C29.0372 26.6791 29.4093 24.7983 28.6691 23.0146C27.9289 21.2308 26.3353 20.1671 24.406 20.1671H17.4854C7.84275 20.1671 0 12.3243 0 2.68166V0H26.6023C36.5968 0 45.1838 5.73544 49.0101 14.9696C52.8365 24.2037 50.8222 34.3318 43.752 41.402L42.2069 42.9471L38.4129 39.1571L39.958 37.6121C45.4629 32.1072 47.0323 24.2159 44.0553 17.0243C41.0744 9.83277 34.3884 5.36333 26.6023 5.36333H5.66264C6.88415 10.7509 11.7217 14.7957 17.4854 14.7957H24.406C28.5195 14.7957 32.0505 17.1578 33.6239 20.9558C35.1973 24.7538 34.3682 28.9199 31.46 31.8281L26.6184 36.6696L56.23 66.2812L54.1186 68.1701C50.3813 71.5151 45.6934 73.1734 41.0177 73.1734Z" fill="black"/>
<path d="M38.417 39.149L33.7534 43.8086L37.5473 47.5985L42.2069 42.939L38.417 39.149Z" fill="url(#paint0_linear_10_24)"/>
<path d="M23.7184 31.9899L27.6701 28.0382C28.0907 27.6175 28.4062 27.1402 28.6368 26.6387H10.6781V32.002L23.7184 31.9899Z" fill="url(#paint1_linear_10_24)"/>
<defs>
<linearGradient id="paint0_linear_10_24" x1="35.7969" y1="45.5577" x2="39.899" y2="41.4555" gradientUnits="userSpaceOnUse">
<stop offset="2.6e-07"/>
<stop offset="1"/>
</linearGradient>
<linearGradient id="paint1_linear_10_24" x1="24.1135" y1="29.3216" x2="11.2911" y2="29.3216" gradientUnits="userSpaceOnUse">
<stop/>
<stop offset="0.494792"/>
<stop offset="1"/>
</linearGradient>
</defs>
</svg>
